<svg width="390" height="205" viewBox="0 0 390 205" fill="none" xmlns="http://www.w3.org/2000/svg">
<rect width="390" height="205" fill="#F2F4F6"/>
<g clip-path="url(#clip0_2_459)">
<g clip-path="url(#clip1_2_459)">
<path d="M191.624 55.8461C189.955 55.7848 190.299 55.5639 188.299 55.6743C187.317 55.7357 186.139 55.4412 184.925 55.6007C183.869 55.748 182.9 56.6314 181.771 56.9013C180.642 57.1712 179.428 56.8277 178.385 57.2203C177.342 57.613 176.581 58.6314 175.636 59.1958C174.692 59.7602 173.624 60.2019 172.888 61.0117C172.152 61.8215 171.501 62.7295 171.072 63.7969C170.692 64.754 170.667 65.8337 170.373 66.8153C170.078 67.7969 169.87 68.803 169.661 69.7969C169.452 70.7907 168.679 71.76 168.569 72.7661C168.458 73.7723 168.949 74.8888 168.949 75.8827C168.949 76.9624 168.876 77.9685 169.023 78.9501C169.195 80.0176 169.109 81.1219 169.489 82.0298C169.894 83.0237 170.569 83.8826 171.244 84.6188C171.919 85.3549 172.655 86.3242 173.636 86.7537C175.158 87.3672 174.888 87.0359 176.826 87.6248C177.722 87.8948 178.826 88.0788 180.017 88.3856C180.998 88.631 182.176 88.3856 183.305 88.631C184.323 88.8396 185.305 89.588 186.421 89.7598C187.477 89.9193 188.63 89.4899 189.734 89.6003C190.839 89.7107 191.857 90.1647 192.961 90.1892C194.066 90.2138 195.133 90.1524 196.237 90.0911C197.342 90.0297 198.397 89.7843 199.464 89.6248C200.532 89.4653 201.611 89.3181 202.667 89.0236C203.722 88.7291 204.875 88.6923 205.869 88.2506C206.863 87.8089 207.734 87.1586 208.556 86.6678C209.538 86.0911 210.262 85.3549 210.973 84.7414C211.844 84.0053 212.286 83.1218 212.826 82.3488C213.464 81.4409 214.335 80.7906 214.605 79.8458C214.9 78.8397 214.985 77.7968 214.998 76.7661C215.01 75.7354 214.519 74.7661 214.372 73.7355C214.225 72.7048 214.102 71.6987 213.918 70.6803C213.734 69.6619 213.44 68.6312 213.317 67.6251C213.194 66.5208 213.047 65.4902 212.446 64.5086C211.894 63.6006 211.415 62.5086 210.532 61.7233C209.734 61.0117 208.851 60.2264 207.844 59.6129C206.912 59.0485 205.624 59.0976 204.568 58.6314C203.513 58.1651 202.716 57.2326 201.636 56.889C200.556 56.5455 199.329 56.84 198.237 56.5946C197.145 56.3492 196.078 55.9811 194.973 55.8461C193.869 55.7111 192.716 55.8584 191.624 55.8461Z" fill="#1B7BE8"/>
<path d="M198.926 56.8641C198.288 56.0789 199.012 56.0543 199.441 54.8887C199.637 54.3366 200.165 53.809 200.435 53.0973C200.656 52.5084 200.791 51.8335 201.048 51.171C201.282 50.5697 201.392 49.8704 201.662 49.2323C201.932 48.5943 202.153 47.9808 202.423 47.3551C202.693 46.7293 203.208 46.2262 203.49 45.6128C203.772 44.9993 203.993 44.3367 204.3 43.76C204.631 43.122 204.864 42.4717 205.196 41.9441C205.588 41.2938 206.055 40.7785 206.423 40.3245C206.999 39.6251 207.539 39.0362 208.018 38.9993C208.496 38.9625 208.84 39.711 209.232 40.668C209.453 41.2079 209.588 41.8705 209.785 42.6312C209.944 43.2447 210.288 43.8704 210.435 44.5944C210.558 45.2324 210.791 45.9072 210.901 46.6066C210.999 47.2692 211.036 47.9563 211.134 48.6557C211.232 49.355 210.962 50.0544 211.036 50.7415C211.11 51.4286 211.539 52.0667 211.613 52.7538C211.686 53.4409 211.441 54.1648 211.502 54.8396C211.564 55.5145 211.613 56.2261 211.674 56.901C211.735 57.6126 211.956 58.2874 212.005 58.95C212.054 59.6862 212.226 60.361 212.275 60.9991C212.324 61.7721 212.251 62.4714 212.275 63.0604C212.349 64.3487 213.441 65.0604 212.423 64.9008C211.404 64.7413 211.576 64.5573 210.729 64.042C209.883 63.5266 209.956 63.4285 209.11 62.9131C208.263 62.3978 208.079 62.7046 207.245 62.1892C206.41 61.6739 206.423 61.6494 205.576 61.134C204.729 60.6187 204.877 60.3978 204.03 59.8825C203.183 59.3672 203.269 59.2322 202.423 58.7169C201.576 58.2015 201.539 58.2261 200.644 57.8089C199.748 57.3917 199.527 57.6126 198.914 56.8519L198.926 56.8641Z" fill="#1B7BE8"/>
<path d="M184.814 56.9616C185.452 56.1763 184.581 56.0659 184.152 54.9002C183.956 54.3481 183.575 53.7591 183.305 53.0598C183.084 52.4708 183.035 51.7592 182.778 51.0966C182.545 50.4954 182.066 49.9432 181.808 49.3052C181.551 48.6672 181.44 47.9923 181.17 47.3789C180.9 46.7654 180.324 46.2746 180.041 45.6734C179.759 45.0721 179.587 44.3728 179.281 43.7961C178.949 43.1581 178.814 42.4587 178.495 41.9188C178.103 41.2685 177.465 40.8759 177.097 40.4219C176.52 39.7225 176.066 39.2808 175.588 39.244C175.109 39.2072 174.802 39.7348 174.41 40.6796C174.189 41.2194 173.87 41.8329 173.686 42.5936C173.526 43.2071 173.477 43.9065 173.342 44.6304C173.219 45.2685 172.851 45.9188 172.741 46.6181C172.643 47.2807 172.839 48.0046 172.741 48.704C172.643 49.4034 172.459 50.0414 172.385 50.7408C172.312 51.4402 172.054 52.0905 171.992 52.7776C171.931 53.4647 172.127 54.1886 172.066 54.8634C172.005 55.5383 171.649 56.2254 171.588 56.9002C171.526 57.6119 171.71 58.3235 171.661 58.9861C171.612 59.7223 171.71 60.4216 171.661 61.0597C171.612 61.8327 171.526 62.5198 171.489 63.1087C171.416 64.397 170.226 65.44 171.244 65.2805C172.262 65.121 172.029 64.5811 172.864 64.0658C173.698 63.5504 173.821 63.7345 174.655 63.2191C175.489 62.7038 175.538 62.7652 176.373 62.2498C177.207 61.7345 177.207 61.7345 178.054 61.2069C178.9 60.6793 178.765 60.4707 179.6 59.9554C180.434 59.4401 180.508 59.5505 181.354 59.0351C182.201 58.5198 182.14 58.4585 183.06 58.0781C184.029 57.6732 184.176 57.7346 184.802 56.9738L184.814 56.9616Z" fill="#1B7BE8"/>
<path d="M189.613 71.9799C189.613 72.6792 189.699 73.3664 189.527 74.0044C189.343 74.6792 189.159 75.3786 188.816 75.943C188.472 76.5074 187.957 77.0596 187.442 77.5013C186.926 77.943 186.215 78.1148 185.589 78.3602C184.963 78.6055 184.325 78.8755 183.626 78.8755C182.926 78.8755 182.301 78.581 181.675 78.3356C181.049 78.0902 180.534 77.7099 180.006 77.2681C179.479 76.8264 179.086 76.3602 178.73 75.7712C178.374 75.1823 177.933 74.6792 177.748 74.0044C177.564 73.3295 177.589 72.6792 177.589 71.9799C177.589 71.2805 177.748 70.6425 177.92 70.0044C178.104 69.3296 178.092 68.5811 178.448 68.0167C178.804 67.4523 179.282 66.8511 179.785 66.4217C180.288 65.9922 180.988 65.6977 181.613 65.4523C182.239 65.2069 182.939 65.3051 183.626 65.3051C184.313 65.3051 185.049 65.1333 185.675 65.3665C186.301 65.5996 186.902 66.0413 187.417 66.483C187.932 66.9247 188.166 67.5996 188.534 68.1885C188.902 68.7775 189.429 69.256 189.613 69.9308C189.797 70.6056 189.613 71.2805 189.613 71.9799Z" fill="white"/>
<path d="M205.833 71.981C205.833 72.6803 205.563 73.3184 205.379 73.9564C205.195 74.6312 204.95 75.2324 204.594 75.7969C204.238 76.3613 203.882 76.9748 203.379 77.4042C202.876 77.8336 202.213 78.0545 201.575 78.2876C200.937 78.5208 200.336 78.8275 199.637 78.8275C198.937 78.8275 198.312 78.5698 197.686 78.3367C197.06 78.1036 196.336 77.9563 195.809 77.5146C195.281 77.0729 194.925 76.4594 194.557 75.8705C194.189 75.2815 194.103 74.619 193.919 73.9564C193.735 73.2938 193.416 72.6803 193.416 71.981C193.416 71.2816 193.563 70.5945 193.735 69.9564C193.919 69.2816 194.164 68.619 194.508 68.0546C194.852 67.4902 195.404 66.9994 195.907 66.5577C196.41 66.116 196.987 65.6866 197.625 65.4412C198.263 65.1958 198.95 65.2694 199.649 65.2694C200.348 65.2694 201.06 65.1712 201.674 65.4166C202.287 65.662 202.864 66.0915 203.391 66.5454C203.919 66.9994 204.226 67.5761 204.594 68.1651C204.962 68.754 205.416 69.2693 205.6 69.9442C205.784 70.619 205.821 71.2816 205.821 71.981H205.833Z" fill="white"/>
<path d="M188.288 71.9798C188.288 72.6669 188.312 73.3418 188.104 73.943C187.883 74.581 187.601 75.2313 187.184 75.7221C186.766 76.2129 186.165 76.6546 185.576 76.9491C184.987 77.2436 184.3 77.2313 183.613 77.2313C182.926 77.2313 182.263 77.1822 181.675 76.9C181.086 76.6178 180.644 76.1025 180.214 75.5872C179.785 75.0718 179.527 74.532 179.294 73.8817C179.086 73.2804 178.975 72.6669 178.975 71.9798C178.975 71.2927 178.938 70.6302 179.147 70.0289C179.368 69.3909 179.773 68.851 180.19 68.3603C180.607 67.8695 181.159 67.5014 181.748 67.2069C182.337 66.9124 182.926 66.5321 183.613 66.5321C184.3 66.5321 185 66.6916 185.589 66.9738C186.178 67.256 186.681 67.7713 187.122 68.2866C187.564 68.802 187.724 69.4277 187.944 70.078C188.153 70.6792 188.276 71.2927 188.276 71.9921L188.288 71.9798Z" fill="#4E5968"/>
<path d="M204.535 71.9801C204.535 72.6795 204.277 73.3053 204.056 73.9188C203.823 74.5691 203.516 75.1335 203.099 75.6243C202.682 76.115 202.203 76.6304 201.602 76.9126C201.001 77.1948 200.351 77.2316 199.664 77.2316C198.976 77.2316 198.314 77.2193 197.713 76.9249C197.111 76.6304 196.657 76.1396 196.216 75.6243C195.774 75.1089 195.271 74.6304 195.05 73.9924C194.829 73.3789 194.805 72.6795 194.805 71.9801C194.805 71.2808 195.05 70.655 195.271 70.0415C195.504 69.3912 195.676 68.7164 196.093 68.2133C196.51 67.7102 197.111 67.2931 197.7 66.9986C198.289 66.7041 198.964 66.5078 199.651 66.5078C200.338 66.5078 201.001 66.7409 201.59 67.0354C202.179 67.3299 202.768 67.7103 203.209 68.2256C203.651 68.7409 203.835 69.3789 204.056 70.0292C204.277 70.6427 204.522 71.2685 204.522 71.9679L204.535 71.9801Z" fill="#4E5968"/>
<path d="M202.665 70.6903C202.665 70.8721 202.598 71.0348 202.541 71.1943C202.481 71.3633 202.401 71.5101 202.293 71.6376C202.185 71.7652 202.061 71.8992 201.905 71.9726C201.749 72.0459 201.58 72.0555 201.402 72.0555C201.224 72.0555 201.052 72.0523 200.896 71.9758C200.741 71.8992 200.623 71.7716 200.508 71.6376C200.394 71.5037 200.263 71.3793 200.206 71.2134C200.149 71.0539 200.143 70.8721 200.143 70.6903C200.143 70.5084 200.206 70.3458 200.263 70.1863C200.324 70.0172 200.368 69.8418 200.477 69.711C200.585 69.5802 200.741 69.4717 200.893 69.3952C201.046 69.3186 201.221 69.2676 201.399 69.2676C201.577 69.2676 201.749 69.3282 201.902 69.4047C202.054 69.4813 202.207 69.5802 202.321 69.7142C202.436 69.8481 202.484 70.014 202.541 70.1831C202.598 70.3426 202.662 70.5052 202.662 70.6871L202.665 70.6903Z" fill="white"/>
<path d="M186.601 70.6903C186.601 70.8721 186.534 71.0348 186.476 71.1943C186.416 71.3633 186.337 71.5101 186.228 71.6376C186.12 71.7652 185.996 71.8992 185.84 71.9726C185.684 72.0459 185.516 72.0555 185.338 72.0555C185.16 72.0555 184.988 72.0523 184.832 71.9758C184.676 71.8992 184.558 71.7716 184.444 71.6376C184.329 71.5037 184.199 71.3793 184.142 71.2134C184.084 71.0539 184.078 70.8721 184.078 70.6903C184.078 70.5084 184.142 70.3458 184.199 70.1863C184.259 70.0172 184.304 69.8418 184.412 69.711C184.52 69.5802 184.676 69.4717 184.829 69.3952C184.981 69.3186 185.156 69.2676 185.335 69.2676C185.513 69.2676 185.684 69.3282 185.837 69.4047C185.99 69.4813 186.143 69.5802 186.257 69.7142C186.372 69.8481 186.419 70.014 186.476 70.1831C186.534 70.3426 186.597 70.5052 186.597 70.6871L186.601 70.6903Z" fill="white"/>
<path d="M184.473 88.1881C183.552 88.5194 184.338 88.777 184.08 89.9549C183.957 90.5071 183.54 91.096 183.393 91.8077C183.27 92.4089 183.466 93.1205 183.331 93.7954C183.209 94.4089 182.976 95.0346 182.853 95.6972C182.73 96.3598 182.571 96.9732 182.473 97.6235C182.374 98.2738 182.239 98.9119 182.154 99.5622C182.068 100.212 181.933 100.875 181.871 101.513C181.81 102.188 181.871 102.863 181.847 103.489C181.81 104.188 181.749 104.85 181.773 105.452C181.798 106.2 181.945 106.826 182.08 107.366C183.074 107.611 183.098 107.219 184.117 107.219C185.135 107.219 185.135 107.488 186.154 107.488C187.172 107.488 187.172 107.39 188.19 107.39C189.209 107.39 189.209 107.255 190.227 107.255C191.245 107.255 191.245 107.231 192.264 107.231C193.282 107.231 193.282 107.464 194.301 107.464C195.319 107.464 195.319 107.378 196.337 107.378C197.356 107.378 197.356 107.292 198.374 107.292C199.393 107.292 199.393 107.378 200.411 107.378C201.429 107.378 201.429 107.243 202.46 107.243C203.491 107.243 203.577 107.844 204.534 107.488C205.491 107.133 204.595 106.642 204.509 105.427C204.46 104.863 204.227 104.212 204.166 103.476C204.116 102.863 203.945 102.212 203.883 101.525C203.822 100.887 203.81 100.225 203.736 99.5622C203.662 98.8996 203.883 98.2248 203.81 97.5622C203.736 96.8996 203.331 96.2861 203.245 95.6358C203.159 94.9855 203.307 94.2616 203.196 93.6359C203.074 92.961 202.963 92.2985 202.828 91.685C202.669 90.9733 202.362 90.3598 202.178 89.8077C201.932 88.9979 201.626 88.4826 201.331 88.1267C200.411 87.9795 200.411 88.0286 199.479 88.0286C198.546 88.0286 198.534 87.8445 197.601 87.8445C196.669 87.8445 196.669 87.9918 195.724 87.9918C194.779 87.9918 194.779 87.8936 193.847 87.8936C192.914 87.8936 192.902 88.2126 191.969 88.2126C191.037 88.2126 191.037 88.1881 190.092 88.1881C189.147 88.1881 189.147 87.9672 188.215 87.9672C187.282 87.9672 187.282 87.8813 186.338 87.8323C185.393 87.7832 185.393 87.8813 184.497 88.2004L184.473 88.1881Z" fill="#1B7BE8"/>
<mask id="mask0_2_459" style="mask-type:alpha" maskUnits="userSpaceOnUse" x="168" y="55" width="47" height="36">
<path d="M191.624 55.8451C189.955 55.7838 190.299 55.5629 188.299 55.6734C187.317 55.7347 186.139 55.4402 184.925 55.5997C183.869 55.747 182.9 56.6304 181.771 56.9003C180.642 57.1703 179.428 56.8267 178.385 57.2194C177.342 57.612 176.581 58.6304 175.636 59.1948C174.692 59.7592 173.624 60.2009 172.888 61.0107C172.152 61.8205 171.501 62.7285 171.072 63.796C170.692 64.753 170.667 65.8327 170.373 66.8143C170.078 67.7959 169.87 68.802 169.661 69.7959C169.452 70.7897 168.679 71.759 168.569 72.7652C168.458 73.7713 168.949 74.8878 168.949 75.8817C168.949 76.9614 168.876 77.9676 169.023 78.9491C169.195 80.0166 169.109 81.1209 169.489 82.0288C169.894 83.0227 170.569 83.8816 171.244 84.6178C171.919 85.354 172.655 86.3233 173.636 86.7527C175.158 87.3662 174.888 87.0349 176.826 87.6239C177.722 87.8938 178.826 88.0779 180.017 88.3846C180.998 88.63 182.176 88.3846 183.305 88.63C184.323 88.8386 185.305 89.587 186.421 89.7588C187.477 89.9183 188.63 89.4889 189.734 89.5993C190.839 89.7097 191.857 90.1637 192.961 90.1883C194.066 90.2128 195.133 90.1514 196.237 90.0901C197.342 90.0287 198.397 89.7834 199.464 89.6238C200.532 89.4643 201.611 89.3171 202.667 89.0226C203.722 88.7282 204.875 88.6913 205.869 88.2496C206.863 87.8079 207.734 87.1576 208.556 86.6668C209.538 86.0901 210.262 85.354 210.973 84.7405C211.844 84.0043 212.286 83.1209 212.826 82.3479C213.464 81.4399 214.335 80.7896 214.605 79.8448C214.9 78.8387 214.985 77.7958 214.998 76.7651C215.01 75.7345 214.519 74.7651 214.372 73.7345C214.225 72.7038 214.102 71.6977 213.918 70.6793C213.734 69.6609 213.44 68.6302 213.317 67.6241C213.194 66.5198 213.047 65.4892 212.446 64.5076C211.894 63.5996 211.415 62.5076 210.532 61.7224C209.734 61.0107 208.851 60.2254 207.844 59.612C206.912 59.0475 205.624 59.0966 204.568 58.6304C203.513 58.1641 202.716 57.2316 201.636 56.8881C200.556 56.5445 199.329 56.839 198.237 56.5936C197.145 56.3482 196.078 55.9801 194.973 55.8451C193.869 55.7102 192.716 55.8574 191.624 55.8451Z" fill="#267EE2"/>
</mask>
<g mask="url(#mask0_2_459)">
<path fill-rule="evenodd" clip-rule="evenodd" d="M187.529 62.6682C189.486 64.2563 192.893 63.2994 195.14 60.531C197.387 57.7626 197.622 54.231 195.666 52.643C193.709 51.0549 190.302 52.0118 188.055 54.7802C185.808 57.5486 185.572 61.0802 187.529 62.6682ZM188.837 60.7983C189.34 58.9861 191.097 55.9527 194.094 54.4171C194.172 54.3768 194.256 54.4536 194.22 54.5345C193.43 56.3186 191.19 59.6093 188.97 60.9012C188.898 60.9432 188.814 60.8787 188.837 60.7983Z" fill="#FFEFB1"/>
</g>
</g>
</g>
<path d="M224 50.5C224 42.4919 230.492 36 238.5 36V36C246.508 36 253 42.4919 253 50.5V50.5C253 58.5081 246.508 65 238.5 65H224V50.5Z" fill="#5DA9FF"/>
<path d="M239.141 56.4062C239.141 56.7307 239.044 57.0479 238.864 57.3177C238.684 57.5875 238.428 57.7978 238.128 57.922C237.828 58.0462 237.498 58.0787 237.18 58.0154C236.862 57.952 236.569 57.7958 236.34 57.5663C236.11 57.3369 235.954 57.0446 235.891 56.7263C235.828 56.4081 235.86 56.0782 235.984 55.7784C236.108 55.4786 236.319 55.2224 236.589 55.0421C236.858 54.8618 237.176 54.7656 237.5 54.7656C237.935 54.7656 238.352 54.9385 238.66 55.2462C238.968 55.5538 239.141 55.9711 239.141 56.4062ZM237.5 53.125C237.761 53.125 238.011 53.0213 238.196 52.8367C238.381 52.6521 238.484 52.4017 238.484 52.1406V43.9375C238.484 43.6764 238.381 43.426 238.196 43.2414C238.011 43.0568 237.761 42.9531 237.5 42.9531C237.239 42.9531 236.989 43.0568 236.804 43.2414C236.619 43.426 236.516 43.6764 236.516 43.9375V52.1406C236.516 52.4017 236.619 52.6521 236.804 52.8367C236.989 53.0213 237.239 53.125 237.5 53.125Z" fill="white"/>
<path d="M135.085 124.208H140.637V121.872H136.621V117.2H144.733V115.408H136.589V114.016H146.477V118.592H138.349V120.464H146.797V121.872H142.381V124.208H147.981V125.632H135.085V124.208ZM150.397 114.416H160.285V116.016C160.285 117.936 160.285 119.92 159.773 122.896L158.013 122.736C158.541 119.952 158.541 117.888 158.541 116.016V115.824H150.397V114.416ZM149.053 125.344V123.904H161.933V125.344H149.053ZM173.022 113.056H174.782V123.344H173.022V113.056ZM163.262 117.568C163.262 115.472 164.926 113.984 167.07 113.984C169.23 113.984 170.878 115.472 170.878 117.568C170.878 119.632 169.23 121.136 167.07 121.136C164.926 121.136 163.262 119.632 163.262 117.568ZM164.974 117.568C164.974 118.8 165.886 119.6 167.07 119.6C168.254 119.6 169.166 118.8 169.166 117.568C169.166 116.304 168.254 115.504 167.07 115.504C165.886 115.504 164.974 116.304 164.974 117.568ZM165.438 127.008V122.32H167.182V125.6H175.166V127.008H165.438ZM186.958 113.024H188.734V127.312H186.958V113.024ZM177.422 119.104C177.422 116.016 178.974 114.064 181.118 114.064C183.262 114.064 184.814 116.016 184.814 119.104C184.814 122.208 183.262 124.16 181.118 124.16C178.974 124.16 177.422 122.208 177.422 119.104ZM179.118 119.104C179.118 121.296 179.934 122.576 181.118 122.576C182.302 122.576 183.118 121.296 183.118 119.104C183.118 116.928 182.302 115.664 181.118 115.664C179.934 115.664 179.118 116.928 179.118 119.104ZM204.646 113.056H206.422V120.384H204.646V113.056ZM194.87 118.624H196.47V115.312H195.238V113.936H202.902V115.312H201.67V118.416C202.294 118.368 202.902 118.304 203.494 118.24L203.59 119.488C200.758 119.952 197.526 120.016 195.046 120.032L194.87 118.624ZM196.918 122.352V120.992H206.422V124.672H198.678V125.792H206.87V127.168H196.95V123.408H204.678V122.352H196.918ZM198.166 118.592C198.758 118.576 199.366 118.544 199.974 118.528V115.312H198.166V118.592ZM208.598 124.128H211.558V120.496C210.438 119.84 209.766 118.832 209.766 117.568C209.766 115.28 211.99 113.808 215.03 113.808C218.086 113.808 220.294 115.28 220.294 117.568C220.294 118.832 219.622 119.84 218.518 120.496V124.128H221.494V125.552H208.598V124.128ZM211.494 117.568C211.494 119.056 212.934 119.952 215.03 119.952C217.126 119.952 218.566 119.056 218.566 117.568C218.566 116.096 217.126 115.184 215.03 115.184C212.934 115.184 211.494 116.096 211.494 117.568ZM213.318 124.128H216.758V121.152C216.23 121.264 215.638 121.328 215.03 121.328C214.422 121.328 213.846 121.264 213.318 121.152V124.128ZM222.534 115.312H225.142V113.424H226.87V115.312H229.446V116.704H222.534V115.312ZM222.918 120.8C222.918 118.848 224.214 117.472 226.006 117.472C227.814 117.472 229.11 118.848 229.11 120.8C229.11 122.768 227.814 124.144 226.006 124.144C224.214 124.144 222.918 122.768 222.918 120.8ZM224.47 120.8C224.47 121.952 225.11 122.672 226.006 122.672C226.902 122.672 227.558 121.952 227.558 120.8C227.558 119.664 226.902 118.928 226.006 118.928C225.11 118.928 224.47 119.664 224.47 120.8ZM230.022 126.64V113.344H231.67V118.912H233.046V113.04H234.71V127.28H233.046V120.336H231.67V126.64H230.022ZM236.535 124.128H239.495V120.496C238.375 119.84 237.703 118.832 237.703 117.568C237.703 115.28 239.927 113.808 242.967 113.808C246.023 113.808 248.231 115.28 248.231 117.568C248.231 118.832 247.559 119.84 246.455 120.496V124.128H249.431V125.552H236.535V124.128ZM239.431 117.568C239.431 119.056 240.871 119.952 242.967 119.952C245.063 119.952 246.503 119.056 246.503 117.568C246.503 116.096 245.063 115.184 242.967 115.184C240.871 115.184 239.431 116.096 239.431 117.568ZM241.255 124.128H244.695V121.152C244.167 121.264 243.575 121.328 242.967 121.328C242.359 121.328 241.783 121.264 241.255 121.152V124.128ZM253.799 113.92L253.543 122.88H251.911L251.607 113.92H253.799ZM251.735 125.376C251.735 124.784 252.151 124.384 252.743 124.384C253.319 124.384 253.719 124.784 253.719 125.376C253.719 125.968 253.319 126.384 252.743 126.384C252.151 126.384 251.735 125.968 251.735 125.376Z" fill="#4E5968"/>
<path d="M152.717 141.352H153.761V144.508H155.309V145.372H153.761V149.032H152.717V141.352ZM145.553 147.016C148.037 146.26 149.609 144.808 149.801 143.008H145.997V142.156H150.929C150.929 144.904 149.045 146.908 145.997 147.856L145.553 147.016ZM147.149 151.672V148.252H148.193V150.832H154.217V151.672H147.149ZM163.685 141.352H164.729V149.2H163.685V146.2H161.981V145.348H163.685V144.172H161.981V143.32H163.685V141.352ZM156.041 146.776C156.437 146.776 156.881 146.776 157.349 146.764V143.032H156.329V142.18H161.885V143.032H160.877V146.632C161.333 146.608 161.765 146.56 162.185 146.512L162.245 147.292C160.229 147.604 157.853 147.652 156.161 147.652L156.041 146.776ZM157.937 151.672V148.564H158.969V150.832H164.993V151.672H157.937ZM158.357 146.752C158.849 146.74 159.365 146.728 159.869 146.704V143.032H158.357V146.752ZM173.61 141.352H174.654V145.66H176.358V146.524H174.654V151.912H173.61V141.352ZM166.446 143.86V143.02H169.062V141.484H170.118V143.02H172.674V143.86H166.446ZM167.022 147.136C167.022 145.708 168.114 144.7 169.602 144.7C171.102 144.7 172.194 145.708 172.194 147.136C172.194 148.576 171.102 149.572 169.602 149.572C168.114 149.572 167.022 148.576 167.022 147.136ZM168.018 147.136C168.018 148.072 168.678 148.708 169.602 148.708C170.526 148.708 171.186 148.072 171.186 147.136C171.186 146.212 170.526 145.552 169.602 145.552C168.678 145.552 168.018 146.212 168.018 147.136ZM184.974 141.34H185.97V151.9H184.974V141.34ZM176.958 148.888C179.214 147.556 180.294 145.72 180.474 143.524H177.426V142.672H181.506C181.506 143.704 181.362 144.7 181.026 145.624H182.766V141.616H183.75V151.372H182.766V146.464H180.654C180.03 147.688 179.034 148.768 177.558 149.644L176.958 148.888ZM190.212 149.764H194.46V147.832H191.4V144.52H197.58V142.948H191.376V142.108H198.612V145.348H192.42V146.992H198.852V147.832H195.492V149.764H199.776V150.616H190.212V149.764ZM201.72 142.432H208.968V143.524C208.968 144.88 208.968 146.38 208.572 148.648L207.528 148.552C207.936 146.416 207.936 144.856 207.936 143.524V143.284H201.72V142.432ZM200.688 150.388V149.524H210.24V150.388H200.688ZM218.784 141.352H219.828V149.044H218.784V141.352ZM211.38 144.688C211.38 143.152 212.58 142.072 214.152 142.072C215.736 142.072 216.924 143.152 216.924 144.688C216.924 146.212 215.736 147.292 214.152 147.292C212.58 147.292 211.38 146.212 211.38 144.688ZM212.4 144.688C212.4 145.684 213.156 146.38 214.152 146.38C215.148 146.38 215.916 145.684 215.916 144.688C215.916 143.668 215.148 142.972 214.152 142.972C213.156 142.972 212.4 143.668 212.4 144.688ZM213.024 151.672V148.264H214.056V150.832H220.14V151.672H213.024ZM228.745 141.352H229.789V145.66H231.493V146.524H229.789V151.912H228.745V141.352ZM221.581 143.86V143.02H224.197V141.484H225.253V143.02H227.809V143.86H221.581ZM222.157 147.136C222.157 145.708 223.249 144.7 224.737 144.7C226.237 144.7 227.329 145.708 227.329 147.136C227.329 148.576 226.237 149.572 224.737 149.572C223.249 149.572 222.157 148.576 222.157 147.136ZM223.153 147.136C223.153 148.072 223.813 148.708 224.737 148.708C225.661 148.708 226.321 148.072 226.321 147.136C226.321 146.212 225.661 145.552 224.737 145.552C223.813 145.552 223.153 146.212 223.153 147.136ZM233.125 142.384H240.553V143.416C240.553 144.724 240.553 146.176 240.169 148.324L239.113 148.204C239.509 146.176 239.509 144.688 239.509 143.416V143.236H233.125V142.384ZM232.117 150.448V149.584H235.789V145.828H236.821V149.584H241.669V150.448H232.117ZM145.408 158.432C145.408 161.516 144.376 164.3 140.656 166.196L140.08 165.38C141.94 164.432 143.104 163.268 143.74 161.9L140.272 162.212L140.116 161.324L144.064 161.072C144.244 160.496 144.34 159.896 144.388 159.272H140.644V158.432H145.408ZM145.384 162.416V161.552H147.736V157.352H148.768V167.912H147.736V162.416H145.384ZM158.189 157.352H159.233V167.912H158.189V157.352ZM150.545 164.444C150.989 164.444 151.457 164.444 151.949 164.432V159.308H150.809V158.468H156.785V159.308H155.645V164.312C156.209 164.264 156.761 164.216 157.301 164.156L157.373 164.912C155.105 165.284 152.585 165.308 150.653 165.32L150.545 164.444ZM152.957 164.42C153.509 164.408 154.073 164.396 154.637 164.372V159.308H152.957V164.42ZM168.677 157.352H169.709V162.704H168.677V157.352ZM161.681 162.212V157.964H166.661V158.78H162.713V161.372C164.885 161.372 166.169 161.3 167.633 161.012L167.765 161.816C166.205 162.128 164.861 162.212 162.557 162.212H161.681ZM162.857 164.036V163.22H169.709V165.86H163.889V167H170.057V167.828H162.881V165.092H168.689V164.036H162.857ZM176.285 157.532C178.625 157.532 180.017 158.168 180.017 159.344C180.017 160.532 178.625 161.18 176.285 161.18C173.957 161.18 172.553 160.532 172.553 159.344C172.553 158.168 173.957 157.532 176.285 157.532ZM171.521 162.692V161.852H181.061V162.692H171.521ZM172.661 164.348V163.544H179.837V165.968H173.705V166.988H180.161V167.792H172.697V165.224H178.829V164.348H172.661ZM173.633 159.344C173.633 160.028 174.593 160.4 176.285 160.4C177.977 160.4 178.949 160.028 178.949 159.344C178.949 158.684 177.977 158.3 176.285 158.3C174.593 158.3 173.633 158.684 173.633 159.344ZM187.487 158.252H188.531V160.088C188.531 162.02 189.743 163.964 191.315 164.684L190.703 165.524C189.491 164.936 188.519 163.724 188.027 162.236C187.547 163.808 186.551 165.104 185.303 165.728L184.667 164.864C186.275 164.12 187.487 162.104 187.487 160.088V158.252ZM192.347 167.924V157.328H193.391V167.924H192.347ZM195.479 158.072H201.143V158.912H198.839V159.26C198.839 160.64 199.811 161.924 201.383 162.452L200.855 163.28C199.667 162.86 198.791 162.008 198.335 160.952C197.879 162.116 196.955 163.04 195.719 163.484L195.167 162.668C196.787 162.104 197.807 160.736 197.807 159.26V158.912H195.479V158.072ZM196.559 165.104V164.264H203.435V167.912H202.391V165.104H196.559ZM202.391 163.7V157.352H203.435V160.1H204.983V160.964H203.435V163.7H202.391ZM205.68 159.128H207.78V157.64H208.8V159.128H210.888V159.968H205.68V159.128ZM206.028 163.064C206.028 161.648 206.976 160.64 208.296 160.64C209.616 160.64 210.576 161.648 210.576 163.064C210.576 164.492 209.616 165.488 208.296 165.488C206.976 165.488 206.028 164.492 206.028 163.064ZM206.952 163.064C206.952 163.976 207.504 164.612 208.296 164.612C209.076 164.612 209.652 163.976 209.652 163.064C209.652 162.152 209.076 161.516 208.296 161.516C207.504 161.516 206.952 162.152 206.952 163.064ZM211.404 167.396V157.592H212.376V161.768H213.66V157.34H214.644V167.9H213.66V162.62H212.376V167.396H211.404ZM216.18 165.704H220.428V163.484H217.296V158.072H218.328V159.92H223.584V158.072H224.616V163.484H221.46V165.704H225.744V166.568H216.18V165.704ZM218.328 162.644H223.584V160.76H218.328V162.644ZM230.808 161.096H232.488V157.568H233.46V167.372H232.488V161.96H230.808V161.096ZM226.512 164.876C227.976 164.012 228.804 162.116 228.804 160.304V158.336H229.8V160.28C229.8 161.96 230.556 163.76 231.948 164.624L231.36 165.428C230.376 164.828 229.692 163.736 229.32 162.5C228.936 163.856 228.192 165.02 227.16 165.656L226.512 164.876ZM234.636 167.9V157.34H235.632V167.9H234.636ZM237.132 165.704H239.448V162.896C238.572 162.416 238.044 161.672 238.044 160.712C238.044 159.056 239.664 157.988 241.896 157.988C244.152 157.988 245.748 159.056 245.748 160.712C245.748 161.66 245.232 162.404 244.38 162.872V165.704H246.696V166.556H237.132V165.704ZM239.064 160.712C239.064 161.876 240.24 162.62 241.896 162.62C243.564 162.62 244.74 161.876 244.74 160.712C244.74 159.56 243.564 158.804 241.896 158.804C240.24 158.804 239.064 159.56 239.064 160.712ZM240.48 165.704H243.336V163.268C242.904 163.376 242.412 163.436 241.896 163.436C241.392 163.436 240.912 163.376 240.48 163.28V165.704ZM248.521 165.896C248.893 165.896 249.157 166.16 249.157 166.544C249.157 166.928 248.893 167.204 248.521 167.204C248.137 167.204 247.861 166.928 247.861 166.544C247.861 166.16 248.137 165.896 248.521 165.896Z" fill="#8B95A1"/>
<defs>
<clipPath id="clip0_2_459">
<rect width="60" height="58" fill="white" transform="translate(167 39)"/>
</clipPath>
<clipPath id="clip1_2_459">
<rect width="46.4657" height="68.6003" fill="white" transform="translate(168.547 38.999)"/>
</clipPath>
</defs>
</svg>
