<svg width="390" height="205" viewBox="0 0 390 205" fill="none" xmlns="http://www.w3.org/2000/svg">
<g clip-path="url(#clip0_1_157)">
<rect width="390" height="205" fill="#EAF4FF"/>
<path fill-rule="evenodd" clip-rule="evenodd" d="M147.315 353.071C196.458 392.957 282.047 368.923 338.482 299.39C394.917 229.857 400.828 141.154 351.684 101.268C302.54 61.3813 216.951 85.4149 160.516 154.948C104.081 224.482 98.1706 313.184 147.315 353.071ZM180.63 304.331C193.807 259.024 237.121 185.172 310.269 146.807C312.911 145.421 315.71 148.016 314.474 150.732C294.089 195.517 239.514 275.143 185.077 307.741C182.661 309.188 179.844 307.036 180.63 304.331Z" fill="url(#paint0_linear_1_157)"/>
<path opacity="0.45" fill-rule="evenodd" clip-rule="evenodd" d="M-6.61051 12.1503C-24.9214 42.7095 -4.71387 88.4851 38.5242 114.393C81.7622 140.301 131.657 136.53 149.968 105.971C168.279 75.4118 148.072 29.6362 104.834 3.72828C61.5956 -22.1796 11.7003 -18.409 -6.61051 12.1503ZM21.9157 26.6595C48.2987 30.0052 94.6214 48.5882 122.175 87.7541C122.83 88.6863 122 89.9007 120.902 89.5943C94.3684 82.1893 43.357 57.2392 20.8364 28.5561C20.1719 27.7098 20.8483 26.5242 21.9157 26.6595Z" fill="url(#paint1_linear_1_157)" fill-opacity="0.7"/>
<path opacity="0.25" fill-rule="evenodd" clip-rule="evenodd" d="M348.078 -13.7186C355.299 -1.66628 347.33 16.3873 330.277 26.6052C313.224 36.8231 293.546 35.336 286.324 23.2837C279.102 11.2313 287.072 -6.8223 304.125 -17.0402C321.178 -27.2581 340.856 -25.771 348.078 -13.7186ZM336.827 -7.99581C326.422 -6.67628 308.152 0.65272 297.286 16.0995C297.027 16.4671 297.355 16.9461 297.787 16.8253C308.252 13.9048 328.371 4.06463 337.253 -7.24782C337.515 -7.58158 337.248 -8.0492 336.827 -7.99581Z" fill="#AAD2FF"/>
<g clip-path="url(#clip1_1_157)">
<path d="M225.561 59.8682C240.385 54.6787 235.848 57.5425 263.263 57.5425C290.679 57.5425 309.276 49.8916 335.103 59.0837C350.35 64.5146 338.603 79.9019 337.175 91.6083C335.747 103.315 331.201 115.625 319.494 127.11C307.788 138.595 307.647 139.239 303.584 139.963C299.521 140.687 262.954 141.693 257.442 141.451C251.931 141.21 237.932 126.305 233.446 119.185C228.196 110.817 224.898 101.907 223.449 90.6831C222.001 79.4594 210.737 65.0576 225.561 59.8682Z" fill="#FFEFB1"/>
<path d="M341.961 67.2682C328.766 67.2682 318.287 77.8482 318.287 91.0632C318.287 104.278 328.766 115.381 341.961 115.381C355.156 115.381 365.978 104.258 365.978 91.0632C365.978 77.8683 355.156 67.2682 341.961 67.2682ZM341.961 107.416C332.99 107.416 325.488 100.034 325.488 91.0632C325.488 82.0923 332.97 75.2334 341.961 75.2334C350.952 75.2334 358.093 82.0923 358.093 91.0632C358.093 100.034 350.952 107.416 341.961 107.416Z" fill="#FFEFB1"/>
</g>
</g>
<defs>
<linearGradient id="paint0_linear_1_157" x1="249.499" y1="81.9997" x2="249.499" y2="372.339" gradientUnits="userSpaceOnUse">
<stop stop-color="#AAD2FF"/>
<stop offset="1" stop-color="#AAD2FF" stop-opacity="0"/>
</linearGradient>
<linearGradient id="paint1_linear_1_157" x1="60.888" y1="13.4998" x2="60.888" y2="192.5" gradientUnits="userSpaceOnUse">
<stop stop-color="#AAD2FF"/>
<stop offset="1" stop-color="#AAD2FF" stop-opacity="0"/>
</linearGradient>
<clipPath id="clip0_1_157">
<rect width="390" height="205" fill="white"/>
</clipPath>
<clipPath id="clip1_1_157">
<rect width="148" height="86.4909" fill="white" transform="translate(218 55)"/>
</clipPath>
</defs>
</svg>
