<svg width="390" height="205" viewBox="0 0 390 205" fill="none" xmlns="http://www.w3.org/2000/svg">
<g clip-path="url(#clip0_7_439)">
<rect width="390" height="205" fill="#EAF4FF"/>
<path fill-rule="evenodd" clip-rule="evenodd" d="M147.315 353.071C196.458 392.957 282.047 368.923 338.482 299.39C394.917 229.857 400.828 141.154 351.684 101.268C302.54 61.3813 216.951 85.4149 160.516 154.948C104.081 224.482 98.1706 313.184 147.315 353.071ZM180.63 304.331C193.807 259.024 237.121 185.172 310.269 146.807C312.911 145.421 315.71 148.016 314.474 150.732C294.089 195.517 239.514 275.143 185.077 307.741C182.661 309.188 179.844 307.036 180.63 304.331Z" fill="url(#paint0_linear_7_439)"/>
<path opacity="0.45" fill-rule="evenodd" clip-rule="evenodd" d="M-6.61048 12.1503C-24.9213 42.7095 -4.71384 88.4851 38.5242 114.393C81.7623 140.301 131.658 136.53 149.968 105.971C168.279 75.4118 148.072 29.6362 104.834 3.72827C61.5956 -22.1796 11.7004 -18.409 -6.61048 12.1503ZM21.9158 26.6595C48.2988 30.0052 94.6214 48.5882 122.175 87.7541C122.83 88.6863 122 89.9007 120.902 89.5943C94.3684 82.1893 43.357 57.2392 20.8364 28.5561C20.172 27.7098 20.8484 26.5242 21.9158 26.6595Z" fill="url(#paint1_linear_7_439)" fill-opacity="0.7"/>
<path opacity="0.25" fill-rule="evenodd" clip-rule="evenodd" d="M348.078 -13.7186C355.299 -1.66628 347.33 16.3873 330.277 26.6052C313.224 36.8231 293.546 35.336 286.324 23.2837C279.102 11.2313 287.072 -6.8223 304.125 -17.0402C321.178 -27.2581 340.856 -25.771 348.078 -13.7186ZM336.827 -7.99581C326.422 -6.67628 308.152 0.65272 297.286 16.0995C297.027 16.4671 297.355 16.9461 297.788 16.8253C308.252 13.9048 328.371 4.06463 337.253 -7.24782C337.515 -7.58158 337.248 -8.0492 336.827 -7.99581Z" fill="#AAD2FF"/>
<g clip-path="url(#clip1_7_439)">
<path d="M334.74 125.664C334.74 125.664 341.012 117.526 345.099 122.106C349.348 126.869 347.694 135.298 343.671 139.406C339.648 143.514 328.955 143.767 328.955 143.767L328.308 150.877C328.308 150.877 343.166 150.817 349.65 141.829C356.134 132.841 356.265 124.621 350.374 116.89C344.677 109.41 333.885 118.285 333.885 118.285L334.743 125.667L334.74 125.664Z" fill="#F9EAB0"/>
<path d="M238.739 129.349C239.725 131.916 241.966 137.622 243.988 141.731C244.377 142.525 245.211 142.846 246.083 142.976C251.885 143.834 271.835 143.665 292.926 139.391C316.231 134.668 328.619 130.425 338.832 125.696C339.602 125.338 340.178 124.67 340.26 123.819C340.516 121.226 340.925 115.464 340.148 110.775C340.02 110 339.52 109.343 338.797 109.044C334.968 107.454 320.747 103.215 287.339 109.167C254.701 114.983 242.67 123.794 239.315 126.885C238.634 127.512 238.409 128.484 238.742 129.348L238.739 129.349Z" fill="#F4DC8A"/>
<path d="M243.914 128.361C243.275 128.331 243.048 127.495 243.587 127.15C248.078 124.281 262.09 116.488 287.824 111.86C313.509 107.241 329.981 109.368 335.468 110.385C336.11 110.503 336.205 111.388 335.601 111.64C330.137 113.938 313.257 120.521 290.149 124.708C267.04 128.896 249.553 128.612 243.911 128.361L243.914 128.361Z" fill="#BFA762"/>
<path d="M243.503 136.726C243.503 136.726 250.53 160.035 262.609 171.367C274.688 182.695 300.213 179.02 308.516 176.781C316.819 174.545 331.341 167.046 335 158.386C338.959 149.02 339.928 125.693 338.738 117.662L243.503 136.726Z" fill="#F9EAB0"/>
<path d="M238.739 129.349C238.739 129.349 239.047 128.333 240.286 128.242C241.524 128.151 264.896 129.715 292.316 124.316C319.739 118.916 336.265 110.728 338.677 110.402C341.093 110.075 340.416 121.963 340.416 121.963C340.416 121.963 341.016 125.499 336.631 126.69C332.247 127.88 320.626 134.198 294.78 139.011C268.934 143.824 252.61 143.608 247.509 143.139C247.509 143.139 244.662 143.138 243.988 141.731C243.313 140.323 238.739 129.349 238.739 129.349Z" fill="#F4DC8A"/>
</g>
</g>
<defs>
<linearGradient id="paint0_linear_7_439" x1="249.499" y1="81.9997" x2="249.499" y2="372.339" gradientUnits="userSpaceOnUse">
<stop stop-color="#AAD2FF"/>
<stop offset="1" stop-color="#AAD2FF" stop-opacity="0"/>
</linearGradient>
<linearGradient id="paint1_linear_7_439" x1="60.888" y1="13.4998" x2="60.888" y2="192.5" gradientUnits="userSpaceOnUse">
<stop stop-color="#AAD2FF"/>
<stop offset="1" stop-color="#AAD2FF" stop-opacity="0"/>
</linearGradient>
<clipPath id="clip0_7_439">
<rect width="390" height="205" fill="white"/>
</clipPath>
<clipPath id="clip1_7_439">
<rect width="114.522" height="85.6506" fill="white" transform="translate(234 103.418) rotate(-10.27)"/>
</clipPath>
</defs>
</svg>
