<svg width="24" height="24" viewBox="0 0 24 24" fill="none" xmlns="http://www.w3.org/2000/svg">
<g id="icon">
<path id="icon_2" d="M7 5.975C6.38333 5.975 5.89167 6.15 5.525 6.5C5.175 6.85 5 7.34167 5 7.975H19C19 7.34167 18.825 6.85 18.475 6.5C18.125 6.15 17.6333 5.975 17 5.975H7ZM17 3.975C17.7333 3.975 18.4 4.15 19 4.5C19.6167 4.85 20.1 5.33333 20.45 5.95C20.8167 6.56667 21 7.24167 21 7.975V9.975H3V7.975C3 7.24167 3.175 6.56667 3.525 5.95C3.89167 5.33333 4.375 4.85 4.975 4.5C5.59167 4.15 6.26667 3.975 7 3.975H17ZM5 17.975C5 18.5917 5.175 19.0833 5.525 19.45C5.89167 19.8 6.38333 19.975 7 19.975H17C17.6333 19.975 18.125 19.8 18.475 19.45C18.825 19.0833 19 18.5917 19 17.975V9.975H5V17.975ZM21 7.975V17.975C21 18.7083 20.825 19.3833 20.475 20C20.125 20.6 19.6417 21.0833 19.025 21.45C18.4083 21.8 17.7333 21.975 17 21.975H7C6.26667 21.975 5.59167 21.8 4.975 21.45C4.375 21.0833 3.89167 20.6 3.525 20C3.175 19.3833 3 18.7083 3 17.975V7.975H21ZM6 2.975C6 2.55833 6.16667 2.275 6.5 2.125C6.83333 1.95833 7.16667 1.95833 7.5 2.125C7.83333 2.275 8 2.55833 8 2.975V4.975H6V2.975ZM16 4.975V2.975C16 2.55833 16.1667 2.275 16.5 2.125C16.8333 1.95833 17.1667 1.95833 17.5 2.125C17.8333 2.275 18 2.55833 18 2.975V4.975H16ZM13.5 16.975C13.5 17.3917 13.35 17.75 13.05 18.05C12.7667 18.3333 12.4167 18.475 12 18.475C11.5833 18.475 11.225 18.3333 10.925 18.05C10.6417 17.75 10.5 17.3917 10.5 16.975C10.5 16.5583 10.6417 16.2083 10.925 15.925C11.225 15.625 11.5833 15.475 12 15.475C12.4167 15.475 12.7667 15.625 13.05 15.925C13.35 16.2083 13.5 16.5583 13.5 16.975ZM17.5 16.975C17.5 17.3917 17.35 17.75 17.05 18.05C16.7667 18.3333 16.4167 18.475 16 18.475C15.5833 18.475 15.225 18.3333 14.925 18.05C14.6417 17.75 14.5 17.3917 14.5 16.975C14.5 16.5583 14.6417 16.2083 14.925 15.925C15.225 15.625 15.5833 15.475 16 15.475C16.4167 15.475 16.7667 15.625 17.05 15.925C17.35 16.2083 17.5 16.5583 17.5 16.975ZM9.5 16.975C9.5 17.3917 9.35 17.75 9.05 18.05C8.76667 18.3333 8.41667 18.475 8 18.475C7.58333 18.475 7.225 18.3333 6.925 18.05C6.64167 17.75 6.5 17.3917 6.5 16.975C6.5 16.5583 6.64167 16.2083 6.925 15.925C7.225 15.625 7.58333 15.475 8 15.475C8.41667 15.475 8.76667 15.625 9.05 15.925C9.35 16.2083 9.5 16.5583 9.5 16.975ZM13.5 12.975C13.5 13.3917 13.35 13.75 13.05 14.05C12.7667 14.3333 12.4167 14.475 12 14.475C11.5833 14.475 11.225 14.3333 10.925 14.05C10.6417 13.75 10.5 13.3917 10.5 12.975C10.5 12.5583 10.6417 12.2083 10.925 11.925C11.225 11.625 11.5833 11.475 12 11.475C12.4167 11.475 12.7667 11.625 13.05 11.925C13.35 12.2083 13.5 12.5583 13.5 12.975ZM17.5 12.975C17.5 13.3917 17.35 13.75 17.05 14.05C16.7667 14.3333 16.4167 14.475 16 14.475C15.5833 14.475 15.225 14.3333 14.925 14.05C14.6417 13.75 14.5 13.3917 14.5 12.975C14.5 12.5583 14.6417 12.2083 14.925 11.925C15.225 11.625 15.5833 11.475 16 11.475C16.4167 11.475 16.7667 11.625 17.05 11.925C17.35 12.2083 17.5 12.5583 17.5 12.975ZM9.5 12.975C9.5 13.3917 9.35 13.75 9.05 14.05C8.76667 14.3333 8.41667 14.475 8 14.475C7.58333 14.475 7.225 14.3333 6.925 14.05C6.64167 13.75 6.5 13.3917 6.5 12.975C6.5 12.5583 6.64167 12.2083 6.925 11.925C7.225 11.625 7.58333 11.475 8 11.475C8.41667 11.475 8.76667 11.625 9.05 11.925C9.35 12.2083 9.5 12.5583 9.5 12.975Z" fill="#6B7684"/>
</g>
</svg>
