<svg width="349" height="369" viewBox="0 0 349 369" fill="none" xmlns="http://www.w3.org/2000/svg">
<g clip-path="url(#clip0_1906_27797)">
<rect width="349" height="369" rx="24" fill="url(#paint0_linear_1906_27797)"/>
<g clip-path="url(#clip1_1906_27797)">
<path fill-rule="evenodd" clip-rule="evenodd" d="M192.601 234.474C193.514 238.495 193.161 242.396 192.677 246.51C192.394 249.161 192.369 251.912 192.344 254.666C192.328 256.45 192.312 258.235 192.226 259.995C192.064 263.302 191.767 266.547 191.468 269.828C191.362 270.992 191.255 272.16 191.154 273.337C190.995 275.178 191.09 277.032 191.184 278.877L191.184 278.877C191.32 281.538 191.455 284.18 190.83 286.743C189.771 291.082 188.39 295.402 186.166 299.363C184.824 301.791 182.527 303.442 180.1 305.186C178.804 306.119 177.47 307.078 176.224 308.196C175.485 308.864 174.763 309.566 174.032 310.278L174.031 310.278L174.031 310.278C171.765 312.482 169.398 314.784 166.08 316.491C165.28 316.913 164.472 317.359 163.646 317.815C160.76 319.41 157.668 321.118 154.013 322.268C152.8 322.659 151.552 323.109 150.272 323.571C147.39 324.61 144.342 325.71 141.144 326.33C138.319 326.878 135.39 326.728 132.458 326.579L132.458 326.579L132.458 326.579C130.596 326.483 128.734 326.388 126.895 326.471C125.843 326.519 124.793 326.535 123.744 326.527C123.886 327.37 123.995 328.293 124.063 329.308C124.144 330.176 124.281 331.091 124.424 332.046C124.693 333.851 124.984 335.801 124.969 337.868C124.945 339.957 124.833 342.154 124.717 344.405C124.682 345.086 124.647 345.773 124.614 346.463C124.537 347.905 124.136 349.392 123.732 350.888C123.365 352.245 122.997 353.609 122.867 354.955C122.733 356.335 122.928 357.751 123.124 359.173C123.329 360.668 123.536 362.168 123.363 363.639C123.194 365.073 122.713 366.449 122.231 367.825C121.749 369.201 121.267 370.576 121.099 372.011C120.914 373.584 120.652 375.139 120.392 376.676C120.178 377.944 119.966 379.199 119.801 380.443C119.594 381.927 119.513 383.399 119.435 384.831C119.356 386.255 119.28 387.639 119.084 388.955C118.837 390.654 118.823 392.298 118.809 393.831C118.797 395.157 118.786 396.4 118.626 397.527C118.31 399.524 118.599 401.189 118.829 402.515C119.199 404.648 119.417 405.903 116.716 406.254C114.217 406.578 113.217 405.865 112.013 405.005C111.106 404.357 110.083 403.627 108.218 403.196C106.04 402.692 104.921 402.584 103.806 402.476C102.697 402.369 101.591 402.263 99.4521 401.768C97.3065 401.271 96.2547 400.932 95.2029 400.593C94.151 400.255 93.0992 399.916 90.9537 399.419C88.8081 398.923 87.7143 398.765 86.6206 398.608C85.5268 398.45 84.433 398.292 82.2874 397.796C80.1419 397.299 79.0481 397.142 77.9543 396.984C76.8606 396.827 75.7668 396.669 73.6212 396.173C71.4756 395.676 70.4598 395.182 69.444 394.687C68.4281 394.193 67.4123 393.699 65.2667 393.202C63.1211 392.706 62.0423 392.484 60.9635 392.261C59.8848 392.039 58.806 391.817 56.6604 391.32C54.5148 390.824 53.4091 390.718 52.3033 390.612C51.1976 390.506 50.0918 390.4 47.9462 389.904C45.8007 389.407 44.7039 389.263 43.6071 389.118C42.5104 388.974 41.4136 388.829 39.268 388.332C37.1225 387.836 36.1156 387.303 35.1087 386.77C34.1019 386.236 33.095 385.703 30.9494 385.207C29.128 384.785 27.9919 384.837 26.9856 384.883C25.6213 384.945 24.4955 384.997 22.2233 383.843C22.182 381.432 22.173 378.646 22.8008 375.462C23.1655 373.531 23.7699 371.5 24.4045 369.368C24.6119 368.671 24.8225 367.964 25.029 367.245C25.3216 366.173 25.5617 365.052 25.8061 363.911C26.1586 362.265 26.5203 360.576 27.0623 358.929C27.5884 357.357 28.2335 355.775 28.8801 354.188C29.3173 353.115 29.7551 352.041 30.1574 350.967C30.7238 349.455 31.3531 347.975 31.9833 346.493C32.4626 345.366 32.9425 344.238 33.3956 343.093C34.0187 341.519 34.7203 340.021 35.4313 338.503C35.9173 337.465 36.4076 336.418 36.8804 335.331C37.4979 333.911 38.2362 332.564 38.96 331.245C39.6009 330.076 40.2304 328.928 40.7547 327.768C41.384 326.375 41.6561 324.857 41.9205 323.382C42.1721 321.979 42.4167 320.615 42.9552 319.435C43.6652 317.892 44.6715 316.575 45.6136 315.343C46.4173 314.291 47.1742 313.301 47.6605 312.283C48.6031 310.293 48.6054 308.812 48.6071 307.728C48.6071 307.702 48.6071 307.677 48.6072 307.652C47.6597 306.99 46.698 306.395 45.6952 305.935C43.4368 304.867 41.0069 304.305 38.6545 303.76C36.3021 303.216 34.0273 302.69 32.0791 301.693C29.9993 300.61 27.9666 299.644 26.0428 298.73C23.6051 297.571 21.3422 296.496 19.3802 295.371C15.9186 293.375 14.2042 292.635 12.8127 292.034C11.1519 291.317 9.9513 290.799 6.78911 288.582C3.6927 286.274 1.68015 282.55 -0.133765 279.193L-0.134146 279.193C-0.497259 278.521 -0.852417 277.864 -1.20672 277.235C-3.33102 273.469 -5.33544 269.185 -6.07059 264.594C-6.53487 261.867 -6.09156 258.981 -5.63574 256.015C-5.38894 254.409 -5.13848 252.779 -5.0264 251.137C-4.7737 247.937 -3.98927 244.799 -3.16903 241.517C-2.89026 240.402 -2.60735 239.27 -2.33977 238.114C-1.90686 236.243 -1.86121 234.174 -1.8152 232.089C-1.75802 229.497 -1.70027 226.879 -0.897716 224.585C-0.113632 222.344 1.47822 220.337 3.06693 218.334C4.41269 216.638 5.75621 214.944 6.60457 213.113L6.75724 212.784C8.55713 208.898 10.3768 204.97 12.5161 201.219C13.4667 199.552 14.2228 197.759 14.9798 195.963C15.9746 193.604 16.9708 191.241 18.4119 189.157C19.2513 187.954 20.1577 186.828 21.1182 185.769C21.3979 184.879 21.7093 183.943 22.0364 182.96C22.5306 181.475 23.0604 179.882 23.5703 178.178C23.9804 176.87 24.2538 175.465 24.5371 174.008C24.8271 172.517 25.1276 170.971 25.5961 169.423C26.0081 168.097 26.2027 166.67 26.4007 165.217C26.6134 163.658 26.83 162.069 27.3238 160.545C27.7827 159.15 28.5548 157.814 29.3269 156.478C30.099 155.142 30.8711 153.806 31.33 152.412C31.7878 151.02 31.9874 149.515 32.1879 148.002C32.3893 146.483 32.5917 144.957 33.0576 143.533C33.5333 142.08 34.2161 140.717 34.9026 139.347C35.558 138.039 36.2167 136.724 36.702 135.317C37.2538 133.716 37.9307 132.229 38.6115 130.734C39.1563 129.537 39.7036 128.334 40.1912 127.064C40.742 125.629 40.986 124.096 41.2268 122.583C41.4654 121.083 41.7009 119.602 42.229 118.258C42.8421 116.739 43.7508 115.351 44.6382 113.995C45.4135 112.811 46.1726 111.652 46.7043 110.452C47.2175 109.275 47.6683 108.102 48.1066 106.961L48.1067 106.961C48.758 105.266 49.3818 103.642 50.1418 102.187C51.284 99.9066 52.6665 98.052 53.902 96.3946L53.902 96.3946C54.3093 95.8483 54.7007 95.3233 55.0622 94.8116C57.6396 91.2055 59.4476 89.2771 61.4279 89.899C63.4083 90.521 64.8897 92.8286 66.6363 96.3437C67.0677 97.2301 67.6807 98.117 68.3286 99.0546C69.3442 100.524 70.4456 102.118 71.0678 104.028C71.4964 105.387 71.6685 106.882 71.847 108.433C72.0086 109.837 72.1754 111.286 72.5425 112.719C72.9445 114.227 73.1372 115.851 73.3301 117.478C73.487 118.801 73.644 120.125 73.9139 121.387C74.2064 122.755 74.8175 124.08 75.4302 125.408C76.0781 126.813 76.7276 128.222 77.0041 129.688C77.2887 131.197 77.3685 132.735 77.4489 134.285L77.4489 134.285C77.5206 135.666 77.5927 137.056 77.8106 138.444C78.041 139.911 78.5234 141.342 78.9983 142.751L78.9983 142.751C79.4763 144.169 79.9467 145.565 80.1448 146.952C80.375 148.553 80.3496 150.155 80.325 151.707L80.325 151.707L80.325 151.707C80.3028 153.11 80.2812 154.472 80.4499 155.755C80.6775 157.367 81.049 158.888 81.3992 160.323L81.3993 160.323C81.748 161.751 82.0756 163.093 82.2192 164.351C82.4085 165.859 82.8283 167.045 83.2556 168.033C83.771 168.008 84.2824 168.014 84.7895 168.059C87.817 168.352 90.6473 169.265 93.3028 170.122L93.3029 170.122L93.303 170.122L93.3032 170.122C95.2737 170.758 97.148 171.362 98.9352 171.66C104.036 172.546 105.495 173.117 107.33 173.835C108.566 174.318 109.973 174.868 112.778 175.627C114.426 176.028 116.128 176.35 117.841 176.674L117.842 176.674L117.842 176.674C120.899 177.252 123.995 177.838 126.893 178.893C129.844 179.968 132.632 181.447 135.425 182.928L135.425 182.928C136.912 183.717 138.399 184.506 139.914 185.235C140.636 185.583 141.389 185.872 142.161 186.124C141.562 184.366 142.314 183.709 143.59 182.594C144.456 181.838 145.562 180.871 146.651 179.208C147.305 178.184 148.273 177.258 149.306 176.27C150.431 175.193 151.633 174.043 152.588 172.614C153.292 171.553 153.934 170.395 154.596 169.203C155.351 167.842 156.132 166.436 157.055 165.079C157.776 164.018 158.407 162.845 159.05 161.652L159.05 161.651L159.051 161.651C159.808 160.243 160.582 158.807 161.534 157.492C162.364 156.347 163.142 155.215 163.916 154.088L163.916 154.088L163.917 154.087C164.786 152.822 165.649 151.565 166.574 150.308C167.477 149.08 168.623 148.053 169.767 147.029C170.839 146.07 171.909 145.112 172.774 143.992C173.494 143.061 174.179 142.087 174.862 141.115L174.862 141.115C175.877 139.672 176.887 138.236 177.996 136.96C178.81 136.005 179.558 135.026 180.286 134.073C181.366 132.66 182.403 131.304 183.545 130.166C185.371 128.281 187.312 126.805 189.034 125.493C189.471 125.161 189.894 124.839 190.297 124.524C193.41 122.134 196.261 120.174 198.313 120.485C200.365 120.796 201.082 124.291 201.801 128.714C202.106 130.604 202.135 132.743 202.168 135.148L202.168 135.15C202.178 135.919 202.189 136.716 202.209 137.541C202.241 138.732 202.416 139.966 202.597 141.242C202.834 142.91 203.081 144.651 203.032 146.464C202.985 147.697 203.021 148.981 203.058 150.293C203.105 151.972 203.153 153.696 203.03 155.414C202.91 156.903 202.715 158.403 202.517 159.924L202.517 159.925C202.331 161.36 202.142 162.813 202.011 164.293C201.871 165.873 201.314 167.357 200.76 168.834L200.76 168.834L200.76 168.834C200.246 170.206 199.733 171.572 199.559 173.004C199.379 174.49 199.585 176.012 199.791 177.533C199.998 179.054 200.204 180.576 200.023 182.062C199.839 183.582 199.293 185.061 198.751 186.532L198.751 186.533C198.232 187.939 197.716 189.339 197.52 190.761C197.32 192.215 197.097 193.706 196.875 195.196C196.653 196.687 196.431 198.177 196.23 199.631C196.013 201.153 195.971 202.675 195.929 204.17C195.887 205.685 195.846 207.173 195.624 208.606C195.352 210.285 195.242 211.924 195.137 213.504C195.044 214.894 194.955 216.237 194.76 217.52C194.448 219.4 193.994 221.141 193.572 222.754L193.572 222.754L193.572 222.755C193.251 223.983 192.95 225.138 192.746 226.223C192.329 228.642 192.849 230.784 193.212 232.284C193.592 233.851 193.802 234.719 192.601 234.474Z" fill="url(#paint1_linear_1906_27797)" fill-opacity="0.6"/>
</g>
</g>
<defs>
<linearGradient id="paint0_linear_1906_27797" x1="456.691" y1="281.509" x2="9.66186" y2="80.4439" gradientUnits="userSpaceOnUse">
<stop stop-color="#3E48F2"/>
<stop offset="1" stop-color="#6F76FD"/>
</linearGradient>
<linearGradient id="paint1_linear_1906_27797" x1="129.877" y1="104.643" x2="62.8525" y2="394.291" gradientUnits="userSpaceOnUse">
<stop stop-color="#5E91F8"/>
<stop offset="1" stop-color="#5E91F8" stop-opacity="0"/>
</linearGradient>
<clipPath id="clip0_1906_27797">
<rect width="349" height="369" rx="24" fill="white"/>
</clipPath>
<clipPath id="clip1_1906_27797">
<rect width="200.964" height="297.288" fill="white" transform="translate(32.0215 55) rotate(13.0289)"/>
</clipPath>
</defs>
</svg>
