<svg width="349" height="369" viewBox="0 0 349 369" fill="none" xmlns="http://www.w3.org/2000/svg">
<g clip-path="url(#clip0_1913_20755)">
<rect width="349" height="369" rx="24" fill="url(#paint0_linear_1913_20755)"/>
<g clip-path="url(#clip1_1913_20755)">
<path fill-rule="evenodd" clip-rule="evenodd" d="M192.601 234.474C193.514 238.495 193.16 242.396 192.677 246.51C192.394 249.161 192.369 251.912 192.344 254.666C192.328 256.45 192.311 258.235 192.225 259.995C192.063 263.302 191.767 266.547 191.467 269.828C191.361 270.992 191.255 272.16 191.153 273.337C190.995 275.178 191.09 277.032 191.184 278.877L191.184 278.877C191.319 281.538 191.454 284.18 190.829 286.743C189.771 291.082 188.39 295.402 186.166 299.363C184.823 301.791 182.526 303.442 180.1 305.186C178.803 306.119 177.469 307.078 176.224 308.196C175.484 308.864 174.763 309.566 174.031 310.278L174.031 310.278L174.03 310.278C171.764 312.482 169.398 314.784 166.08 316.491C165.28 316.913 164.471 317.359 163.646 317.815C160.759 319.41 157.667 321.118 154.013 322.268C152.799 322.659 151.552 323.109 150.271 323.571C147.39 324.61 144.342 325.71 141.144 326.33C138.318 326.878 135.39 326.728 132.458 326.579L132.458 326.579L132.458 326.579C130.596 326.483 128.733 326.388 126.895 326.471C125.842 326.519 124.792 326.535 123.744 326.527C123.886 327.37 123.995 328.293 124.062 329.308C124.144 330.176 124.28 331.091 124.423 332.046C124.692 333.851 124.984 335.801 124.968 337.868C124.945 339.957 124.832 342.154 124.717 344.405C124.682 345.086 124.646 345.773 124.613 346.463C124.537 347.905 124.135 349.392 123.731 350.888C123.365 352.245 122.996 353.609 122.866 354.955C122.733 356.335 122.928 357.751 123.123 359.173C123.329 360.668 123.535 362.168 123.362 363.639C123.194 365.073 122.712 366.449 122.23 367.825C121.749 369.201 121.267 370.576 121.098 372.011C120.914 373.584 120.651 375.139 120.391 376.676C120.178 377.944 119.966 379.199 119.801 380.443C119.594 381.927 119.513 383.399 119.434 384.831C119.356 386.255 119.28 387.639 119.084 388.955C118.837 390.654 118.822 392.298 118.808 393.831C118.796 395.157 118.785 396.4 118.626 397.527C118.309 399.524 118.598 401.189 118.829 402.515C119.199 404.648 119.417 405.903 116.715 406.254C114.216 406.578 113.216 405.865 112.012 405.005C111.105 404.357 110.083 403.627 108.217 403.196C106.04 402.692 104.921 402.584 103.805 402.476C102.696 402.369 101.591 402.263 99.4516 401.768C97.306 401.271 96.2542 400.932 95.2024 400.593C94.1506 400.255 93.0987 399.916 90.9532 399.419C88.8076 398.923 87.7138 398.765 86.6201 398.608C85.5263 398.45 84.4325 398.292 82.287 397.796C80.1414 397.299 79.0476 397.142 77.9539 396.984C76.8601 396.827 75.7663 396.669 73.6207 396.173C71.4752 395.676 70.4593 395.182 69.4435 394.687C68.4276 394.193 67.4118 393.699 65.2662 393.202C63.1206 392.706 62.0418 392.484 60.9631 392.261C59.8843 392.039 58.8055 391.817 56.6599 391.32C54.5143 390.824 53.4086 390.718 52.3028 390.612C51.1971 390.506 50.0913 390.4 47.9457 389.904C45.8002 389.407 44.7034 389.263 43.6066 389.118C42.5099 388.974 41.4131 388.829 39.2675 388.332C37.122 387.836 36.1151 387.303 35.1082 386.77C34.1014 386.236 33.0945 385.703 30.949 385.207C29.1275 384.785 27.9914 384.837 26.9851 384.883C25.6208 384.945 24.495 384.997 22.2228 383.843C22.1815 381.432 22.1725 378.646 22.8003 375.462C23.1651 373.531 23.7694 371.5 24.404 369.368C24.6114 368.671 24.822 367.964 25.0285 367.245C25.3212 366.173 25.5612 365.052 25.8056 363.911C26.1581 362.265 26.5198 360.576 27.0618 358.929C27.5879 357.357 28.233 355.775 28.8796 354.188C29.3168 353.115 29.7547 352.041 30.1569 350.967C30.7234 349.455 31.3526 347.975 31.9828 346.493C32.4622 345.366 32.942 344.238 33.3951 343.093C34.0182 341.519 34.7198 340.021 35.4308 338.503C35.9168 337.465 36.4072 336.418 36.8799 335.331C37.4974 333.911 38.2357 332.564 38.9595 331.245C39.6004 330.076 40.23 328.928 40.7542 327.768C41.3835 326.375 41.6556 324.857 41.9201 323.382C42.1716 321.979 42.4162 320.615 42.9547 319.435C43.6647 317.892 44.671 316.575 45.6131 315.343C46.4168 314.291 47.1737 313.301 47.66 312.283C48.6026 310.293 48.6049 308.812 48.6066 307.728C48.6066 307.702 48.6067 307.677 48.6067 307.652C47.6592 306.99 46.6975 306.395 45.6947 305.935C43.4363 304.867 41.0064 304.305 38.654 303.76C36.3016 303.216 34.0268 302.69 32.0786 301.693C29.9988 300.61 27.9661 299.644 26.0423 298.73C23.6046 297.571 21.3417 296.496 19.3797 295.371C15.9181 293.375 14.2037 292.635 12.8122 292.034C11.1515 291.317 9.95082 290.799 6.78863 288.582C3.69221 286.274 1.67966 282.55 -0.134253 279.193L-0.134634 279.193C-0.497747 278.521 -0.852906 277.864 -1.20721 277.235C-3.3315 273.469 -5.33593 269.185 -6.07108 264.594C-6.53536 261.867 -6.09205 258.981 -5.63623 256.015C-5.38943 254.409 -5.13897 252.779 -5.02689 251.137C-4.77419 247.937 -3.98976 244.799 -3.16952 241.517C-2.89075 240.402 -2.60784 239.27 -2.34026 238.114C-1.90735 236.243 -1.8617 234.174 -1.81569 232.089C-1.75851 229.497 -1.70076 226.879 -0.898204 224.585C-0.114121 222.344 1.47773 220.337 3.06644 218.334C4.41221 216.638 5.75572 214.944 6.60408 213.113L6.75675 212.784C8.55664 208.898 10.3763 204.97 12.5156 201.219C13.4662 199.552 14.2223 197.759 14.9793 195.963C15.9741 193.604 16.9704 191.241 18.4115 189.157C19.2508 187.954 20.1572 186.828 21.1177 185.769C21.3974 184.879 21.7089 183.943 22.0359 182.96C22.5301 181.475 23.0599 179.882 23.5698 178.178C23.98 176.87 24.2533 175.465 24.5366 174.008C24.8267 172.517 25.1272 170.971 25.5957 169.423C26.0076 168.097 26.2022 166.67 26.4002 165.217C26.6129 163.658 26.8295 162.069 27.3233 160.545C27.7822 159.15 28.5543 157.814 29.3264 156.478C30.0985 155.142 30.8706 153.806 31.3295 152.412C31.7874 151.02 31.987 149.515 32.1874 148.002C32.3889 146.483 32.5912 144.957 33.0572 143.533C33.5328 142.08 34.2156 140.717 34.9021 139.347C35.5575 138.039 36.2162 136.724 36.7015 135.317C37.2533 133.716 37.9302 132.229 38.611 130.734C39.1558 129.537 39.7031 128.334 40.1907 127.064C40.7415 125.629 40.9855 124.096 41.2263 122.583C41.4649 121.083 41.7004 119.602 42.2285 118.258C42.8416 116.739 43.7503 115.351 44.6378 113.995C45.413 112.811 46.1721 111.652 46.7038 110.452C47.217 109.275 47.6679 108.102 48.1062 106.961L48.1062 106.961C48.7575 105.266 49.3813 103.642 50.1413 102.187C51.2835 99.9066 52.666 98.052 53.9015 96.3946L53.9015 96.3946C54.3089 95.8483 54.7002 95.3233 55.0617 94.8116C57.6391 91.2055 59.4471 89.2771 61.4275 89.899C63.4078 90.521 64.8892 92.8286 66.6358 96.3437C67.0672 97.2301 67.6802 98.117 68.3281 99.0546C69.3437 100.524 70.4451 102.118 71.0673 104.028C71.4959 105.387 71.668 106.882 71.8465 108.433C72.0081 109.837 72.1749 111.286 72.5421 112.719C72.9441 114.227 73.1367 115.851 73.3296 117.478C73.4865 118.801 73.6435 120.125 73.9134 121.387C74.2059 122.755 74.817 124.08 75.4297 125.408C76.0776 126.813 76.7271 128.222 77.0037 129.688C77.2882 131.197 77.368 132.735 77.4484 134.285L77.4484 134.285C77.5201 135.666 77.5922 137.056 77.8101 138.444C78.0405 139.911 78.5229 141.342 78.9978 142.751L78.9978 142.751C79.4758 144.169 79.9462 145.565 80.1443 146.952C80.3745 148.553 80.3491 150.155 80.3246 151.707L80.3246 151.707L80.3246 151.707C80.3023 153.11 80.2808 154.472 80.4494 155.755C80.677 157.367 81.0485 158.888 81.3988 160.323L81.3988 160.323C81.7475 161.751 82.0751 163.093 82.2187 164.351C82.408 165.859 82.8278 167.045 83.2551 168.033C83.7705 168.008 84.2819 168.014 84.789 168.059C87.8165 168.352 90.6468 169.265 93.3024 170.122L93.3024 170.122L93.3026 170.122L93.3027 170.122C95.2732 170.758 97.1475 171.362 98.9348 171.66C104.036 172.546 105.494 173.117 107.33 173.835C108.566 174.318 109.973 174.868 112.778 175.627C114.426 176.028 116.127 176.35 117.841 176.674L117.841 176.674L117.841 176.674C120.899 177.252 123.995 177.838 126.892 178.893C129.843 179.968 132.631 181.447 135.425 182.928L135.425 182.928C136.911 183.717 138.399 184.506 139.913 185.235C140.636 185.583 141.388 185.872 142.16 186.124C141.562 184.366 142.314 183.709 143.59 182.594C144.455 181.838 145.561 180.871 146.65 179.208C147.304 178.184 148.272 177.258 149.305 176.27C150.43 175.193 151.632 174.043 152.588 172.614C153.291 171.553 153.934 170.395 154.595 169.203C155.351 167.842 156.131 166.436 157.055 165.079C157.775 164.018 158.407 162.845 159.05 161.652L159.05 161.651L159.05 161.651C159.808 160.243 160.581 158.807 161.534 157.492C162.363 156.347 163.141 155.215 163.915 154.088L163.916 154.088L163.917 154.087C164.785 152.822 165.649 151.565 166.573 150.308C167.476 149.08 168.623 148.053 169.767 147.029C170.839 146.07 171.908 145.112 172.774 143.992C173.493 143.061 174.178 142.087 174.862 141.115L174.862 141.115C175.877 139.672 176.887 138.236 177.996 136.96C178.809 136.005 179.557 135.026 180.286 134.073C181.366 132.66 182.403 131.304 183.544 130.166C185.371 128.281 187.311 126.805 189.034 125.493C189.471 125.161 189.893 124.839 190.297 124.524C193.41 122.134 196.26 120.174 198.312 120.485C200.365 120.796 201.081 124.291 201.8 128.714C202.106 130.604 202.135 132.743 202.167 135.148L202.167 135.15C202.178 135.919 202.189 136.716 202.209 137.541C202.241 138.732 202.416 139.966 202.597 141.242C202.833 142.91 203.08 144.651 203.031 146.464C202.985 147.697 203.02 148.981 203.057 150.293C203.104 151.972 203.152 153.696 203.03 155.414C202.91 156.903 202.715 158.403 202.517 159.924L202.517 159.925C202.33 161.36 202.141 162.813 202.01 164.293C201.87 165.873 201.314 167.357 200.76 168.834L200.76 168.834L200.76 168.834C200.245 170.206 199.733 171.572 199.559 173.004C199.378 174.49 199.585 176.012 199.791 177.533C199.997 179.054 200.203 180.576 200.023 182.062C199.838 183.582 199.293 185.061 198.75 186.532L198.75 186.533C198.232 187.939 197.716 189.339 197.52 190.761C197.319 192.215 197.097 193.706 196.875 195.196C196.652 196.687 196.43 198.177 196.23 199.631C196.013 201.153 195.97 202.675 195.929 204.17C195.887 205.685 195.845 207.173 195.624 208.606C195.351 210.285 195.242 211.924 195.136 213.504C195.044 214.894 194.954 216.237 194.759 217.52C194.448 219.4 193.993 221.141 193.572 222.754L193.572 222.754L193.572 222.755C193.251 223.983 192.949 225.138 192.745 226.223C192.329 228.642 192.848 230.784 193.212 232.284C193.592 233.851 193.802 234.719 192.601 234.474Z" fill="url(#paint1_linear_1913_20755)" fill-opacity="0.6"/>
</g>
</g>
<defs>
<linearGradient id="paint0_linear_1913_20755" x1="456.691" y1="281.509" x2="9.66186" y2="80.4439" gradientUnits="userSpaceOnUse">
<stop stop-color="#BB9DEB"/>
<stop offset="1" stop-color="#F19ED8"/>
</linearGradient>
<linearGradient id="paint1_linear_1913_20755" x1="129.876" y1="104.643" x2="62.852" y2="394.291" gradientUnits="userSpaceOnUse">
<stop stop-color="#FFCEEC"/>
<stop offset="1" stop-color="#FFCEEC" stop-opacity="0"/>
</linearGradient>
<clipPath id="clip0_1913_20755">
<rect width="349" height="369" rx="24" fill="white"/>
</clipPath>
<clipPath id="clip1_1913_20755">
<rect width="200.964" height="297.288" fill="white" transform="translate(32.021 55) rotate(13.0289)"/>
</clipPath>
</defs>
</svg>
