<svg width="349" height="373" viewBox="0 0 349 373" fill="none" xmlns="http://www.w3.org/2000/svg">
<rect x="29" width="289" height="373" rx="24" fill="#BED3E9"/>
<rect x="16" y="18" width="315" height="355" rx="24" fill="#98B7D8"/>
<g clip-path="url(#clip0_1911_8656)">
<rect y="35" width="349" height="338" rx="24" fill="#6485A8"/>
<path d="M93.72 76.464V92.136H90.504V88.68H87.84V86.16H90.504V84.024H87.84V81.504H90.504V76.464H93.72ZM83.112 90.936V95.136H93.912V97.68H79.896V90.936H83.112ZM87.768 81.504H86.352C86.928 82.368 87.216 83.28 87.216 84.24C87.216 85.248 86.984 86.152 86.52 86.952C86.056 87.736 85.408 88.352 84.576 88.8C83.76 89.232 82.824 89.448 81.768 89.448C80.728 89.448 79.8 89.232 78.984 88.8C78.168 88.352 77.52 87.736 77.04 86.952C76.576 86.152 76.344 85.248 76.344 84.24C76.344 83.264 76.64 82.352 77.232 81.504H75.792V78.912H80.232V76.608H83.328V78.912H87.768V81.504ZM79.416 84.24C79.416 85.056 79.624 85.712 80.04 86.208C80.472 86.688 81.048 86.928 81.768 86.928C82.488 86.928 83.064 86.688 83.496 86.208C83.944 85.712 84.168 85.056 84.168 84.24C84.168 83.408 83.944 82.752 83.496 82.272C83.064 81.776 82.488 81.528 81.768 81.528C81.048 81.528 80.472 81.776 80.04 82.272C79.624 82.752 79.416 83.408 79.416 84.24ZM115.133 76.44V97.32H112.109V87.264H110.429V96.36H107.453V76.776H110.429V84.696H112.109V76.44H115.133ZM95.8365 90.504L98.9805 85.128C99.3165 84.536 99.5405 84.04 99.6525 83.64C99.7645 83.224 99.8205 82.752 99.8205 82.224V80.856H96.7005V78.264H106.085V80.856H102.965V82.224C102.965 82.752 103.021 83.224 103.133 83.64C103.261 84.04 103.501 84.536 103.853 85.128L106.949 90.504L104.357 91.992L101.405 86.856L98.4285 91.992L95.8365 90.504ZM135.932 87.024V80.112H124.796V77.496H139.172V87.024H142.268V89.616H134.012V98.088H130.772V89.616H122.732V87.024H135.932ZM151.657 86.832V84.984H146.377V77.328H160.369V79.848H149.545V82.464H160.369V84.984H154.873V86.832H163.057V89.328H143.521V86.832H151.657ZM160.441 90.744V98.112H157.249V93.264H146.209V90.744H160.441ZM182.669 76.44V92.232H179.477V90.408H175.349V87.96H179.477V76.44H182.669ZM170.237 91.104V86.664H164.429V84.072H172.949V79.92H165.533V77.304H176.165V84.072H177.893V86.664H173.429V91.296H170.885V95.136H183.005V97.68H167.693V91.104H170.237ZM203.026 76.416V97.368H199.786V76.416H203.026ZM191.338 90.816C190.17 90.816 189.122 90.552 188.194 90.024C187.282 89.48 186.562 88.736 186.034 87.792C185.522 86.848 185.266 85.768 185.266 84.552C185.266 83.32 185.522 82.224 186.034 81.264C186.562 80.304 187.282 79.56 188.194 79.032C189.122 78.488 190.17 78.216 191.338 78.216C192.506 78.216 193.546 78.488 194.458 79.032C195.37 79.56 196.082 80.304 196.594 81.264C197.106 82.224 197.362 83.32 197.362 84.552C197.362 85.768 197.106 86.848 196.594 87.792C196.082 88.736 195.37 89.48 194.458 90.024C193.546 90.552 192.506 90.816 191.338 90.816ZM191.338 88.152C192.218 88.152 192.914 87.824 193.426 87.168C193.954 86.512 194.218 85.64 194.218 84.552C194.218 83.448 193.954 82.568 193.426 81.912C192.914 81.24 192.218 80.904 191.338 80.904C190.458 80.904 189.754 81.24 189.226 81.912C188.698 82.568 188.434 83.448 188.434 84.552C188.434 85.64 188.698 86.512 189.226 87.168C189.754 87.824 190.458 88.152 191.338 88.152ZM217.417 88.056C216.281 88.056 215.273 87.824 214.393 87.36C213.513 86.88 212.825 86.224 212.329 85.392C211.849 84.56 211.609 83.608 211.609 82.536C211.609 81.464 211.849 80.512 212.329 79.68C212.825 78.832 213.513 78.176 214.393 77.712C215.273 77.232 216.281 76.992 217.417 76.992C218.809 76.992 220.001 77.352 220.993 78.072C222.001 78.776 222.665 79.736 222.985 80.952H226.297V76.464H229.514V87.864H226.297V83.52H223.105C222.881 84.88 222.249 85.976 221.209 86.808C220.185 87.64 218.921 88.056 217.417 88.056ZM219.121 95.424V93.624H217.225V95.424H219.121ZM214.321 89.136H217.225V91.296H219.121V89.136H222.001V95.904L224.257 92.64C224.753 91.936 225.001 91.384 225.001 90.984V89.04H228.025V90.984C228.025 91.4 228.257 91.952 228.721 92.64L231.41 96.48L229.057 98.16L226.489 94.512L223.993 98.136L222.001 96.792V97.824H214.321V89.136ZM217.417 85.464C218.217 85.464 218.857 85.2 219.337 84.672C219.817 84.128 220.057 83.416 220.057 82.536C220.057 81.64 219.817 80.928 219.337 80.4C218.857 79.856 218.217 79.584 217.417 79.584C216.601 79.584 215.945 79.856 215.449 80.4C214.953 80.928 214.705 81.64 214.705 82.536C214.705 83.416 214.953 84.128 215.449 84.672C215.945 85.2 216.601 85.464 217.417 85.464ZM238.182 90.816C237.014 90.816 235.966 90.552 235.038 90.024C234.126 89.48 233.406 88.736 232.878 87.792C232.366 86.848 232.11 85.768 232.11 84.552C232.11 83.32 232.366 82.224 232.878 81.264C233.406 80.304 234.126 79.56 235.038 79.032C235.966 78.488 237.014 78.216 238.182 78.216C239.75 78.216 241.07 78.688 242.142 79.632C243.214 80.56 243.87 81.8 244.11 83.352H247.11V76.416H250.302V97.368H247.11V85.896H244.086C243.814 87.384 243.142 88.576 242.07 89.472C241.014 90.368 239.718 90.816 238.182 90.816ZM238.182 88.152C239.062 88.152 239.758 87.824 240.27 87.168C240.798 86.512 241.062 85.64 241.062 84.552C241.062 83.448 240.798 82.568 240.27 81.912C239.758 81.24 239.062 80.904 238.182 80.904C237.302 80.904 236.598 81.24 236.07 81.912C235.542 82.568 235.278 83.448 235.278 84.552C235.278 85.64 235.542 86.512 236.07 87.168C236.598 87.824 237.302 88.152 238.182 88.152ZM257.77 92.472V87.936C257.178 87.36 256.722 86.696 256.402 85.944C256.098 85.176 255.946 84.344 255.946 83.448C255.946 82.232 256.234 81.144 256.81 80.184C257.386 79.224 258.186 78.472 259.21 77.928C260.234 77.384 261.394 77.112 262.69 77.112C264.002 77.112 265.17 77.384 266.194 77.928C267.234 78.472 268.042 79.224 268.618 80.184C269.194 81.144 269.482 82.232 269.482 83.448C269.482 84.328 269.33 85.144 269.026 85.896C268.722 86.648 268.282 87.312 267.706 87.888V92.472H272.506V95.064H252.97V92.472H257.77ZM259.114 83.448C259.114 84.52 259.442 85.408 260.098 86.112C260.754 86.8 261.618 87.144 262.69 87.144C263.778 87.144 264.65 86.8 265.306 86.112C265.978 85.408 266.314 84.52 266.314 83.448C266.314 82.36 265.978 81.472 265.306 80.784C264.65 80.08 263.778 79.728 262.69 79.728C261.618 79.728 260.754 80.08 260.098 80.784C259.442 81.472 259.114 82.36 259.114 83.448ZM264.49 92.472V89.568C263.882 89.696 263.282 89.76 262.69 89.76C262.178 89.76 261.602 89.704 260.962 89.592V92.472H264.49Z" fill="white"/>
<g clip-path="url(#clip1_1911_8656)">
<path fill-rule="evenodd" clip-rule="evenodd" d="M0.189036 257.022C-2.7194 260.495 -4.32999 264.485 -5.92021 268.747C-6.97301 271.48 -8.32786 274.181 -9.68448 276.885C-10.5629 278.636 -11.4422 280.389 -12.2406 282.153C-13.74 285.465 -15.0778 288.786 -16.4301 292.142C-16.9098 293.333 -17.3914 294.528 -17.8826 295.729C-18.651 297.608 -19.6729 299.372 -20.6901 301.128C-22.1567 303.66 -23.6137 306.176 -24.2876 308.993C-25.4288 313.765 -26.2452 318.679 -26.0579 323.665C-25.963 326.711 -24.5463 329.476 -23.0495 332.398L-23.0494 332.398C-22.2495 333.959 -21.4267 335.565 -20.7706 337.283C-20.3827 338.307 -20.0294 339.354 -19.671 340.417C-18.5614 343.707 -17.4026 347.144 -15.0158 350.476C-14.4456 351.289 -13.8797 352.13 -13.302 352.989L-13.3012 352.991L-13.301 352.991C-11.2797 355.997 -9.11427 359.216 -6.11895 362.172C-5.1292 363.162 -4.13561 364.228 -3.11582 365.321C-0.821102 367.782 1.60625 370.385 4.42073 372.595C6.90714 374.547 9.84448 375.869 12.785 377.193C14.6521 378.033 16.5205 378.874 18.2756 379.877C19.2798 380.451 20.298 380.993 21.3264 381.511C20.7649 382.263 20.1949 383.111 19.6203 384.069C19.1047 384.877 18.5129 385.703 17.8946 386.565C16.7265 388.193 15.464 389.954 14.4427 391.981C13.4182 394.034 12.4267 396.238 11.4109 398.496C11.1033 399.179 10.7934 399.868 10.4797 400.559C9.83153 402.007 9.47845 403.661 9.12315 405.326C8.80092 406.836 8.47688 408.354 7.92926 409.734C7.36784 411.149 6.46716 412.436 5.56298 413.728C4.61278 415.086 3.65868 416.449 3.09033 417.972C2.53576 419.459 2.31676 421.045 2.09777 422.631C1.87876 424.217 1.65978 425.803 1.10518 427.289C0.497134 428.919 -0.0259836 430.571 -0.54326 432.203C-0.969576 433.549 -1.39195 434.882 -1.85464 436.181C-2.39656 437.735 -3.05556 439.214 -3.69635 440.653C-4.33399 442.084 -4.95363 443.475 -5.42199 444.859C-6.03258 446.644 -6.84218 448.257 -7.59771 449.763C-8.25059 451.064 -8.86311 452.285 -9.27198 453.466C-9.96466 455.577 -11.0818 457.059 -11.9713 458.239C-13.4027 460.138 -14.2448 461.255 -11.7806 462.953C-9.50133 464.523 -8.16614 464.327 -6.55815 464.09C-5.34744 463.912 -3.98206 463.712 -1.94259 464.225C0.438611 464.825 1.58619 465.28 2.73033 465.734C3.86764 466.186 5.00157 466.636 7.34036 467.225C9.68618 467.815 10.884 468.012 12.0819 468.208C13.2798 468.404 14.4776 468.6 16.8235 469.191C19.1693 469.781 20.3172 470.176 21.4652 470.57C22.6132 470.965 23.7611 471.359 26.1069 471.95C28.4527 472.54 29.6007 472.935 30.7487 473.329C31.8966 473.723 33.0446 474.118 35.3904 474.708C37.7362 475.299 38.9769 475.325 40.2175 475.351C41.4581 475.378 42.6988 475.404 45.0446 475.995C47.3904 476.585 48.5562 476.909 49.722 477.232C50.8878 477.556 52.0535 477.88 54.3994 478.47C56.7452 479.061 57.8789 479.512 59.0126 479.963C60.1463 480.414 61.28 480.865 63.6258 481.456C65.9716 482.046 67.116 482.455 68.2604 482.863C69.4048 483.272 70.5492 483.681 72.895 484.271C75.2408 484.862 76.4921 484.846 77.7435 484.829C78.9948 484.813 80.2462 484.797 82.592 485.387C84.5835 485.889 85.6678 486.509 86.6282 487.058C87.9304 487.803 89.0049 488.418 91.8041 488.43C93.0533 486.094 94.4589 483.376 95.4418 479.95C96.0536 477.879 96.4811 475.592 96.93 473.19C97.0767 472.405 97.2257 471.608 97.3841 470.802C97.6356 469.608 97.963 468.392 98.2965 467.154C98.7773 465.368 99.2706 463.536 99.5669 461.655C99.8406 459.855 100.004 457.985 100.167 456.11C100.278 454.843 100.389 453.573 100.534 452.322C100.739 450.56 100.866 448.799 100.993 447.034C101.089 445.692 101.186 444.349 101.317 443.003C101.498 441.152 101.563 439.337 101.63 437.496C101.675 436.239 101.721 434.969 101.804 433.67C101.912 431.972 101.866 430.286 101.82 428.634C101.78 427.17 101.74 425.733 101.81 424.336C101.893 422.659 102.388 421.039 102.869 419.465C103.327 417.968 103.772 416.512 103.837 415.089C103.917 413.224 103.594 411.433 103.291 409.756C103.033 408.326 102.79 406.979 102.825 405.74C102.901 403.322 103.641 401.874 104.184 400.813C104.196 400.789 104.209 400.764 104.221 400.74C105.48 400.567 106.719 400.468 107.93 400.522C110.672 400.61 113.329 401.279 115.901 401.926C118.473 402.574 120.96 403.2 123.364 403.203C125.939 403.187 128.41 403.262 130.749 403.333C133.712 403.423 136.463 403.507 138.944 403.391C143.328 403.177 145.375 403.313 147.036 403.424C149.018 403.555 150.452 403.651 154.654 403.07C158.837 402.367 162.671 399.736 166.127 397.366L166.128 397.365L166.132 397.362C166.822 396.889 167.497 396.425 168.157 395.99C172.122 393.374 176.229 390.192 179.249 386.074C181.071 383.641 182.084 380.6 183.126 377.472C183.69 375.778 184.263 374.06 184.976 372.399C186.334 369.145 187.141 365.685 187.984 362.066C188.271 360.837 188.562 359.589 188.88 358.325C189.395 356.279 190.388 354.234 191.389 352.173C192.633 349.611 193.889 347.024 194.255 344.38C194.612 341.796 194.063 339.037 193.514 336.283C193.049 333.95 192.586 331.621 192.675 329.407L192.691 329.008C192.88 324.308 193.071 319.557 192.861 314.818C192.768 312.712 192.928 310.581 193.089 308.446C193.299 305.642 193.511 302.833 193.147 300.074C192.93 298.477 192.609 296.922 192.201 295.405C192.374 294.395 192.539 293.324 192.712 292.2L192.712 292.2C192.974 290.5 193.254 288.678 193.611 286.757C193.865 285.274 194.303 283.763 194.757 282.197C195.221 280.594 195.702 278.933 196.021 277.185C196.283 275.683 196.808 274.191 197.343 272.672C197.917 271.041 198.502 269.38 198.784 267.642C199.035 266.049 198.95 264.356 198.865 262.664C198.78 260.971 198.696 259.278 198.946 257.685C199.197 256.096 199.756 254.524 200.319 252.946C200.884 251.36 201.451 249.767 201.71 248.142C201.974 246.483 201.99 244.809 202.006 243.125C202.021 241.518 202.037 239.903 202.268 238.285C202.531 236.444 202.615 234.651 202.7 232.848L202.7 232.848L202.7 232.848C202.767 231.405 202.835 229.956 202.996 228.47C203.177 226.791 203.707 225.17 204.231 223.571C204.75 221.985 205.262 220.421 205.42 218.841C205.582 217.05 205.39 215.238 205.202 213.468C205.038 211.922 204.878 210.408 204.96 208.969C205.048 207.561 205.196 206.189 205.34 204.854C205.553 202.871 205.758 200.972 205.745 199.168C205.772 196.367 205.35 193.861 204.974 191.622C204.85 190.883 204.731 190.174 204.634 189.493C203.923 184.676 203.123 181.885 200.876 181.5C198.629 181.115 196.024 182.627 192.554 185.187C191.688 185.837 190.644 186.396 189.541 186.988C187.812 187.915 185.936 188.92 184.371 190.474C183.27 191.588 182.352 192.963 181.4 194.389C180.539 195.68 179.649 197.012 178.571 198.229C177.423 199.501 176.42 200.992 175.416 202.485L175.416 202.485C174.599 203.699 173.782 204.914 172.885 206.013C171.913 207.203 170.652 208.191 169.387 209.183C168.049 210.231 166.708 211.282 165.703 212.576C164.668 213.908 163.819 215.371 162.963 216.846L162.963 216.846C162.201 218.159 161.433 219.482 160.524 220.728C159.563 222.047 158.374 223.204 157.204 224.343L157.204 224.343C156.026 225.489 154.866 226.617 153.977 227.873C152.949 229.322 152.171 230.901 151.417 232.43L151.417 232.43L151.417 232.43C150.735 233.812 150.073 235.154 149.265 236.324C148.234 237.784 147.108 239.085 146.047 240.312L146.047 240.312C144.99 241.532 143.997 242.679 143.226 243.837C142.285 245.216 141.28 246.165 140.367 246.916C139.876 246.633 139.373 246.382 138.855 246.172C135.749 244.941 132.525 244.414 129.5 243.92C127.256 243.553 125.121 243.204 123.225 242.599C117.795 240.907 116.084 240.734 113.929 240.515L113.929 240.515C112.479 240.367 110.828 240.2 107.707 239.535C105.895 239.1 104.071 238.562 102.234 238.019L102.233 238.019L102.233 238.019C98.9549 237.051 95.6358 236.071 92.275 235.65C88.8518 235.22 85.3855 235.268 81.9124 235.315C80.0648 235.34 78.2153 235.366 76.3693 235.319C75.4888 235.297 74.6085 235.202 73.728 235.061C75.1943 233.643 74.7887 232.624 74.1009 230.894C73.6344 229.721 73.0382 228.222 72.8078 226.051C72.682 224.722 72.2002 223.331 71.6863 221.848C71.1264 220.232 70.5283 218.505 70.3111 216.629C70.1556 215.24 70.1081 213.786 70.0593 212.289C70.0035 210.58 69.9458 208.815 69.7235 207.025C69.5513 205.627 69.5222 204.164 69.4925 202.675C69.4576 200.919 69.4219 199.128 69.1503 197.365C68.9137 195.83 68.7211 194.332 68.5294 192.843C68.3143 191.172 68.1004 189.51 67.8274 187.817C67.5608 186.164 66.9549 184.586 66.3503 183.011C65.7838 181.536 65.2185 180.064 64.9345 178.536C64.6983 177.265 64.5171 175.969 64.3365 174.677L64.3364 174.677C64.0681 172.758 63.801 170.848 63.357 169.044C63.041 167.703 62.8006 166.372 62.5666 165.075L62.5666 165.075L62.5665 165.075C62.2194 163.152 61.8863 161.307 61.341 159.623C60.5009 156.865 59.3453 154.449 58.3191 152.304L58.319 152.304L58.3189 152.304L58.3182 152.302L58.317 152.3C58.0575 151.757 57.8063 151.232 57.5706 150.723C55.7267 146.826 53.9241 143.481 51.7623 142.756C49.6006 142.031 47.1481 145.088 44.227 149.05C42.9812 150.744 41.8805 152.819 40.6427 155.154L40.6426 155.154L40.6415 155.156C40.2454 155.903 39.8353 156.676 39.4018 157.472C38.7741 158.62 37.9844 159.738 37.1673 160.895C36.0996 162.406 34.9852 163.984 34.1244 165.78C33.5515 167.009 32.8726 168.246 32.1794 169.509L32.1792 169.509C31.2913 171.127 30.38 172.787 29.6379 174.528C29.0088 176.043 28.4471 177.608 27.8776 179.194C27.3405 180.69 26.7965 182.205 26.1826 183.716C25.5267 185.331 25.3267 187.06 25.1276 188.782C24.9427 190.38 24.7585 191.972 24.2106 193.459C23.6418 195.002 22.6774 196.385 21.713 197.769C20.7486 199.152 19.7842 200.535 19.2154 202.078C18.6337 203.656 18.4251 205.375 18.2174 207.086C18.019 208.72 17.8214 210.347 17.3 211.835C16.7674 213.355 16.2382 214.92 15.7091 216.486L15.7079 216.489L15.7065 216.493L15.7052 216.497C15.1756 218.064 14.646 219.63 14.113 221.151C13.562 222.747 12.8404 224.255 12.1315 225.737C11.4127 227.239 10.707 228.714 10.2055 230.226C9.63006 232.003 8.91483 233.66 8.22571 235.257L8.22562 235.257C7.61941 236.662 7.03342 238.019 6.58059 239.371C5.9424 241.364 5.51387 243.293 5.11677 245.081L5.11673 245.081L5.11668 245.081L5.11654 245.082L5.11642 245.082C4.81397 246.444 4.52977 247.723 4.18499 248.886C3.37885 251.459 1.79778 253.292 0.690031 254.576C-0.4666 255.917 -1.10724 256.659 0.189036 257.022Z" fill="url(#paint0_linear_1911_8656)" fill-opacity="0.6"/>
</g>
</g>
<defs>
<linearGradient id="paint0_linear_1911_8656" x1="126.588" y1="161.589" x2="46.8595" y2="478.269" gradientUnits="userSpaceOnUse">
<stop stop-color="#97B5D5" stop-opacity="0.75"/>
<stop offset="1" stop-color="#E3E8F5" stop-opacity="0"/>
</linearGradient>
<clipPath id="clip0_1911_8656">
<rect y="35" width="349" height="338" rx="24" fill="white"/>
</clipPath>
<clipPath id="clip1_1911_8656">
<rect width="220.743" height="326.548" fill="white" transform="matrix(-0.969739 -0.244145 -0.244145 0.969739 233.605 188.539)"/>
</clipPath>
</defs>
</svg>
