<svg width="349" height="504" viewBox="0 0 349 504" fill="none" xmlns="http://www.w3.org/2000/svg">
<g clip-path="url(#clip0_1188_15017)">
<rect width="349" height="504" rx="24" fill="url(#paint0_linear_1188_15017)"/>
<g clip-path="url(#clip1_1188_15017)">
<path fill-rule="evenodd" clip-rule="evenodd" d="M358.509 228.098C362.338 232.669 364.458 237.921 366.551 243.532C367.937 247.13 369.721 250.685 371.507 254.245L371.507 254.246C372.663 256.551 373.821 258.858 374.871 261.18C376.845 265.54 378.606 269.911 380.386 274.329L380.391 274.341C381.021 275.905 381.654 277.474 382.299 279.052C383.31 281.525 384.655 283.847 385.995 286.159L385.995 286.159C387.925 289.492 389.843 292.804 390.73 296.513C392.233 302.794 393.307 309.263 393.061 315.826C392.936 319.837 391.071 323.477 389.1 327.323C388.047 329.378 386.964 331.492 386.1 333.753C385.59 335.101 385.125 336.48 384.653 337.878L384.653 337.879C383.192 342.211 381.667 346.734 378.525 351.121C377.776 352.188 377.034 353.292 376.275 354.42L376.269 354.43L376.268 354.431C373.607 358.388 370.756 362.627 366.813 366.517C365.51 367.821 364.203 369.223 362.861 370.662L362.86 370.663L362.86 370.663C359.839 373.903 356.643 377.329 352.938 380.238C349.665 382.808 345.799 384.548 341.928 386.291L341.927 386.291L341.927 386.291C339.469 387.397 337.01 388.504 334.7 389.825C333.377 390.581 332.037 391.294 330.682 391.976C331.421 392.967 332.172 394.082 332.928 395.343C333.607 396.407 334.386 397.493 335.199 398.628C336.737 400.772 338.399 403.089 339.744 405.758C341.092 408.461 342.397 411.362 343.735 414.334C344.14 415.234 344.548 416.141 344.961 417.051C345.814 418.956 346.279 421.134 346.746 423.326C347.17 425.313 347.597 427.312 348.318 429.129C349.057 430.992 350.243 432.686 351.433 434.386C352.684 436.173 353.94 437.967 354.688 439.973C355.418 441.93 355.706 444.018 355.995 446.106C356.283 448.194 356.571 450.282 357.301 452.239C358.102 454.384 358.79 456.558 359.471 458.707C360.032 460.479 360.588 462.234 361.198 463.943C361.911 465.989 362.778 467.936 363.622 469.83C364.461 471.714 365.277 473.545 365.894 475.367C366.697 477.717 367.763 479.841 368.758 481.823C369.617 483.536 370.424 485.142 370.962 486.698C371.874 489.476 373.344 491.427 374.515 492.981C376.399 495.481 377.508 496.951 374.264 499.186C371.264 501.253 369.506 500.995 367.389 500.684C365.795 500.449 363.998 500.185 361.313 500.861C358.179 501.65 356.668 502.25 355.162 502.848C353.665 503.442 352.172 504.035 349.093 504.81C346.005 505.587 344.428 505.845 342.851 506.104C341.274 506.362 339.698 506.62 336.61 507.398C333.522 508.175 332.01 508.694 330.499 509.213C328.988 509.733 327.477 510.252 324.389 511.029C321.301 511.807 319.79 512.326 318.278 512.845C316.767 513.364 315.256 513.884 312.168 514.661C309.08 515.439 307.447 515.473 305.814 515.508C304.18 515.542 302.547 515.577 299.459 516.354C296.371 517.132 294.836 517.558 293.302 517.984C291.767 518.41 290.232 518.836 287.144 519.613C284.056 520.391 282.564 520.985 281.072 521.578C279.579 522.172 278.087 522.766 274.999 523.543C271.911 524.321 270.404 524.859 268.898 525.396C267.391 525.934 265.885 526.472 262.797 527.25C259.709 528.027 258.061 528.006 256.414 527.984C254.767 527.963 253.12 527.942 250.031 528.719C247.41 529.379 245.983 530.196 244.718 530.919C243.004 531.899 241.589 532.709 237.905 532.724C236.26 529.649 234.41 526.071 233.116 521.561C232.311 518.835 231.748 515.824 231.157 512.662C230.964 511.629 230.768 510.58 230.559 509.519C230.228 507.946 229.797 506.346 229.358 504.716C228.725 502.366 228.076 499.954 227.686 497.477C227.325 495.108 227.11 492.646 226.895 490.178C226.749 488.51 226.604 486.838 226.412 485.192C226.143 482.873 225.976 480.553 225.809 478.231C225.681 476.464 225.554 474.696 225.381 472.924C225.144 470.488 225.058 468.097 224.97 465.675C224.911 464.019 224.85 462.348 224.741 460.638C224.598 458.403 224.659 456.184 224.719 454.008C224.772 452.081 224.825 450.189 224.733 448.35C224.624 446.143 223.972 444.011 223.339 441.939C222.736 439.967 222.15 438.051 222.064 436.178C221.959 433.723 222.385 431.365 222.783 429.158C223.123 427.275 223.443 425.501 223.397 423.87C223.296 420.688 222.322 418.782 221.608 417.385C221.591 417.352 221.575 417.32 221.559 417.288C219.902 417.061 218.272 416.931 216.679 417.001C213.068 417.117 209.571 417.998 206.185 418.85L206.185 418.85C202.799 419.703 199.525 420.527 196.361 420.531C192.971 420.51 189.718 420.609 186.639 420.703C182.738 420.821 179.117 420.931 175.851 420.779C170.08 420.497 167.386 420.676 165.199 420.821C162.589 420.995 160.702 421.12 155.171 420.356C149.664 419.43 144.617 415.968 140.067 412.847L140.066 412.846C139.156 412.221 138.265 411.61 137.395 411.036C132.176 407.593 126.769 403.404 122.793 397.983C120.395 394.78 119.061 390.776 117.69 386.658C116.947 384.429 116.193 382.167 115.254 379.98C113.467 375.696 112.405 371.141 111.294 366.379C110.917 364.76 110.534 363.117 110.115 361.453C109.437 358.76 108.13 356.068 106.813 353.355C105.175 349.982 103.522 346.577 103.04 343.095C102.569 339.694 103.293 336.062 104.015 332.437C104.626 329.366 105.237 326.301 105.12 323.385L105.099 322.86C104.85 316.673 104.598 310.418 104.874 304.18C104.997 301.409 104.786 298.602 104.575 295.793C104.297 292.101 104.02 288.403 104.498 284.771C104.784 282.669 105.207 280.622 105.743 278.626C105.516 277.296 105.298 275.886 105.07 274.406L105.07 274.406C104.726 272.169 104.356 269.77 103.887 267.241C103.552 265.288 102.976 263.3 102.379 261.239C101.768 259.128 101.134 256.942 100.715 254.641C100.37 252.663 99.6781 250.698 98.9742 248.699C98.2185 246.552 97.4485 244.365 97.0775 242.078C96.7473 239.981 96.8589 237.752 96.9705 235.524C97.0821 233.296 97.1937 231.068 96.8635 228.97C96.5341 226.878 95.7971 224.809 95.0569 222.732C94.3132 220.644 93.5662 218.547 93.2259 216.408C92.8784 214.224 92.8573 212.02 92.8361 209.804C92.8159 207.688 92.7955 205.562 92.491 203.431C92.1447 201.008 92.0339 198.648 91.9225 196.275C91.8334 194.375 91.7439 192.467 91.5329 190.511C91.2945 188.302 90.5962 186.168 89.9071 184.062C89.2241 181.975 88.55 179.915 88.3417 177.836C88.1281 175.478 88.381 173.092 88.628 170.763C88.8438 168.727 89.0551 166.735 88.9469 164.84C88.8307 162.987 88.6362 161.18 88.4472 159.423C88.1662 156.812 87.8972 154.312 87.9144 151.938C87.8786 148.25 88.4331 144.952 88.9287 142.004L88.9287 142.004C89.0921 141.032 89.249 140.099 89.3763 139.202C90.3121 132.861 91.3652 129.187 94.3235 128.68C97.2819 128.173 100.711 130.164 105.278 133.533C106.418 134.389 107.792 135.125 109.245 135.904L109.245 135.904C111.521 137.124 113.99 138.447 116.051 140.494C117.5 141.96 118.708 143.77 119.961 145.647C121.096 147.346 122.267 149.1 123.685 150.702C125.197 152.376 126.518 154.339 127.839 156.304L127.839 156.304C128.914 157.903 129.99 159.503 131.171 160.948C132.45 162.515 134.111 163.816 135.776 165.121C137.537 166.501 139.302 167.885 140.626 169.589C141.988 171.342 143.106 173.268 144.232 175.209L144.232 175.209L144.232 175.209C145.236 176.938 146.246 178.679 147.442 180.32C148.708 182.056 150.273 183.579 151.814 185.078L151.814 185.078C153.365 186.587 154.891 188.072 156.061 189.726C157.414 191.634 158.439 193.711 159.432 195.724C160.329 197.544 161.201 199.31 162.264 200.85C163.621 202.773 165.103 204.485 166.501 206.1L166.501 206.1C167.892 207.707 169.199 209.217 170.214 210.741C171.453 212.555 172.776 213.805 173.978 214.794C174.625 214.421 175.287 214.092 175.969 213.815C180.057 212.194 184.301 211.5 188.283 210.85L188.283 210.85L188.283 210.849C191.238 210.367 194.049 209.907 196.544 209.11C203.692 206.884 205.945 206.655 208.781 206.367C210.69 206.173 212.863 205.952 216.972 205.077C219.357 204.505 221.759 203.796 224.177 203.082C228.493 201.808 232.862 200.518 237.287 199.963C241.793 199.398 246.356 199.46 250.928 199.522C253.36 199.556 255.795 199.589 258.225 199.528C259.384 199.498 260.543 199.374 261.702 199.188C259.772 197.322 260.306 195.979 261.211 193.702C261.825 192.159 262.61 190.185 262.914 187.327C263.079 185.578 263.713 183.747 264.39 181.794C265.127 179.666 265.914 177.394 266.2 174.924C266.405 173.095 266.467 171.182 266.532 169.211L266.532 169.211C266.605 166.961 266.681 164.637 266.974 162.281C267.2 160.441 267.239 158.515 267.278 156.555L267.278 156.554L267.278 156.554L267.278 156.554L267.278 156.554C267.324 154.243 267.371 151.885 267.728 149.564C268.04 147.543 268.293 145.572 268.546 143.612C268.829 141.411 269.11 139.224 269.47 136.995C269.821 134.819 270.618 132.742 271.414 130.67C272.16 128.728 272.904 126.79 273.278 124.778C273.589 123.105 273.828 121.399 274.065 119.698C274.419 117.172 274.77 114.658 275.355 112.283C275.771 110.518 276.087 108.765 276.395 107.059L276.395 107.058L276.395 107.058L276.395 107.058C276.852 104.527 277.291 102.097 278.009 99.8806C279.115 96.2499 280.636 93.0697 281.987 90.2459L281.987 90.2454C282.329 89.5296 282.661 88.8368 282.972 88.1654C285.399 83.035 287.772 78.6318 290.618 77.6775C293.464 76.7232 296.692 80.7468 300.538 85.9629C302.178 88.1924 303.627 90.9248 305.256 93.9978C305.778 94.9818 306.318 96.0008 306.889 97.0494C307.716 98.56 308.755 100.032 309.831 101.555L309.831 101.555C311.236 103.545 312.703 105.621 313.837 107.986C314.591 109.604 315.485 111.232 316.397 112.894C317.566 115.024 318.766 117.21 319.743 119.502C320.571 121.496 321.31 123.555 322.059 125.642L322.06 125.643L322.06 125.644L322.061 125.645C322.767 127.614 323.483 129.608 324.291 131.597C325.155 133.723 325.418 135.999 325.68 138.265C325.924 140.37 326.166 142.466 326.887 144.422C327.636 146.454 328.906 148.275 330.175 150.096L330.175 150.096C331.445 151.917 332.714 153.738 333.463 155.769C334.229 157.847 334.503 160.109 334.777 162.361L334.777 162.361C335.038 164.513 335.298 166.655 335.984 168.613C336.687 170.617 337.384 172.681 338.082 174.745C338.78 176.809 339.478 178.873 340.18 180.877C340.905 182.977 341.855 184.962 342.788 186.913L342.788 186.913L342.788 186.914C343.735 188.891 344.663 190.833 345.324 192.822C346.081 195.162 347.022 197.343 347.929 199.444L347.93 199.445L347.93 199.446C348.728 201.295 349.499 203.082 350.096 204.862C350.936 207.485 351.5 210.024 352.022 212.378L352.023 212.378L352.023 212.379C352.421 214.172 352.795 215.856 353.249 217.388C354.31 220.775 356.392 223.187 357.85 224.877C359.373 226.642 360.216 227.62 358.509 228.098Z" fill="url(#paint1_linear_1188_15017)" fill-opacity="0.6"/>
</g>
</g>
<defs>
<linearGradient id="paint0_linear_1188_15017" x1="456.691" y1="384.5" x2="-28.1921" y2="224.826" gradientUnits="userSpaceOnUse">
<stop stop-color="#BB9DEB"/>
<stop offset="1" stop-color="#F19ED8"/>
</linearGradient>
<linearGradient id="paint1_linear_1188_15017" x1="192.116" y1="102.468" x2="297.072" y2="519.348" gradientUnits="userSpaceOnUse">
<stop stop-color="#FFCEEC"/>
<stop offset="1" stop-color="#FFCEEC" stop-opacity="0"/>
</linearGradient>
<clipPath id="clip0_1188_15017">
<rect width="349" height="504" rx="24" fill="white"/>
</clipPath>
<clipPath id="clip1_1188_15017">
<rect width="290.588" height="429.869" fill="white" transform="translate(51.2363 137.945) rotate(-14.1313)"/>
</clipPath>
</defs>
</svg>
