<svg width="349" height="369" viewBox="0 0 349 369" fill="none" xmlns="http://www.w3.org/2000/svg">
<g clip-path="url(#clip0_2499_21693)">
<rect width="349" height="369" rx="24" fill="url(#paint0_linear_2499_21693)"/>
<g clip-path="url(#clip1_2499_21693)">
<path fill-rule="evenodd" clip-rule="evenodd" d="M158.033 204.838C158.749 207.993 158.472 211.055 158.093 214.283C157.871 216.363 157.851 218.522 157.831 220.683L157.831 220.683L157.831 220.684C157.819 222.083 157.806 223.484 157.738 224.865C157.611 227.459 157.379 230.006 157.144 232.581C157.06 233.494 156.977 234.411 156.897 235.335C156.773 236.779 156.847 238.234 156.921 239.682L156.921 239.682C157.027 241.77 157.133 243.844 156.643 245.854C155.812 249.26 154.728 252.649 152.983 255.757C151.93 257.663 150.127 258.958 148.223 260.327C147.206 261.059 146.159 261.811 145.182 262.689C144.601 263.214 144.035 263.764 143.461 264.323C141.682 266.053 139.825 267.859 137.221 269.199C136.594 269.529 135.96 269.88 135.312 270.237L135.311 270.238C133.046 271.489 130.62 272.83 127.752 273.731C126.8 274.038 125.821 274.392 124.816 274.754C122.555 275.57 120.163 276.433 117.653 276.92C115.436 277.35 113.138 277.232 110.837 277.114L110.837 277.114L110.837 277.114C109.376 277.04 107.914 276.965 106.472 277.03C105.646 277.068 104.822 277.08 103.999 277.074C104.111 277.735 104.196 278.46 104.249 279.256C104.313 279.938 104.42 280.655 104.532 281.405C104.744 282.821 104.972 284.352 104.96 285.973C104.942 287.613 104.853 289.337 104.763 291.103C104.735 291.638 104.708 292.177 104.682 292.718C104.622 293.85 104.307 295.017 103.989 296.191C103.702 297.255 103.413 298.326 103.311 299.382C103.206 300.465 103.359 301.576 103.512 302.692C103.674 303.865 103.836 305.043 103.7 306.196C103.568 307.322 103.19 308.402 102.812 309.481C102.434 310.561 102.056 311.641 101.923 312.766C101.778 314.001 101.572 315.221 101.369 316.427C101.201 317.422 101.034 318.407 100.905 319.383C100.743 320.548 100.679 321.703 100.617 322.826C100.556 323.944 100.496 325.03 100.343 326.063C100.149 327.396 100.137 328.686 100.126 329.889C100.117 330.929 100.108 331.905 99.9829 332.789C99.7348 334.357 99.9616 335.663 100.142 336.703C100.433 338.377 100.604 339.362 98.4837 339.637C96.5228 339.892 95.7382 339.332 94.7932 338.657C94.0816 338.149 93.2792 337.577 91.8154 337.238C90.1063 336.842 89.2283 336.758 88.3529 336.673C87.4828 336.589 86.6153 336.506 84.9366 336.117C83.2529 335.728 82.4275 335.462 81.6022 335.196C80.7768 334.93 79.9514 334.664 78.2677 334.274C76.584 333.885 75.7257 333.761 74.8674 333.637C74.0091 333.514 73.1508 333.39 71.4671 333C69.7834 332.611 68.9251 332.487 68.0668 332.363C67.2085 332.24 66.3502 332.116 64.6665 331.727C62.9828 331.337 62.1857 330.949 61.3885 330.561C60.5914 330.173 59.7942 329.785 58.1105 329.396C56.4268 329.006 55.5803 328.832 54.7337 328.657C53.8872 328.483 53.0406 328.308 51.3569 327.919C49.6733 327.529 48.8055 327.446 47.9378 327.363C47.0701 327.28 46.2024 327.197 44.5187 326.807C42.835 326.418 41.9744 326.304 41.1137 326.191C40.2531 326.077 39.3924 325.964 37.7087 325.574C36.025 325.185 35.2349 324.766 34.4448 324.348C33.6547 323.929 32.8646 323.511 31.1809 323.121C29.7516 322.791 28.8601 322.831 28.0704 322.867C26.9998 322.916 26.1163 322.956 24.3333 322.051C24.3009 320.159 24.2938 317.973 24.7865 315.474C25.0727 313.959 25.547 312.365 26.0449 310.692C26.2077 310.146 26.3729 309.59 26.535 309.027C26.7646 308.185 26.953 307.306 27.1448 306.41C27.4215 305.118 27.7053 303.793 28.1306 302.5C28.5435 301.267 29.0497 300.025 29.557 298.78C29.9001 297.938 30.2437 297.095 30.5594 296.253C31.0039 295.066 31.4977 293.905 31.9922 292.742C32.3684 291.858 32.7449 290.972 33.1005 290.074C33.5894 288.839 34.14 287.663 34.6979 286.472C35.0793 285.657 35.4641 284.836 35.8351 283.983C36.3196 282.868 36.899 281.812 37.467 280.776C37.9699 279.859 38.4639 278.958 38.8754 278.048C39.3692 276.955 39.5827 275.764 39.7902 274.606C39.9876 273.505 40.1795 272.435 40.6021 271.509C41.1593 270.297 41.949 269.264 42.6882 268.297C43.3189 267.472 43.9129 266.695 44.2945 265.896C45.0342 264.335 45.036 263.173 45.0373 262.322C45.0373 262.302 45.0374 262.282 45.0374 262.263C44.2939 261.743 43.5392 261.276 42.7522 260.915C40.98 260.077 39.0732 259.636 37.2272 259.208C35.3812 258.781 33.5961 258.368 32.0674 257.586C30.4353 256.736 28.8401 255.978 27.3305 255.261C25.4175 254.352 23.6418 253.508 22.1022 252.625C19.3858 251.059 18.0404 250.478 16.9485 250.007C15.6453 249.444 14.7031 249.037 12.2217 247.298C9.79184 245.487 8.21255 242.564 6.78914 239.93L6.78894 239.93C6.50394 239.403 6.22519 238.887 5.94712 238.394C4.28014 235.438 2.70722 232.076 2.13033 228.474C1.76599 226.333 2.11387 224.069 2.47157 221.741C2.66523 220.481 2.86178 219.202 2.94973 217.913C3.14802 215.402 3.76359 212.94 4.40725 210.365C4.62601 209.49 4.84802 208.602 5.05799 207.694C5.39771 206.226 5.43353 204.603 5.46963 202.966C5.51451 200.932 5.55983 198.878 6.18961 197.078C6.8049 195.319 8.05406 193.744 9.30076 192.173C10.3568 190.841 11.4111 189.512 12.0768 188.075L12.1966 187.817C13.6091 184.768 15.037 181.685 16.7158 178.742C17.4617 177.434 18.0551 176.026 18.6491 174.617C19.4297 172.766 20.2115 170.912 21.3424 169.276C22.0007 168.333 22.7117 167.45 23.4651 166.619C23.6847 165.92 23.9292 165.185 24.186 164.413C24.5738 163.248 24.9895 161.998 25.3896 160.661C25.7115 159.635 25.926 158.532 26.1483 157.389C26.3759 156.218 26.6117 155.006 26.9794 153.791C27.3026 152.75 27.4553 151.63 27.6108 150.49C27.7776 149.267 27.9476 148.02 28.3351 146.823C28.6952 145.729 29.3011 144.681 29.907 143.632C30.5129 142.584 31.1188 141.536 31.4789 140.441C31.8382 139.349 31.9948 138.168 32.1521 136.981C32.3102 135.789 32.4689 134.592 32.8346 133.474C33.2079 132.334 33.7437 131.264 34.2824 130.189C34.7967 129.163 35.3136 128.131 35.6944 127.027C36.1274 125.771 36.6586 124.604 37.1928 123.43L37.1929 123.43C37.6204 122.491 38.0498 121.547 38.4325 120.551C38.8647 119.425 39.0562 118.221 39.2451 117.034C39.4324 115.857 39.6172 114.695 40.0316 113.64C40.5127 112.448 41.2258 111.359 41.9222 110.295C42.5306 109.366 43.1262 108.456 43.5435 107.514C43.9462 106.591 44.3 105.67 44.6439 104.775L44.6439 104.775C45.1551 103.445 45.6445 102.171 46.241 101.029C47.1373 99.2393 48.2222 97.784 49.1917 96.4834L49.1918 96.4834C49.5114 96.0546 49.8184 95.6427 50.1021 95.2412C52.1247 92.4114 53.5434 90.8981 55.0975 91.3862C56.6515 91.8743 57.814 93.6851 59.1846 96.4435C59.5231 97.139 60.0042 97.835 60.5126 98.5707C61.3096 99.7239 62.1738 100.974 62.6621 102.473C62.9984 103.54 63.1335 104.713 63.2735 105.93C63.4004 107.032 63.5313 108.169 63.8194 109.294C64.1348 110.477 64.286 111.752 64.4373 113.028L64.4373 113.028L64.4374 113.028C64.5605 114.066 64.6837 115.105 64.8955 116.095C65.125 117.169 65.6046 118.209 66.0854 119.251C66.5938 120.354 67.1035 121.459 67.3205 122.61C67.5438 123.794 67.6064 125.001 67.6695 126.217C67.7258 127.3 67.7824 128.391 67.9533 129.48C68.1341 130.632 68.5127 131.755 68.8853 132.86L68.8854 132.861C69.2605 133.973 69.6296 135.068 69.785 136.157C69.9657 137.413 69.9458 138.67 69.9265 139.888C69.909 140.989 69.8921 142.058 70.0245 143.065C70.2031 144.33 70.4946 145.524 70.7695 146.649L70.7695 146.649L70.7695 146.649C71.0431 147.77 71.3002 148.823 71.4129 149.811C71.5614 150.993 71.8909 151.925 72.2262 152.7C72.6309 152.68 73.0324 152.685 73.4305 152.72C75.8063 152.95 78.0273 153.667 80.1112 154.339C81.6575 154.838 83.1284 155.312 84.531 155.546C88.534 156.242 89.6782 156.689 91.1189 157.253C92.0888 157.632 93.193 158.064 95.394 158.659C96.6873 158.974 98.0226 159.226 99.3672 159.481C101.767 159.934 104.196 160.394 106.47 161.222C108.786 162.065 110.974 163.226 113.166 164.389L113.166 164.389L113.166 164.389C114.332 165.007 115.499 165.627 116.688 166.199C117.255 166.472 117.845 166.699 118.451 166.896C117.981 165.517 118.572 165.001 119.573 164.126C120.252 163.533 121.12 162.774 121.974 161.469C122.488 160.666 123.247 159.939 124.058 159.163C124.941 158.319 125.884 157.416 126.634 156.294C127.186 155.462 127.69 154.554 128.209 153.618C128.802 152.55 129.414 151.447 130.139 150.382C130.705 149.549 131.2 148.629 131.705 147.692L131.705 147.692L131.705 147.692C132.3 146.587 132.907 145.46 133.654 144.428C134.305 143.53 134.916 142.641 135.523 141.757L135.523 141.757L135.523 141.757C136.205 140.764 136.883 139.778 137.609 138.79C138.317 137.827 139.217 137.021 140.115 136.218C140.956 135.465 141.795 134.713 142.474 133.835C143.039 133.104 143.576 132.339 144.112 131.577L144.112 131.577L144.113 131.577C144.909 130.444 145.702 129.318 146.572 128.316C147.21 127.567 147.797 126.799 148.369 126.051L148.369 126.051C149.217 124.942 150.03 123.877 150.926 122.985C152.36 121.506 153.882 120.347 155.234 119.318C155.577 119.057 155.908 118.805 156.225 118.557C158.668 116.682 160.905 115.143 162.515 115.388C164.125 115.632 164.688 118.374 165.252 121.846C165.492 123.328 165.515 125.007 165.54 126.894L165.54 126.896C165.548 127.5 165.557 128.125 165.573 128.772C165.598 129.706 165.735 130.675 165.877 131.676L165.877 131.676C166.063 132.985 166.257 134.352 166.218 135.774C166.181 136.742 166.21 137.749 166.238 138.778L166.238 138.778C166.275 140.096 166.313 141.449 166.217 142.798C166.123 143.966 165.969 145.143 165.814 146.337L165.814 146.337L165.814 146.337L165.814 146.338C165.668 147.464 165.52 148.604 165.417 149.765C165.307 151.005 164.87 152.17 164.436 153.329C164.032 154.405 163.63 155.477 163.493 156.601C163.351 157.767 163.513 158.961 163.675 160.155C163.837 161.348 163.999 162.542 163.857 163.709C163.712 164.901 163.284 166.062 162.859 167.217L162.859 167.217L162.859 167.217C162.452 168.321 162.047 169.419 161.893 170.535C161.736 171.676 161.561 172.846 161.387 174.015L161.386 174.019C161.212 175.187 161.038 176.356 160.881 177.496C160.71 178.69 160.677 179.884 160.645 181.057L160.645 181.057L160.645 181.057C160.612 182.247 160.579 183.414 160.405 184.538C160.191 185.856 160.105 187.142 160.023 188.382L160.023 188.382C159.95 189.473 159.88 190.527 159.727 191.534C159.483 193.008 159.126 194.374 158.795 195.64L158.795 195.64L158.795 195.641C158.543 196.605 158.307 197.511 158.146 198.363C157.82 200.262 158.227 201.942 158.512 203.119C158.81 204.349 158.976 205.03 158.033 204.838Z" fill="url(#paint1_linear_2499_21693)" fill-opacity="0.6"/>
</g>
</g>
<defs>
<linearGradient id="paint0_linear_2499_21693" x1="456.691" y1="281.509" x2="9.66186" y2="80.4439" gradientUnits="userSpaceOnUse">
<stop stop-color="#F1AFD3"/>
<stop offset="1" stop-color="#9495FD"/>
</linearGradient>
<linearGradient id="paint1_linear_2499_21693" x1="108.811" y1="102.956" x2="56.216" y2="330.25" gradientUnits="userSpaceOnUse">
<stop stop-color="#D4B3F6"/>
<stop offset="1" stop-color="#E3E8F5" stop-opacity="0"/>
</linearGradient>
<clipPath id="clip0_2499_21693">
<rect width="349" height="369" rx="24" fill="white"/>
</clipPath>
<clipPath id="clip1_2499_21693">
<rect width="164.86" height="243.879" fill="white" transform="translate(32.0215 64) rotate(13.0289)"/>
</clipPath>
</defs>
</svg>
