<svg width="349" height="536" viewBox="0 0 349 536" fill="none" xmlns="http://www.w3.org/2000/svg">
<rect x="29" width="289" height="412" rx="24" fill="#BED3E9"/>
<rect x="16" y="18.001" width="315" height="450" rx="24" fill="#98B7D8"/>
<g clip-path="url(#clip0_1817_16678)">
<rect y="35" width="349" height="501" rx="24" fill="#6485A8"/>
<path d="M93.72 76.464V92.136H90.504V88.68H87.84V86.16H90.504V84.024H87.84V81.504H90.504V76.464H93.72ZM83.112 90.936V95.136H93.912V97.68H79.896V90.936H83.112ZM87.768 81.504H86.352C86.928 82.368 87.216 83.28 87.216 84.24C87.216 85.248 86.984 86.152 86.52 86.952C86.056 87.736 85.408 88.352 84.576 88.8C83.76 89.232 82.824 89.448 81.768 89.448C80.728 89.448 79.8 89.232 78.984 88.8C78.168 88.352 77.52 87.736 77.04 86.952C76.576 86.152 76.344 85.248 76.344 84.24C76.344 83.264 76.64 82.352 77.232 81.504H75.792V78.912H80.232V76.608H83.328V78.912H87.768V81.504ZM79.416 84.24C79.416 85.056 79.624 85.712 80.04 86.208C80.472 86.688 81.048 86.928 81.768 86.928C82.488 86.928 83.064 86.688 83.496 86.208C83.944 85.712 84.168 85.056 84.168 84.24C84.168 83.408 83.944 82.752 83.496 82.272C83.064 81.776 82.488 81.528 81.768 81.528C81.048 81.528 80.472 81.776 80.04 82.272C79.624 82.752 79.416 83.408 79.416 84.24ZM115.133 76.44V97.32H112.109V87.264H110.429V96.36H107.453V76.776H110.429V84.696H112.109V76.44H115.133ZM95.8365 90.504L98.9805 85.128C99.3165 84.536 99.5405 84.04 99.6525 83.64C99.7645 83.224 99.8205 82.752 99.8205 82.224V80.856H96.7005V78.264H106.085V80.856H102.965V82.224C102.965 82.752 103.021 83.224 103.133 83.64C103.261 84.04 103.501 84.536 103.853 85.128L106.949 90.504L104.357 91.992L101.405 86.856L98.4285 91.992L95.8365 90.504ZM135.932 87.024V80.112H124.796V77.496H139.172V87.024H142.268V89.616H134.012V98.088H130.772V89.616H122.732V87.024H135.932ZM151.657 86.832V84.984H146.377V77.328H160.369V79.848H149.545V82.464H160.369V84.984H154.873V86.832H163.057V89.328H143.521V86.832H151.657ZM160.441 90.744V98.112H157.249V93.264H146.209V90.744H160.441ZM182.669 76.44V92.232H179.477V90.408H175.349V87.96H179.477V76.44H182.669ZM170.237 91.104V86.664H164.429V84.072H172.949V79.92H165.533V77.304H176.165V84.072H177.893V86.664H173.429V91.296H170.885V95.136H183.005V97.68H167.693V91.104H170.237ZM203.026 76.416V97.368H199.786V76.416H203.026ZM191.338 90.816C190.17 90.816 189.122 90.552 188.194 90.024C187.282 89.48 186.562 88.736 186.034 87.792C185.522 86.848 185.266 85.768 185.266 84.552C185.266 83.32 185.522 82.224 186.034 81.264C186.562 80.304 187.282 79.56 188.194 79.032C189.122 78.488 190.17 78.216 191.338 78.216C192.506 78.216 193.546 78.488 194.458 79.032C195.37 79.56 196.082 80.304 196.594 81.264C197.106 82.224 197.362 83.32 197.362 84.552C197.362 85.768 197.106 86.848 196.594 87.792C196.082 88.736 195.37 89.48 194.458 90.024C193.546 90.552 192.506 90.816 191.338 90.816ZM191.338 88.152C192.218 88.152 192.914 87.824 193.426 87.168C193.954 86.512 194.218 85.64 194.218 84.552C194.218 83.448 193.954 82.568 193.426 81.912C192.914 81.24 192.218 80.904 191.338 80.904C190.458 80.904 189.754 81.24 189.226 81.912C188.698 82.568 188.434 83.448 188.434 84.552C188.434 85.64 188.698 86.512 189.226 87.168C189.754 87.824 190.458 88.152 191.338 88.152ZM217.417 88.056C216.281 88.056 215.273 87.824 214.393 87.36C213.513 86.88 212.825 86.224 212.329 85.392C211.849 84.56 211.609 83.608 211.609 82.536C211.609 81.464 211.849 80.512 212.329 79.68C212.825 78.832 213.513 78.176 214.393 77.712C215.273 77.232 216.281 76.992 217.417 76.992C218.809 76.992 220.001 77.352 220.993 78.072C222.001 78.776 222.665 79.736 222.985 80.952H226.297V76.464H229.514V87.864H226.297V83.52H223.105C222.881 84.88 222.249 85.976 221.209 86.808C220.185 87.64 218.921 88.056 217.417 88.056ZM219.121 95.424V93.624H217.225V95.424H219.121ZM214.321 89.136H217.225V91.296H219.121V89.136H222.001V95.904L224.257 92.64C224.753 91.936 225.001 91.384 225.001 90.984V89.04H228.025V90.984C228.025 91.4 228.257 91.952 228.721 92.64L231.41 96.48L229.057 98.16L226.489 94.512L223.993 98.136L222.001 96.792V97.824H214.321V89.136ZM217.417 85.464C218.217 85.464 218.857 85.2 219.337 84.672C219.817 84.128 220.057 83.416 220.057 82.536C220.057 81.64 219.817 80.928 219.337 80.4C218.857 79.856 218.217 79.584 217.417 79.584C216.601 79.584 215.945 79.856 215.449 80.4C214.953 80.928 214.705 81.64 214.705 82.536C214.705 83.416 214.953 84.128 215.449 84.672C215.945 85.2 216.601 85.464 217.417 85.464ZM238.182 90.816C237.014 90.816 235.966 90.552 235.038 90.024C234.126 89.48 233.406 88.736 232.878 87.792C232.366 86.848 232.11 85.768 232.11 84.552C232.11 83.32 232.366 82.224 232.878 81.264C233.406 80.304 234.126 79.56 235.038 79.032C235.966 78.488 237.014 78.216 238.182 78.216C239.75 78.216 241.07 78.688 242.142 79.632C243.214 80.56 243.87 81.8 244.11 83.352H247.11V76.416H250.302V97.368H247.11V85.896H244.086C243.814 87.384 243.142 88.576 242.07 89.472C241.014 90.368 239.718 90.816 238.182 90.816ZM238.182 88.152C239.062 88.152 239.758 87.824 240.27 87.168C240.798 86.512 241.062 85.64 241.062 84.552C241.062 83.448 240.798 82.568 240.27 81.912C239.758 81.24 239.062 80.904 238.182 80.904C237.302 80.904 236.598 81.24 236.07 81.912C235.542 82.568 235.278 83.448 235.278 84.552C235.278 85.64 235.542 86.512 236.07 87.168C236.598 87.824 237.302 88.152 238.182 88.152ZM257.77 92.472V87.936C257.178 87.36 256.722 86.696 256.402 85.944C256.098 85.176 255.946 84.344 255.946 83.448C255.946 82.232 256.234 81.144 256.81 80.184C257.386 79.224 258.186 78.472 259.21 77.928C260.234 77.384 261.394 77.112 262.69 77.112C264.002 77.112 265.17 77.384 266.194 77.928C267.234 78.472 268.042 79.224 268.618 80.184C269.194 81.144 269.482 82.232 269.482 83.448C269.482 84.328 269.33 85.144 269.026 85.896C268.722 86.648 268.282 87.312 267.706 87.888V92.472H272.506V95.064H252.97V92.472H257.77ZM259.114 83.448C259.114 84.52 259.442 85.408 260.098 86.112C260.754 86.8 261.618 87.144 262.69 87.144C263.778 87.144 264.65 86.8 265.306 86.112C265.978 85.408 266.314 84.52 266.314 83.448C266.314 82.36 265.978 81.472 265.306 80.784C264.65 80.08 263.778 79.728 262.69 79.728C261.618 79.728 260.754 80.08 260.098 80.784C259.442 81.472 259.114 82.36 259.114 83.448ZM264.49 92.472V89.568C263.882 89.696 263.282 89.76 262.69 89.76C262.178 89.76 261.602 89.704 260.962 89.592V92.472H264.49Z" fill="white"/>
<g clip-path="url(#clip1_1817_16678)">
<path fill-rule="evenodd" clip-rule="evenodd" d="M358.51 331.098C362.338 335.669 364.458 340.921 366.552 346.532C367.938 350.13 369.721 353.685 371.507 357.245L371.508 357.246C372.664 359.551 373.821 361.858 374.872 364.18C376.846 368.54 378.607 372.911 380.387 377.329L380.391 377.341C381.021 378.905 381.654 380.474 382.299 382.052C383.311 384.525 384.656 386.847 385.995 389.159L385.995 389.159C387.926 392.492 389.843 395.804 390.731 399.512C392.233 405.794 393.308 412.263 393.061 418.826C392.936 422.837 391.071 426.477 389.101 430.323C388.048 432.378 386.965 434.492 386.101 436.753C385.59 438.101 385.125 439.479 384.653 440.878L384.653 440.879C383.193 445.211 381.667 449.734 378.525 454.121C377.777 455.188 377.034 456.292 376.276 457.42L376.269 457.43L376.268 457.431C373.607 461.388 370.756 465.627 366.813 469.517C365.511 470.821 364.203 472.223 362.861 473.662L362.86 473.663L362.86 473.663C359.839 476.903 356.644 480.329 352.939 483.238C349.666 485.808 345.799 487.548 341.928 489.291L341.928 489.291L341.927 489.291C339.47 490.397 337.01 491.504 334.7 492.825C333.378 493.581 332.037 494.294 330.683 494.976C331.422 495.966 332.172 497.082 332.928 498.343C333.607 499.407 334.386 500.493 335.2 501.628C336.737 503.772 338.399 506.089 339.744 508.758C341.093 511.461 342.398 514.362 343.735 517.334C344.14 518.234 344.548 519.141 344.961 520.051C345.814 521.956 346.279 524.134 346.747 526.326C347.171 528.313 347.597 530.312 348.318 532.129C349.057 533.992 350.243 535.686 351.433 537.386C352.684 539.173 353.94 540.967 354.688 542.973C355.418 544.93 355.707 547.018 355.995 549.106C356.283 551.194 356.571 553.282 357.302 555.238C358.102 557.384 358.791 559.558 359.472 561.707C360.033 563.479 360.589 565.234 361.198 566.943C361.911 568.989 362.779 570.936 363.622 572.83C364.462 574.714 365.277 576.545 365.894 578.367C366.698 580.717 367.763 582.841 368.758 584.823C369.618 586.536 370.424 588.142 370.962 589.698C371.874 592.476 373.344 594.427 374.515 595.981C376.4 598.481 377.508 599.951 374.265 602.186C371.264 604.253 369.506 603.995 367.39 603.684C365.796 603.449 363.998 603.185 361.314 603.861C358.179 604.65 356.668 605.25 355.162 605.848C353.665 606.442 352.172 607.034 349.094 607.81C346.005 608.587 344.429 608.845 342.852 609.104C341.275 609.362 339.698 609.62 336.61 610.398C333.522 611.175 332.011 611.694 330.5 612.213C328.988 612.733 327.477 613.252 324.389 614.029C321.301 614.807 319.79 615.326 318.279 615.845C316.768 616.364 315.256 616.884 312.168 617.661C309.08 618.439 307.447 618.473 305.814 618.508C304.181 618.542 302.547 618.577 299.459 619.354C296.371 620.132 294.837 620.558 293.302 620.984C291.767 621.41 290.233 621.836 287.145 622.613C284.057 623.391 282.564 623.984 281.072 624.578C279.58 625.172 278.087 625.766 274.999 626.543C271.911 627.321 270.405 627.859 268.898 628.396C267.392 628.934 265.885 629.472 262.797 630.25C259.709 631.027 258.062 631.006 256.414 630.984C254.767 630.963 253.12 630.942 250.032 631.719C247.41 632.379 245.983 633.196 244.719 633.919C243.004 634.899 241.59 635.708 237.905 635.724C236.26 632.649 234.41 629.071 233.116 624.561C232.311 621.835 231.748 618.824 231.157 615.662C230.964 614.629 230.768 613.579 230.559 612.519C230.228 610.946 229.797 609.346 229.358 607.716C228.725 605.366 228.076 602.954 227.686 600.477C227.326 598.108 227.111 595.646 226.895 593.178C226.75 591.51 226.604 589.838 226.413 588.191C226.144 585.872 225.976 583.553 225.809 581.231C225.682 579.464 225.554 577.696 225.382 575.924C225.144 573.488 225.058 571.097 224.971 568.675C224.911 567.019 224.851 565.348 224.741 563.637C224.598 561.403 224.66 559.183 224.72 557.008C224.773 555.081 224.825 553.189 224.734 551.35C224.624 549.143 223.972 547.01 223.339 544.939C222.736 542.967 222.15 541.051 222.065 539.178C221.959 536.723 222.385 534.365 222.783 532.158C223.123 530.275 223.444 528.501 223.397 526.87C223.296 523.688 222.322 521.781 221.608 520.385C221.592 520.352 221.575 520.32 221.559 520.288C219.903 520.061 218.273 519.931 216.679 520.001C213.068 520.117 209.571 520.998 206.186 521.85L206.185 521.85C202.8 522.703 199.526 523.527 196.362 523.531C192.971 523.51 189.718 523.609 186.64 523.703C182.739 523.821 179.118 523.931 175.851 523.779C170.08 523.497 167.386 523.676 165.199 523.821C162.589 523.995 160.703 524.12 155.171 523.356C149.664 522.43 144.617 518.968 140.068 515.847L140.067 515.846C139.156 515.221 138.265 514.61 137.395 514.036C132.176 510.592 126.77 506.404 122.793 500.983C120.396 497.78 119.062 493.776 117.69 489.658C116.948 487.429 116.194 485.166 115.254 482.98C113.467 478.696 112.405 474.141 111.294 469.378C110.917 467.76 110.534 466.117 110.115 464.453C109.437 461.76 108.13 459.068 106.813 456.355C105.176 452.982 103.522 449.577 103.04 446.095C102.57 442.694 103.293 439.062 104.015 435.437C104.627 432.366 105.237 429.3 105.12 426.385L105.099 425.86C104.85 419.673 104.598 413.418 104.875 407.18C104.997 404.408 104.786 401.602 104.575 398.793C104.298 395.101 104.02 391.403 104.498 387.771C104.784 385.669 105.207 383.622 105.744 381.626C105.516 380.296 105.299 378.886 105.071 377.406L105.071 377.406C104.726 375.169 104.357 372.77 103.888 370.241C103.553 368.288 102.976 366.3 102.379 364.239C101.768 362.128 101.135 359.942 100.715 357.64C100.37 355.663 99.6785 353.698 98.9745 351.699C98.2188 349.552 97.4489 347.365 97.0778 345.078C96.7476 342.981 96.8592 340.752 96.9708 338.524C97.0824 336.296 97.194 334.068 96.8638 331.97C96.5344 329.878 95.7974 327.809 95.0572 325.731C94.3136 323.644 93.5666 321.547 93.2262 319.408C92.8788 317.224 92.8577 315.02 92.8365 312.804C92.8162 310.688 92.7959 308.562 92.4913 306.431C92.145 304.008 92.0343 301.648 91.9229 299.275C91.8338 297.375 91.7442 295.467 91.5332 293.511C91.2948 291.302 90.5966 289.168 89.9074 287.062C89.2244 284.975 88.5503 282.915 88.3421 280.836C88.1284 278.478 88.3814 276.092 88.6284 273.763C88.8442 271.727 89.0554 269.735 88.9473 267.84C88.831 265.987 88.6366 264.18 88.4475 262.423C88.1666 259.812 87.8975 257.312 87.9147 254.938C87.8789 251.25 88.4334 247.952 88.929 245.004L88.929 245.004C89.0924 244.032 89.2494 243.099 89.3767 242.202C90.3124 235.861 91.3655 232.187 94.3239 231.68C97.2822 231.173 100.711 233.164 105.278 236.533C106.418 237.389 107.793 238.125 109.245 238.904L109.245 238.904C111.521 240.124 113.99 241.447 116.051 243.494C117.5 244.96 118.709 246.77 119.961 248.647C121.096 250.346 122.267 252.1 123.686 253.702C125.198 255.376 126.518 257.339 127.84 259.304L127.84 259.304C128.915 260.903 129.991 262.503 131.171 263.948C132.45 265.515 134.111 266.816 135.776 268.121C137.537 269.501 139.302 270.884 140.626 272.589C141.988 274.342 143.106 276.268 144.232 278.209L144.233 278.209L144.233 278.209C145.236 279.938 146.247 281.679 147.443 283.32C148.708 285.056 150.273 286.579 151.814 288.078L151.814 288.078C153.365 289.587 154.891 291.072 156.062 292.726C157.415 294.634 158.439 296.711 159.432 298.724C160.33 300.544 161.201 302.31 162.265 303.85C163.621 305.773 165.104 307.485 166.501 309.099L166.501 309.1C167.892 310.707 169.199 312.217 170.215 313.741C171.453 315.555 172.777 316.805 173.978 317.794C174.625 317.421 175.287 317.091 175.969 316.815C180.058 315.194 184.302 314.5 188.283 313.849L188.284 313.849L188.284 313.849C191.238 313.367 194.049 312.907 196.545 312.11C203.693 309.884 205.945 309.655 208.781 309.367C210.69 309.173 212.863 308.952 216.973 308.077C219.358 307.505 221.759 306.796 224.178 306.082C228.493 304.808 232.863 303.518 237.287 302.963C241.793 302.398 246.356 302.46 250.928 302.522C253.36 302.556 255.795 302.589 258.225 302.528C259.384 302.498 260.543 302.374 261.703 302.188C259.772 300.321 260.306 298.979 261.212 296.702C261.826 295.159 262.611 293.185 262.914 290.327C263.079 288.578 263.714 286.747 264.39 284.794C265.127 282.666 265.915 280.394 266.201 277.924C266.405 276.095 266.468 274.181 266.532 272.211L266.532 272.211C266.606 269.961 266.681 267.637 266.974 265.281C267.201 263.441 267.239 261.515 267.278 259.555L267.278 259.554L267.278 259.554L267.278 259.554L267.278 259.554C267.324 257.243 267.371 254.885 267.729 252.564C268.04 250.543 268.294 248.572 268.546 246.612C268.829 244.411 269.111 242.224 269.47 239.995C269.821 237.819 270.619 235.742 271.415 233.669C272.16 231.728 272.905 229.79 273.278 227.778C273.589 226.105 273.828 224.399 274.066 222.698C274.419 220.172 274.77 217.657 275.355 215.283C275.771 213.518 276.087 211.765 276.396 210.059L276.396 210.058L276.396 210.058L276.396 210.058C276.853 207.527 277.291 205.097 278.009 202.881C279.115 199.25 280.636 196.07 281.987 193.246L281.987 193.245C282.33 192.53 282.661 191.837 282.972 191.165C285.4 186.035 287.773 181.632 290.618 180.678C293.464 179.723 296.693 183.747 300.538 188.963C302.178 191.192 303.627 193.925 305.257 196.998C305.778 197.982 306.319 199.001 306.89 200.049C307.716 201.56 308.756 203.032 309.831 204.554L309.831 204.555C311.237 206.544 312.704 208.621 313.837 210.986C314.591 212.604 315.485 214.232 316.397 215.894C317.566 218.024 318.766 220.21 319.743 222.502C320.571 224.496 321.31 226.555 322.06 228.642L322.06 228.643L322.06 228.644L322.061 228.645C322.768 230.614 323.484 232.608 324.292 234.597C325.155 236.723 325.418 238.999 325.68 241.265C325.924 243.37 326.166 245.466 326.888 247.422C327.636 249.454 328.906 251.275 330.175 253.096L330.176 253.096C331.445 254.917 332.715 256.738 333.463 258.769C334.229 260.847 334.504 263.109 334.777 265.361L334.777 265.361C335.038 267.513 335.298 269.655 335.985 271.613C336.687 273.617 337.385 275.681 338.082 277.745C338.78 279.809 339.478 281.873 340.18 283.877C340.905 285.977 341.855 287.962 342.788 289.913L342.788 289.913L342.789 289.914C343.735 291.891 344.664 293.833 345.324 295.822C346.081 298.162 347.023 300.343 347.93 302.444L347.93 302.445L347.93 302.446C348.728 304.295 349.5 306.082 350.096 307.862C350.936 310.485 351.5 313.024 352.023 315.378L352.023 315.378L352.023 315.379C352.421 317.172 352.795 318.856 353.249 320.388C354.311 323.775 356.392 326.187 357.85 327.877C359.373 329.642 360.216 330.62 358.51 331.098Z" fill="url(#paint0_linear_1817_16678)" fill-opacity="0.6"/>
</g>
</g>
<defs>
<linearGradient id="paint0_linear_1817_16678" x1="192.117" y1="205.468" x2="297.072" y2="622.348" gradientUnits="userSpaceOnUse">
<stop stop-color="#97B5D5"/>
<stop offset="1" stop-color="#E3E8F5" stop-opacity="0"/>
</linearGradient>
<clipPath id="clip0_1817_16678">
<rect y="35" width="349" height="501" rx="24" fill="white"/>
</clipPath>
<clipPath id="clip1_1817_16678">
<rect width="290.588" height="429.869" fill="white" transform="translate(51.2363 240.945) rotate(-14.1313)"/>
</clipPath>
</defs>
</svg>
