<svg width="349" height="369" viewBox="0 0 349 369" fill="none" xmlns="http://www.w3.org/2000/svg">
<g clip-path="url(#clip0_2499_21685)">
<rect width="349" height="369" rx="24" fill="url(#paint0_linear_2499_21685)"/>
<g clip-path="url(#clip1_2499_21685)">
<path fill-rule="evenodd" clip-rule="evenodd" d="M163.757 211.233C164.505 214.533 164.215 217.733 163.819 221.108C163.587 223.282 163.566 225.539 163.546 227.799C163.532 229.262 163.519 230.726 163.448 232.17C163.316 234.883 163.072 237.545 162.827 240.237C162.74 241.192 162.652 242.15 162.569 243.115C162.439 244.626 162.517 246.146 162.594 247.66C162.705 249.843 162.816 252.011 162.303 254.113C161.435 257.673 160.302 261.217 158.478 264.466C157.376 266.458 155.492 267.812 153.501 269.243L153.501 269.243L153.501 269.244C152.437 270.008 151.343 270.795 150.322 271.712C149.715 272.26 149.123 272.836 148.523 273.42L148.522 273.42L148.522 273.42C146.663 275.229 144.722 277.117 142 278.517C141.343 278.863 140.68 279.23 140.003 279.604C137.635 280.912 135.098 282.313 132.1 283.256C131.105 283.577 130.081 283.946 129.031 284.325C126.667 285.178 124.167 286.08 121.543 286.589C119.225 287.039 116.823 286.916 114.418 286.793C112.89 286.715 111.362 286.637 109.854 286.705C108.99 286.744 108.129 286.757 107.269 286.75C107.385 287.442 107.475 288.199 107.53 289.031C107.597 289.744 107.709 290.494 107.826 291.278C108.047 292.758 108.286 294.359 108.274 296.054C108.254 297.768 108.162 299.57 108.067 301.417C108.038 301.976 108.009 302.539 107.982 303.105C107.92 304.288 107.59 305.508 107.259 306.735C106.958 307.848 106.656 308.968 106.549 310.072C106.44 311.203 106.6 312.366 106.76 313.532C106.929 314.758 107.098 315.989 106.956 317.195C106.818 318.372 106.423 319.501 106.027 320.63C105.632 321.758 105.237 322.887 105.099 324.064C104.947 325.354 104.732 326.63 104.519 327.891C104.343 328.931 104.169 329.96 104.034 330.981C103.865 332.198 103.798 333.406 103.734 334.58C103.669 335.749 103.607 336.885 103.446 337.964C103.243 339.358 103.231 340.706 103.22 341.964C103.21 343.052 103.201 344.071 103.07 344.996C102.811 346.635 103.048 348 103.237 349.088C103.54 350.838 103.719 351.867 101.503 352.155C99.4529 352.422 98.6326 351.836 97.6447 351.131C96.9009 350.6 96.062 350.001 94.5317 349.647C92.745 349.233 91.8272 349.145 90.912 349.056C90.0024 348.969 89.0954 348.881 87.3405 348.475C85.5804 348.068 84.7175 347.79 83.8547 347.512C82.9918 347.234 82.1289 346.956 80.3688 346.548C78.6086 346.141 77.7113 346.012 76.8141 345.882C75.9168 345.753 75.0195 345.624 73.2593 345.217C71.4992 344.809 70.6019 344.68 69.7046 344.551C68.8073 344.422 67.9101 344.292 66.1499 343.885C64.3898 343.478 63.5564 343.072 62.723 342.667C61.8897 342.261 61.0563 341.856 59.2962 341.448C57.536 341.041 56.651 340.859 55.766 340.676C54.881 340.494 53.996 340.311 52.2359 339.904C50.4757 339.497 49.5686 339.41 48.6615 339.323C47.7544 339.236 46.8473 339.15 45.0871 338.742C43.327 338.335 42.4272 338.216 41.5275 338.098C40.6277 337.979 39.728 337.861 37.9678 337.453C36.2077 337.046 35.3817 336.609 34.5557 336.171C33.7297 335.734 32.9037 335.296 31.1436 334.889C29.6493 334.543 28.7173 334.586 27.8918 334.623C26.7726 334.674 25.849 334.717 23.985 333.77C23.9511 331.792 23.9437 329.507 24.4587 326.895C24.758 325.311 25.2538 323.645 25.7744 321.896C25.9445 321.324 26.1172 320.743 26.2867 320.154C26.5268 319.275 26.7237 318.355 26.9242 317.419C27.2134 316.068 27.5101 314.683 27.9547 313.332C28.3863 312.042 28.9155 310.744 29.446 309.442C29.8046 308.562 30.1638 307.681 30.4938 306.8C30.9585 305.56 31.4747 304.346 31.9917 303.13C32.385 302.205 32.7786 301.28 33.1504 300.341C33.6615 299.049 34.237 297.82 34.8203 296.575C35.219 295.724 35.6213 294.865 36.0091 293.973C36.5157 292.808 37.1214 291.703 37.7151 290.621C38.2409 289.662 38.7574 288.72 39.1875 287.768C39.7037 286.626 39.927 285.381 40.1439 284.171C40.3503 283.019 40.5509 281.9 40.9926 280.933C41.5751 279.666 42.4006 278.586 43.1735 277.575C43.8328 276.713 44.4537 275.9 44.8527 275.065C45.626 273.433 45.6279 272.218 45.6292 271.328C45.6293 271.307 45.6293 271.287 45.6293 271.267C44.8521 270.723 44.0631 270.235 43.2403 269.858C41.3877 268.981 39.3943 268.52 37.4645 268.074C35.5347 267.627 33.6685 267.195 32.0703 266.378C30.3643 265.489 28.6969 264.697 27.1189 263.947L27.1187 263.947L27.1184 263.947L27.1178 263.946C25.1182 262.996 23.262 262.114 21.6525 261.191C18.8128 259.554 17.4063 258.947 16.2649 258.454C14.9024 257.866 13.9175 257.44 11.3233 255.622C8.78313 253.729 7.13213 250.673 5.64406 247.92C5.34606 247.368 5.0546 246.829 4.76383 246.314C3.02114 243.224 1.37679 239.709 0.7737 235.943C0.39282 233.705 0.756493 231.339 1.13043 228.905C1.3329 227.587 1.53837 226.25 1.63031 224.903C1.83762 222.278 2.48113 219.704 3.15403 217.012C3.38272 216.097 3.61481 215.168 3.83432 214.22C4.18947 212.685 4.22691 210.988 4.26466 209.277C4.31157 207.151 4.35895 205.003 5.01733 203.121C5.66056 201.282 6.96645 199.636 8.26977 197.993C9.37378 196.602 10.476 195.212 11.1719 193.71L11.2972 193.44C12.7737 190.252 14.2665 187.03 16.0215 183.952C16.8014 182.585 17.4216 181.114 18.0426 179.641C18.8587 177.705 19.676 175.767 20.8582 174.057C21.5465 173.071 22.2898 172.148 23.0774 171.279C23.3069 170.548 23.5625 169.78 23.831 168.973C24.2364 167.755 24.671 166.449 25.0893 165.05C25.4258 163.978 25.65 162.825 25.8824 161.63C26.1204 160.406 26.3669 159.138 26.7512 157.868C27.0892 156.78 27.2488 155.61 27.4113 154.418C27.5857 153.139 27.7634 151.835 28.1685 150.585C28.545 149.441 29.1784 148.345 29.8118 147.249C30.4452 146.153 31.0786 145.057 31.4551 143.913C31.8307 142.771 31.9944 141.536 32.1589 140.296C32.3241 139.049 32.4901 137.797 32.8724 136.629C33.2626 135.437 33.8227 134.319 34.3859 133.195C34.9235 132.122 35.464 131.043 35.862 129.889C36.3147 128.576 36.8701 127.356 37.4285 126.129C37.8755 125.147 38.3244 124.161 38.7244 123.119C39.1764 121.942 39.3765 120.684 39.574 119.442C39.7698 118.212 39.963 116.997 40.3962 115.894C40.8991 114.648 41.6446 113.51 42.3727 112.398C43.0087 111.426 43.6314 110.475 44.0676 109.49C44.4886 108.525 44.8584 107.563 45.218 106.627C45.7524 105.236 46.2641 103.904 46.8876 102.711C47.8246 100.84 48.9587 99.3182 49.9723 97.9586C50.3065 97.5103 50.6275 97.0797 50.924 96.6599C53.0385 93.7016 54.5217 92.1196 56.1463 92.6298C57.7709 93.1401 58.9862 95.0331 60.4191 97.9168C60.7729 98.6439 61.2758 99.3715 61.8073 100.141L61.8074 100.141C62.6405 101.346 63.544 102.654 64.0544 104.22C64.406 105.336 64.5473 106.562 64.6937 107.834L64.6937 107.834C64.8262 108.986 64.9631 110.174 65.2643 111.351C65.5941 112.587 65.7521 113.92 65.9103 115.254L65.9103 115.254C66.039 116.34 66.1678 117.426 66.3893 118.461C66.6292 119.583 67.1306 120.67 67.6332 121.76C68.1647 122.913 68.6976 124.068 68.9244 125.271C69.1578 126.509 69.2233 127.771 69.2893 129.042L69.2893 129.042C69.3481 130.175 69.4073 131.316 69.586 132.454C69.775 133.658 70.1708 134.832 70.5603 135.988C70.9525 137.151 71.3383 138.296 71.5009 139.434C71.6897 140.747 71.6689 142.061 71.6487 143.334L71.6487 143.334C71.6305 144.486 71.6128 145.603 71.7512 146.656C71.9379 147.978 72.2427 149.226 72.53 150.403L72.53 150.403L72.53 150.403C72.8161 151.574 73.0848 152.675 73.2026 153.707C73.358 154.944 73.7023 155.918 74.0529 156.728C74.4759 156.707 74.8957 156.712 75.3119 156.749C77.7955 156.99 80.1174 157.739 82.2959 158.442C83.9125 158.963 85.4502 159.459 86.9165 159.703C91.1013 160.431 92.2975 160.898 93.8036 161.487L93.8037 161.487C94.8176 161.884 95.9719 162.335 98.2728 162.958C99.6248 163.287 101.021 163.551 102.426 163.817L102.426 163.817L102.427 163.817C104.935 164.291 107.475 164.771 109.852 165.637C112.273 166.519 114.56 167.732 116.852 168.948C118.071 169.594 119.291 170.242 120.534 170.84C121.126 171.126 121.744 171.363 122.377 171.569C121.886 170.127 122.503 169.588 123.55 168.673C124.26 168.053 125.167 167.26 126.06 165.896C126.597 165.056 127.391 164.296 128.238 163.485C129.161 162.602 130.147 161.659 130.931 160.486C131.508 159.616 132.036 158.666 132.578 157.688C133.198 156.571 133.838 155.418 134.596 154.304C135.187 153.434 135.705 152.472 136.233 151.492L136.233 151.492L136.233 151.492C136.854 150.338 137.489 149.159 138.27 148.08C138.951 147.141 139.589 146.212 140.224 145.288L140.224 145.288C140.937 144.25 141.646 143.219 142.405 142.187C143.145 141.179 144.086 140.337 145.024 139.497C145.904 138.71 146.781 137.925 147.491 137.006C148.081 136.242 148.644 135.443 149.204 134.646L149.204 134.646C150.037 133.462 150.865 132.284 151.775 131.237C152.442 130.453 153.056 129.65 153.654 128.869C154.54 127.709 155.39 126.597 156.327 125.663C157.825 124.117 159.417 122.906 160.83 121.83L160.83 121.83C161.189 121.557 161.535 121.293 161.866 121.035C164.42 119.074 166.758 117.466 168.442 117.721C170.126 117.976 170.713 120.844 171.304 124.472C171.554 126.022 171.578 127.777 171.605 129.75L171.605 129.75L171.605 129.75C171.613 130.382 171.622 131.037 171.639 131.714C171.665 132.69 171.808 133.702 171.957 134.75L171.957 134.75L171.957 134.75L171.957 134.75C172.151 136.118 172.354 137.547 172.313 139.034C172.275 140.045 172.304 141.099 172.334 142.174L172.334 142.174C172.373 143.552 172.413 144.966 172.312 146.376C172.213 147.598 172.053 148.829 171.891 150.077C171.738 151.254 171.583 152.446 171.476 153.66C171.361 154.956 170.904 156.174 170.45 157.385L170.45 157.385C170.028 158.511 169.607 159.631 169.465 160.806C169.317 162.025 169.486 163.273 169.655 164.521C169.824 165.769 169.993 167.017 169.845 168.237C169.694 169.484 169.246 170.697 168.801 171.904C168.376 173.058 167.952 174.207 167.792 175.373C167.627 176.566 167.445 177.789 167.263 179.012C167.08 180.234 166.898 181.457 166.733 182.65C166.556 183.898 166.521 185.147 166.487 186.373C166.452 187.616 166.418 188.837 166.236 190.012C166.013 191.39 165.923 192.735 165.837 194.03L165.837 194.031C165.761 195.171 165.687 196.273 165.527 197.325C165.272 198.867 164.899 200.295 164.553 201.618L164.553 201.619C164.29 202.627 164.043 203.574 163.875 204.465C163.534 206.45 163.959 208.206 164.258 209.437C164.569 210.722 164.742 211.434 163.757 211.233Z" fill="url(#paint1_linear_2499_21685)" fill-opacity="0.6"/>
</g>
</g>
<defs>
<linearGradient id="paint0_linear_2499_21685" x1="456.691" y1="281.509" x2="9.66186" y2="80.4439" gradientUnits="userSpaceOnUse">
<stop stop-color="#BB9DEB"/>
<stop offset="1" stop-color="#F19ED8"/>
</linearGradient>
<linearGradient id="paint1_linear_2499_21685" x1="112.3" y1="104.725" x2="57.3156" y2="342.341" gradientUnits="userSpaceOnUse">
<stop stop-color="#FFCEEC"/>
<stop offset="1" stop-color="#FFCEEC" stop-opacity="0"/>
</linearGradient>
<clipPath id="clip0_2499_21685">
<rect width="349" height="369" rx="24" fill="white"/>
</clipPath>
<clipPath id="clip1_2499_21685">
<rect width="164.863" height="243.884" fill="white" transform="translate(32.0215 64) rotate(13.0289)"/>
</clipPath>
</defs>
</svg>
