<svg width="32" height="32" viewBox="0 0 32 32" fill="none" xmlns="http://www.w3.org/2000/svg">
<g id="icon">
<path id="Vector" d="M21.8052 11.6446C21.8981 11.7374 21.9719 11.8477 22.0222 11.9691C22.0725 12.0905 22.0984 12.2206 22.0984 12.3521C22.0984 12.4835 22.0725 12.6136 22.0222 12.735C21.9719 12.8564 21.8981 12.9667 21.8052 13.0596L14.8052 20.0596C14.7123 20.1525 14.602 20.2263 14.4806 20.2766C14.3592 20.3269 14.2291 20.3528 14.0977 20.3528C13.9662 20.3528 13.8361 20.3269 13.7147 20.2766C13.5933 20.2263 13.483 20.1525 13.3902 20.0596L10.3902 17.0596C10.2025 16.8719 10.0971 16.6174 10.0971 16.3521C10.0971 16.0867 10.2025 15.8322 10.3902 15.6446C10.5778 15.4569 10.8323 15.3515 11.0977 15.3515C11.363 15.3515 11.6175 15.4569 11.8052 15.6446L14.0977 17.9383L20.3902 11.6446C20.483 11.5516 20.5933 11.4778 20.7147 11.4275C20.8361 11.3772 20.9662 11.3513 21.0977 11.3513C21.2291 11.3513 21.3592 11.3772 21.4806 11.4275C21.602 11.4778 21.7123 11.5516 21.8052 11.6446ZM29.0977 15.3521C29.0977 17.9232 28.3352 20.4366 26.9068 22.5745C25.4783 24.7123 23.448 26.3785 21.0725 27.3625C18.6971 28.3464 16.0832 28.6039 13.5615 28.1023C11.0397 27.6007 8.72336 26.3625 6.90527 24.5444C5.08719 22.7264 3.84906 20.41 3.34745 17.8882C2.84585 15.3665 3.10329 12.7526 4.08723 10.3772C5.07117 8.00173 6.73741 5.9714 8.87525 4.54295C11.0131 3.11449 13.5265 2.35205 16.0977 2.35205C19.5444 2.35569 22.8488 3.7265 25.286 6.16368C27.7232 8.60087 29.094 11.9054 29.0977 15.3521ZM27.0977 15.3521C27.0977 13.1765 26.4525 11.0497 25.2438 9.24078C24.0351 7.43184 22.3172 6.02194 20.3072 5.18938C18.2972 4.35681 16.0855 4.13898 13.9517 4.56341C11.8179 4.98785 9.85787 6.0355 8.31949 7.57388C6.78111 9.11225 5.73346 11.0723 5.30902 13.2061C4.88459 15.3398 5.10242 17.5516 5.93499 19.5616C6.76755 21.5716 8.17745 23.2895 9.98639 24.4982C11.7953 25.7069 13.9221 26.3521 16.0977 26.3521C19.014 26.3487 21.81 25.1888 23.8722 23.1266C25.9344 21.0644 27.0944 18.2684 27.0977 15.3521Z" fill="#D1D6DB"/>
</g>
</svg>
