<svg width="24" height="24" viewBox="0 0 24 24" fill="none" xmlns="http://www.w3.org/2000/svg">
<g id="icon">
<path id="icon_2" d="M5.724 19.701C5.44067 19.9844 5.124 20.0677 4.774 19.951C4.424 19.8344 4.18233 19.6094 4.049 19.276C3.93233 18.926 4.024 18.601 4.324 18.301L18.324 4.30104C18.6073 4.01771 18.924 3.93438 19.274 4.05104C19.624 4.16771 19.8573 4.40104 19.974 4.75104C20.1073 5.08437 20.024 5.40104 19.724 5.70104L5.724 19.701ZM4.324 5.70104C4.024 5.40104 3.93233 5.08437 4.049 4.75104C4.16567 4.40104 4.399 4.16771 4.749 4.05104C5.11567 3.93438 5.44067 4.01771 5.724 4.30104L19.724 18.301C20.0073 18.5844 20.0907 18.901 19.974 19.251C19.8573 19.601 19.624 19.8427 19.274 19.976C18.9407 20.0927 18.624 20.001 18.324 19.701L4.324 5.70104Z" fill="#4E5968"/>
</g>
</svg>
