<svg width="82" height="81" viewBox="0 0 82 81" fill="none" xmlns="http://www.w3.org/2000/svg">
<g id="Coffee">
<path id="Vector" d="M66.3125 25.3125H10.625C9.95367 25.3125 9.30984 25.5792 8.83514 26.0539C8.36043 26.5286 8.09375 27.1724 8.09375 27.8438V43.0313C8.10131 47.3407 9.02291 51.5994 10.7977 55.5264C12.5725 59.4534 15.1601 62.9593 18.3896 65.8125H10.625C9.95367 65.8125 9.30984 66.0792 8.83514 66.5539C8.36043 67.0286 8.09375 67.6724 8.09375 68.3438C8.09375 69.0151 8.36043 69.6589 8.83514 70.1336C9.30984 70.6083 9.95367 70.875 10.625 70.875H66.3125C66.9838 70.875 67.6277 70.6083 68.1024 70.1336C68.5771 69.6589 68.8438 69.0151 68.8438 68.3438C68.8438 67.6724 68.5771 67.0286 68.1024 66.5539C67.6277 66.0792 66.9838 65.8125 66.3125 65.8125H58.5479C62.4246 62.3766 65.3642 58.0117 67.0909 53.1278C70.3059 52.9297 73.3244 51.5132 75.5314 49.1669C77.7383 46.8206 78.9676 43.7211 78.9688 40.5V37.9688C78.9688 34.6121 77.6353 31.3929 75.2618 29.0194C72.8883 26.6459 69.6692 25.3125 66.3125 25.3125ZM73.9063 40.5C73.9051 42.1377 73.3746 43.7311 72.3939 45.0426C71.4131 46.3541 70.0346 47.3133 68.4641 47.7773C68.7149 46.2077 68.8419 44.6208 68.8438 43.0313V30.8116C70.3239 31.335 71.6055 32.3042 72.5121 33.5859C73.4187 34.8676 73.9058 36.3988 73.9063 37.9688V40.5ZM35.9375 17.7188V7.59375C35.9375 6.92242 36.2042 6.27859 36.6789 5.80389C37.1536 5.32918 37.7974 5.0625 38.4688 5.0625C39.1401 5.0625 39.7839 5.32918 40.2586 5.80389C40.7333 6.27859 41 6.92242 41 7.59375V17.7188C41 18.3901 40.7333 19.0339 40.2586 19.5086C39.7839 19.9833 39.1401 20.25 38.4688 20.25C37.7974 20.25 37.1536 19.9833 36.6789 19.5086C36.2042 19.0339 35.9375 18.3901 35.9375 17.7188ZM46.0625 17.7188V7.59375C46.0625 6.92242 46.3292 6.27859 46.8039 5.80389C47.2786 5.32918 47.9224 5.0625 48.5938 5.0625C49.2651 5.0625 49.9089 5.32918 50.3836 5.80389C50.8583 6.27859 51.125 6.92242 51.125 7.59375V17.7188C51.125 18.3901 50.8583 19.0339 50.3836 19.5086C49.9089 19.9833 49.2651 20.25 48.5938 20.25C47.9224 20.25 47.2786 19.9833 46.8039 19.5086C46.3292 19.0339 46.0625 18.3901 46.0625 17.7188ZM25.8125 17.7188V7.59375C25.8125 6.92242 26.0792 6.27859 26.5539 5.80389C27.0286 5.32918 27.6724 5.0625 28.3438 5.0625C29.0151 5.0625 29.6589 5.32918 30.1336 5.80389C30.6083 6.27859 30.875 6.92242 30.875 7.59375V17.7188C30.875 18.3901 30.6083 19.0339 30.1336 19.5086C29.6589 19.9833 29.0151 20.25 28.3438 20.25C27.6724 20.25 27.0286 19.9833 26.5539 19.5086C26.0792 19.0339 25.8125 18.3901 25.8125 17.7188Z" fill="#1B7BE8"/>
</g>
</svg>
