<svg width="18" height="19" viewBox="0 0 18 19" fill="none" xmlns="http://www.w3.org/2000/svg">
<g id="CoffeeBean">
<path id="Vector" d="M5.00727 13.9423C4.25414 14.2841 3.45061 14.5016 2.6279 14.5864C2.57358 14.592 2.51879 14.5817 2.47022 14.5568C2.42165 14.5318 2.3814 14.4932 2.35438 14.4458C1.74477 13.3714 1.54438 12.0347 1.79188 10.568C2.10758 8.67521 3.13415 6.78029 4.68313 5.2313C6.23212 3.68232 8.12844 2.65576 10.0199 2.34005C11.6223 2.07357 13.0693 2.34005 14.1887 3.08536C14.2345 3.11545 14.2705 3.15826 14.2923 3.20853C14.3141 3.25881 14.3208 3.31436 14.3114 3.36836C14.3021 3.42236 14.2772 3.47246 14.2398 3.5125C14.2023 3.55253 14.154 3.58077 14.1008 3.59372C13.5739 3.71933 13.0601 3.89497 12.5666 4.11826C11.0359 4.81435 9.07907 6.30216 8.45188 9.44091C8.02227 11.57 6.86423 13.0845 5.00727 13.9423ZM15.6449 4.65474C15.6179 4.60739 15.5778 4.5689 15.5293 4.54393C15.4809 4.51897 15.4262 4.50861 15.372 4.51411C14.549 4.59833 13.7451 4.81585 12.992 5.15818C11.135 6.01599 9.97696 7.53052 9.55087 9.65818C8.92298 12.7969 6.96688 14.2847 5.43618 14.9808C4.94264 15.2041 4.4289 15.3798 3.90196 15.5054C3.84752 15.5176 3.79796 15.5458 3.75959 15.5864C3.72122 15.6269 3.69579 15.678 3.68651 15.733C3.67724 15.788 3.68455 15.8446 3.70752 15.8954C3.73048 15.9463 3.76806 15.9892 3.81548 16.0186C4.65009 16.5755 5.6661 16.8624 6.79321 16.8624C7.19187 16.8612 7.58977 16.8274 7.9829 16.7611C9.87501 16.4454 11.7706 15.4189 13.3196 13.8699C14.8686 12.3209 15.8952 10.4246 16.2109 8.53318C16.4527 7.06646 16.2545 5.72911 15.6449 4.65474Z" fill="white"/>
</g>
</svg>
