<svg width="24" height="24" viewBox="0 0 24 24" fill="none" xmlns="http://www.w3.org/2000/svg">
<g id="Crosshair">
<path id="Vector" d="M21.75 11.251H20.9681C20.7882 9.1317 19.8645 7.14435 18.3606 5.64041C16.8566 4.13646 14.8693 3.21283 12.75 3.03285V2.25098C12.75 2.05206 12.671 1.8613 12.5303 1.72065C12.3897 1.57999 12.1989 1.50098 12 1.50098C11.8011 1.50098 11.6103 1.57999 11.4697 1.72065C11.329 1.8613 11.25 2.05206 11.25 2.25098V3.03285C9.13073 3.21283 7.14338 4.13646 5.63943 5.64041C4.13549 7.14435 3.21185 9.1317 3.03188 11.251H2.25C2.05109 11.251 1.86032 11.33 1.71967 11.4706C1.57902 11.6113 1.5 11.8021 1.5 12.001C1.5 12.1999 1.57902 12.3907 1.71967 12.5313C1.86032 12.672 2.05109 12.751 2.25 12.751H3.03188C3.21185 14.8702 4.13549 16.8576 5.63943 18.3615C7.14338 19.8655 9.13073 20.7891 11.25 20.9691V21.751C11.25 21.9499 11.329 22.1407 11.4697 22.2813C11.6103 22.422 11.8011 22.501 12 22.501C12.1989 22.501 12.3897 22.422 12.5303 22.2813C12.671 22.1407 12.75 21.9499 12.75 21.751V20.9691C14.8693 20.7891 16.8566 19.8655 18.3606 18.3615C19.8645 16.8576 20.7882 14.8702 20.9681 12.751H21.75C21.9489 12.751 22.1397 12.672 22.2803 12.5313C22.421 12.3907 22.5 12.1999 22.5 12.001C22.5 11.8021 22.421 11.6113 22.2803 11.4706C22.1397 11.33 21.9489 11.251 21.75 11.251ZM18.75 12.751H19.4625C19.287 14.4714 18.5233 16.0786 17.3005 17.3015C16.0777 18.5243 14.4704 19.2879 12.75 19.4635V18.751C12.75 18.5521 12.671 18.3613 12.5303 18.2206C12.3897 18.08 12.1989 18.001 12 18.001C11.8011 18.001 11.6103 18.08 11.4697 18.2206C11.329 18.3613 11.25 18.5521 11.25 18.751V19.4635C9.52957 19.2879 7.92235 18.5243 6.6995 17.3015C5.47666 16.0786 4.71305 14.4714 4.5375 12.751H5.25C5.44891 12.751 5.63968 12.672 5.78033 12.5313C5.92098 12.3907 6 12.1999 6 12.001C6 11.8021 5.92098 11.6113 5.78033 11.4706C5.63968 11.33 5.44891 11.251 5.25 11.251H4.5375C4.71305 9.53055 5.47666 7.92333 6.6995 6.70048C7.92235 5.47764 9.52957 4.71402 11.25 4.53848V5.25098C11.25 5.44989 11.329 5.64065 11.4697 5.78131C11.6103 5.92196 11.8011 6.00098 12 6.00098C12.1989 6.00098 12.3897 5.92196 12.5303 5.78131C12.671 5.64065 12.75 5.44989 12.75 5.25098V4.53848C14.4704 4.71402 16.0777 5.47764 17.3005 6.70048C18.5233 7.92333 19.287 9.53055 19.4625 11.251H18.75C18.5511 11.251 18.3603 11.33 18.2197 11.4706C18.079 11.6113 18 11.8021 18 12.001C18 12.1999 18.079 12.3907 18.2197 12.5313C18.3603 12.672 18.5511 12.751 18.75 12.751ZM15.75 12.001C15.75 12.7427 15.5301 13.4677 15.118 14.0844C14.706 14.701 14.1203 15.1817 13.4351 15.4655C12.7498 15.7494 11.9958 15.8236 11.2684 15.6789C10.541 15.5342 9.8728 15.1771 9.34835 14.6526C8.8239 14.1282 8.46675 13.46 8.32205 12.7326C8.17736 12.0051 8.25162 11.2511 8.53545 10.5659C8.81928 9.88069 9.29993 9.29502 9.91661 8.88297C10.5333 8.47091 11.2583 8.25098 12 8.25098C12.9946 8.25098 13.9484 8.64606 14.6517 9.34933C15.3549 10.0526 15.75 11.0064 15.75 12.001Z" fill="#8B95A1"/>
</g>
</svg>
