<?xml version="1.0" encoding="UTF-8"?>
<svg id="_레이어_2" data-name="레이어 2" xmlns="http://www.w3.org/2000/svg" viewBox="0 0 139.74 181.38">
  <defs>
    <style>
      .cls-1 {
        fill: none;
        stroke: #cee1ee;
        stroke-linecap: round;
        stroke-linejoin: round;
      }

      .cls-2 {
        fill: #6197e5;
      }

      .cls-2, .cls-3, .cls-4, .cls-5, .cls-6, .cls-7, .cls-8, .cls-9 {
        stroke-width: 0px;
      }

      .cls-3 {
        fill: #343535;
      }

      .cls-4 {
        fill: #447abc;
      }

      .cls-5 {
        fill: #b78a61;
      }

      .cls-6 {
        fill: #fff;
      }

      .cls-7 {
        fill: #ffefb1;
      }

      .cls-8 {
        fill: #e7b88a;
      }

      .cls-9 {
        fill: #f1d6b7;
      }
    </style>
  </defs>
  <g id="_레이어_1-2" data-name="레이어 1">
    <g>
      <path class="cls-8" d="M.05,109.36c.62,3.28,2.07,10.59,3.61,15.94.3,1.03,1.23,1.6,2.24,1.94,6.78,2.28,30.77,6.4,57.02,5.86,29.01-.6,44.81-2.99,58.1-6.43,1-.26,1.84-.94,2.12-1.93.87-3.04,2.62-9.84,2.7-15.61.01-.95-.44-1.85-1.25-2.36-4.25-2.73-20.4-10.88-61.81-11-40.45-.12-56.81,7.81-61.52,10.78-.95.6-1.43,1.71-1.22,2.82Z"/>
      <path class="cls-5" d="M6.48,109.3c-.76-.17-.85-1.22-.13-1.52,6.02-2.46,24.53-8.74,56.44-8.7,31.85.04,51.16,6.15,57.53,8.55.74.28.67,1.36-.11,1.53-7.06,1.56-28.76,5.78-57.41,5.78s-49.59-4.13-56.31-5.65Z"/>
      <g>
        <path class="cls-2" d="M64.08,40.28c-4.68-.16-3.87-1.87-9.41-1.48-2.76.2-6.04.55-9.4,1.11-2.97.5-6.08,1.6-9.14,2.51s-5.45,3.27-8.19,4.68-6.22,2.13-8.41,4.27-4.59,4.77-5.76,7.77-1.77,6.49-2.63,9.66-1.83,6.52-2.3,9.72c-.5,3.38,1,6.81,1.01,9.99,0,3.49-1.65,7.04-.95,10.08.79,3.44,3.43,6.03,5.21,8.6,1.9,2.72,4.41,4.21,7.56,5.58,4.04,1.68,2.85,1.8,8,3.39,2.4.74,5.2,1.64,8.38,2.44,2.64.67,5.25,2.53,8.28,3.12,2.75.54,5.94-.72,8.92-.32s5.67,1.05,8.62,1.23,5.78.13,8.7.05,5.77-.34,8.65-.73,5.78-.65,8.57-1.43,5.48-1.87,8.1-3.11c3.23-1.54,6.65-2.16,8.99-3.89,2.88-2.13,5.51-4.43,7.26-6.79,2.05-2.76,3.41-6.04,4.27-9.03s.37-6.57.41-9.82-1.21-6.32-1.58-9.54.79-6.64.43-9.79-1.32-6.39-3.11-9.02c-1.63-2.39-5.23-3.3-7.79-5.33-2.29-1.82-4.15-4.55-6.99-6.05-2.64-1.39-5.49-2.74-8.45-3.82s-5.98-1.48-8.99-2.22-6.08-1-9.1-1.41-6.17-.34-9.16-.41Z"/>
        <path class="cls-7" d="M67.36,40.18c-.6.96-1.11,1.89-1.69,2.67-.69.93-1.55,1.56-2.2,2.25-.81.88-1.26,1.93-1.95,2.51-1.05.88-2.08,1.27-2.71,1.64-.28.17-.78-.18-.66-.48.46-1.13.89-2.18,1.34-3.13.52-1.09,1.23-1.99,1.78-2.91.61-1,1.21-1.89,1.9-2.76-1.24-.17-2.25-.32-3.19-.58-1.09-.3-2.02-.97-3.13-1.07-.95-.09-2.15.02-3.41.32-.44,1.04-.78,2.26-1.03,3.34s-.11,2.27-.17,3.36c-.06,1.16-.29,2.3-.12,3.36.19,1.16.45,2.33.93,3.28.53,1.04,1.37,1.91,2.26,2.56.95.7,2.07,1.21,3.23,1.42,1.1.2,2.27-.2,3.47-.41,1.09-.19,2.34-.12,3.46-.62,1.02-.46,1.88-1.33,2.87-2.04.92-.65,1.71-1.48,2.56-2.33.8-.8,1.65-1.58,2.36-2.55.82-1.12,1.43-2.37,1.9-3.66.5-1.37,1.12-2.82,1.45-4.04-1-.39-2.23-.35-3.18-.46-1.11-.13-2.12-.19-3.02-.1-1.5.14-2.66.33-3.06.42Z"/>
        <path class="cls-6" d="M45.18,93.73c7.91,0,14.36-6.96,14.7-15.69.02-.39-.3-.72-.69-.72h-28.02c-.39,0-.71.33-.69.72.34,8.73,6.79,15.69,14.7,15.69Z"/>
        <path class="cls-3" d="M45.18,90.1c6.33,0,11.46-5.72,11.46-12.78h-22.93c0,7.06,5.13,12.78,11.46,12.78Z"/>
        <path class="cls-6" d="M48.98,81.12c2.1,0,3.8-1.7,3.8-3.8h-7.6c0,2.1,1.7,3.8,3.8,3.8Z"/>
        <path class="cls-6" d="M83.34,93.73c7.9,0,14.34-6.94,14.7-15.64.02-.42-.32-.76-.73-.76h-27.93c-.42,0-.75.35-.73.76.36,8.71,6.8,15.64,14.7,15.64Z"/>
        <path class="cls-3" d="M83.34,90.1c6.33,0,11.46-5.72,11.46-12.78h-22.93c0,7.06,5.13,12.78,11.46,12.78Z"/>
        <path class="cls-6" d="M87.13,81.12c2.1,0,3.8-1.7,3.8-3.8h-7.6c0,2.1,1.7,3.8,3.8,3.8Z"/>
        <path class="cls-6" d="M79.44,70.85h-9.46c-.37,0-.67-.3-.67-.67s.3-.67.67-.67h9.46c.37,0,.67.3.67.67s-.3.67-.67.67Z"/>
        <path class="cls-6" d="M59.13,70.85h-9.46c-.37,0-.67-.3-.67-.67s.3-.67.67-.67h9.46c.37,0,.67.3.67.67s-.3.67-.67.67Z"/>
        <path class="cls-2" d="M47.12,42.63c2.02-2.81-.47-2.44-1.91-6.36-.7-1.9-1.81-4-2.73-6.37-.8-2.05-1.53-4.28-2.45-6.48s-1.95-4.2-2.91-6.28-1.46-4.56-2.49-6.5c-1.19-2.26-3.04-3.9-4.2-5.56-1.83-2.63-3.36-4.18-4.86-4.32-1.37-.12-1.97,1.7-3.03,4.98-.58,1.79-2.1,3.7-2.6,6.16-.41,2.01.09,4.37-.26,6.69-.32,2.11-1.63,4.18-1.91,6.44s.37,4.48.14,6.7-1.17,4.36-1.37,6.53.11,4.52-.05,6.66c-.18,2.33-.29,4.56-.42,6.62-.16,2.47-.87,4.68-.98,6.59-.23,4.08-3.22,7.12.02,6.43s2.89-1.38,5.57-3.21c2.69-1.83,2.84-1.61,5.52-3.43s2.2-2.55,4.88-4.37,2.75-1.74,5.43-3.56,2.59-2.01,5.41-3.62,3.26-1.09,5.16-3.73Z"/>
        <path class="cls-2" d="M80.84,45.77c-2.19-2.95.63-2.83,2.14-6.99.73-2.02,1.87-4.27,2.84-6.79.84-2.18,2.23-4.3,3.19-6.64s1.49-4.71,2.48-6.93,2.35-4.43,3.41-6.51c1.23-2.42,1.67-5.06,2.85-6.85C99.67,2.17,101.87.14,103.39,0c1.37-.12,2.43,2.39,3.5,5.77.58,1.83.73,4.11,1.23,6.63.41,2.06,1.19,4.22,1.54,6.59.32,2.15.28,4.44.56,6.75s1.61,4.35,1.84,6.61-.6,4.62-.41,6.84.67,4.55.83,6.73c.18,2.38.68,4.63.82,6.73.16,2.53.6,4.8.71,6.75.23,4.16,3.27,6.93-.08,6.43s-3.06-.93-5.81-2.63-2.32-2.4-5.08-4.1-2.81-1.61-5.56-3.31-3.08-1.18-5.83-2.88-2.33-2.46-5.26-3.83-3.59-.72-5.52-3.31Z"/>
      </g>
      <path class="cls-9" d="M116.12,125.75s9.3-8.37,13.21-2.01.25,16.33-5.48,20.37-18.62,2.02-18.62,2.02l-2.33,8.36s17.85,3.14,27.59-6.19c9.74-9.34,11.69-19.13,6.29-29.65-5.21-10.17-20.1-1.91-20.1-1.91l-.57,9.01Z"/>
      <path class="cls-9" d="M4.16,119.21s3.36,29.38,15.4,45.54c12.04,16.16,43.49,17.29,53.94,16.42,10.46-.88,29.52-6.69,35.8-16.25,6.79-10.34,13.03-38.01,13.35-47.87l-118.49,2.16Z"/>
      <path class="cls-4" d="M29.76,105.22s-11.08.19-15.23,7.19l11.52,1.15,3.71-8.34Z"/>
      <path class="cls-8" d="M.05,109.36s.59-1.15,2.1-.99,29.23,7.09,63.33,6.57,55.72-6.72,58.69-6.59c2.97.13-.43,14.2-.43,14.2,0,0-.05,4.36-5.57,4.83-5.52.47-20.85,5.51-52.93,5.66-32.08.16-51.63-3.64-57.66-5.3,0,0-3.42-.62-3.92-2.45S.05,109.36.05,109.36Z"/>
      <g>
        <path class="cls-6" d="M34.13,104.65s-9.25-.72-11.07,8.04c-1.21,5.81,4.14,8.13,7.28,5.48,0,0,3.37,4.03,7.28.7,0,0,5.49,2.62,7.12,0,2.48-3.99,1.13-13.9-10.62-14.22Z"/>
        <path class="cls-1" d="M37.9,118.87s1.49-1.35,1.8-4.05"/>
        <path class="cls-1" d="M30.35,118.17s-.92-1.48-.46-3.87"/>
      </g>
    </g>
  </g>
</svg>