<?xml version="1.0" encoding="UTF-8"?>
<svg id="_레이어_2" data-name="레이어 2" xmlns="http://www.w3.org/2000/svg" viewBox="0 0 139.74 152.64">
  <defs>
    <style>
      .cls-1 {
        fill: #6197e5;
      }

      .cls-1, .cls-2, .cls-3, .cls-4, .cls-5, .cls-6, .cls-7 {
        stroke-width: 0px;
      }

      .cls-2 {
        fill: #343535;
      }

      .cls-3 {
        fill: #b78a61;
      }

      .cls-4 {
        fill: #fff;
      }

      .cls-5 {
        fill: #ffefb1;
      }

      .cls-6 {
        fill: #e7b88a;
      }

      .cls-7 {
        fill: #f1d6b7;
      }
    </style>
  </defs>
  <g id="_레이어_1-2" data-name="레이어 1">
    <g>
      <path class="cls-7" d="M116.12,97s9.3-8.37,13.21-2.01.25,16.33-5.48,20.37-18.62,2.02-18.62,2.02l-2.33,8.36s17.85,3.14,27.59-6.19c9.74-9.34,11.69-19.13,6.29-29.65-5.21-10.17-20.1-1.91-20.1-1.91l-.57,9.01Z"/>
      <path class="cls-6" d="M.05,80.61c.62,3.28,2.07,10.59,3.61,15.94.3,1.03,1.23,1.6,2.24,1.94,6.78,2.28,30.77,6.4,57.02,5.86,29.01-.6,44.81-2.99,58.1-6.43,1-.26,1.84-.94,2.12-1.93.87-3.04,2.62-9.84,2.7-15.61.01-.95-.44-1.85-1.25-2.36-4.25-2.73-20.4-10.88-61.81-11-40.45-.12-56.81,7.81-61.52,10.78-.95.6-1.43,1.71-1.22,2.82Z"/>
      <path class="cls-3" d="M6.48,80.55c-.76-.17-.85-1.22-.13-1.52,6.02-2.46,24.53-8.74,56.44-8.7,31.85.04,51.16,6.15,57.53,8.55.74.28.67,1.36-.11,1.53-7.06,1.56-28.76,5.78-57.41,5.78s-49.59-4.13-56.31-5.65Z"/>
      <g>
        <path class="cls-1" d="M63.88,39.51c-4.59-.15-3.8-1.84-9.23-1.45-2.71.19-5.93.54-9.22,1.09-2.91.49-5.96,1.57-8.96,2.46s-5.34,3.21-8.03,4.59-6.1,2.09-8.25,4.19-4.5,4.68-5.65,7.62-1.74,6.36-2.58,9.48-1.79,6.4-2.26,9.54c-.49,3.31.99,6.69.99,9.8,0,3.42-1.62,6.91-.93,9.89.78,3.37,3.36,5.92,5.11,8.43,1.86,2.67,4.33,4.13,7.42,5.47,3.96,1.65,2.8,1.76,7.85,3.32,2.36.73,5.11,1.61,8.22,2.39,2.59.65,5.15,2.48,8.12,3.06,2.7.53,5.82-.7,8.75-.32,2.78.37,5.56,1.03,8.46,1.21s5.67.13,8.54.05c2.86-.08,5.66-.34,8.48-.72s5.67-.64,8.4-1.4,5.37-1.83,7.95-3.05c3.17-1.51,6.52-2.12,8.82-3.82,2.83-2.09,5.4-4.34,7.12-6.66,2.01-2.71,3.35-5.93,4.19-8.85.88-3.05.37-6.45.4-9.63s-1.19-6.2-1.55-9.36.78-6.52.43-9.61-1.29-6.27-3.05-8.85c-1.6-2.35-5.13-3.24-7.64-5.22-2.25-1.78-4.07-4.47-6.86-5.93-2.59-1.36-5.39-2.68-8.29-3.75s-5.86-1.45-8.81-2.18-5.96-.98-8.92-1.39-6.05-.34-8.99-.4Z"/>
        <path class="cls-5" d="M67.09,39.41c-.58.94-1.09,1.86-1.65,2.62-.67.91-1.53,1.53-2.15,2.21-.79.87-1.24,1.89-1.91,2.46-1.03.86-2.04,1.24-2.66,1.61-.28.17-.77-.17-.65-.47.45-1.11.87-2.14,1.32-3.07.51-1.07,1.2-1.95,1.74-2.85.59-.98,1.19-1.85,1.86-2.7-1.21-.16-2.21-.31-3.13-.57-1.07-.3-1.98-.95-3.07-1.05-.93-.08-2.11.02-3.34.32-.43,1.02-.76,2.22-1.01,3.28s-.11,2.22-.16,3.3c-.05,1.14-.29,2.26-.12,3.3.19,1.14.44,2.28.91,3.21.52,1.02,1.35,1.88,2.21,2.51.93.68,2.03,1.19,3.17,1.4,1.08.19,2.22-.2,3.4-.4,1.07-.19,2.3-.12,3.39-.61,1-.45,1.84-1.31,2.81-2,.9-.64,1.68-1.46,2.51-2.29.78-.79,1.62-1.55,2.31-2.5.8-1.09,1.4-2.32,1.87-3.59.49-1.34,1.1-2.76,1.42-3.97-.99-.38-2.18-.34-3.12-.45-1.09-.12-2.08-.18-2.97-.1-1.47.14-2.61.32-3,.42Z"/>
        <path class="cls-4" d="M45.34,91.94c7.76,0,14.09-6.83,14.42-15.39.01-.38-.29-.7-.68-.7h-27.48c-.38,0-.69.32-.68.7.33,8.56,6.66,15.39,14.42,15.39Z"/>
        <path class="cls-2" d="M45.34,88.39c6.21,0,11.25-5.61,11.25-12.54h-22.49c0,6.92,5.03,12.54,11.25,12.54Z"/>
        <path class="cls-4" d="M49.06,79.58c2.06,0,3.73-1.67,3.73-3.73h-7.45c0,2.06,1.67,3.73,3.73,3.73Z"/>
        <path class="cls-4" d="M82.76,91.94c7.75,0,14.07-6.8,14.42-15.34.02-.41-.31-.75-.72-.75h-27.39c-.41,0-.74.34-.72.75.35,8.54,6.67,15.34,14.42,15.34Z"/>
        <path class="cls-2" d="M82.76,88.39c6.21,0,11.25-5.61,11.25-12.54h-22.49c0,6.92,5.03,12.54,11.25,12.54Z"/>
        <path class="cls-4" d="M86.49,79.58c2.06,0,3.73-1.67,3.73-3.73h-7.45c0,2.06,1.67,3.73,3.73,3.73Z"/>
        <path class="cls-4" d="M78.95,69.51h-9.28c-.36,0-.66-.29-.66-.66s.29-.66.66-.66h9.28c.36,0,.66.29.66.66s-.29.66-.66.66Z"/>
        <path class="cls-4" d="M59.02,69.51h-9.28c-.36,0-.66-.29-.66-.66s.29-.66.66-.66h9.28c.36,0,.66.29.66.66s-.29.66-.66.66Z"/>
        <path class="cls-1" d="M47.23,41.82c1.98-2.76-.46-2.39-1.87-6.24-.69-1.86-1.77-3.92-2.68-6.25-.79-2.01-1.5-4.2-2.4-6.35s-1.91-4.12-2.85-6.16-1.43-4.48-2.44-6.38c-1.17-2.21-2.98-3.83-4.12-5.45-1.8-2.58-3.29-4.1-4.76-4.23-1.34-.12-1.93,1.66-2.98,4.89-.57,1.75-2.06,3.63-2.55,6.05-.4,1.98.09,4.28-.25,6.56-.31,2.07-1.6,4.1-1.87,6.31s.36,4.39.14,6.57-1.15,4.27-1.34,6.41.11,4.43-.05,6.53c-.18,2.28-.28,4.47-.42,6.49-.16,2.43-.85,4.59-.96,6.46-.23,4-3.16,6.98.02,6.31s2.83-1.36,5.47-3.15,2.78-1.58,5.42-3.37,2.16-2.5,4.79-4.29,2.7-1.7,5.33-3.5,2.54-1.97,5.31-3.55,3.2-1.07,5.06-3.66Z"/>
        <path class="cls-1" d="M80.32,44.9c-2.15-2.89.62-2.77,2.1-6.86.72-1.98,1.84-4.19,2.78-6.66.82-2.14,2.19-4.22,3.13-6.51s1.46-4.62,2.43-6.79,2.31-4.35,3.34-6.38c1.21-2.37,1.64-4.97,2.8-6.72C98.79,2.13,100.94.14,102.43,0c1.34-.12,2.38,2.35,3.43,5.66.57,1.79.72,4.03,1.21,6.5.4,2.02,1.16,4.14,1.51,6.46.31,2.11.27,4.36.55,6.62s1.58,4.26,1.81,6.49c.22,2.21-.59,4.53-.4,6.71s.65,4.46.81,6.6c.17,2.33.67,4.54.8,6.61.16,2.48.59,4.71.69,6.62.23,4.09,3.2,6.8-.08,6.31s-3-.92-5.7-2.58-2.28-2.35-4.98-4.02-2.76-1.58-5.46-3.25-3.02-1.16-5.72-2.82-2.28-2.41-5.16-3.76-3.52-.7-5.42-3.25Z"/>
      </g>
      <path class="cls-7" d="M4.16,90.47s3.36,29.38,15.4,45.54c12.04,16.16,43.49,17.29,53.94,16.42,10.46-.88,29.52-6.69,35.8-16.25,6.79-10.34,13.03-38.01,13.35-47.87l-118.49,2.16Z"/>
      <path class="cls-6" d="M.05,80.61s.59-1.15,2.1-.99,29.23,7.09,63.33,6.57,55.72-6.72,58.69-6.59c2.97.13-.43,14.2-.43,14.2,0,0-.05,4.36-5.57,4.83-5.52.47-20.85,5.51-52.93,5.66-32.08.16-51.63-3.64-57.66-5.3,0,0-3.42-.62-3.92-2.45S.05,80.61.05,80.61Z"/>
    </g>
  </g>
</svg>