<?xml version="1.0" encoding="UTF-8"?>
<svg id="_레이어_2" data-name="레이어 2" xmlns="http://www.w3.org/2000/svg" viewBox="0 0 141.48 222.35">
  <defs>
    <style>
      .cls-1 {
        fill: #f9eab0;
      }

      .cls-1, .cls-2, .cls-3, .cls-4, .cls-5, .cls-6, .cls-7, .cls-8 {
        stroke-width: 0px;
      }

      .cls-2 {
        fill: #343535;
      }

      .cls-3 {
        fill: #1e7cd8;
      }

      .cls-4 {
        fill: #1571bc;
      }

      .cls-5 {
        fill: #bfa762;
      }

      .cls-6 {
        fill: #fff;
      }

      .cls-7 {
        fill: #ffefb1;
      }

      .cls-8 {
        fill: #f4dc8a;
      }
    </style>
  </defs>
  <g id="_레이어_1-2" data-name="레이어 1">
    <g>
      <path class="cls-1" d="M117.85,166.72s9.3-8.37,13.21-2.01.25,16.33-5.48,20.37-18.62,2.02-18.62,2.02l-2.33,8.36s17.85,3.14,27.59-6.19,11.69-19.13,6.29-29.65-20.1-1.91-20.1-1.91l-.57,9.01Z"/>
      <path class="cls-8" d="M1.78,150.33c.62,3.28,2.07,10.59,3.61,15.94.3,1.03,1.23,1.6,2.24,1.94,6.78,2.28,30.77,6.4,57.02,5.86,29.01-.6,44.81-2.99,58.1-6.43,1-.26,1.84-.94,2.12-1.93.87-3.04,2.62-9.84,2.7-15.61.01-.95-.44-1.85-1.25-2.36-4.25-2.73-20.4-10.88-61.81-11-40.45-.12-56.81,7.81-61.52,10.78-.95.6-1.43,1.71-1.22,2.82Z"/>
      <path class="cls-5" d="M8.21,150.27c-.76-.17-.85-1.22-.13-1.52,6.02-2.46,24.53-8.74,56.44-8.7,31.85.04,51.16,6.15,57.53,8.55.74.28.67,1.36-.11,1.53-7.06,1.56-28.76,5.78-57.41,5.78s-49.59-4.13-56.31-5.65Z"/>
      <path class="cls-4" d="M42.07,130.08c-3.71,1.25-1.02,2.52-2.56,6.98-.75,2.17-2.39,4.44-3.24,7.19-.74,2.38-.54,5.19-1.23,7.8s-1.64,4.99-2.16,7.53-1.15,5.23-1.43,7.71c-.31,2.83-.55,5.52-.36,7.86.26,3.12.97,5.93,2.48,7.53s3.79,2.72,6.26,3.91c2.03.98,4.31,1.97,6.82,2.66,2.25.62,4.72.85,7.22,1.23,2.36.35,4.81.16,7.29.27s4.87.9,7.3.75,4.88-.72,7.24-1.15,4.71-1.42,6.95-2.19c2.39-.82,4.52-1.86,6.52-3.08,2.16-1.32,4.45-2.34,5.98-4.15s2.12-4.32,2.53-7.24c.33-2.31.1-4.89-.09-7.66-.16-2.45-.26-5.04-.72-7.64s-1.4-4.93-2.04-7.41-.7-5.24-1.49-7.58c-.89-2.63-1.69-5.15-2.62-7.27-1.32-3.02-3.04-5.09-4.13-6.42-3.68-.57-3.7.31-7.43.31s-3.72-.15-7.45-.15-3.72-.89-7.45-.89-3.72.91-7.45.91-3.7-.56-7.42-.79-3.79-.21-7.32.98Z"/>
      <path class="cls-3" d="M91.24,165.64c1.48-3.96,3.92-.51,7.98-3.37,2-1.4,4.25-3.28,6.17-5.83,1.53-2.03,3.02-4.53,4.1-7.46.89-2.39,1.36-5.22,1.73-8.31.32-2.63.73-5.02,1.4-7.15.8-2.56,1.37-5.04,2.53-6.93,1.42-2.31,3.62-3.69,5.31-5.08,2.15-1.76,4.19-3.3,6.26-3.73,2.87-.59,5.68.1,7.11,1.66,2.27,2.49,2.37,5.13,1.15,6.94s-4.09,2.63-6.07,3.89c-1.78,1.14-3.12,3.31-4.52,5.52-1.2,1.9-1.9,4.21-2.82,6.47s-2.23,4.31-2.87,6.49c-.75,2.54-1.31,4.95-1.72,6.89-.37,1.82-1.2,4.11-2.53,6.5-1.07,1.93-2.55,3.78-4.19,5.58s-3.37,3.11-5.39,4.33-3.97,2.43-6.36,2.78c-2.17.32-4.56.2-7.03-.46-2.77-3.46-1.75-4.71-.24-8.73Z"/>
      <g>
        <path class="cls-3" d="M60.97,44.37c-5.16-.17-4.26-2.06-10.37-1.63-3.04.22-6.66.6-10.35,1.22-3.27.55-6.7,1.76-10.06,2.76s-6,3.6-9.02,5.16-6.85,2.35-9.26,4.71-5.06,5.26-6.35,8.56c-1.33,3.39-1.95,7.14-2.9,10.64s-2.01,7.18-2.54,10.71c-.55,3.72,1.11,7.51,1.12,11.01,0,3.84-1.82,7.76-1.05,11.1.87,3.79,3.78,6.65,5.74,9.47,2.09,3,4.86,4.64,8.33,6.14,4.45,1.85,3.14,1.98,8.81,3.73,2.65.82,5.73,1.8,9.23,2.69,2.9.73,5.78,2.78,9.12,3.43,3.03.59,6.54-.79,9.82-.35s6.24,1.16,9.5,1.36,6.36.14,9.58.06,6.36-.38,9.53-.81,6.37-.72,9.44-1.58,6.04-2.06,8.92-3.43c3.56-1.69,7.33-2.38,9.9-4.28,3.18-2.34,6.07-4.88,7.99-7.48,2.25-3.04,3.76-6.66,4.7-9.94s.41-7.24.45-10.82-1.33-6.97-1.74-10.51.87-7.32.48-10.79-1.45-7.04-3.43-9.94c-1.8-2.64-5.76-3.63-8.58-5.87-2.53-2-4.57-5.02-7.7-6.66-2.91-1.53-6.05-3.01-9.31-4.21s-6.58-1.63-9.9-2.45-6.69-1.1-10.02-1.56c-3.42-.47-6.8-.38-10.09-.45Z"/>
        <path class="cls-7" d="M64.59,44.26c-.66,1.06-1.22,2.08-1.86,2.94-.76,1.02-1.71,1.71-2.42,2.48-.89.97-1.39,2.12-2.15,2.76-1.15.97-2.29,1.39-2.98,1.81-.31.19-.86-.19-.72-.53.5-1.24.98-2.4,1.48-3.45.57-1.2,1.35-2.2,1.96-3.2.67-1.1,1.33-2.08,2.09-3.04-1.36-.18-2.48-.35-3.51-.64-1.2-.34-2.23-1.07-3.45-1.18-1.04-.09-2.37.02-3.76.36-.48,1.14-.86,2.49-1.13,3.68s-.13,2.5-.18,3.7c-.06,1.27-.32,2.54-.13,3.7.21,1.28.5,2.57,1.03,3.61.58,1.15,1.51,2.11,2.49,2.82,1.05.77,2.28,1.34,3.56,1.57,1.21.22,2.5-.22,3.82-.45,1.2-.21,2.58-.13,3.81-.68,1.12-.51,2.07-1.47,3.16-2.24,1.01-.72,1.88-1.64,2.82-2.57.88-.88,1.82-1.74,2.6-2.81.9-1.23,1.57-2.61,2.1-4.03.56-1.51,1.23-3.1,1.6-4.46-1.11-.43-2.45-.39-3.5-.51-1.22-.14-2.34-.21-3.33-.11-1.65.16-2.94.36-3.37.47Z"/>
        <path class="cls-6" d="M56.41,87.17c0,2.33-.47,4.67-1.19,6.72-.77,2.18-1.83,4.37-3.25,6.03s-3.87,2.37-5.87,3.34-3.97,1.45-6.28,1.45-4.38-.3-6.37-1.28-3.73-2.27-5.21-4.01-2.27-3.64-3.04-5.82c-.72-2.05-1.17-4.11-1.17-6.44s-.34-4.67.38-6.72c.77-2.18,1.86-4.34,3.28-6.01s3.67-2.77,5.66-3.74,4.15-1.21,6.47-1.21,4.72-.27,6.71.71,3.26,3.08,4.74,4.82,2.4,3.54,3.17,5.71c.72,2.05,1.98,4.11,1.98,6.45Z"/>
        <path class="cls-6" d="M98.21,87.17c0,2.33-.3,4.53-1.03,6.58-.77,2.18-1.83,4.16-3.25,5.83s-3.46,2.72-5.46,3.7-3.97,1.46-6.28,1.46-4.28-.52-6.27-1.5-3.7-2.18-5.18-3.92-2.81-3.39-3.58-5.57c-.72-2.05-1.22-4.25-1.22-6.59s-.05-4.73.67-6.78c.77-2.18,2.44-3.93,3.86-5.6s3.36-2.89,5.36-3.87,4.04-2.16,6.35-2.16,4.75.4,6.74,1.37,3.67,2.76,5.15,4.5,2.26,3.81,3.03,5.98c.72,2.05,1.1,4.22,1.1,6.55Z"/>
        <path class="cls-2" d="M52.38,87.17c0,2.45-.42,4.8-1.4,6.81-1.06,2.16-2.56,4.16-4.44,5.44s-4.32,2.14-6.73,2.14-4.55-1.23-6.47-2.53-3.41-3-4.47-5.16c-.99-2.01-1.84-4.24-1.84-6.69s.58-4.82,1.57-6.83c1.06-2.16,2.81-3.83,4.69-5.11s4.11-1.94,6.52-1.94,4.43.89,6.35,2.2,3.56,2.81,4.63,4.97c.99,2.01,1.6,4.26,1.6,6.71Z"/>
        <path class="cls-6" d="M48.16,83.47c0,.76-.16,1.49-.52,2.11s-.88,1.22-1.52,1.59-1.37.58-2.13.58-1.45-.35-2.06-.7-1.15-.87-1.52-1.5-.64-1.31-.64-2.07.21-1.5.57-2.11.95-1.12,1.58-1.48,1.32-.53,2.08-.53,1.42.25,2.03.61,1.2.81,1.56,1.44.57,1.31.57,2.08Z"/>
        <path class="cls-2" d="M94.89,87.17c0,2.48-.39,4.86-1.39,6.89-1.08,2.19-2.6,4.19-4.5,5.49s-4.37,2.08-6.81,2.08-4.81-.85-6.75-2.17-3.02-3.45-4.1-5.64c-1-2.03-2.07-4.18-2.07-6.66s.9-4.71,1.9-6.74c1.08-2.19,2.56-3.97,4.46-5.26s4.11-2,6.55-2,4.79.41,6.73,1.74,3.64,3.13,4.72,5.31c1,2.03,1.25,4.48,1.25,6.96Z"/>
        <path class="cls-6" d="M90.62,83.47c0,.76-.23,1.5-.59,2.11s-.92,1.17-1.55,1.54-1.35.6-2.11.6-1.47-.29-2.08-.65-1.2-.86-1.57-1.5-.61-1.35-.61-2.11.23-1.51.58-2.12.93-1.17,1.56-1.54,1.35-.4,2.12-.4,1.5.05,2.11.41,1.09.96,1.45,1.6.68,1.3.68,2.06Z"/>
        <path class="cls-3" d="M42.29,46.96c2.22-3.1-.51-2.69-2.1-7-.77-2.09-1.99-4.41-3.01-7.02-.88-2.26-1.69-4.71-2.7-7.13s-2.15-4.63-3.2-6.92-1.61-5.03-2.74-7.16c-1.31-2.49-3.35-4.3-4.62-6.13-2.02-2.9-3.7-4.6-5.35-4.75-1.5-.14-2.17,1.87-3.34,5.49-.64,1.97-2.31,4.08-2.86,6.79-.45,2.22.1,4.81-.29,7.37-.35,2.32-1.79,4.6-2.1,7.09s.41,4.93.16,7.38-1.29,4.8-1.51,7.2.12,4.98-.06,7.33c-.2,2.56-.32,5.02-.47,7.29-.18,2.72-.96,5.16-1.08,7.26-.26,4.49-3.55,7.84.03,7.08,3.5-.74,3.18-1.52,6.14-3.54s3.12-1.77,6.08-3.78,2.42-2.8,5.38-4.82,3.03-1.91,5.99-3.92,2.85-2.21,5.96-3.99,3.59-1.2,5.68-4.11Z"/>
        <path class="cls-3" d="M79.43,50.42c-2.42-3.25.7-3.11,2.36-7.71.81-2.22,2.06-4.7,3.13-7.48.92-2.4,2.46-4.73,3.51-7.31s1.64-5.18,2.73-7.63,2.59-4.88,3.75-7.17c1.35-2.66,1.84-5.58,3.14-7.55C100.18,2.39,102.59.16,104.27,0c1.51-.14,2.68,2.64,3.85,6.36.64,2.02.81,4.53,1.35,7.3.45,2.27,1.31,4.65,1.7,7.26.35,2.37.31,4.89.61,7.44s1.78,4.79,2.03,7.28-.66,5.09-.45,7.54.73,5.01.91,7.41c.2,2.62.75,5.1.9,7.42.18,2.78.66,5.29.78,7.43.25,4.59,3.6,7.63-.09,7.09s-3.37-1.03-6.41-2.9-2.56-2.64-5.59-4.52-3.09-1.78-6.13-3.65-3.39-1.3-6.42-3.17-2.57-2.71-5.8-4.22-3.96-.79-6.08-3.65Z"/>
      </g>
      <path class="cls-1" d="M5.9,160.18s3.36,29.38,15.4,45.54c12.04,16.16,43.49,17.29,53.94,16.42s29.52-6.69,35.8-16.25c6.79-10.34,13.03-38.01,13.35-47.87l-118.49,2.16Z"/>
      <path class="cls-8" d="M1.78,150.33s.59-1.15,2.1-.99,29.23,7.09,63.33,6.57,55.72-6.72,58.69-6.59-.43,14.2-.43,14.2c0,0-.05,4.36-5.57,4.83-5.52.47-20.85,5.51-52.93,5.66-32.08.16-51.63-3.64-57.66-5.3,0,0-3.42-.62-3.92-2.45s-3.61-15.94-3.61-15.94Z"/>
    </g>
  </g>
</svg>