<?xml version="1.0" encoding="UTF-8"?>
<svg id="_레이어_2" data-name="레이어 2" xmlns="http://www.w3.org/2000/svg" xmlns:xlink="http://www.w3.org/1999/xlink" viewBox="0 0 139.74 150.95">
  <defs>
    <style>
      .cls-1 {
        clip-path: url(#clippath);
      }

      .cls-2 {
        fill: none;
      }

      .cls-2, .cls-3, .cls-4, .cls-5, .cls-6, .cls-7, .cls-8, .cls-9, .cls-10 {
        stroke-width: 0px;
      }

      .cls-3 {
        fill: #4a8ad8;
      }

      .cls-4 {
        fill: #5264bf;
      }

      .cls-5 {
        fill: #297ecc;
      }

      .cls-6 {
        fill: #6376d3;
      }

      .cls-7 {
        fill: #6ca8ef;
      }

      .cls-8 {
        fill: #3b509b;
      }

      .cls-9 {
        fill: #fff;
      }

      .cls-10 {
        fill: #ffefb1;
      }
    </style>
    <clipPath id="clippath">
      <path class="cls-2" d="M67.49,38.45s7.7,38.73-5.96,52.37c-22.31,22.27-51.48,10.49-51.48,10.49,0,0-5.75-52.79,22.69-60.91,28.44-8.12,34.75-1.96,34.75-1.96Z"/>
    </clipPath>
  </defs>
  <g id="_레이어_1-2" data-name="레이어 1">
    <g>
      <path class="cls-6" d="M116.12,95.32s9.3-8.37,13.21-2.01.25,16.33-5.48,20.37-18.62,2.02-18.62,2.02l-2.33,8.36s17.85,3.14,27.59-6.19c9.74-9.34,11.69-19.13,6.29-29.65-5.21-10.17-20.1-1.91-20.1-1.91l-.57,9.01Z"/>
      <path class="cls-4" d="M.05,78.93c.62,3.28,2.07,10.59,3.61,15.94.3,1.03,1.23,1.6,2.24,1.94,6.78,2.28,30.77,6.4,57.02,5.86,29.01-.6,44.81-2.99,58.1-6.43,1-.26,1.84-.94,2.12-1.93.87-3.04,2.62-9.84,2.7-15.61.01-.95-.44-1.85-1.25-2.36-4.25-2.73-20.4-10.88-61.81-11-40.45-.12-56.81,7.81-61.52,10.78-.95.6-1.43,1.71-1.22,2.82Z"/>
      <path class="cls-8" d="M6.48,78.87c-.76-.17-.85-1.22-.13-1.52,6.02-2.46,24.53-8.74,56.44-8.7,31.85.04,51.16,6.15,57.53,8.55.74.28.67,1.36-.11,1.53-7.06,1.56-28.76,5.78-57.41,5.78s-49.59-4.13-56.31-5.65Z"/>
      <g>
        <path class="cls-5" d="M80.37,43.88c-2.09-2.85.63-2.71,2.11-6.71.72-1.94,1.83-4.09,2.77-6.51.82-2.09,2.17-4.12,3.11-6.37s1.46-4.52,2.43-6.65,2.29-4.25,3.32-6.24c1.2-2.32,1.64-4.86,2.79-6.57C98.77,2.06,100.9.13,102.36,0c1.32-.11,2.32,2.32,3.33,5.58.54,1.76.68,3.96,1.14,6.38.38,1.98,1.11,4.07,1.44,6.35.29,2.07.24,4.27.49,6.5s1.52,4.19,1.73,6.37-.61,4.44-.44,6.58c.18,2.22.61,4.38.75,6.48.16,2.29.62,4.45.74,6.48.14,2.43.55,4.62.64,6.49.2,4.01,3.1,6.69-.12,6.19s-2.94-.92-5.58-2.57-2.22-2.32-4.86-3.98-2.69-1.57-5.33-3.22c-2.64-1.65-2.95-1.16-5.59-2.81s-2.22-2.38-5.04-3.72c-2.85-1.36-3.45-.71-5.29-3.22Z"/>
        <path class="cls-7" d="M47.96,40.64c1.96-2.69-.43-2.35-1.8-6.13-.66-1.83-1.71-3.86-2.59-6.14-.76-1.98-1.44-4.13-2.32-6.24s-1.85-4.06-2.76-6.06-1.38-4.4-2.35-6.27c-1.13-2.18-2.9-3.77-4-5.38C30.41,1.87,28.95.37,27.51.23c-1.31-.13-1.91,1.62-2.95,4.77-.57,1.72-2.04,3.55-2.54,5.91-.4,1.93.06,4.2-.29,6.43-.32,2.02-1.59,4.01-1.88,6.18s.33,4.31.09,6.44-1.16,4.18-1.36,6.28.08,4.35-.09,6.4c-.19,2.24-.31,4.38-.45,6.37-.17,2.38-.87,4.5-.98,6.33-.25,3.92-3.14,6.82-.02,6.19s2.79-1.31,5.38-3.05,2.74-1.53,5.33-3.27,2.13-2.43,4.73-4.18,2.66-1.65,5.25-3.39,2.51-1.91,5.23-3.45,3.15-1.03,4.98-3.56Z"/>
        <path class="cls-7" d="M64.28,38.66c-4.5-.18-3.61-.58-8.95-.23-2.65.17-5.66.63-8.89,1.14-2.86.46-5.97.4-8.92,1.26s-5.54,2.37-8.18,3.71-5.22,2.95-7.34,4.99-5.01,3.93-6.16,6.81-.77,6.49-1.62,9.54-2.13,6.08-2.61,9.16c-.5,3.25.26,6.45.25,9.51-.01,3.35-1.06,6.62-.4,9.55.74,3.31,2.51,6.04,4.21,8.52,1.81,2.63,3.56,5.8,6.59,7.14,3.87,1.64,3.15,1.04,8.09,2.61,2.31.73,5.4.31,8.44,1.1,2.53.66,5.26,1.31,8.17,1.9,2.65.54,5.47.49,8.33.89s5.38,1.75,8.22,1.94,5.6.5,8.42.45,5.64-.3,8.41-.65,5.39-1.66,8.08-2.39,5.71-.74,8.24-1.92c3.12-1.46,5.71-3.28,7.97-4.92,2.79-2.03,4.71-4.48,6.4-6.73,1.99-2.64,2.93-5.47,3.77-8.33s2.41-5.91,2.46-9.03-1.77-6.1-2.11-9.2c-.34-3.12-.31-6.27-.64-9.3-.31-2.92-.2-6.21-1.92-8.76-1.55-2.31-4.58-3.69-7.02-5.66-2.19-1.76-4.01-4.52-6.74-5.98-2.53-1.35-6.04-.83-8.88-1.89s-5.08-3.44-7.97-4.17-5.85-1.44-8.75-1.86c-2.99-.43-6.1.91-8.98.83Z"/>
        <g class="cls-1">
          <path class="cls-3" d="M64.29,38.49c-4.5-.18-3.71-1.83-9.04-1.48-2.65.17-5.82.49-9.05,1-2.86.46-5.86,1.5-8.8,2.35s-5.26,3.11-7.91,4.45-5.99,2.01-8.12,4.06-4.45,4.56-5.59,7.44-1.74,6.23-2.6,9.28-1.8,6.26-2.28,9.34c-.5,3.25.92,6.56.91,9.62-.01,3.35-1.63,6.76-.98,9.69.74,3.31,3.26,5.83,4.96,8.3,1.81,2.63,4.21,4.08,7.24,5.41,3.87,1.64,2.73,1.75,7.67,3.31,2.31.73,5,1.61,8.04,2.4,2.53.66,5.03,2.46,7.94,3.05,2.65.54,5.72-.65,8.58-.25,2.72.38,5.44,1.05,8.28,1.24s5.55.16,8.37.11c2.81-.06,5.55-.29,8.32-.65s5.56-.59,8.25-1.32,5.28-1.76,7.81-2.94c3.12-1.46,6.41-2.04,8.67-3.68,2.79-2.03,5.33-4.22,7.02-6.48,1.99-2.64,3.32-5.79,4.17-8.66s.4-6.32.46-9.44c.05-3.08-1.12-6.09-1.46-9.19-.34-3.12.8-6.39.48-9.42s-1.22-6.15-2.93-8.7c-1.55-2.31-5.01-3.21-7.46-5.17-2.19-1.76-3.96-4.41-6.69-5.86-2.53-1.35-5.27-2.67-8.1-3.73s-5.74-1.46-8.63-2.2-5.84-1-8.74-1.42-5.93-.37-8.81-.46Z"/>
        </g>
        <path class="cls-10" d="M67.45,38.23c-.58.92-1.08,1.81-1.64,2.56-.67.89-1.51,1.49-2.13,2.15-.79.85-1.22,1.85-1.89,2.4-1.01.84-2.01,1.2-2.61,1.56-.27.16-.75-.18-.63-.47.45-1.08.87-2.09,1.31-3,.51-1.05,1.19-1.91,1.73-2.78.59-.96,1.18-1.81,1.84-2.64-1.19-.17-2.16-.32-3.06-.58-1.05-.3-1.94-.95-3-1.05-.91-.09-2.07,0-3.28.29-.43.99-.76,2.17-1.01,3.21s-.12,2.18-.18,3.23c-.06,1.11-.3,2.21-.13,3.23.18,1.12.42,2.24.87,3.16.5,1.01,1.31,1.85,2.15,2.48.91.68,1.98,1.18,3.1,1.39,1.06.2,2.18-.18,3.34-.37,1.05-.18,2.25-.1,3.33-.57.98-.44,1.82-1.27,2.77-1.94.89-.62,1.66-1.42,2.48-2.23.77-.77,1.6-1.51,2.28-2.43.79-1.07,1.39-2.27,1.86-3.51.49-1.31,1.1-2.7,1.42-3.88-.96-.38-2.14-.35-3.06-.46-1.06-.13-2.04-.2-2.91-.12-1.44.13-2.57.3-2.94.39Z"/>
        <path class="cls-9" d="M74.78,81.98c-.3,0-.59-.13-.79-.39-.35-.44-.27-1.07.17-1.42.4-.31,9.83-7.61,23.54-6.12.56.06.96.56.9,1.12-.06.56-.56.96-1.12.9-12.86-1.4-21.98,5.63-22.07,5.7-.19.15-.41.22-.63.22Z"/>
        <path class="cls-9" d="M56.7,81.76c-.22,0-.44-.08-.63-.23h0c-.09-.07-9.12-7.22-21.99-6-.56.05-1.05-.36-1.1-.91-.05-.56.36-1.05.91-1.1,13.73-1.31,23.06,6.12,23.45,6.44.43.35.5.99.15,1.42-.2.25-.5.38-.79.37Z"/>
        <path class="cls-9" d="M73.84,78.12c-.11,0-.22-.04-.3-.12-.19-.17-.21-.46-.04-.65.14-.16,3.55-3.93,11.14-5.21.25-.04.49.13.53.38.04.25-.13.49-.38.53-3.79.64-6.47,1.94-8.05,2.92-1.72,1.06-2.55,1.98-2.56,1.99-.09.1-.22.15-.35.15Z"/>
        <path class="cls-9" d="M57.91,77.83c-.13,0-.25-.05-.34-.16-.04-.05-3.32-3.74-10.54-5.06-.25-.05-.42-.29-.37-.54.05-.25.29-.42.54-.37,7.57,1.39,10.93,5.2,11.07,5.36.17.19.14.48-.05.65-.09.08-.2.11-.3.11Z"/>
      </g>
      <path class="cls-6" d="M4.16,88.78s3.36,29.38,15.4,45.54c12.04,16.16,43.49,17.29,53.94,16.42,10.46-.88,29.52-6.69,35.8-16.25,6.79-10.34,13.03-38.01,13.35-47.87l-118.49,2.16Z"/>
      <path class="cls-4" d="M.05,78.93s.59-1.15,2.1-.99,29.23,7.09,63.33,6.57c34.1-.52,55.72-6.72,58.69-6.59,2.97.13-.43,14.2-.43,14.2,0,0-.05,4.36-5.57,4.83-5.52.47-20.85,5.51-52.93,5.66-32.08.16-51.63-3.64-57.66-5.3,0,0-3.42-.62-3.92-2.45S.05,78.93.05,78.93Z"/>
    </g>
  </g>
</svg>