<?xml version="1.0" encoding="UTF-8"?>
<svg id="_레이어_2" data-name="레이어 2" xmlns="http://www.w3.org/2000/svg" viewBox="0 0 139.74 85.62">
  <defs>
    <style>
      .cls-1 {
        fill: #f9eab0;
      }

      .cls-1, .cls-2, .cls-3 {
        stroke-width: 0px;
      }

      .cls-2 {
        fill: #bfa762;
      }

      .cls-3 {
        fill: #f4dc8a;
      }
    </style>
  </defs>
  <g id="_레이어_1-2" data-name="레이어 1">
    <g>
      <path class="cls-1" d="M116.12,29.99s9.3-8.37,13.21-2.01.25,16.33-5.48,20.37c-5.72,4.04-18.62,2.02-18.62,2.02l-2.33,8.36s17.85,3.14,27.59-6.19c9.74-9.34,11.69-19.13,6.29-29.65s-20.1-1.91-20.1-1.91l-.57,9.01Z"/>
      <path class="cls-1" d="M4.16,23.45s3.36,29.38,15.4,45.54c12.04,16.16,43.49,17.29,53.94,16.42,10.46-.88,29.52-6.69,35.8-16.25,6.79-10.34,13.03-38.01,13.35-47.87L4.16,23.45Z"/>
      <path class="cls-3" d="M.05,13.6c.62,3.28,2.07,10.59,3.61,15.94.3,1.03,1.23,1.6,2.24,1.94,6.78,2.28,30.77,6.4,57.02,5.86,29.01-.6,44.81-2.99,58.1-6.43,1-.26,1.84-.94,2.12-1.93.87-3.04,2.62-9.84,2.7-15.61.01-.95-.44-1.85-1.25-2.36C120.35,8.27,104.19.12,62.79,0,22.34-.12,5.97,7.81,1.27,10.78c-.95.6-1.43,1.71-1.22,2.82Z"/>
      <path class="cls-2" d="M6.48,13.54c-.76-.17-.85-1.22-.13-1.52C12.36,9.56,30.88,3.28,62.79,3.32c31.85.04,51.16,6.15,57.53,8.55.74.28.67,1.36-.11,1.53-7.06,1.56-28.76,5.78-57.41,5.78S13.2,15.06,6.48,13.54Z"/>
    </g>
  </g>
</svg>