<svg width="182" height="273" viewBox="0 0 182 273" fill="none" xmlns="http://www.w3.org/2000/svg">
<g clip-path="url(#clip0_1724_10002)">
<path d="M74.6001 51.0353C69.5449 50.8494 70.5857 50.1803 64.5269 50.5149C61.5532 50.7007 57.9848 49.8086 54.3049 50.2918C51.1082 50.7379 48.1717 53.4142 44.752 54.2319C41.3323 55.0497 37.6524 54.0089 34.4929 55.1984C31.3334 56.3879 29.0288 59.473 26.1667 61.1829C23.3045 62.8927 20.0707 64.2309 17.8404 66.6842C15.6102 69.1374 13.6401 71.8881 12.3391 75.1219C11.1868 78.0212 11.1125 81.2923 10.2204 84.2659C9.32831 87.2396 8.69641 90.2876 8.06451 93.2984C7.4326 96.3092 5.09085 99.2457 4.75631 102.294C4.42177 105.342 5.9086 108.724 5.9086 111.735C5.9086 115.006 5.68558 118.054 6.13163 121.028C6.65202 124.262 6.39182 127.607 7.54412 130.358C8.77075 133.368 10.8151 135.97 12.8595 138.201C14.9039 140.431 17.1342 143.367 20.1078 144.668C24.717 146.527 23.8992 145.523 29.7722 147.308C32.4857 148.125 35.8311 148.683 39.4366 149.612C42.4103 150.356 45.9787 149.612 49.3984 150.356C52.4836 150.987 55.4572 153.255 58.8398 153.775C62.0364 154.258 65.5305 152.957 68.8758 153.292C72.2212 153.627 75.3064 155.002 78.6518 155.076C81.9971 155.151 85.231 154.965 88.5763 154.779C91.9217 154.593 95.1184 153.85 98.3523 153.366C101.586 152.883 104.857 152.437 108.054 151.545C111.25 150.653 114.745 150.541 117.755 149.203C120.766 147.865 123.405 145.895 125.896 144.408C128.869 142.661 131.063 140.431 133.218 138.572C135.858 136.342 137.196 133.666 138.831 131.324C140.764 128.573 143.403 126.603 144.221 123.741C145.113 120.693 145.373 117.534 145.41 114.411C145.448 111.289 143.961 108.353 143.515 105.23C143.069 102.108 142.697 99.0599 142.139 95.9747C141.582 92.8895 140.69 89.7672 140.318 86.7192C139.946 83.3738 139.5 80.2515 137.679 77.2778C136.006 74.5272 134.557 71.219 131.88 68.8401C129.464 66.6842 126.788 64.3052 123.74 62.4467C120.915 60.7368 117.012 60.8855 113.815 59.473C110.619 58.0605 108.203 55.2356 104.931 54.1948C101.66 53.154 97.9434 54.0461 94.6352 53.3027C91.327 52.5593 88.0931 51.4441 84.7478 51.0353C81.4024 50.6264 77.9083 51.0724 74.6001 51.0353Z" fill="#267EE2"/>
<path d="M96.7195 54.1207C94.7866 51.7417 96.9797 51.6674 98.2806 48.1362C98.8754 46.4635 100.474 44.8651 101.291 42.7092C101.961 40.925 102.369 38.8806 103.15 36.8734C103.856 35.0521 104.191 32.9333 105.009 31.0004C105.826 29.0676 106.495 27.209 107.313 25.3133C108.131 23.4176 109.692 21.8936 110.547 20.0351C111.402 18.1765 112.071 16.1693 113 14.4223C114.004 12.4894 114.71 10.5194 115.714 8.92102C116.903 6.95097 118.316 5.3898 119.431 4.01448C121.178 1.89575 122.813 0.111549 124.263 3.68908e-05C125.713 -0.111475 126.753 2.15594 127.943 5.05526C128.612 6.69077 129.021 8.69799 129.616 11.0026C130.099 12.8611 131.14 14.7568 131.586 16.9499C131.957 18.8828 132.664 20.9272 132.998 23.0459C133.295 25.0531 133.407 27.1347 133.704 29.2534C134.002 31.3722 133.184 33.4909 133.407 35.5725C133.63 37.654 134.931 39.5869 135.154 41.6685C135.377 43.75 134.634 45.9431 134.819 47.9875C135.005 50.0319 135.154 52.1878 135.34 54.2322C135.526 56.3881 136.195 58.4325 136.343 60.4397C136.492 62.6699 137.013 64.7143 137.161 66.6472C137.31 68.989 137.087 71.1077 137.161 72.8919C137.384 76.7948 140.692 78.9507 137.607 78.4675C134.522 77.9843 135.043 77.4267 132.478 75.8656C129.913 74.3044 130.136 74.007 127.571 72.4458C125.006 70.8847 124.449 71.8139 121.921 70.2528C119.394 68.6916 119.431 68.6173 116.866 67.0561C114.301 65.4949 114.747 64.8258 112.183 63.2647C109.618 61.7035 109.878 61.2946 107.313 59.7334C104.748 58.1723 104.637 58.2466 101.923 56.9828C99.2099 55.719 98.5408 56.3881 96.6823 54.0835L96.7195 54.1207Z" fill="#267EE2"/>
<path d="M53.972 54.4164C55.9049 52.0374 53.2657 51.7029 51.9648 48.1717C51.37 46.499 50.2177 44.7148 49.4 42.5961C48.7309 40.8119 48.5822 38.656 47.8016 36.6487C47.0954 34.8274 45.6457 33.1547 44.8652 31.2218C44.0846 29.2889 43.75 27.2445 42.9323 25.386C42.1145 23.5275 40.3675 22.0406 39.5126 20.2193C38.6576 18.3979 38.1373 16.2792 37.208 14.5321C36.2044 12.5993 35.7955 10.4805 34.8291 8.84502C33.6396 6.87497 31.7067 5.68551 30.5916 4.31019C28.8446 2.19146 27.4692 0.85331 26.0196 0.741798C24.5699 0.630286 23.6407 2.22863 22.4512 5.09078C21.7821 6.72629 20.8157 8.58483 20.2581 10.8894C19.7749 12.748 19.6262 14.8667 19.2173 17.0598C18.8456 18.9926 17.7305 20.9627 17.396 23.0814C17.0986 25.0886 17.6933 27.2817 17.396 29.4004C17.0986 31.5192 16.541 33.4521 16.318 35.5708C16.095 37.6895 15.3144 39.6596 15.1286 41.7411C14.9427 43.8227 15.5374 46.0158 15.3516 48.0602C15.1657 50.1046 14.0878 52.1861 13.9019 54.2305C13.7161 56.3864 14.2736 58.5423 14.1249 60.5495C13.9763 62.7798 14.2736 64.8985 14.1249 66.8314C13.9763 69.1732 13.7161 71.2547 13.6046 73.0389C13.3815 76.9418 9.77596 80.1014 12.8611 79.6181C15.9463 79.1349 15.2401 77.4994 17.7677 75.9382C20.2953 74.3771 20.667 74.9346 23.1946 73.3735C25.7222 71.8123 25.8709 71.9981 28.3985 70.437C30.9261 68.8758 30.9261 68.8758 33.4909 67.2774C36.0557 65.6791 35.6468 65.0472 38.1744 63.486C40.702 61.9249 40.9251 62.2594 43.4898 60.6982C46.0546 59.1371 45.8688 58.9512 48.6566 57.7989C51.5931 56.5723 52.0391 56.7581 53.9348 54.4535L53.972 54.4164Z" fill="#267EE2"/>
<path d="M68.5075 99.9153C68.5075 102.034 68.7677 104.116 68.2473 106.049C67.6898 108.093 67.1322 110.212 66.0914 111.922C65.0507 113.631 63.4895 115.304 61.9283 116.642C60.3671 117.98 58.2112 118.501 56.3155 119.244C54.4198 119.988 52.4869 120.805 50.3682 120.805C48.2495 120.805 46.3538 119.913 44.4581 119.17C42.5624 118.426 41.0012 117.274 39.4028 115.936C37.8045 114.598 36.615 113.185 35.5371 111.401C34.4591 109.617 33.121 108.093 32.5634 106.049C32.0059 104.004 32.0802 102.034 32.0802 99.9153C32.0802 97.7966 32.5634 95.8637 33.0838 93.9309C33.6414 91.8865 33.6042 89.619 34.6822 87.9092C35.7601 86.1993 37.2098 84.378 38.7338 83.077C40.2578 81.776 42.3765 80.8839 44.2722 80.1405C46.1679 79.3971 48.2866 79.6945 50.3682 79.6945C52.4498 79.6945 54.68 79.1741 56.5757 79.8803C58.4714 80.5866 60.2928 81.9247 61.854 83.2628C63.4151 84.601 64.1214 86.6454 65.2365 88.4296C66.3516 90.2138 67.95 91.6634 68.5075 93.7078C69.0651 95.7522 68.5075 97.7966 68.5075 99.9153Z" fill="white"/>
<path d="M117.645 99.9165C117.645 102.035 116.827 103.968 116.27 105.901C115.712 107.945 114.969 109.767 113.891 111.477C112.813 113.186 111.735 115.045 110.211 116.346C108.687 117.647 106.68 118.316 104.747 119.022C102.814 119.729 100.993 120.658 98.8739 120.658C96.7552 120.658 94.8594 119.877 92.9637 119.171C91.068 118.465 88.875 118.019 87.2766 116.681C85.6783 115.342 84.6003 113.484 83.4852 111.7C82.3701 109.915 82.1099 107.908 81.5523 105.901C80.9948 103.894 80.0283 102.035 80.0283 99.9165C80.0283 97.7978 80.4744 95.7162 80.9948 93.7834C81.5523 91.739 82.2957 89.7317 83.3365 88.0219C84.3773 86.312 86.05 84.8252 87.574 83.4871C89.098 82.1489 90.845 80.8479 92.7779 80.1045C94.7108 79.3611 96.7923 79.5841 98.9111 79.5841C101.03 79.5841 103.186 79.2868 105.044 80.0302C106.903 80.7736 108.65 82.0746 110.248 83.4499C111.846 84.8252 112.776 86.5722 113.891 88.3564C115.006 90.1406 116.381 91.7018 116.939 93.7462C117.496 95.7906 117.608 97.7978 117.608 99.9165H117.645Z" fill="white"/>
<path d="M64.4927 99.9159C64.4927 101.997 64.567 104.042 63.9351 105.863C63.266 107.796 62.4111 109.766 61.1473 111.253C59.8835 112.74 58.0621 114.078 56.2779 114.97C54.4937 115.862 52.4122 115.825 50.3306 115.825C48.249 115.825 46.2418 115.676 44.4576 114.821C42.6734 113.966 41.3353 112.405 40.0343 110.844C38.7333 109.283 37.9527 107.647 37.2465 105.677C36.6146 103.856 36.28 101.997 36.28 99.9159C36.28 97.8344 36.1685 95.8271 36.8004 94.0058C37.4695 92.0729 38.6961 90.4374 39.96 88.9506C41.2238 87.4637 42.8964 86.3486 44.6806 85.4565C46.4648 84.5644 48.249 83.4121 50.3306 83.4121C52.4122 83.4121 54.5309 83.8953 56.3151 84.7503C58.0993 85.6052 59.6233 87.1664 60.9614 88.7275C62.2996 90.2887 62.7828 92.1844 63.4519 94.1545C64.0838 95.9758 64.4555 97.8344 64.4555 99.9531L64.4927 99.9159Z" fill="#343535"/>
<path d="M113.709 99.9141C113.709 102.033 112.928 103.929 112.259 105.787C111.553 107.757 110.623 109.467 109.36 110.954C108.096 112.441 106.646 114.002 104.825 114.857C103.003 115.712 101.033 115.823 98.9518 115.823C96.8702 115.823 94.863 115.786 93.0416 114.894C91.2203 114.002 89.845 112.515 88.5068 110.954C87.1687 109.393 85.6447 107.943 84.9756 106.01C84.3065 104.152 84.2322 102.033 84.2322 99.9141C84.2322 97.7954 84.9756 95.8996 85.6447 94.0411C86.3509 92.0711 86.8713 90.0267 88.1351 88.5027C89.3989 86.9787 91.2203 85.7149 93.0045 84.8228C94.7887 83.9307 96.8331 83.3359 98.9146 83.3359C100.996 83.3359 103.003 84.0422 104.788 84.9343C106.572 85.8264 108.356 86.9787 109.694 88.5398C111.032 90.101 111.59 92.0339 112.259 94.0039C112.928 95.8625 113.671 97.7582 113.671 99.8769L113.709 99.9141Z" fill="#343535"/>
<path d="M108.046 96.0072C108.046 96.558 107.844 97.0509 107.671 97.534C107.487 98.0462 107.247 98.4907 106.919 98.8773C106.591 99.2638 106.215 99.6697 105.743 99.892C105.271 100.114 104.76 100.143 104.221 100.143C103.681 100.143 103.161 100.134 102.689 99.9016C102.216 99.6697 101.86 99.2831 101.513 98.8773C101.166 98.4714 100.771 98.0945 100.598 97.592C100.424 97.1089 100.405 96.558 100.405 96.0072C100.405 95.4564 100.598 94.9635 100.771 94.4804C100.954 93.9682 101.089 93.4367 101.417 93.0405C101.744 92.6443 102.216 92.3157 102.679 92.0838C103.141 91.8519 103.671 91.6973 104.211 91.6973C104.751 91.6973 105.271 91.8809 105.734 92.1128C106.196 92.3447 106.659 92.6443 107.006 93.0502C107.353 93.456 107.497 93.9585 107.671 94.4707C107.844 94.9539 108.037 95.4467 108.037 95.9975L108.046 96.0072Z" fill="white"/>
<path d="M59.3825 96.0072C59.3825 96.558 59.1802 97.0509 59.0067 97.534C58.8236 98.0462 58.5827 98.4907 58.2551 98.8773C57.9275 99.2638 57.5516 99.6697 57.0795 99.892C56.6073 100.114 56.0966 100.143 55.5569 100.143C55.0173 100.143 54.4969 100.134 54.0248 99.9016C53.5526 99.6697 53.196 99.2831 52.8491 98.8773C52.5022 98.4714 52.1071 98.0945 51.9337 97.592C51.7602 97.1089 51.741 96.558 51.741 96.0072C51.741 95.4564 51.9337 94.9635 52.1071 94.4804C52.2902 93.9682 52.4251 93.4367 52.7528 93.0405C53.0804 92.6443 53.5526 92.3157 54.0151 92.0838C54.4777 91.8519 55.0077 91.6973 55.5473 91.6973C56.0869 91.6973 56.6073 91.8809 57.0698 92.1128C57.5324 92.3447 57.9949 92.6443 58.3418 93.0502C58.6887 93.456 58.8333 93.9585 59.0067 94.4707C59.1802 94.9539 59.3729 95.4467 59.3729 95.9975L59.3825 96.0072Z" fill="white"/>
<path d="M52.931 149.016C50.1432 150.02 52.5221 150.801 51.7415 154.369C51.3698 156.042 50.106 157.826 49.6599 159.982C49.2882 161.803 49.883 163.959 49.4741 166.004C49.1024 167.862 48.3961 169.758 48.0244 171.765C47.6527 173.772 47.1695 175.631 46.8721 177.601C46.5748 179.571 46.1659 181.504 45.9057 183.474C45.6455 185.444 45.2366 187.451 45.0508 189.384C44.8649 191.428 45.0508 193.473 44.9764 195.368C44.8649 197.487 44.6791 199.494 44.7534 201.316C44.8277 203.583 45.2738 205.479 45.6827 207.114C48.6935 207.858 48.7678 206.668 51.853 206.668C54.9382 206.668 54.9382 207.486 58.0234 207.486C61.1085 207.486 61.1085 207.189 64.1937 207.189C67.2789 207.189 67.2789 206.78 70.3641 206.78C73.4492 206.78 73.4492 206.706 76.5344 206.706C79.6196 206.706 79.6196 207.412 82.7047 207.412C85.7899 207.412 85.7899 207.152 88.8751 207.152C91.9603 207.152 91.9603 206.891 95.0454 206.891C98.1306 206.891 98.1306 207.152 101.216 207.152C104.301 207.152 104.301 206.743 107.423 206.743C110.546 206.743 110.806 208.564 113.705 207.486C116.604 206.408 113.891 204.921 113.631 201.241C113.482 199.532 112.776 197.561 112.59 195.331C112.441 193.473 111.921 191.503 111.735 189.421C111.549 187.488 111.512 185.481 111.289 183.474C111.066 181.467 111.735 179.422 111.512 177.415C111.289 175.408 110.062 173.549 109.802 171.579C109.542 169.609 109.988 167.416 109.654 165.52C109.282 163.476 108.947 161.469 108.538 159.61C108.055 157.454 107.126 155.596 106.568 153.923C105.825 151.47 104.896 149.909 104.004 148.831C101.216 148.385 101.216 148.533 98.3908 148.533C95.5658 148.533 95.5287 147.976 92.7037 147.976C89.8787 147.976 89.8787 148.422 87.0165 148.422C84.1544 148.422 84.1544 148.124 81.3294 148.124C78.5045 148.124 78.4673 149.091 75.6423 149.091C72.8173 149.091 72.8173 149.016 69.9552 149.016C67.093 149.016 67.093 148.347 64.2681 148.347C61.4431 148.347 61.4431 148.087 58.5809 147.939C55.7188 147.79 55.7188 148.087 53.0053 149.054L52.931 149.016Z" fill="#267EE2"/>
<mask id="mask0_1724_10002" style="mask-type:alpha" maskUnits="userSpaceOnUse" x="4" y="50" width="142" height="106">
<path d="M74.5982 51.0382C69.543 50.8523 70.5838 50.1833 64.5249 50.5178C61.5513 50.7037 57.9829 49.8116 54.303 50.2948C51.1063 50.7408 48.1698 53.4171 44.7501 54.2349C41.3304 55.0526 37.6505 54.0119 34.491 55.2013C31.3314 56.3908 29.0269 59.476 26.1647 61.1858C23.3026 62.8957 20.0687 64.2338 17.8385 66.6871C15.6082 69.1404 13.6382 71.891 12.3372 75.1248C11.1849 78.0242 11.1106 81.2952 10.2185 84.2689C9.32636 87.2425 8.69446 90.2905 8.06255 93.3013C7.43065 96.3122 5.08889 99.2487 4.75436 102.297C4.41982 105.345 5.90665 108.727 5.90665 111.738C5.90665 115.009 5.68362 118.057 6.12967 121.031C6.65006 124.265 6.38987 127.61 7.54216 130.361C8.7688 133.371 10.8132 135.973 12.8576 138.204C14.902 140.434 17.1322 143.37 20.1059 144.671C24.715 146.53 23.8973 145.526 29.7703 147.31C32.4837 148.128 35.8291 148.686 39.4347 149.615C42.4083 150.358 45.9767 149.615 49.3964 150.358C52.4816 150.99 55.4553 153.258 58.8378 153.778C62.0345 154.261 65.5285 152.96 68.8739 153.295C72.2193 153.629 75.3044 155.005 78.6498 155.079C81.9952 155.153 85.229 154.968 88.5744 154.782C91.9198 154.596 95.1164 153.853 98.3503 153.369C101.584 152.886 104.855 152.44 108.052 151.548C111.249 150.656 114.743 150.544 117.753 149.206C120.764 147.868 123.403 145.898 125.894 144.411C128.867 142.664 131.061 140.434 133.216 138.575C135.856 136.345 137.194 133.669 138.829 131.327C140.762 128.576 143.401 126.606 144.219 123.744C145.111 120.696 145.371 117.537 145.408 114.414C145.446 111.292 143.959 108.356 143.513 105.233C143.067 102.111 142.695 99.0628 142.137 95.9776C141.58 92.8925 140.688 89.7701 140.316 86.7221C139.944 83.3768 139.498 80.2544 137.677 77.2808C136.004 74.5301 134.555 71.2219 131.878 68.843C129.462 66.6871 126.786 64.3081 123.738 62.4496C120.913 60.7398 117.01 60.8884 113.813 59.476C110.617 58.0635 108.201 55.2385 104.93 54.1977C101.658 53.1569 97.9414 54.049 94.6332 53.3056C91.325 52.5622 88.0912 51.4471 84.7458 51.0382C81.4004 50.6293 77.9064 51.0754 74.5982 51.0382Z" fill="#267EE2"/>
</mask>
<g mask="url(#mask0_1724_10002)">
<path fill-rule="evenodd" clip-rule="evenodd" d="M62.1931 71.7087C68.1206 76.5196 78.4438 73.6208 85.2507 65.2341C92.0576 56.8473 92.7705 46.1486 86.843 41.3377C80.9155 36.5268 70.5923 39.4256 63.7854 47.8123C56.9785 56.1991 56.2656 66.8978 62.1931 71.7087ZM66.1507 66.0433C67.6772 60.5534 72.9988 51.3638 82.0765 46.7119C82.315 46.5897 82.5695 46.8224 82.4611 47.0674C80.0677 52.4723 73.2816 62.4412 66.5554 66.355C66.3368 66.4822 66.083 66.287 66.1507 66.0433Z" fill="#FFEFB1"/>
</g>
</g>
<g clip-path="url(#clip1_1724_10002)">
<path d="M9.3011 172.756C27.5308 166.382 21.9506 169.9 55.6644 169.9C89.3782 169.9 112.248 160.503 144.008 171.793C162.757 178.462 148.312 197.36 146.556 211.738C144.799 226.115 139.209 241.234 124.813 255.339C110.418 269.445 110.245 270.235 105.248 271.125C100.252 272.014 55.2834 273.249 48.506 272.953C41.7287 272.656 24.5131 254.351 18.9972 245.606C12.5414 235.33 8.48485 224.386 6.70393 210.601C4.92301 196.817 -8.92858 179.129 9.3011 172.756Z" fill="#FFEFB1"/>
<path d="M152.441 181.845C136.215 181.845 123.328 194.839 123.328 211.069C123.328 227.299 136.215 240.935 152.441 240.935C168.667 240.935 181.974 227.274 181.974 211.069C181.974 194.863 168.667 181.845 152.441 181.845ZM152.441 231.153C141.409 231.153 132.183 222.086 132.183 211.069C132.183 200.051 141.384 191.627 152.441 191.627C163.497 191.627 172.278 200.051 172.278 211.069C172.278 222.086 163.497 231.153 152.441 231.153Z" fill="#FFEFB1"/>
</g>
<defs>
<clipPath id="clip0_1724_10002">
<rect width="140.766" height="207.822" fill="white" transform="translate(4.68384)"/>
</clipPath>
<clipPath id="clip1_1724_10002">
<rect width="182" height="106.224" fill="white" transform="translate(0 166.775)"/>
</clipPath>
</defs>
</svg>
