<?xml version="1.0" encoding="UTF-8"?>
<svg id="_레이어_2" data-name="레이어 2" xmlns="http://www.w3.org/2000/svg" viewBox="0 0 139.74 148.33">
  <defs>
    <style>
      .cls-1 {
        fill: #f9eab0;
      }

      .cls-1, .cls-2, .cls-3, .cls-4, .cls-5, .cls-6, .cls-7 {
        stroke-width: 0px;
      }

      .cls-2 {
        fill: #343535;
      }

      .cls-3 {
        fill: #1e7cd8;
      }

      .cls-4 {
        fill: #bfa762;
      }

      .cls-5 {
        fill: #fff;
      }

      .cls-6 {
        fill: #ffefb1;
      }

      .cls-7 {
        fill: #f4dc8a;
      }
    </style>
  </defs>
  <g id="_레이어_1-2" data-name="레이어 1">
    <g>
      <path class="cls-1" d="M116.12,92.69s9.3-8.37,13.21-2.01.25,16.33-5.48,20.37-18.62,2.02-18.62,2.02l-2.33,8.36s17.85,3.14,27.59-6.19,11.69-19.13,6.29-29.65-20.1-1.91-20.1-1.91l-.57,9.01Z"/>
      <path class="cls-7" d="M.05,76.3c.62,3.28,2.07,10.59,3.61,15.94.3,1.03,1.23,1.6,2.24,1.94,6.78,2.28,30.77,6.4,57.02,5.86,29.01-.6,44.81-2.99,58.1-6.43,1-.26,1.84-.94,2.12-1.93.87-3.04,2.62-9.84,2.7-15.61.01-.95-.44-1.85-1.25-2.36-4.25-2.73-20.4-10.88-61.81-11-40.45-.12-56.81,7.81-61.52,10.78-.95.6-1.43,1.71-1.22,2.82Z"/>
      <path class="cls-4" d="M6.48,76.24c-.76-.17-.85-1.22-.13-1.52,6.02-2.46,24.53-8.74,56.44-8.7,31.85.04,51.16,6.15,57.53,8.55.74.28.67,1.36-.11,1.53-7.06,1.56-28.76,5.78-57.41,5.78s-49.59-4.13-56.31-5.65Z"/>
      <g>
        <path class="cls-3" d="M63.58,38.03c-4.42-.15-3.65-1.77-8.89-1.4-2.6.19-5.71.52-8.87,1.04-2.8.47-5.74,1.51-8.63,2.37s-5.14,3.09-7.73,4.42-5.87,2.01-7.94,4.03-4.33,4.51-5.44,7.34-1.67,6.12-2.49,9.12-1.73,6.16-2.18,9.18c-.47,3.19.95,6.44.96,9.44,0,3.29-1.56,6.65-.9,9.52.75,3.25,3.24,5.7,4.92,8.12,1.79,2.57,4.16,3.98,7.14,5.27,3.81,1.58,2.69,1.7,7.55,3.2,2.27.7,4.91,1.55,7.91,2.3,2.49.63,4.96,2.39,7.82,2.94,2.6.51,5.61-.68,8.42-.3s5.35.99,8.14,1.16,5.45.12,8.22.05,5.45-.32,8.17-.69,5.46-.62,8.09-1.35,5.17-1.76,7.65-2.94c3.05-1.45,6.28-2.04,8.49-3.67,2.72-2.01,5.2-4.18,6.85-6.41,1.93-2.6,3.22-5.71,4.03-8.52s.35-6.21.38-9.27-1.14-5.97-1.5-9.01.75-6.27.41-9.25-1.24-6.03-2.94-8.52c-1.54-2.26-4.94-3.11-7.35-5.03-2.17-1.72-3.92-4.3-6.6-5.71-2.49-1.31-5.19-2.58-7.98-3.61s-5.64-1.4-8.49-2.1-5.74-.94-8.59-1.34-5.83-.32-8.65-.39Z"/>
        <path class="cls-6" d="M66.67,37.94c-.56.91-1.05,1.79-1.59,2.52-.65.87-1.47,1.47-2.07,2.13-.77.84-1.19,1.82-1.84,2.37-.99.83-1.97,1.19-2.56,1.55-.27.16-.74-.17-.62-.45.43-1.07.84-2.06,1.27-2.95.49-1.03,1.16-1.88,1.68-2.74.57-.95,1.14-1.78,1.79-2.6-1.17-.16-2.12-.3-3.01-.55-1.03-.29-1.91-.92-2.95-1.01-.89-.08-2.03.02-3.22.31-.41.98-.73,2.14-.97,3.16s-.11,2.14-.16,3.17c-.05,1.09-.28,2.17-.11,3.17.18,1.1.43,2.2.88,3.09.5.98,1.3,1.81,2.13,2.42.9.66,1.96,1.15,3.05,1.34,1.04.19,2.14-.19,3.28-.39,1.03-.18,2.21-.11,3.26-.59.96-.43,1.78-1.26,2.71-1.92.87-.62,1.62-1.4,2.42-2.2.76-.76,1.56-1.49,2.22-2.4.77-1.05,1.35-2.24,1.8-3.46.48-1.29,1.06-2.66,1.37-3.82-.95-.37-2.1-.33-3-.43-1.05-.12-2-.18-2.86-.1-1.41.14-2.52.31-2.89.4Z"/>
        <path class="cls-5" d="M59.66,74.73c0,2-.4,4.01-1.02,5.76-.66,1.87-1.57,3.74-2.79,5.17s-3.32,2.03-5.03,2.87-3.4,1.25-5.38,1.25-3.75-.26-5.46-1.1-3.19-1.95-4.46-3.44-1.95-3.12-2.61-4.99c-.62-1.76-1-3.52-1-5.52s-.3-4.01.32-5.76c.66-1.87,1.59-3.72,2.81-5.16s3.14-2.37,4.86-3.21,3.56-1.04,5.54-1.04,4.05-.23,5.75.61,2.8,2.64,4.06,4.13,2.06,3.03,2.72,4.9c.62,1.76,1.69,3.53,1.69,5.53Z"/>
        <path class="cls-5" d="M95.49,74.73c0,2-.26,3.88-.88,5.64-.66,1.87-1.57,3.57-2.79,5s-2.97,2.33-4.68,3.17-3.4,1.25-5.39,1.25-3.67-.45-5.37-1.28-3.17-1.87-4.44-3.36-2.41-2.91-3.06-4.77c-.62-1.76-1.04-3.65-1.04-5.65s-.05-4.06.57-5.81c.66-1.87,2.09-3.37,3.31-4.8s2.88-2.48,4.59-3.31,3.46-1.85,5.44-1.85,4.07.34,5.78,1.18,3.15,2.37,4.42,3.86,1.94,3.26,2.6,5.13c.62,1.76.94,3.62.94,5.62Z"/>
        <path class="cls-2" d="M56.21,74.73c0,2.1-.36,4.11-1.2,5.84-.91,1.85-2.19,3.56-3.81,4.66s-3.7,1.84-5.77,1.84-3.9-1.05-5.54-2.17-2.92-2.57-3.83-4.43c-.85-1.72-1.57-3.64-1.57-5.74s.5-4.13,1.34-5.85c.91-1.85,2.41-3.28,4.02-4.38s3.53-1.67,5.59-1.67,3.8.77,5.44,1.89,3.05,2.41,3.97,4.26c.85,1.72,1.37,3.65,1.37,5.75Z"/>
        <path class="cls-5" d="M52.59,71.56c0,.65-.14,1.28-.44,1.81s-.76,1.04-1.3,1.36-1.17.5-1.83.5-1.24-.3-1.77-.6-.99-.74-1.3-1.29-.55-1.12-.55-1.77.18-1.28.49-1.81.81-.96,1.36-1.27,1.13-.45,1.78-.45,1.21.21,1.74.52,1.02.69,1.34,1.24.49,1.13.49,1.78Z"/>
        <path class="cls-2" d="M92.65,74.73c0,2.13-.34,4.17-1.19,5.91-.92,1.87-2.23,3.6-3.86,4.71s-3.74,1.79-5.84,1.79-4.12-.73-5.78-1.86-2.59-2.96-3.51-4.83c-.86-1.74-1.78-3.59-1.78-5.71s.78-4.04,1.63-5.78c.92-1.87,2.19-3.4,3.82-4.51s3.52-1.72,5.62-1.72,4.11.35,5.77,1.49,3.12,2.68,4.05,4.55c.86,1.74,1.07,3.84,1.07,5.97Z"/>
        <path class="cls-5" d="M88.99,71.56c0,.65-.2,1.28-.5,1.81s-.79,1-1.33,1.32-1.15.51-1.81.51-1.26-.25-1.78-.55-1.03-.74-1.35-1.28-.52-1.15-.52-1.81.19-1.29.5-1.82.8-1.01,1.34-1.32,1.16-.34,1.81-.34,1.28.04,1.81.35.93.83,1.25,1.37.58,1.11.58,1.76Z"/>
        <path class="cls-3" d="M47.56,40.26c1.91-2.66-.44-2.3-1.8-6-.66-1.79-1.7-3.78-2.58-6.01-.76-1.94-1.44-4.04-2.31-6.11s-1.84-3.97-2.74-5.93-1.38-4.31-2.35-6.14c-1.12-2.13-2.87-3.68-3.96-5.25-1.73-2.49-3.17-3.95-4.59-4.08-1.29-.12-1.86,1.6-2.87,4.7-.55,1.69-1.98,3.5-2.45,5.82-.38,1.9.09,4.12-.24,6.32-.3,1.99-1.54,3.94-1.8,6.08s.35,4.23.13,6.32-1.11,4.11-1.29,6.17.11,4.27-.05,6.29c-.17,2.2-.27,4.3-.4,6.25-.16,2.34-.82,4.42-.92,6.22-.22,3.85-3.04,6.72.02,6.07s2.73-1.31,5.26-3.03c2.54-1.73,2.68-1.52,5.21-3.24s2.08-2.4,4.61-4.13,2.6-1.64,5.13-3.36,2.45-1.9,5.11-3.42c2.65-1.51,3.08-1.03,4.87-3.52Z"/>
        <path class="cls-3" d="M79.4,43.22c-2.07-2.79.6-2.67,2.02-6.61.69-1.91,1.77-4.03,2.68-6.41.79-2.06,2.11-4.06,3.01-6.27s1.41-4.44,2.34-6.54,2.22-4.18,3.22-6.14c1.16-2.28,1.58-4.78,2.7-6.47,1.81-2.73,3.88-4.64,5.32-4.77,1.29-.12,2.3,2.26,3.3,5.45.55,1.73.69,3.88,1.16,6.26.38,1.94,1.12,3.98,1.45,6.22.3,2.03.26,4.19.53,6.37s1.52,4.11,1.74,6.24-.57,4.36-.39,6.46.63,4.29.78,6.35c.17,2.24.64,4.37.77,6.36.16,2.38.57,4.53.67,6.37.22,3.93,3.09,6.54-.08,6.07-3.02-.45-2.89-.88-5.49-2.49s-2.19-2.27-4.8-3.87-2.65-1.52-5.25-3.13c-2.6-1.6-2.9-1.11-5.51-2.72s-2.2-2.32-4.97-3.62-3.39-.68-5.21-3.13Z"/>
      </g>
      <path class="cls-1" d="M4.16,86.15s3.36,29.38,15.4,45.54,43.49,17.29,53.94,16.42,29.52-6.69,35.8-16.25c6.79-10.34,13.03-38.01,13.35-47.87l-118.49,2.16Z"/>
      <path class="cls-7" d="M.05,76.3s.59-1.15,2.1-.99,29.23,7.09,63.33,6.57,55.72-6.72,58.69-6.59-.43,14.2-.43,14.2c0,0-.05,4.36-5.57,4.83-5.52.47-20.85,5.51-52.93,5.66-32.08.16-51.63-3.64-57.66-5.3,0,0-3.42-.62-3.92-2.45S.05,76.3.05,76.3Z"/>
    </g>
  </g>
</svg>