<?xml version="1.0" encoding="UTF-8"?>
<svg id="_레이어_2" data-name="레이어 2" xmlns="http://www.w3.org/2000/svg" viewBox="0 0 138.38 201.59">
  <defs>
    <style>
      .cls-1 {
        fill: #6197e5;
      }

      .cls-1, .cls-2, .cls-3, .cls-4, .cls-5 {
        stroke-width: 0px;
      }

      .cls-2 {
        fill: #343535;
      }

      .cls-3 {
        fill: #cbddea;
      }

      .cls-4 {
        fill: #fff;
      }

      .cls-5 {
        fill: #ffefb1;
      }
    </style>
  </defs>
  <g id="_레이어_1-2" data-name="레이어 1">
    <g>
      <path class="cls-1" d="M42.88,132.58c-3.78,1.28-1.04,2.57-2.61,7.11-.76,2.21-2.44,4.53-3.3,7.33-.75,2.43-.55,5.29-1.26,7.95s-1.67,5.08-2.21,7.67-1.17,5.33-1.46,7.86c-.32,2.89-.56,5.63-.36,8.01.26,3.18.99,6.04,2.53,7.68s3.86,2.77,6.38,3.98c2.07,1,4.4,2,6.96,2.71,2.29.64,4.81.87,7.36,1.25,2.4.36,4.91.17,7.43.28,2.47.11,4.97.91,7.44.76s4.97-.74,7.38-1.17,4.8-1.45,7.08-2.23c2.44-.84,4.6-1.9,6.64-3.14,2.2-1.34,4.54-2.39,6.09-4.23s2.16-4.4,2.58-7.38c.33-2.36.1-4.99-.09-7.8-.16-2.5-.27-5.13-.74-7.79s-1.43-5.03-2.08-7.55-.72-5.34-1.52-7.72c-.9-2.68-1.72-5.25-2.67-7.41-1.35-3.08-3.1-5.19-4.21-6.54-3.75-.58-3.78.31-7.57.31-3.8,0-3.8-.15-7.59-.15s-3.8-.91-7.59-.91-3.8.93-7.59.93-3.77-.57-7.56-.81-3.86-.21-7.46,1Z"/>
      <g>
        <path class="cls-4" d="M49.33,188.33s11.62,4.37,16.96,2.67c0,0,1.69,10.19-10.18,9.45,0,0-10.81,1.7-6.79-12.11Z"/>
        <path class="cls-4" d="M66.29,190.99s-1.63,12.53,9.97,9.86c0,0,8.03-1.29,5.8-6.95,0,0-1.05-4.62-1.22-5.58,0,0-3.55,3.53-14.55,2.67Z"/>
        <path class="cls-3" d="M56.22,200.95c-3.18,0-5.49-.8-6.89-2.41-1.65-1.89-1.95-4.82-.9-8.7,2.1-7.77.68-11.57.66-11.61-.1-.26.03-.56.29-.66.26-.11.56.02.66.28.06.16,1.58,4.11-.63,12.25-.95,3.53-.72,6.14.69,7.76,1.57,1.8,4.6,2.42,9.01,1.86,7.08-.91,6.98-5.67,6.85-11.71-.02-.77-.03-1.56-.03-2.35,0-.28.23-.51.51-.51s.51.23.51.51c0,.78.02,1.56.03,2.33.13,6.03.24,11.72-7.75,12.74-1.08.14-2.09.21-3.02.21Z"/>
        <path class="cls-3" d="M73.82,201.59c-2,0-3.9-.43-5.14-1.32-4.13-2.97-2.74-12.63-2.68-13.04.04-.28.31-.47.58-.43.28.04.47.3.43.58-.01.09-1.37,9.45,2.26,12.06,2.48,1.79,8.43,1.36,11.16-.81,1.51-1.2,1.9-2.72,1.16-4.53-2.66-6.43-.56-15.03-.47-15.39.07-.27.34-.44.62-.37.27.07.44.35.37.62-.02.09-2.11,8.64.42,14.76.92,2.22.4,4.25-1.47,5.73-1.78,1.41-4.61,2.16-7.25,2.16Z"/>
        <path class="cls-3" d="M73.2,201.58c-.07,0-.14-.01-.21-.05-.26-.12-.37-.42-.25-.68.5-1.09-.34-2.92-.7-3.53-.14-.24-.07-.56.18-.7.24-.14.56-.07.7.18.06.11,1.59,2.68.75,4.49-.09.19-.27.3-.46.3Z"/>
        <path class="cls-3" d="M79.03,200.56s-.1,0-.14-.02c-.27-.08-.43-.36-.35-.63.38-1.31-.89-3.17-1.42-3.78-.18-.21-.16-.54.05-.72.21-.19.54-.16.72.05.09.11,2.25,2.62,1.63,4.74-.06.22-.27.37-.49.37Z"/>
        <path class="cls-3" d="M51.46,199.67c-.23,0-.45-.16-.5-.4-.71-3.14,1.28-4.66,1.37-4.73.23-.17.55-.12.72.1.17.23.12.55-.1.71-.07.06-1.54,1.22-.99,3.68.06.28-.11.55-.39.61-.04,0-.08.01-.11.01Z"/>
        <path class="cls-3" d="M56.87,200.98c-.21,0-.41-.14-.49-.35-.78-2.35.51-5.31.57-5.44.11-.26.42-.37.67-.26.26.11.37.42.26.67-.01.03-1.19,2.73-.53,4.7.09.27-.06.56-.32.65-.05.02-.11.03-.16.03Z"/>
      </g>
      <path class="cls-1" d="M93,168.83c1.51-4.03,3.99-.52,8.14-3.43,2.03-1.43,4.33-3.35,6.29-5.94,1.56-2.07,3.07-4.62,4.18-7.6.9-2.44,1.39-5.32,1.77-8.47.33-2.68.75-5.11,1.43-7.29.82-2.61,1.4-5.13,2.58-7.06,1.44-2.35,3.69-3.77,5.41-5.18,2.19-1.79,4.27-3.36,6.38-3.8,2.92-.61,5.79.1,7.24,1.69,2.32,2.54,2.42,5.22,1.17,7.07s-4.17,2.68-6.19,3.97c-1.81,1.16-3.18,3.37-4.61,5.63-1.22,1.93-1.94,4.29-2.88,6.59s-2.27,4.39-2.93,6.62c-.77,2.59-1.34,5.05-1.75,7.03-.38,1.85-1.23,4.19-2.58,6.62-1.09,1.97-2.6,3.85-4.27,5.69-1.59,1.75-3.43,3.17-5.49,4.41s-4.04,2.48-6.48,2.83c-2.21.32-4.64.2-7.16-.46-2.82-3.52-1.78-4.8-.25-8.9Z"/>
      <path class="cls-1" d="M62.15,45.22c-5.25-.18-4.34-2.1-10.57-1.66-3.1.22-6.78.61-10.55,1.24-3.33.56-6.83,1.79-10.26,2.82s-6.12,3.67-9.2,5.26c-3.18,1.64-6.98,2.4-9.44,4.8s-5.15,5.36-6.47,8.72-1.99,7.28-2.96,10.85-2.05,7.32-2.59,10.92c-.56,3.79,1.13,7.65,1.14,11.22.01,3.91-1.85,7.91-1.07,11.31.89,3.86,3.85,6.77,5.85,9.65,2.13,3.06,4.95,4.73,8.49,6.26,4.53,1.88,3.2,2.02,8.98,3.8,2.7.83,5.84,1.84,9.41,2.74,2.96.75,5.89,2.84,9.3,3.5,3.09.6,6.67-.81,10.01-.36s6.36,1.18,9.68,1.38,6.48.15,9.77.06,6.48-.38,9.71-.82,6.49-.73,9.62-1.61c3.17-.88,6.15-2.1,9.1-3.5,3.63-1.73,7.47-2.43,10.1-4.37,3.24-2.39,6.18-4.97,8.15-7.62,2.3-3.1,3.83-6.79,4.79-10.13,1-3.49.42-7.38.46-11.02.04-3.59-1.36-7.1-1.78-10.71-.42-3.63.89-7.46.49-10.99-.39-3.4-1.48-7.17-3.49-10.13-1.83-2.69-5.87-3.7-8.74-5.98-2.57-2.04-4.66-5.11-7.85-6.79-2.96-1.56-6.17-3.07-9.49-4.29s-6.71-1.66-10.09-2.49-6.82-1.12-10.21-1.59-6.93-.39-10.29-.46Z"/>
      <path class="cls-5" d="M65.83,45.11c-.67,1.08-1.24,2.12-1.89,3-.77,1.04-1.75,1.75-2.46,2.53-.91.99-1.41,2.16-2.19,2.82-1.17.99-2.34,1.42-3.04,1.85-.32.19-.88-.2-.74-.54.51-1.27,1-2.45,1.51-3.51.59-1.22,1.38-2.24,2-3.26.68-1.12,1.36-2.12,2.13-3.09-1.39-.19-2.52-.36-3.58-.65-1.23-.34-2.27-1.09-3.51-1.2-1.06-.1-2.41.02-3.83.36-.49,1.16-.87,2.54-1.15,3.75s-.13,2.55-.19,3.77c-.06,1.3-.33,2.58-.13,3.77.22,1.31.51,2.62,1.05,3.68.59,1.17,1.54,2.15,2.53,2.87,1.07.78,2.32,1.36,3.63,1.6,1.23.22,2.54-.23,3.89-.46,1.23-.21,2.63-.13,3.88-.7,1.14-.52,2.11-1.5,3.22-2.29,1.03-.73,1.92-1.67,2.87-2.62.9-.9,1.85-1.78,2.65-2.86.92-1.25,1.6-2.66,2.14-4.11.57-1.54,1.26-3.16,1.63-4.54-1.13-.44-2.5-.39-3.57-.52-1.24-.14-2.38-.21-3.4-.11-1.68.16-2.99.37-3.43.48Z"/>
      <path class="cls-4" d="M40.93,105.23c8.88,0,16.13-7.81,16.5-17.61.02-.44-.34-.81-.78-.81h-31.46c-.44,0-.79.37-.78.81.38,9.8,7.62,17.61,16.5,17.61Z"/>
      <path class="cls-2" d="M40.93,101.17c7.11,0,12.87-6.42,12.87-14.35h-25.74c0,7.93,5.76,14.35,12.87,14.35Z"/>
      <path class="cls-4" d="M45.19,91.08c2.36,0,4.26-1.91,4.26-4.26h-8.53c0,2.36,1.91,4.26,4.26,4.26Z"/>
      <path class="cls-4" d="M83.76,105.23c8.87,0,16.1-7.79,16.5-17.56.02-.47-.36-.86-.82-.86h-31.35c-.47,0-.84.39-.82.86.4,9.77,7.64,17.56,16.5,17.56Z"/>
      <path class="cls-2" d="M83.76,101.17c7.11,0,12.87-6.42,12.87-14.35h-25.74c0,7.93,5.76,14.35,12.87,14.35Z"/>
      <path class="cls-4" d="M88.03,91.08c2.36,0,4.26-1.91,4.26-4.26h-8.53c0,2.36,1.91,4.26,4.26,4.26Z"/>
      <path class="cls-4" d="M79.39,79.55h-10.62c-.41,0-.75-.34-.75-.75s.34-.75.75-.75h10.62c.41,0,.75.34.75.75s-.34.75-.75.75Z"/>
      <path class="cls-4" d="M56.59,79.55h-10.62c-.42,0-.75-.34-.75-.75s.34-.75.75-.75h10.62c.42,0,.75.34.75.75s-.34.75-.75.75Z"/>
      <path class="cls-1" d="M43.1,47.87c2.27-3.16-.52-2.74-2.14-7.14-.78-2.13-2.03-4.49-3.07-7.15-.9-2.3-1.72-4.8-2.75-7.27s-2.19-4.72-3.26-7.06-1.64-5.12-2.79-7.3c-1.34-2.53-3.41-4.38-4.71-6.24-2.06-2.96-3.77-4.69-5.45-4.85-1.53-.14-2.21,1.9-3.41,5.59-.65,2.01-2.36,4.16-2.91,6.92-.46,2.26.11,4.9-.29,7.51-.36,2.37-1.83,4.69-2.14,7.23s.42,5.03.16,7.52-1.32,4.89-1.53,7.34.13,5.08-.06,7.47c-.2,2.61-.32,5.12-.48,7.43-.18,2.78-.97,5.26-1.1,7.4-.26,4.58-3.62,7.99.03,7.22s3.24-1.55,6.26-3.61c3.02-2.05,3.18-1.8,6.2-3.86s2.47-2.86,5.48-4.91,3.09-1.95,6.1-4,2.91-2.25,6.08-4.06,3.66-1.22,5.79-4.19Z"/>
      <path class="cls-1" d="M80.96,51.39c-2.46-3.31.71-3.17,2.41-7.85.82-2.27,2.1-4.79,3.19-7.62.94-2.45,2.5-4.82,3.58-7.45s1.67-5.28,2.79-7.78,2.64-4.97,3.83-7.31c1.38-2.71,1.88-5.69,3.21-7.69C102.11,2.43,104.57.16,106.28,0c1.54-.14,2.73,2.69,3.93,6.48.65,2.05.82,4.62,1.38,7.44.46,2.31,1.33,4.74,1.73,7.4.36,2.42.31,4.99.63,7.58.3,2.48,1.81,4.88,2.07,7.42.26,2.53-.68,5.18-.46,7.68s.75,5.1.93,7.55c.2,2.67.76,5.19.92,7.56.18,2.84.67,5.39.79,7.57.26,4.68,3.67,7.78-.09,7.22s-3.44-1.05-6.53-2.96-2.61-2.69-5.7-4.6c-3.09-1.91-3.15-1.81-6.25-3.72s-3.45-1.32-6.55-3.23-2.61-2.76-5.91-4.3-4.03-.8-6.2-3.72Z"/>
    </g>
  </g>
</svg>