<?xml version="1.0" encoding="UTF-8"?>
<svg id="_레이어_2" data-name="레이어 2" xmlns="http://www.w3.org/2000/svg" xmlns:xlink="http://www.w3.org/1999/xlink" viewBox="0 0 139.74 116.66">
  <defs>
    <style>
      .cls-1 {
        clip-path: url(#clippath);
      }

      .cls-2 {
        fill: none;
      }

      .cls-2, .cls-3, .cls-4, .cls-5, .cls-6, .cls-7, .cls-8, .cls-9, .cls-10 {
        stroke-width: 0px;
      }

      .cls-3 {
        fill: #4a8ad8;
      }

      .cls-4 {
        fill: #5264bf;
      }

      .cls-5 {
        fill: #297ecc;
      }

      .cls-6 {
        fill: #6376d3;
      }

      .cls-7 {
        fill: #6ca8ef;
      }

      .cls-8 {
        fill: #3b509b;
      }

      .cls-9 {
        fill: #fff;
      }

      .cls-10 {
        fill: #ffefb1;
      }
    </style>
    <clipPath id="clippath">
      <path class="cls-2" d="M67.92,35.27s7.06,35.53-5.47,48.04c-20.47,20.43-47.22,9.62-47.22,9.62,0,0-5.27-48.42,20.81-55.87,26.09-7.45,31.88-1.79,31.88-1.79Z"/>
    </clipPath>
  </defs>
  <g id="_레이어_1-2" data-name="레이어 1">
    <g>
      <path class="cls-6" d="M116.12,61.02s9.3-8.37,13.21-2.01.25,16.33-5.48,20.37-18.62,2.02-18.62,2.02l-2.33,8.36s17.85,3.14,27.59-6.19c9.74-9.34,11.69-19.13,6.29-29.65-5.21-10.17-20.1-1.91-20.1-1.91l-.57,9.01Z"/>
      <path class="cls-4" d="M.05,44.63c.62,3.28,2.07,10.59,3.61,15.94.3,1.03,1.23,1.6,2.24,1.94,6.78,2.28,30.77,6.4,57.02,5.86,29.01-.6,44.81-2.99,58.1-6.43,1-.26,1.84-.94,2.12-1.93.87-3.04,2.62-9.84,2.7-15.61.01-.95-.44-1.85-1.25-2.36-4.25-2.73-20.4-10.88-61.81-11-40.45-.12-56.81,7.81-61.52,10.78-.95.6-1.43,1.71-1.22,2.82Z"/>
      <path class="cls-8" d="M6.48,44.57c-.76-.17-.85-1.22-.13-1.52,6.02-2.46,24.53-8.74,56.44-8.7,31.85.04,51.16,6.15,57.53,8.55.74.28.67,1.36-.11,1.53-7.06,1.56-28.76,5.78-57.41,5.78s-49.59-4.13-56.31-5.65Z"/>
      <g>
        <path class="cls-5" d="M79.74,40.25c-1.92-2.62.58-2.49,1.93-6.16.66-1.78,1.68-3.76,2.54-5.98.75-1.92,1.99-3.78,2.85-5.84s1.34-4.14,2.23-6.1,2.1-3.89,3.05-5.72c1.1-2.12,1.5-4.46,2.56-6.03C96.62,1.89,98.56.12,99.91,0c1.21-.1,2.13,2.13,3.05,5.11.5,1.62.62,3.63,1.04,5.86.35,1.82,1.02,3.73,1.32,5.82.27,1.9.22,3.92.45,5.96s1.4,3.85,1.59,5.84-.56,4.07-.4,6.04c.16,2.04.56,4.02.69,5.94.14,2.1.57,4.09.68,5.95.13,2.23.5,4.24.58,5.96.18,3.68,2.84,6.13-.11,5.68s-2.69-.84-5.11-2.36-2.04-2.13-4.46-3.65-2.47-1.44-4.89-2.96c-2.42-1.52-2.71-1.06-5.13-2.58-2.42-1.52-2.04-2.18-4.62-3.41s-3.16-.65-4.85-2.96Z"/>
        <path class="cls-7" d="M50.01,37.28c1.8-2.47-.4-2.15-1.65-5.62-.61-1.68-1.57-3.54-2.37-5.64-.69-1.81-1.32-3.78-2.12-5.73s-1.7-3.72-2.53-5.56-1.26-4.03-2.15-5.75c-1.04-2-2.66-3.46-3.67-4.93-1.6-2.33-2.94-3.71-4.26-3.84-1.2-.12-1.75,1.48-2.71,4.38-.52,1.57-1.87,3.25-2.33,5.42-.37,1.77.06,3.85-.27,5.9-.3,1.86-1.46,3.68-1.72,5.67s.3,3.95.09,5.91-1.06,3.84-1.24,5.76.07,3.99-.09,5.87c-.17,2.05-.28,4.02-.41,5.84-.16,2.18-.79,4.13-.9,5.81-.23,3.6-2.88,6.26-.02,5.67s2.56-1.2,4.94-2.8,2.51-1.4,4.89-3,1.95-2.23,4.33-3.83c2.38-1.6,2.44-1.51,4.82-3.11s2.3-1.76,4.8-3.16,2.88-.94,4.57-3.26Z"/>
        <path class="cls-7" d="M64.98,35.46c-4.13-.17-3.31-.53-8.2-.21-2.43.16-5.19.58-8.15,1.05-2.62.42-5.48.37-8.18,1.15s-5.08,2.17-7.51,3.4-4.79,2.71-6.73,4.58c-1.97,1.9-4.6,3.61-5.65,6.24s-.71,5.95-1.49,8.75-1.95,5.58-2.39,8.4c-.46,2.98.24,5.92.23,8.72-.01,3.08-.97,6.07-.37,8.76.68,3.04,2.31,5.54,3.87,7.81,1.66,2.41,3.27,5.32,6.04,6.55,3.55,1.5,2.89.96,7.42,2.39,2.11.67,4.95.28,7.75,1.01,2.32.6,4.82,1.2,7.49,1.74,2.43.49,5.02.45,7.64.81s4.94,1.6,7.54,1.78,5.14.46,7.72.41c2.57-.05,5.17-.27,7.72-.6s4.94-1.52,7.41-2.19,5.24-.67,7.56-1.76c2.86-1.34,5.24-3.01,7.31-4.52,2.56-1.86,4.32-4.1,5.87-6.18,1.82-2.42,2.69-5.02,3.46-7.64s2.21-5.42,2.26-8.28-1.62-5.6-1.93-8.44c-.31-2.86-.29-5.75-.58-8.53-.29-2.68-.19-5.7-1.76-8.03-1.42-2.12-4.2-3.39-6.44-5.19-2.01-1.62-3.68-4.15-6.18-5.48-2.32-1.24-5.54-.76-8.14-1.73s-4.66-3.15-7.31-3.82c-2.64-.67-5.36-1.32-8.03-1.71s-5.6.84-8.24.76Z"/>
        <g class="cls-1">
          <path class="cls-3" d="M64.99,35.3c-4.13-.17-3.4-1.68-8.3-1.36-2.43.16-5.33.45-8.3.92-2.62.42-5.37,1.37-8.08,2.16-2.65.77-4.83,2.85-7.25,4.08s-5.5,1.85-7.44,3.72-4.08,4.18-5.13,6.82-1.6,5.71-2.38,8.51-1.65,5.74-2.09,8.57c-.46,2.98.85,6.02.83,8.82-.01,3.08-1.5,6.2-.9,8.89.68,3.04,2.99,5.34,4.55,7.61,1.66,2.41,3.87,3.74,6.64,4.97,3.55,1.5,2.5,1.6,7.04,3.04,2.11.67,4.58,1.48,7.38,2.2,2.32.6,4.62,2.26,7.29,2.8,2.43.49,5.24-.6,7.87-.23,2.5.35,4.99.96,7.6,1.14s5.09.15,7.68.1c2.57-.05,5.09-.27,7.64-.6,2.57-.33,5.1-.54,7.57-1.21s4.85-1.61,7.17-2.7c2.86-1.34,5.88-1.87,7.96-3.38,2.56-1.86,4.89-3.87,6.44-5.94,1.82-2.42,3.05-5.31,3.82-7.94s.37-5.8.42-8.66c.05-2.82-1.03-5.59-1.34-8.43-.31-2.86.74-5.86.44-8.64s-1.12-5.65-2.69-7.98c-1.42-2.12-4.59-2.94-6.84-4.75-2.01-1.62-3.63-4.04-6.13-5.38-2.32-1.24-4.83-2.45-7.43-3.42s-5.27-1.34-7.92-2.01c-2.64-.67-5.36-.92-8.02-1.3s-5.44-.34-8.08-.42Z"/>
        </g>
        <path class="cls-10" d="M67.88,35.06c-.53.84-.99,1.66-1.5,2.35-.61.81-1.38,1.36-1.95,1.98-.72.78-1.12,1.69-1.73,2.2-.93.77-1.84,1.1-2.4,1.44-.25.15-.69-.16-.58-.43.41-.99.8-1.92,1.2-2.75.47-.96,1.09-1.75,1.59-2.55.54-.88,1.08-1.66,1.69-2.42-1.09-.16-1.98-.3-2.81-.53-.96-.28-1.78-.87-2.75-.96-.84-.08-1.9,0-3.01.26-.39.91-.7,1.99-.93,2.94s-.11,2-.17,2.96c-.06,1.02-.27,2.03-.12,2.97.16,1.03.38,2.06.8,2.9.46.92,1.2,1.7,1.98,2.27.83.62,1.82,1.08,2.84,1.27.97.18,2-.17,3.06-.34.96-.16,2.07-.09,3.05-.53.9-.4,1.67-1.17,2.54-1.78.81-.57,1.52-1.3,2.27-2.04.71-.7,1.46-1.39,2.09-2.23.73-.98,1.27-2.08,1.7-3.22.45-1.2,1.01-2.48,1.3-3.56-.88-.35-1.96-.32-2.8-.43-.98-.12-1.87-.18-2.67-.11-1.32.12-2.35.27-2.7.36Z"/>
        <path class="cls-9" d="M74.61,75.19c-.27,0-.54-.12-.72-.35-.32-.4-.25-.99.15-1.3.36-.29,9.02-6.98,21.59-5.61.51.06.88.51.82,1.02-.06.51-.51.88-1.02.82-11.79-1.28-20.16,5.16-20.24,5.23-.17.13-.38.2-.58.2Z"/>
        <path class="cls-9" d="M58.03,75c-.2,0-.41-.07-.58-.21h0c-.08-.07-8.36-6.62-20.17-5.5-.51.05-.96-.33-1.01-.84-.05-.51.33-.96.84-1.01,12.59-1.2,21.15,5.61,21.51,5.91.4.32.46.91.14,1.31-.18.23-.46.35-.73.34Z"/>
        <path class="cls-9" d="M73.75,71.66c-.1,0-.2-.04-.28-.11-.17-.15-.19-.42-.04-.59.13-.15,3.26-3.6,10.22-4.78.23-.04.45.12.49.35.04.23-.12.45-.35.49-3.47.59-5.93,1.78-7.39,2.68-1.57.97-2.34,1.82-2.34,1.83-.08.09-.2.14-.32.14Z"/>
        <path class="cls-9" d="M59.13,71.39c-.12,0-.23-.05-.32-.15-.04-.05-3.05-3.43-9.67-4.64-.23-.04-.38-.26-.34-.49.04-.23.26-.38.49-.34,6.94,1.27,10.03,4.77,10.16,4.92.15.18.13.44-.04.59-.08.07-.18.1-.28.1Z"/>
      </g>
      <path class="cls-6" d="M4.16,54.49s3.36,29.38,15.4,45.54c12.04,16.16,43.49,17.29,53.94,16.42,10.46-.88,29.52-6.69,35.8-16.25,6.79-10.34,13.03-38.01,13.35-47.87l-118.49,2.16Z"/>
      <path class="cls-4" d="M.05,44.63s.59-1.15,2.1-.99,29.23,7.09,63.33,6.57c34.1-.52,55.72-6.72,58.69-6.59,2.97.13-.43,14.2-.43,14.2,0,0-.05,4.36-5.57,4.83-5.52.47-20.85,5.51-52.93,5.66-32.08.16-51.63-3.64-57.66-5.3,0,0-3.42-.62-3.92-2.45S.05,44.63.05,44.63Z"/>
    </g>
  </g>
</svg>