<svg width="210" height="188" viewBox="0 0 210 188" fill="none" xmlns="http://www.w3.org/2000/svg">
<path d="M96.1406 129.973L96.1427 129.971C100.479 125.419 102.774 119.406 102.52 113.251C102.292 107.102 104.146 101.034 107.804 95.9605C111.463 90.8864 116.728 87.0809 122.81 85.1172C128.892 83.1535 135.46 83.1382 141.526 85.0725C147.592 87.0066 152.828 90.7852 156.448 95.8387C158.244 98.3588 160.54 100.51 163.205 102.17C165.825 103.802 168.75 104.927 171.819 105.484L171.823 105.494L171.986 105.52C178.827 106.611 184.945 110.21 189.059 115.559C193.173 120.907 194.965 127.592 194.06 134.212C193.155 140.833 189.622 146.878 184.198 151.077C178.774 155.276 171.883 157.302 164.97 156.729L164.965 156.729C153.446 155.988 142.064 159.663 133.304 166.952L133.302 166.953C130.609 169.238 127.466 170.977 124.063 172.065L124.062 172.065C118.386 173.893 112.25 173.851 106.625 171.947C101.001 170.044 96.2102 166.388 93.0085 161.56C89.8068 156.732 88.376 151.005 88.9426 145.285C89.5092 139.565 92.0412 134.177 96.1406 129.973ZM197.143 69.0731C198.301 72.445 198.393 76.0781 197.404 79.5135C196.415 82.949 194.391 86.0329 191.586 88.3742C188.78 90.7156 185.321 92.2084 181.644 92.6635C177.968 93.1186 174.242 92.5153 170.936 90.9315C167.631 89.3477 164.895 86.8547 163.074 83.7686C161.253 80.6826 160.427 77.1409 160.7 73.5909C160.974 70.0408 162.336 66.6408 164.615 63.8214C166.895 61.0019 169.989 58.8902 173.506 57.7544C178.224 56.2312 183.365 56.5703 187.797 58.6942C192.229 60.8179 195.59 64.5518 197.143 69.0731ZM82.7031 95.499C85.6189 97.6737 87.7928 100.634 88.9512 104.006C90.5044 108.528 90.1239 113.47 87.8903 117.745C85.6565 122.022 81.7521 125.281 77.0347 126.804C73.5169 127.94 69.7348 128.049 66.1669 127.117C62.5991 126.186 59.4064 124.256 56.9916 121.574C54.5769 118.892 53.0476 115.578 52.5967 112.049C52.1457 108.521 52.7932 104.935 54.459 101.746C56.1247 98.5576 58.734 95.9087 61.9576 94.1359C65.1813 92.3631 68.8734 91.5467 72.5667 91.7897C76.2598 92.0328 79.7871 93.3242 82.7031 95.499ZM106.642 81.0782C104.363 83.8977 101.269 86.0094 97.7513 87.1452C93.0339 88.6684 87.8933 88.3293 83.4609 86.2054C79.0288 84.0817 75.6679 80.3478 74.1147 75.8265C72.9564 72.4546 72.8652 68.8215 73.8538 65.3861C74.8424 61.9506 76.8667 58.8667 79.672 56.5254C82.4774 54.184 85.9372 52.6912 89.6136 52.2361C93.2899 51.781 97.0163 52.3843 100.322 53.9681C103.627 55.5518 106.363 58.0449 108.184 61.131C110.005 64.217 110.831 67.7587 110.557 71.3087C110.284 74.8588 108.922 78.2588 106.642 81.0782ZM153.01 66.1069C150.731 68.9264 147.637 71.0381 144.119 72.1739C139.402 73.697 134.261 73.358 129.829 71.2341C125.397 69.1104 122.036 65.3764 120.483 60.8551C119.324 57.4833 119.233 53.8501 120.222 50.4148C121.21 46.9792 123.235 43.8953 126.04 41.554C128.845 39.2127 132.305 37.7199 135.982 37.2648C139.658 36.8097 143.384 37.4129 146.69 38.9967C149.995 40.5805 152.73 43.0735 154.552 46.1596C156.373 49.2456 157.199 52.7873 156.925 56.3373C156.651 59.8875 155.29 63.2875 153.01 66.1069Z" fill="#CDDFF3" fill-opacity="0.58" stroke="white" stroke-width="0.536896"/>
</svg>
