<svg width="104" height="98" viewBox="0 0 104 98" fill="none" xmlns="http://www.w3.org/2000/svg">
<path d="M96.4428 55.4185C93.5696 51.683 89.3463 49.1388 84.6182 48.2711L84.6173 48.2684L84.1704 48.1902C82.1514 47.837 80.2289 47.1042 78.5124 46.0352C76.796 44.9661 75.3191 43.5818 74.1651 41.9622L74.1639 41.9605C71.5659 38.3344 67.8127 35.6284 63.4727 34.2445C59.1331 32.8608 54.4395 32.8729 50.096 34.2753C45.7525 35.6778 41.9887 38.3964 39.3715 42.0263C36.7539 45.6566 35.4238 50.004 35.5872 54.4162L35.5873 54.4194C35.7507 58.3731 34.2775 62.2452 31.4798 65.1835C28.5377 68.2016 26.7152 72.0756 26.3071 76.1958C25.8988 80.318 26.9301 84.4474 29.2388 87.929C31.5474 91.4103 34.998 94.0406 39.0404 95.4087C43.0818 96.7765 47.4856 96.8055 51.5568 95.4952C53.9985 94.7143 56.254 93.4668 58.1875 91.8271C63.9933 86.9977 71.5369 84.5615 79.17 85.0507C84.1294 85.4596 89.0705 84.006 92.9607 80.9941C96.8531 77.9805 99.3967 73.636 100.049 68.8661C100.701 64.0952 99.409 59.2748 96.4428 55.4185ZM102.308 31.5929C103.036 29.0652 102.969 26.388 102.115 23.9008C100.969 20.5651 98.4914 17.8168 95.2351 16.2564C91.9798 14.6966 88.2127 14.4508 84.7611 15.5652C82.1867 16.3964 79.9199 17.9424 78.2482 20.0104C76.5763 22.0785 75.5736 24.5774 75.3719 27.1925C75.1701 29.808 75.7788 32.4195 77.1219 34.6951C78.4649 36.9707 80.4796 38.8048 82.9078 39.9683C85.3356 41.1316 88.0679 41.5726 90.7591 41.2394C93.4502 40.9063 95.9832 39.8137 98.0383 38.0985C100.094 36.3832 101.581 34.1202 102.308 31.5929ZM28.1356 47.7874C27.2812 45.3002 25.6784 43.1191 23.533 41.519C21.388 39.9191 18.7981 38.9726 16.0923 38.7945C13.3868 38.6165 10.6839 39.2144 8.32412 40.5121C5.96427 41.8099 4.05033 43.751 2.8268 46.0933C1.60309 48.4359 1.12499 51.0749 1.45749 53.6767C1.79002 56.2787 2.9179 58.7225 4.69698 60.6984C6.47583 62.674 8.82371 64.0911 11.4408 64.7744C14.0577 65.4576 16.8279 65.3772 19.4023 64.546C22.8539 63.4316 25.7167 61.045 27.3573 57.9045C28.9984 54.7628 29.2816 51.1231 28.1356 47.7874ZM33.5679 37.4279C36.1423 36.5967 38.4091 35.0507 40.0808 32.9827C41.7527 30.9146 42.7554 28.4157 42.9572 25.8006C43.159 23.1851 42.5503 20.5736 41.2072 18.298C39.8642 16.0225 37.8494 14.1884 35.4213 13.0248C32.9935 11.8615 30.2612 11.4205 27.57 11.7537C24.8788 12.0868 22.3459 13.1794 20.2907 14.8946C18.2354 16.6099 16.748 18.8729 16.0208 21.4002C15.2934 23.9279 15.3596 26.6051 16.214 29.0923C17.3599 32.4281 19.8376 35.1763 23.094 36.7367C26.3492 38.2965 30.1164 38.5423 33.5679 37.4279ZM65.2734 27.1908C67.8478 26.3596 70.1146 24.8136 71.7863 22.7457C73.4582 20.6775 74.4609 18.1786 74.6626 15.5635C74.8644 12.948 74.2557 10.3366 72.9126 8.06088C71.5696 5.78537 69.5549 3.95127 67.1267 2.78776C64.6989 1.62443 61.9666 1.18345 59.2754 1.51659C56.5843 1.84971 54.0513 2.94232 51.9962 4.65752C49.9408 6.37285 48.4535 8.63584 47.7262 11.1631C46.9989 13.6908 47.0651 16.3681 47.9195 18.8552C49.0654 22.191 51.5431 24.9392 54.7994 26.4996C58.0547 28.0594 61.8218 28.3053 65.2734 27.1908Z" fill="#EAF4FF" stroke="#AAD2FF" stroke-width="1.5"/>
</svg>
