<svg width="210" height="170" viewBox="0 0 210 170" fill="none" xmlns="http://www.w3.org/2000/svg">
<g clip-path="url(#clip0_5_34)">
<path d="M115.735 125.047L115.737 125.045C119.126 122.272 121.237 118.303 121.606 114.009C121.99 109.745 123.792 105.721 126.743 102.543C129.694 99.3652 133.635 97.2048 137.972 96.3876C142.31 95.5705 146.81 96.1409 150.794 98.0124C154.779 99.8838 158.033 102.955 160.069 106.763C161.083 108.671 162.475 110.369 164.164 111.758C165.817 113.117 167.722 114.154 169.775 114.815L169.777 114.822L169.917 114.864C174.505 116.222 178.378 119.246 180.726 123.3C183.073 127.354 183.714 132.124 182.513 136.612C181.312 141.1 178.362 144.958 174.28 147.375C170.198 149.792 165.302 150.581 160.619 149.574L160.614 149.573C152.757 148.037 144.604 149.572 137.936 153.846L137.934 153.847C135.89 155.185 133.585 156.107 131.159 156.557L131.159 156.557C127.112 157.316 122.914 156.744 119.23 154.933C115.546 153.123 112.587 150.177 110.818 146.562C109.05 142.948 108.573 138.871 109.463 134.974C110.353 131.078 112.559 127.584 115.735 125.047ZM190.362 91.8393C190.859 94.265 190.603 96.7766 189.626 99.0565C188.648 101.337 186.994 103.283 184.87 104.648C182.746 106.014 180.249 106.737 177.695 106.726C175.141 106.715 172.646 105.97 170.524 104.587C168.403 103.203 166.751 101.244 165.776 98.9563C164.801 96.6689 164.546 94.1555 165.045 91.7335C165.543 89.3114 166.773 87.0888 168.578 85.3473C170.384 83.6057 172.685 82.4239 175.191 81.952C178.55 81.3191 182.036 82.0068 184.881 83.8618C187.726 85.7167 189.697 88.5866 190.362 91.8393ZM109.472 99.9994C111.276 101.756 112.503 103.988 112.999 106.413C113.665 109.666 112.972 113.038 111.069 115.787C109.167 118.536 106.211 120.438 102.852 121.071C100.346 121.543 97.7504 121.283 95.3921 120.326C93.0339 119.369 91.0197 117.758 89.6035 115.696C88.1873 113.635 87.432 111.216 87.433 108.745C87.4339 106.273 88.191 103.86 89.6096 101.81C91.0283 99.7594 93.0449 98.1645 95.4048 97.2277C97.7648 96.2908 100.361 96.0544 102.866 96.5481C105.37 97.0418 107.669 98.2432 109.472 99.9994ZM127.179 92.073C125.373 93.8146 123.072 94.9964 120.567 95.4684C117.207 96.1013 113.722 95.4135 110.877 93.5585C108.032 91.7036 106.061 88.8337 105.395 85.581C104.899 83.1553 105.155 80.6437 106.132 78.3638C107.109 76.0838 108.764 74.1375 110.888 72.772C113.011 71.4064 115.508 70.6833 118.062 70.6944C120.616 70.7056 123.112 71.4504 125.233 72.8338C127.355 74.217 129.007 76.1766 129.982 78.464C130.957 80.7514 131.211 83.2648 130.713 85.6868C130.214 88.1089 128.985 90.3315 127.179 92.073ZM160.335 85.827C158.529 87.5685 156.228 88.7503 153.723 89.2223C150.363 89.8552 146.877 89.1675 144.032 87.3124C141.188 85.4575 139.217 82.5877 138.551 79.335C138.054 76.9092 138.31 74.3976 139.288 72.1177C140.265 69.8377 141.919 67.8915 144.043 66.5259C146.167 65.1603 148.664 64.4372 151.218 64.4483C153.772 64.4595 156.267 65.2043 158.389 66.5877C160.51 67.971 162.163 69.9305 163.138 72.2179C164.113 74.5053 164.367 77.0187 163.869 79.4408C163.37 81.8629 162.141 84.0855 160.335 85.827Z" fill="#CDDFF3" fill-opacity="0.58" stroke="white" stroke-width="0.476435"/>
<path d="M55.4897 60.8847L55.4897 60.8847L55.4925 60.8845C57.7637 60.6901 59.8331 59.6015 61.2452 57.8549C62.6191 56.1704 64.5222 54.9958 66.6697 54.5091C68.8175 54.0223 71.0932 54.25 73.1544 55.1591C75.2157 56.0681 76.9498 57.6087 78.0965 59.5484C79.2431 61.4878 79.7404 63.721 79.5154 65.9121C79.3968 67.0373 79.503 68.1827 79.8275 69.2828C80.1384 70.337 80.644 71.3297 81.3168 72.209L81.3145 72.2147L81.4071 72.3282C82.9528 74.2242 83.723 76.614 83.5592 78.9961C83.3953 81.3779 82.3102 83.569 80.5306 85.1105C78.7509 86.6522 76.4134 87.4253 74.0075 87.265C71.6014 87.1046 69.3156 86.0232 67.6298 84.2478L67.6298 84.2478L67.6267 84.2446C64.6999 81.2735 60.7563 79.5344 56.6565 79.4066L56.6542 79.4066C55.4135 79.38 54.1813 79.103 53.032 78.5924L53.0316 78.5922C51.1115 77.7434 49.5068 76.2911 48.4707 74.4659C47.4347 72.6409 47.0265 70.5478 47.3091 68.5177C47.5915 66.4878 48.5487 64.6352 50.0295 63.2529C51.5105 61.8705 53.4316 61.0365 55.4897 60.8847ZM96.7235 68.3693C96.2464 69.526 95.4301 70.5032 94.3772 71.1768C93.3242 71.8506 92.0815 72.1907 90.8059 72.1529C89.5302 72.1151 88.2798 71.7011 87.213 70.963C86.1463 70.2249 85.3119 69.1966 84.8148 68.0088C84.3178 66.8211 84.1802 65.5275 84.4182 64.2914C84.6563 63.0553 85.2595 61.9312 86.152 61.0611C87.0445 60.1908 88.1869 59.6132 89.4353 59.4023C90.6837 59.1914 91.9817 59.357 93.1648 59.8787C94.7513 60.5784 96.0165 61.8674 96.6832 63.4602C97.3497 65.0527 97.3634 66.8184 96.7235 68.3693ZM59.9044 48.2895C60.1629 49.5415 60.0458 50.8269 59.5686 51.9836C58.9287 53.5345 57.6867 54.7464 56.1137 55.3513C54.5403 55.9563 52.7648 55.9043 51.1783 55.2046C49.9952 54.6828 48.9813 53.8288 48.2644 52.7511C47.5475 51.6736 47.1601 50.4213 47.1498 49.1529C47.1395 47.8846 47.5068 46.6565 48.2048 45.6233C48.903 44.59 49.9013 43.7974 51.0744 43.3463C52.2476 42.8951 53.543 42.806 54.7965 43.0912C56.0501 43.3764 57.2047 44.023 58.114 44.9488C59.0233 45.8746 59.646 47.0374 59.9044 48.2895ZM69.8206 49.9466C68.5721 50.1575 67.2741 49.9919 66.091 49.4702C64.5045 48.7705 63.2393 47.4815 62.5726 45.8887C61.9061 44.2962 61.8924 42.5305 62.5323 40.9796C63.0095 39.8229 63.8257 38.8457 64.8786 38.1721C65.9316 37.4983 67.1743 37.1582 68.4499 37.196C69.7256 37.2338 70.976 37.6478 72.0428 38.3859C73.1095 39.124 73.9439 40.1523 74.441 41.3401C74.938 42.5278 75.0756 43.8214 74.8376 45.0575C74.5995 46.2936 73.9963 47.4177 73.1038 48.2878C72.2113 49.1581 71.0689 49.7357 69.8206 49.9466ZM85.7441 56.9691C84.4956 57.1799 83.1976 57.0144 82.0146 56.4926C80.428 55.793 79.1628 54.504 78.4962 52.9112C77.8297 51.3186 77.816 49.553 78.4558 48.002C78.933 46.8453 79.7493 45.8682 80.8022 45.1945C81.8551 44.5208 83.0978 44.1807 84.3735 44.2184C85.6491 44.2562 86.8996 44.6703 87.9664 45.4084C89.0331 46.1464 89.8674 47.1748 90.3645 48.3626C90.8616 49.5502 90.9992 50.8439 90.7611 52.08C90.5231 53.316 89.9199 54.4401 89.0274 55.3103C88.1349 56.1805 86.9925 56.7582 85.7441 56.9691Z" fill="#CDDFF3" fill-opacity="0.58" stroke="white" stroke-width="0.476435"/>
<path d="M98.3144 27.321L98.3144 27.321L98.3161 27.3189C99.6585 25.6579 100.275 23.5538 100.028 21.4673C99.7976 19.4548 100.247 17.4152 101.311 15.655C102.375 13.8945 103.995 12.5092 105.929 11.7082C107.863 10.9072 110.004 10.7343 112.031 11.2145C114.057 11.6946 115.859 12.8015 117.167 14.3675C117.839 15.177 118.67 15.8475 119.613 16.3412C120.513 16.8127 121.498 17.1139 122.516 17.2298L122.518 17.2354L122.664 17.2472C124.919 17.4305 127 18.4547 128.474 20.1025C129.947 21.7501 130.699 23.8948 130.573 26.0877C130.446 28.2809 129.45 30.3535 127.79 31.8698C126.131 33.3861 123.938 34.2269 121.673 34.2158L121.673 34.2157L121.668 34.2158C117.797 34.2684 114.088 35.8051 111.348 38.4907L111.347 38.4923C110.528 39.3104 109.549 39.9612 108.468 40.4052L108.468 40.4054C106.666 41.1502 104.667 41.293 102.788 40.8123C100.909 40.3317 99.2578 39.2553 98.0943 37.7548C96.9309 36.2544 96.3205 34.4144 96.3599 32.5254C96.3993 30.6362 97.0864 28.8046 98.3144 27.321ZM129.926 4.34615C130.384 5.413 130.505 6.5921 130.272 7.73472C130.039 8.87745 129.463 9.93272 128.615 10.7664C127.768 11.6002 126.687 12.1743 125.51 12.4158C124.332 12.6573 123.113 12.5552 122.006 12.1235C120.898 11.6919 119.953 10.9501 119.287 9.99285C118.622 9.03564 118.267 7.90506 118.266 6.74368C118.265 5.5822 118.619 4.44129 119.285 3.46555C119.95 2.48973 120.897 1.72337 122.006 1.26407C123.493 0.648106 125.163 0.628466 126.648 1.2074C128.133 1.78621 129.311 2.91571 129.926 4.34615ZM92.781 16.2008C93.777 16.8344 94.5529 17.7422 95.0113 18.809C95.626 20.2394 95.6278 21.8563 95.0139 23.3045C94.4 24.7529 93.2203 25.9137 91.7334 26.5297C90.6246 26.989 89.4047 27.1202 88.2284 26.9074C87.0522 26.6945 85.9728 26.1474 85.126 25.3364C84.2793 24.5254 83.7026 23.4864 83.4684 22.3506C83.2343 21.2148 83.353 20.0322 83.8107 18.9522C84.2686 17.8721 85.045 16.9432 86.0425 16.2839C87.0401 15.6246 88.2132 15.265 89.4131 15.2505C90.6129 15.236 91.7849 15.5671 92.781 16.2008ZM100.29 10.5613C99.6245 11.5371 98.6776 12.3034 97.5688 12.7627C96.0818 13.3787 94.4118 13.3983 92.9267 12.8194C91.4418 12.2406 90.2635 11.1111 89.6488 9.68066C89.1904 8.61381 89.0695 7.43471 89.3023 6.29209C89.5351 5.14936 90.1113 4.09409 90.9591 3.26039C91.807 2.42664 92.8879 1.85253 94.065 1.61101C95.2421 1.36949 96.4615 1.47158 97.5689 1.90329C98.6763 2.33495 99.6219 3.07671 100.287 4.03396C100.952 4.99117 101.308 6.12175 101.309 7.28313C101.31 8.44461 100.956 9.58552 100.29 10.5613ZM115.253 4.36289C114.588 5.33871 113.641 6.10507 112.532 6.56437C111.045 7.18034 109.375 7.19997 107.89 6.62104C106.405 6.04224 105.227 4.91273 104.612 3.48229C104.154 2.41545 104.033 1.23634 104.266 0.0937182C104.498 -1.04901 105.075 -2.10428 105.922 -2.93798C106.77 -3.77172 107.851 -4.34584 109.028 -4.58736C110.205 -4.82887 111.425 -4.72678 112.532 -4.29508C113.64 -3.86342 114.585 -3.12166 115.25 -2.16441C115.916 -1.2072 116.271 -0.0766214 116.272 1.08477C116.273 2.24624 115.919 3.38715 115.253 4.36289Z" fill="#CDDFF3" fill-opacity="0.58" stroke="white" stroke-width="0.476435"/>
</g>
<defs>
<clipPath id="clip0_5_34">
<rect width="210" height="170" fill="white"/>
</clipPath>
</defs>
</svg>
