<svg width="210" height="170" viewBox="0 0 210 170" fill="none" xmlns="http://www.w3.org/2000/svg">
<g clip-path="url(#clip0_5_29)">
<path d="M63.0121 51.5806C62.8377 53.2225 62.9937 54.8939 63.4708 56.4992C63.9325 58.0531 64.6863 59.5155 65.6907 60.8084L65.6879 60.8153L65.7927 60.9429C68.0941 63.7446 69.2411 67.2765 68.9969 70.797C68.7527 74.3172 67.1365 77.5556 64.4862 79.8337C61.8356 82.112 58.3548 83.2543 54.7725 83.0172C51.19 82.7801 47.7866 81.182 45.2768 78.5585L45.2732 78.5549C40.9567 74.2059 35.1405 71.6601 29.0938 71.4728L29.0913 71.4727C27.2437 71.4333 25.4089 71.024 23.6976 70.2692L23.6971 70.269C20.8384 69.0147 18.449 66.8686 16.9064 64.1714C15.3638 61.4744 14.7561 58.381 15.177 55.3807C15.5978 52.3804 17.0234 49.6425 19.2288 47.5996C21.4344 45.5566 24.2952 44.3244 27.3599 44.1002L27.3629 44.1C30.7031 43.8163 33.7462 42.2278 35.8227 39.6792M63.0121 51.5806C63.0121 51.5805 63.0121 51.5805 63.0121 51.5804L63.2772 51.6127L63.012 51.5811C63.012 51.5809 63.0121 51.5808 63.0121 51.5806ZM63.0121 51.5806C63.3473 48.3439 62.6072 45.0452 60.9009 42.1806C59.1944 39.3157 56.6139 37.0404 53.5466 35.6978C50.4794 34.3552 47.0928 34.0186 43.8964 34.7374C40.7004 35.4561 37.8677 37.1909 35.8227 39.6792M35.8227 39.6792C35.8228 39.679 35.8229 39.6789 35.823 39.6787L35.6168 39.5053L35.8223 39.6796C35.8224 39.6794 35.8225 39.6793 35.8227 39.6792ZM88.477 55.2135C87.7643 56.9277 86.5453 58.3757 84.9731 59.374C83.4007 60.3723 81.5453 60.8761 79.6409 60.82C77.7365 60.7639 75.8698 60.1504 74.2774 59.0569C72.685 57.9634 71.4394 56.4397 70.6973 54.6797C69.9552 52.9198 69.7498 51.0028 70.1054 49.1709C70.461 47.339 71.3619 45.6732 72.6946 44.3837C74.0275 43.0941 75.7332 42.2383 77.5971 41.9259C79.461 41.6136 81.3987 41.859 83.1648 42.632C85.5331 43.6687 87.4219 45.5784 88.4171 47.9386C89.4122 50.2984 89.4326 52.915 88.477 55.2135ZM33.9848 25.667C34.3706 27.5223 34.1956 29.4272 33.4829 31.1415C32.5273 33.44 30.6725 35.2357 28.3237 36.1319C25.9746 37.0282 23.324 36.9509 20.9556 35.9143C19.1896 35.1412 17.6759 33.8759 16.6057 32.2792C15.5355 30.6825 14.9571 28.8268 14.9418 26.9472C14.9266 25.0677 15.475 23.2476 16.5176 21.7164C17.5602 20.1852 19.051 19.0106 20.8026 18.3423C22.5543 17.6739 24.4882 17.542 26.3595 17.9646C28.2309 18.3872 29.9544 19.3452 31.3118 20.7169C32.6692 22.0886 33.5989 23.8115 33.9848 25.667ZM48.5969 28.198C46.733 28.5104 44.7953 28.2649 43.0292 27.4919C40.6609 26.4553 38.7721 24.5455 37.7769 22.1853C36.7818 19.8255 36.7614 17.2089 37.717 14.9104C38.4297 13.1962 39.6487 11.7482 41.2209 10.75C42.7933 9.75167 44.6487 9.24785 46.5531 9.30392C48.4575 9.35999 50.3242 9.9735 51.9166 11.067C53.509 12.1606 54.7546 13.6842 55.4967 15.4442C56.2388 17.2041 56.4442 19.1212 56.0886 20.9531C55.733 22.7849 54.8321 24.4508 53.4994 25.7402C52.1665 27.0298 50.4608 27.8856 48.5969 28.198ZM72.1658 38.5146C70.3018 38.8269 68.3641 38.5815 66.5981 37.8085C64.2298 36.7718 62.341 34.8621 61.3457 32.5019C60.3507 30.1421 60.3303 27.5255 61.2859 25.227C61.9986 23.5128 63.2176 22.0648 64.7898 21.0666C66.3622 20.0683 68.2176 19.5644 70.1219 19.6205C72.0264 19.6766 73.893 20.2901 75.4855 21.3836C77.0779 22.4772 78.3235 24.0008 79.0656 25.7608C79.8077 27.5207 80.0131 29.4377 79.6575 31.2697C79.3019 33.1015 78.401 34.7674 77.0682 36.0568C75.7354 37.3464 74.0296 38.2022 72.1658 38.5146Z" fill="#CDDFF3" fill-opacity="0.58" stroke="white" stroke-width="0.536896"/>
<path d="M113.727 133.287L113.729 133.285C117.548 130.183 119.928 125.744 120.343 120.94C120.776 116.173 122.806 111.674 126.131 108.12C129.457 104.565 133.898 102.149 138.786 101.235C143.675 100.321 148.746 100.959 153.236 103.052C157.726 105.145 161.393 108.579 163.687 112.837C164.83 114.972 166.399 116.871 168.302 118.424C170.164 119.944 172.311 121.104 174.625 121.843L174.627 121.852L174.785 121.898C179.956 123.417 184.32 126.799 186.965 131.332C189.61 135.865 190.331 141.198 188.979 146.216C187.626 151.235 184.302 155.549 179.702 158.253C175.101 160.957 169.583 161.838 164.305 160.713L164.3 160.712C155.446 158.993 146.259 160.711 138.745 165.49L138.743 165.491C136.439 166.987 133.842 168.018 131.108 168.522L131.107 168.522C126.546 169.37 121.815 168.731 117.664 166.706C113.513 164.681 110.178 161.387 108.186 157.345C106.193 153.304 105.656 148.745 106.659 144.388C107.661 140.032 110.148 136.125 113.727 133.287ZM197.824 96.1466C198.384 98.8586 198.095 101.667 196.994 104.216C195.893 106.766 194.029 108.942 191.635 110.469C189.242 111.997 186.428 112.806 183.549 112.793C180.671 112.781 177.858 111.948 175.468 110.401C173.077 108.854 171.216 106.663 170.117 104.105C169.019 101.548 168.732 98.7377 169.294 96.0296C169.856 93.3215 171.241 90.836 173.276 88.8884C175.311 86.9407 177.904 85.6189 180.728 85.091C184.514 84.3831 188.442 85.1524 191.648 87.2269C194.854 89.3011 197.074 92.5101 197.824 96.1466ZM106.67 105.274C108.702 107.238 110.084 109.734 110.644 112.446C111.394 116.082 110.613 119.852 108.469 122.926C106.325 126.001 102.994 128.128 99.2079 128.836C96.3843 129.363 93.4586 129.073 90.801 128.003C88.1435 126.933 85.8741 125.13 84.2784 122.826C82.6829 120.521 81.8321 117.816 81.8331 115.053C81.8342 112.29 82.6871 109.592 84.2857 107.299C85.8843 105.006 88.1568 103.223 90.8165 102.175C93.4763 101.127 96.4027 100.862 99.2251 101.415C102.047 101.967 104.638 103.31 106.67 105.274ZM126.623 96.4058C124.588 98.3535 121.995 99.6753 119.171 100.203C115.385 100.911 111.457 100.142 108.251 98.0673C105.045 95.9931 102.825 92.7842 102.075 89.1476C101.515 86.4356 101.804 83.6275 102.905 81.0781C104.006 78.5286 105.87 76.352 108.264 74.8247C110.657 73.2974 113.471 72.4886 116.35 72.5011C119.228 72.5135 122.041 73.3466 124.431 74.8936C126.822 76.4405 128.683 78.6316 129.782 81.189C130.88 83.7464 131.167 86.5565 130.605 89.2646C130.043 91.9727 128.658 94.4582 126.623 96.4058ZM163.987 89.4205C161.951 91.3682 159.358 92.69 156.535 93.2179C152.748 93.9258 148.82 93.1565 145.614 91.082C142.408 89.0078 140.188 85.7989 139.438 82.1623C138.879 79.4503 139.167 76.6422 140.268 74.0928C141.369 71.5433 143.234 69.3667 145.627 67.8394C148.02 66.3121 150.835 65.5033 153.713 65.5158C156.591 65.5282 159.404 66.3613 161.794 67.9083C164.185 69.4552 166.046 71.6463 167.145 74.2037C168.243 76.7611 168.53 79.5712 167.968 82.2793C167.407 84.9874 166.022 87.4729 163.987 89.4205Z" fill="#CDDFF3" fill-opacity="0.58" stroke="white" stroke-width="0.536896"/>
</g>
<defs>
<clipPath id="clip0_5_29">
<rect width="210" height="170" fill="white"/>
</clipPath>
</defs>
</svg>
