<svg width="210" height="170" viewBox="0 0 210 170" fill="none" xmlns="http://www.w3.org/2000/svg">
<g clip-path="url(#clip0_5_42)">
<path d="M96.1406 123.973L96.1427 123.971C100.479 119.419 102.774 113.406 102.52 107.251C102.292 101.102 104.146 95.0342 107.804 89.9606C111.463 84.8864 116.728 81.0809 122.81 79.1172C128.892 77.1535 135.46 77.1383 141.526 79.0725C147.592 81.0066 152.828 84.7852 156.448 89.8388C158.244 92.3588 160.54 94.5102 163.205 96.17C165.825 97.8015 168.75 98.9267 171.819 99.4842L171.823 99.4936L171.986 99.5196C178.827 100.611 184.945 104.21 189.059 109.559C193.173 114.907 194.965 121.592 194.06 128.212C193.155 134.833 189.622 140.878 184.198 145.077C178.774 149.276 171.883 151.302 164.97 150.729L164.965 150.729C153.446 149.988 142.064 153.663 133.304 160.952L133.302 160.953C130.609 163.238 127.466 164.977 124.063 166.065L124.062 166.065C118.386 167.893 112.25 167.851 106.625 165.947C101.001 164.044 96.2102 160.388 93.0085 155.56C89.8068 150.732 88.376 145.005 88.9426 139.285C89.5092 133.565 92.0412 128.177 96.1406 123.973ZM197.143 63.0732C198.301 66.445 198.393 70.0781 197.404 73.5135C196.415 76.949 194.391 80.033 191.586 82.3742C188.78 84.7156 185.321 86.2084 181.644 86.6635C177.968 87.1186 174.242 86.5154 170.936 84.9315C167.631 83.3478 164.895 80.8547 163.074 77.7687C161.253 74.6826 160.427 71.141 160.7 67.591C160.974 64.0408 162.336 60.6408 164.615 57.8214C166.895 55.0019 169.989 52.8902 173.506 51.7544C178.224 50.2312 183.365 50.5703 187.797 52.6942C192.229 54.8179 195.59 58.5519 197.143 63.0732ZM82.7031 89.499C85.6189 91.6738 87.7928 94.6344 88.9512 98.0063C90.5044 102.528 90.1239 107.47 87.8903 111.745C85.6565 116.022 81.7521 119.281 77.0347 120.804C73.5169 121.94 69.7348 122.049 66.1669 121.117C62.5991 120.186 59.4064 118.256 56.9916 115.574C54.5769 112.892 53.0476 109.578 52.5967 106.049C52.1457 102.521 52.7932 98.9353 54.459 95.7465C56.1247 92.5576 58.734 89.9087 61.9576 88.1359C65.1813 86.3631 68.8734 85.5467 72.5667 85.7898C76.2598 86.0328 79.7871 87.3242 82.7031 89.499ZM106.642 75.0783C104.363 77.8978 101.269 80.0094 97.7513 81.1452C93.0339 82.6684 87.8933 82.3294 83.4609 80.2055C79.0288 78.0818 75.6679 74.3478 74.1147 69.8265C72.9564 66.4546 72.8652 62.8215 73.8538 59.3861C74.8424 55.9506 76.8667 52.8667 79.672 50.5254C82.4774 48.184 85.9372 46.6912 89.6136 46.2361C93.2899 45.7811 97.0163 46.3843 100.322 47.9681C103.627 49.5519 106.363 52.0449 108.184 55.131C110.005 58.217 110.831 61.7587 110.557 65.3087C110.284 68.8588 108.922 72.2589 106.642 75.0783ZM153.01 60.1069C150.731 62.9264 147.637 65.0381 144.119 66.1739C139.402 67.6971 134.261 67.358 129.829 65.2341C125.397 63.1104 122.036 59.3765 120.483 54.8552C119.324 51.4833 119.233 47.8502 120.222 44.4148C121.21 40.9793 123.235 37.8954 126.04 35.5541C128.845 33.2127 132.305 31.7199 135.982 31.2648C139.658 30.8097 143.384 31.413 146.69 32.9968C149.995 34.5805 152.73 37.0736 154.552 40.1597C156.373 43.2457 157.199 46.7874 156.925 50.3374C156.651 53.8875 155.29 57.2875 153.01 60.1069Z" fill="#CDDFF3" fill-opacity="0.58" stroke="white" stroke-width="0.536896"/>
</g>
<defs>
<clipPath id="clip0_5_42">
<rect width="210" height="170" fill="white"/>
</clipPath>
</defs>
</svg>
