<svg width="210" height="178" viewBox="0 0 210 178" fill="none" xmlns="http://www.w3.org/2000/svg">
<path d="M113.727 135.287L113.729 135.285C117.548 132.183 119.928 127.744 120.343 122.94C120.776 118.173 122.806 113.674 126.131 110.12C129.457 106.565 133.898 104.149 138.786 103.235C143.675 102.321 148.746 102.959 153.236 105.052C157.726 107.145 161.393 110.579 163.687 114.837C164.831 116.972 166.399 118.871 168.302 120.424C170.165 121.944 172.312 123.104 174.625 123.843L174.627 123.852L174.785 123.898C179.956 125.417 184.32 128.799 186.965 133.332C189.61 137.865 190.332 143.198 188.979 148.216C187.626 153.235 184.302 157.549 179.702 160.253C175.101 162.957 169.583 163.838 164.305 162.713L164.3 162.712C155.446 160.993 146.259 162.711 138.745 167.49L138.743 167.491C136.439 168.987 133.842 170.018 131.108 170.522L131.107 170.522C126.546 171.37 121.816 170.731 117.664 168.706C113.513 166.681 110.178 163.387 108.186 159.345C106.193 155.304 105.656 150.745 106.659 146.388C107.661 142.032 110.148 138.125 113.727 135.287ZM197.824 98.1466C198.384 100.859 198.095 103.667 196.994 106.216C195.893 108.766 194.029 110.942 191.635 112.469C189.242 113.997 186.428 114.806 183.549 114.793C180.671 114.781 177.859 113.948 175.468 112.401C173.077 110.854 171.216 108.663 170.118 106.105C169.019 103.548 168.732 100.738 169.294 98.0296C169.856 95.3215 171.241 92.836 173.276 90.8884C175.311 88.9407 177.904 87.6189 180.728 87.091C184.514 86.3831 188.443 87.1524 191.648 89.2269C194.854 91.3011 197.074 94.5101 197.824 98.1466ZM106.67 107.274C108.702 109.238 110.084 111.734 110.644 114.446C111.394 118.082 110.613 121.852 108.469 124.926C106.326 128.001 102.995 130.128 99.208 130.836C96.3844 131.363 93.4587 131.073 90.8011 130.003C88.1437 128.933 85.8742 127.13 84.2786 124.826C82.683 122.521 81.8322 119.816 81.8333 117.053C81.8343 114.29 82.6872 111.592 84.2858 109.299C85.8844 107.006 88.1569 105.223 90.8167 104.175C93.4765 103.127 96.4028 102.862 99.2252 103.415C102.048 103.967 104.638 105.31 106.67 107.274ZM126.623 98.4058C124.588 100.353 121.995 101.675 119.172 102.203C115.385 102.911 111.457 102.142 108.251 100.067C105.045 97.9931 102.825 94.7842 102.075 91.1476C101.516 88.4356 101.804 85.6275 102.905 83.0781C104.006 80.5286 105.871 78.352 108.264 76.8247C110.657 75.2974 113.472 74.4886 116.35 74.5011C119.228 74.5135 122.041 75.3466 124.431 76.8936C126.822 78.4405 128.683 80.6316 129.782 83.189C130.88 85.7464 131.167 88.5565 130.605 91.2646C130.044 93.9727 128.659 96.4582 126.623 98.4058ZM163.987 91.4205C161.952 93.3682 159.358 94.69 156.535 95.2179C152.748 95.9258 148.82 95.1565 145.614 93.082C142.409 91.0078 140.188 87.7989 139.438 84.1623C138.879 81.4503 139.167 78.6422 140.268 76.0928C141.369 73.5433 143.234 71.3667 145.627 69.8394C148.021 68.3121 150.835 67.5033 153.713 67.5158C156.592 67.5282 159.404 68.3613 161.794 69.9083C164.185 71.4552 166.046 73.6463 167.145 76.2037C168.243 78.7611 168.53 81.5712 167.968 84.2793C167.407 86.9874 166.022 89.4729 163.987 91.4205Z" fill="#CDDFF3" fill-opacity="0.58" stroke="white" stroke-width="0.536896"/>
<path d="M23.2692 70.5308C20.398 69.2712 17.9972 67.1155 16.4465 64.4047C14.8959 61.6938 14.2838 58.5825 14.7073 55.5629C15.1307 52.5433 16.5654 49.7878 18.7845 47.7321C21.0035 45.6764 23.8803 44.4379 26.9597 44.2125C30.1861 43.9383 33.1224 42.404 35.1246 39.9461L23.2692 70.5308ZM23.2692 70.5308C24.9884 71.289 26.832 71.7002 28.6887 71.7398L23.2692 70.5308ZM26.9854 44.4818C30.2804 44.2018 33.2824 42.6345 35.3308 40.1202C37.347 37.6668 40.1398 35.9562 43.291 35.2474C46.4425 34.5386 49.7816 34.8703 52.8059 36.1939C55.8302 37.5175 58.3747 39.7609 60.0574 42.5855C61.74 45.41 62.4697 48.6624 62.1393 51.8539C61.9674 53.4735 62.1214 55.1222 62.5921 56.7057C63.0475 58.2379 63.7907 59.6799 64.7809 60.9549L64.7781 60.9617L64.8829 61.0893C67.1521 63.8516 68.2831 67.3337 68.0425 70.8047C67.802 74.2754 66.2087 77.4683 63.5957 79.7145C60.9825 81.9609 57.5507 83.0872 54.0187 82.8537C50.4865 82.6201 47.1308 81.0446 44.6561 78.458L44.6526 78.4544C40.3947 74.165 34.6577 71.6541 28.6934 71.4696L28.6909 71.4696C26.8693 71.4308 25.0602 71.0273 23.3729 70.2833L23.3725 70.283C20.5538 69.0465 18.1979 66.9306 16.6768 64.2714C15.1558 61.6124 14.5565 58.5625 14.9713 55.6043C15.3861 52.6463 16.7914 49.9469 18.9657 47.9326C21.1402 45.9182 23.9607 44.7032 26.9823 44.482L26.9854 44.4818ZM87.2536 55.434C86.5511 57.1239 85.3495 58.5514 83.7996 59.5356C82.2496 60.5198 80.4205 61.0166 78.5431 60.9614C76.6656 60.9062 74.8253 60.3014 73.2554 59.2235C71.6855 58.1455 70.4575 56.6435 69.7258 54.9084C68.9941 53.1735 68.7916 51.2837 69.142 49.4778C69.4925 47.6719 70.3805 46.0297 71.6943 44.7584C73.0082 43.4871 74.6897 42.6433 76.5271 42.3353C78.3646 42.0273 80.2749 42.2691 82.016 43.0311C84.3509 44.053 86.213 45.9356 87.1942 48.2623C88.1753 50.5886 88.1955 53.1681 87.2536 55.434ZM33.5111 26.2996C33.8916 28.1286 33.7192 30.0065 33.0167 31.6964C32.0747 33.9624 30.2463 35.7327 27.9309 36.6163C25.6151 37.5 23.002 37.424 20.6671 36.4021C18.9261 35.6401 17.4338 34.3927 16.3786 32.8187C15.3235 31.2447 14.7532 29.4153 14.7381 27.5624C14.723 25.7095 15.2635 23.9152 16.2912 22.4058C17.319 20.8963 18.7885 19.7383 20.5153 19.0793C22.2422 18.4203 24.1486 18.2901 25.9935 18.7067C27.8384 19.1233 29.5375 20.0676 30.8758 21.4198C32.214 22.772 33.1306 24.4705 33.5111 26.2996ZM47.9249 28.7906C46.0873 29.0987 44.177 28.8568 42.436 28.0948C40.1011 27.0729 38.239 25.1904 37.2577 22.8636C36.2767 20.5373 36.2565 17.9579 37.1984 15.6919C37.9009 14.002 39.1025 12.5745 40.6524 11.5904C42.2024 10.6062 44.0315 10.1094 45.9089 10.1646C47.7863 10.2198 49.6266 10.8245 51.1966 11.9025C52.7665 12.9805 53.9945 14.4825 54.7262 16.2175C55.4578 17.9524 55.6604 19.8423 55.3099 21.6482C54.9595 23.454 54.0715 25.0963 52.7577 26.3675C51.4438 27.6388 49.7623 28.4826 47.9249 28.7906ZM71.1693 38.9639C69.3317 39.2719 67.4214 39.0301 65.6804 38.2681C63.3455 37.2462 61.4834 35.3636 60.5021 33.0369C59.5211 30.7106 59.5009 28.1311 60.4428 25.8652C61.1453 24.1753 62.3469 22.7478 63.8968 21.7636C65.4468 20.7794 67.2759 20.2826 69.1533 20.3378C71.0307 20.393 72.871 20.9978 74.441 22.0758C76.0109 23.1537 77.2389 24.6557 77.9706 26.3908C78.7022 28.1257 78.9048 30.0155 78.5543 31.8214C78.2039 33.6273 77.3159 35.2695 76.0021 36.5408C74.6882 37.8121 73.0067 38.6559 71.1693 38.9639Z" fill="#CDDFF3" fill-opacity="0.58" stroke="white" stroke-width="0.536896"/>
</svg>
