<svg width="210" height="186" viewBox="0 0 210 186" fill="none" xmlns="http://www.w3.org/2000/svg">
<path d="M115.735 130.047L115.737 130.045C119.126 127.272 121.237 123.303 121.606 119.009C121.99 114.745 123.792 110.721 126.743 107.543C129.694 104.365 133.635 102.205 137.972 101.388C142.31 100.57 146.81 101.141 150.794 103.012C154.779 104.884 158.033 107.955 160.069 111.763C161.083 113.671 162.475 115.369 164.164 116.758C165.817 118.117 167.722 119.154 169.775 119.815L169.777 119.822L169.917 119.864C174.505 121.222 178.378 124.246 180.726 128.3C183.073 132.354 183.714 137.124 182.513 141.612C181.312 146.1 178.362 149.958 174.28 152.375C170.198 154.792 165.302 155.581 160.619 154.574L160.614 154.573C152.757 153.037 144.604 154.572 137.936 158.846L137.934 158.847C135.89 160.185 133.585 161.107 131.159 161.557L131.159 161.557C127.112 162.316 122.914 161.744 119.23 159.933C115.546 158.123 112.587 155.177 110.818 151.562C109.05 147.948 108.573 143.871 109.463 139.974C110.353 136.078 112.559 132.584 115.735 130.047ZM190.362 96.8393C190.859 99.265 190.603 101.777 189.626 104.057C188.648 106.337 186.994 108.283 184.87 109.648C182.746 111.014 180.249 111.737 177.695 111.726C175.141 111.715 172.646 110.97 170.524 109.587C168.403 108.203 166.751 106.244 165.776 103.956C164.801 101.669 164.546 99.1555 165.045 96.7335C165.543 94.3114 166.773 92.0888 168.578 90.3473C170.384 88.6057 172.685 87.4239 175.191 86.952C178.55 86.319 182.036 87.0068 184.881 88.8618C187.726 90.7167 189.697 93.5866 190.362 96.8393ZM109.472 104.999C111.276 106.756 112.503 108.988 112.999 111.413C113.665 114.666 112.972 118.038 111.069 120.787C109.167 123.536 106.211 125.438 102.852 126.071C100.346 126.543 97.7504 126.283 95.3921 125.326C93.0339 124.369 91.0197 122.758 89.6035 120.696C88.1873 118.635 87.432 116.216 87.433 113.745C87.4339 111.273 88.191 108.86 89.6096 106.81C91.0283 104.759 93.0449 103.165 95.4048 102.228C97.7648 101.291 100.361 101.054 102.866 101.548C105.37 102.042 107.669 103.243 109.472 104.999ZM127.179 97.073C125.373 98.8146 123.072 99.9964 120.567 100.468C117.207 101.101 113.722 100.414 110.877 98.5585C108.032 96.7036 106.061 93.8337 105.395 90.581C104.899 88.1553 105.155 85.6437 106.132 83.3638C107.109 81.0838 108.764 79.1375 110.888 77.772C113.011 76.4064 115.508 75.6833 118.062 75.6944C120.616 75.7056 123.112 76.4504 125.233 77.8337C127.355 79.217 129.007 81.1766 129.982 83.464C130.957 85.7514 131.211 88.2648 130.713 90.6868C130.214 93.1089 128.985 95.3315 127.179 97.073ZM160.335 90.827C158.529 92.5685 156.228 93.7503 153.723 94.2223C150.363 94.8552 146.877 94.1675 144.032 92.3124C141.188 90.4575 139.217 87.5877 138.551 84.335C138.054 81.9092 138.31 79.3976 139.288 77.1177C140.265 74.8377 141.919 72.8914 144.043 71.5259C146.167 70.1603 148.664 69.4372 151.218 69.4483C153.772 69.4595 156.267 70.2043 158.389 71.5877C160.51 72.971 162.163 74.9305 163.138 77.2179C164.113 79.5053 164.367 82.0187 163.869 84.4408C163.37 86.8629 162.141 89.0855 160.335 90.827Z" fill="#CDDFF3" fill-opacity="0.58" stroke="white" stroke-width="0.476435"/>
<path d="M55.4896 65.8847L55.4896 65.8848L55.4923 65.8845C57.7635 65.6901 59.8329 64.6015 61.2451 62.8549C62.6189 61.1704 64.5221 59.9958 66.6696 59.5091C68.8174 59.0223 71.0931 59.2501 73.1543 60.1591C75.2155 61.0681 76.9496 62.6087 78.0964 64.5484C79.243 66.4878 79.7403 68.721 79.5153 70.9122C79.3967 72.0373 79.5028 73.1828 79.8273 74.2828C80.1383 75.337 80.6438 76.3297 81.3167 77.209L81.3144 77.2147L81.4069 77.3282C82.9526 79.2242 83.7229 81.6141 83.5591 83.9961C83.3952 86.3779 82.3101 88.569 80.5305 90.1105C78.7507 91.6522 76.4133 92.4253 74.0073 92.265C71.6012 92.1046 69.3154 91.0232 67.6297 89.2479L67.6297 89.2478L67.6266 89.2446C64.6997 86.2735 60.7562 84.5344 56.6564 84.4067L56.6541 84.4066C55.4134 84.38 54.1812 84.103 53.0319 83.5924L53.0315 83.5922C51.1114 82.7434 49.5067 81.2911 48.4706 79.4659C47.4346 77.6409 47.0264 75.5478 47.3089 73.5177C47.5914 71.4878 48.5485 69.6352 50.0294 68.2529C51.5104 66.8705 53.4314 66.0365 55.4896 65.8847ZM96.7234 73.3693C96.2462 74.526 95.43 75.5032 94.3771 76.1769C93.3241 76.8506 92.0814 77.1907 90.8058 77.1529C89.5301 77.1151 88.2797 76.7011 87.2129 75.963C86.1461 75.2249 85.3118 74.1966 84.8147 73.0088C84.3177 71.8211 84.1801 70.5275 84.4181 69.2914C84.6562 68.0553 85.2594 66.9312 86.1519 66.0611C87.0444 65.1908 88.1867 64.6132 89.4351 64.4023C90.6836 64.1914 91.9816 64.357 93.1647 64.8787C94.7512 65.5784 96.0164 66.8674 96.6831 68.4602C97.3496 70.0527 97.3633 71.8184 96.7234 73.3693ZM59.9043 53.2895C60.1628 54.5415 60.0456 55.8269 59.5684 56.9836C58.9286 58.5346 57.6866 59.7464 56.1136 60.3513C54.5402 60.9563 52.7647 60.9043 51.1782 60.2046C49.9951 59.6828 48.9811 58.8288 48.2642 57.7512C47.5474 56.6736 47.16 55.4213 47.1497 54.1529C47.1394 52.8846 47.5066 51.6565 48.2047 50.6233C48.9029 49.5901 49.9012 48.7974 51.0743 48.3463C52.2475 47.8951 53.5428 47.806 54.7964 48.0912C56.05 48.3764 57.2045 49.023 58.1139 49.9488C59.0231 50.8746 59.6458 52.0374 59.9043 53.2895ZM69.8204 54.9466C68.572 55.1575 67.274 54.9919 66.0909 54.4702C64.5043 53.7705 63.2391 52.4815 62.5725 50.8887C61.906 49.2962 61.8923 47.5305 62.5321 45.9796C63.0093 44.8229 63.8256 43.8457 64.8785 43.1721C65.9314 42.4983 67.1742 42.1582 68.4498 42.196C69.7254 42.2338 70.9759 42.6478 72.0427 43.3859C73.1094 44.124 73.9437 45.1523 74.4408 46.3401C74.9379 47.5278 75.0755 48.8214 74.8374 50.0575C74.5994 51.2936 73.9962 52.4177 73.1037 53.2879C72.2112 54.1581 71.0688 54.7357 69.8204 54.9466ZM85.744 61.9691C84.4955 62.1799 83.1975 62.0144 82.0145 61.4927C80.4279 60.793 79.1627 59.504 78.4961 57.9112C77.8296 56.3186 77.8159 54.553 78.4557 53.002C78.9329 51.8453 79.7491 50.8682 80.802 50.1945C81.855 49.5208 83.0977 49.1807 84.3733 49.2185C85.649 49.2562 86.8995 49.6703 87.9662 50.4084C89.033 51.1464 89.8673 52.1748 90.3644 53.3626C90.8615 54.5502 90.9991 55.8439 90.761 57.08C90.5229 58.3161 89.9197 59.4402 89.0273 60.3103C88.1347 61.1805 86.9924 61.7582 85.744 61.9691Z" fill="#CDDFF3" fill-opacity="0.58" stroke="white" stroke-width="0.476435"/>
<path d="M98.3143 32.321L98.3143 32.321L98.316 32.3189C99.6584 30.6579 100.275 28.5538 100.028 26.4673C99.7975 24.4548 100.247 22.4152 101.311 20.655C102.375 18.8945 103.995 17.5092 105.929 16.7082C107.863 15.9072 110.004 15.7343 112.031 16.2145C114.057 16.6946 115.859 17.8015 117.167 19.3675C117.839 20.177 118.67 20.8475 119.613 21.3412C120.513 21.8127 121.498 22.1139 122.516 22.2298L122.518 22.2354L122.664 22.2472C124.919 22.4305 127 23.4547 128.474 25.1025C129.947 26.7501 130.699 28.8948 130.573 31.0877C130.446 33.2809 129.45 35.3535 127.79 36.8698C126.131 38.3861 123.938 39.2269 121.673 39.2158L121.673 39.2157L121.668 39.2158C117.797 39.2684 114.087 40.8051 111.348 43.4907L111.346 43.4923C110.528 44.3104 109.549 44.9612 108.468 45.4052L108.468 45.4054C106.666 46.1502 104.667 46.293 102.788 45.8123C100.909 45.3317 99.2577 44.2553 98.0942 42.7548C96.9308 41.2544 96.3204 39.4144 96.3598 37.5254C96.3992 35.6362 97.0863 33.8046 98.3143 32.321ZM129.926 9.34615C130.384 10.413 130.505 11.5921 130.272 12.7347C130.039 13.8774 129.463 14.9327 128.615 15.7664C127.768 16.6002 126.687 17.1743 125.509 17.4158C124.332 17.6573 123.113 17.5552 122.006 17.1235C120.898 16.6919 119.953 15.9501 119.287 14.9929C118.622 14.0356 118.267 12.9051 118.266 11.7437C118.265 10.5822 118.619 9.44129 119.284 8.46555C119.95 7.48973 120.897 6.72337 122.006 6.26407C123.493 5.64811 125.163 5.62847 126.648 6.2074C128.133 6.78621 129.311 7.91571 129.926 9.34615ZM92.7809 21.2008C93.777 21.8344 94.5528 22.7422 95.0113 23.809C95.6259 25.2394 95.6277 26.8563 95.0139 28.3045C94.3999 29.7529 93.2203 30.9137 91.7333 31.5297C90.6245 31.989 89.4047 32.1202 88.2283 31.9074C87.0521 31.6945 85.9727 31.1474 85.1259 30.3364C84.2792 29.5254 83.7025 28.4864 83.4684 27.3506C83.2342 26.2148 83.3529 25.0322 83.8107 23.9522C84.2685 22.8721 85.0449 21.9432 86.0425 21.2839C87.0401 20.6246 88.2132 20.265 89.413 20.2505C90.6129 20.236 91.7848 20.5671 92.7809 21.2008ZM100.29 15.5613C99.6244 16.5371 98.6775 17.3034 97.5687 17.7627C96.0818 18.3787 94.4117 18.3983 92.9266 17.8194C91.4418 17.2406 90.2634 16.1111 89.6488 14.6807C89.1903 13.6138 89.0695 12.4347 89.3023 11.2921C89.5351 10.1494 90.1112 9.09409 90.9591 8.26039C91.8069 7.42664 92.8878 6.85253 94.0649 6.61101C95.242 6.36949 96.4614 6.47158 97.5689 6.90329C98.6762 7.33495 99.6219 8.07671 100.287 9.03396C100.952 9.99117 101.308 11.1217 101.309 12.2831C101.31 13.4446 100.955 14.5855 100.29 15.5613ZM115.253 9.36289C114.588 10.3387 113.641 11.1051 112.532 11.5644C111.045 12.1803 109.375 12.2 107.89 11.621C106.405 11.0422 105.227 9.91273 104.612 8.48229C104.154 7.41545 104.033 6.23634 104.266 5.09372C104.498 3.95099 105.075 2.89572 105.922 2.06202C106.77 1.22828 107.851 0.654164 109.028 0.412641C110.205 0.171125 111.425 0.273216 112.532 0.704918C113.64 1.13658 114.585 1.87834 115.25 2.83559C115.916 3.7928 116.271 4.92338 116.272 6.08477C116.273 7.24624 115.919 8.38715 115.253 9.36289Z" fill="#CDDFF3" fill-opacity="0.58" stroke="white" stroke-width="0.476435"/>
</svg>
