<svg width="24" height="24" viewBox="0 0 24 24" fill="none" xmlns="http://www.w3.org/2000/svg">
<g id="icon">
<path id="Vector" d="M16.4237 12.7981L8.9237 20.2981C8.71236 20.5094 8.42571 20.6282 8.12683 20.6282C7.82794 20.6282 7.5413 20.5094 7.32995 20.2981C7.11861 20.0868 6.99988 19.8001 6.99988 19.5012C6.99988 19.2023 7.11861 18.9157 7.32995 18.7043L14.034 12.0022L7.33183 5.29809C7.22718 5.19345 7.14417 5.06921 7.08754 4.93248C7.0309 4.79576 7.00175 4.64921 7.00175 4.50122C7.00175 4.35323 7.0309 4.20668 7.08754 4.06995C7.14417 3.93323 7.22718 3.80899 7.33183 3.70434C7.43648 3.5997 7.56071 3.51669 7.69744 3.46005C7.83417 3.40342 7.98071 3.37427 8.1287 3.37427C8.2767 3.37427 8.42324 3.40342 8.55997 3.46005C8.6967 3.51669 8.82093 3.5997 8.92558 3.70434L16.4256 11.2043C16.5303 11.309 16.6134 11.4333 16.67 11.5701C16.7266 11.7069 16.7557 11.8535 16.7555 12.0016C16.7554 12.1497 16.726 12.2963 16.669 12.4329C16.6121 12.5696 16.5287 12.6937 16.4237 12.7981Z" fill="#4E5968"/>
</g>
</svg>
