<svg width="50" height="32" viewBox="0 0 50 32" fill="none" xmlns="http://www.w3.org/2000/svg">
<path d="M40.809 0.03125H1.77431C1.30373 0.03125 0.852429 0.218185 0.519682 0.550932C0.186935 0.883679 0 1.33498 0 1.80556V12.4514C0.00530264 15.4721 0.651304 18.4574 1.89535 21.21C3.1394 23.9627 4.9532 26.4201 7.21699 28.4201H1.77431C1.30373 28.4201 0.852429 28.6071 0.519682 28.9398C0.186935 29.2726 0 29.7239 0 30.1945C0 30.665 0.186935 31.1163 0.519682 31.4491C0.852429 31.7818 1.30373 31.9688 1.77431 31.9688H40.809C41.2796 31.9688 41.7309 31.7818 42.0637 31.4491C42.3964 31.1163 42.5833 30.665 42.5833 30.1945C42.5833 29.7239 42.3964 29.2726 42.0637 28.9398C41.7309 28.6071 41.2796 28.4201 40.809 28.4201H35.3663C38.0837 26.0117 40.1443 22.9521 41.3546 19.5287C43.6082 19.3898 45.7241 18.3969 47.2711 16.7522C48.8181 15.1076 49.6798 12.935 49.6806 10.6771V8.90278C49.6806 6.5499 48.7459 4.29339 47.0821 2.62966C45.4184 0.965925 43.1619 0.03125 40.809 0.03125ZM46.1319 10.6771C46.1312 11.825 45.7593 12.9419 45.0718 13.8612C44.3843 14.7805 43.4181 15.453 42.3172 15.7782C42.493 14.678 42.582 13.5656 42.5833 12.4514V3.88593C43.6209 4.25275 44.5192 4.93213 45.1547 5.83056C45.7902 6.729 46.1316 7.80231 46.1319 8.90278V10.6771Z" fill="white"/>
</svg>
