<svg width="12" height="12" viewBox="0 0 12 12" fill="none" xmlns="http://www.w3.org/2000/svg">
<g id="Heart">
<path id="Vector" d="M10.7725 4.89205C10.7725 7.875 6.34964 10.2895 6.16128 10.3892C6.11164 10.4159 6.05615 10.4299 5.99978 10.4299C5.94341 10.4299 5.88792 10.4159 5.83827 10.3892C5.64992 10.2895 1.22705 7.875 1.22705 4.89205C1.22784 4.19157 1.50645 3.52002 2.00176 3.02471C2.49707 2.5294 3.16862 2.25079 3.8691 2.25C4.74907 2.25 5.51952 2.62841 5.99978 3.26804C6.48003 2.62841 7.25049 2.25 8.13046 2.25C8.83093 2.25079 9.50249 2.5294 9.9978 3.02471C10.4931 3.52002 10.7717 4.19157 10.7725 4.89205Z" fill="white"/>
</g>
</svg>
