<svg width="51" height="32" viewBox="0 0 51 32" fill="none" xmlns="http://www.w3.org/2000/svg">
<g clip-path="url(#clip0_1188_14287)">
<path d="M41.4897 0.03125H2.45497C1.98439 0.03125 1.53309 0.218185 1.20035 0.550932C0.867599 0.883679 0.680664 1.33498 0.680664 1.80556V12.4514C0.685967 15.4721 1.33197 18.4574 2.57602 21.21C3.82007 23.9627 5.63386 26.4201 7.89765 28.4201H2.45497C1.98439 28.4201 1.53309 28.6071 1.20035 28.9398C0.867599 29.2726 0.680664 29.7239 0.680664 30.1945C0.680664 30.665 0.867599 31.1163 1.20035 31.4491C1.53309 31.7818 1.98439 31.9688 2.45497 31.9688H41.4897C41.9603 31.9688 42.4116 31.7818 42.7443 31.4491C43.0771 31.1163 43.264 30.665 43.264 30.1945C43.264 29.7239 43.0771 29.2726 42.7443 28.9398C42.4116 28.6071 41.9603 28.4201 41.4897 28.4201H36.047C38.7644 26.0117 40.825 22.9521 42.0353 19.5287C44.2889 19.3898 46.4048 18.3969 47.9517 16.7522C49.4987 15.1076 50.3604 12.935 50.3612 10.6771V8.90278C50.3612 6.5499 49.4265 4.29339 47.7628 2.62966C46.0991 0.965925 43.8426 0.03125 41.4897 0.03125ZM46.8126 10.6771C46.8118 11.825 46.44 12.9419 45.7525 13.8612C45.065 14.7805 44.0987 15.453 42.9979 15.7782C43.1737 14.678 43.2627 13.5656 43.264 12.4514V3.88593C44.3015 4.25275 45.1999 4.93213 45.8354 5.83056C46.4709 6.729 46.8123 7.80231 46.8126 8.90278V10.6771Z" fill="white"/>
</g>
<g clip-path="url(#clip1_1188_14287)">
<path d="M41.4897 0.03125H2.45497C1.98439 0.03125 1.53309 0.218185 1.20035 0.550932C0.867599 0.883679 0.680664 1.33498 0.680664 1.80556V12.4514C0.685967 15.4721 1.33197 18.4574 2.57602 21.21C3.82007 23.9627 5.63386 26.4201 7.89765 28.4201H2.45497C1.98439 28.4201 1.53309 28.6071 1.20035 28.9398C0.867599 29.2726 0.680664 29.7239 0.680664 30.1945C0.680664 30.665 0.867599 31.1163 1.20035 31.4491C1.53309 31.7818 1.98439 31.9688 2.45497 31.9688H41.4897C41.9603 31.9688 42.4116 31.7818 42.7443 31.4491C43.0771 31.1163 43.264 30.665 43.264 30.1945C43.264 29.7239 43.0771 29.2726 42.7443 28.9398C42.4116 28.6071 41.9603 28.4201 41.4897 28.4201H36.047C38.7644 26.0117 40.825 22.9521 42.0353 19.5287C44.2889 19.3898 46.4048 18.3969 47.9517 16.7522C49.4987 15.1076 50.3604 12.935 50.3612 10.6771V8.90278C50.3612 6.5499 49.4265 4.29339 47.7628 2.62966C46.0991 0.965925 43.8426 0.03125 41.4897 0.03125ZM46.8126 10.6771C46.8118 11.825 46.44 12.9419 45.7525 13.8612C45.065 14.7805 44.0987 15.453 42.9979 15.7782C43.1737 14.678 43.2627 13.5656 43.264 12.4514V3.88593C44.3015 4.25275 45.1999 4.93213 45.8354 5.83056C46.4709 6.729 46.8123 7.80231 46.8126 8.90278V10.6771Z" fill="white" fill-opacity="0.5"/>
</g>
<defs>
<clipPath id="clip0_1188_14287">
<rect width="22" height="31.9375" fill="white" transform="translate(0.680664 0.03125)"/>
</clipPath>
<clipPath id="clip1_1188_14287">
<rect width="49.6806" height="31.9375" fill="white" transform="translate(0.680664 0.03125)"/>
</clipPath>
</defs>
</svg>
