<svg width="186" height="153" viewBox="0 0 186 153" fill="none" xmlns="http://www.w3.org/2000/svg">
<g clip-path="url(#clip0_1188_20387)">
<path d="M120.461 67.4455C118.068 64.4809 120.783 64.3883 122.393 59.9877C123.13 57.9032 125.108 55.9114 126.121 53.2247C126.949 51.0013 127.455 48.4536 128.421 45.9522C129.296 43.6824 129.71 41.0421 130.722 38.6334C131.734 36.2246 132.563 33.9085 133.575 31.5461C134.587 29.1837 136.52 27.2845 137.578 24.9684C138.637 22.6524 139.465 20.151 140.615 17.9739C141.858 15.5651 142.732 13.1101 143.974 11.1182C145.447 8.66318 147.196 6.71766 148.576 5.00376C150.739 2.36342 152.763 0.139973 154.558 0.00100765C156.353 -0.137958 157.641 2.68767 159.113 6.30077C159.942 8.33893 160.448 10.8403 161.184 13.7123C161.782 16.0283 163.071 18.3908 163.623 21.1237C164.083 23.5325 164.957 26.0802 165.372 28.7205C165.74 31.2219 165.878 33.8159 166.246 36.4562C166.614 39.0966 165.602 41.7369 165.878 44.3309C166.154 46.925 167.764 49.3337 168.04 51.9277C168.317 54.5217 167.396 57.2547 167.626 59.8024C167.856 62.3501 168.04 65.0368 168.271 67.5845C168.501 70.2711 169.329 72.8188 169.513 75.3202C169.697 78.0995 170.341 80.6472 170.525 83.0559C170.709 85.9742 170.433 88.6146 170.525 90.838C170.801 95.7018 174.897 98.3884 171.077 97.7863C167.258 97.1841 167.902 96.4893 164.727 94.5437C161.552 92.5982 161.828 92.2276 158.653 90.2821C155.478 88.3366 154.788 89.4947 151.659 87.5491C148.53 85.6036 148.576 85.511 145.401 83.5655C142.226 81.62 142.778 80.7862 139.603 78.8407C136.428 76.8951 136.75 76.3856 133.575 74.4401C130.4 72.4946 130.262 72.5872 126.903 71.0123C123.544 69.4373 122.715 70.2711 120.415 67.3992L120.461 67.4455Z" fill="#0E7AF5"/>
<path d="M93.0428 63.757C86.7847 63.5254 88.0732 62.6916 80.5727 63.1085C76.8915 63.3401 72.474 62.2284 67.9185 62.8306C63.9612 63.3864 60.326 66.7216 56.0926 67.7407C51.8592 68.7597 47.3037 67.4627 43.3924 68.945C39.4811 70.4273 36.6282 74.272 33.085 76.4028C29.5418 78.5336 25.5385 80.2012 22.7776 83.2585C20.0167 86.3157 17.5779 89.7435 15.9673 93.7735C14.5409 97.3866 14.4488 101.463 13.3445 105.169C12.2401 108.874 11.4578 112.673 10.6756 116.425C9.89333 120.177 6.99437 123.836 6.58023 127.635C6.1661 131.433 8.0067 135.648 8.0067 139.4C8.0067 143.477 7.73061 147.275 8.28279 150.981C8.92701 155.011 8.6049 159.18 10.0314 162.608C11.5499 166.36 14.0807 169.602 16.6115 172.382C19.1424 175.161 21.9033 178.82 25.5845 180.442C31.2904 182.758 30.2781 181.507 37.5485 183.73C40.9076 184.749 45.049 185.444 49.5124 186.602C53.1936 187.529 57.6111 186.602 61.8445 187.529C65.6638 188.316 69.345 191.142 73.5324 191.79C77.4897 192.393 81.8151 190.771 85.9565 191.188C90.0978 191.605 93.9171 193.319 98.0585 193.412C102.2 193.504 106.203 193.273 110.345 193.041C114.486 192.809 118.443 191.883 122.447 191.281C126.45 190.679 130.499 190.123 134.456 189.011C138.414 187.899 142.739 187.76 146.466 186.093C150.194 184.425 153.461 181.97 156.544 180.117C160.225 177.94 162.94 175.161 165.609 172.845C168.876 170.065 170.532 166.73 172.557 163.812C174.95 160.384 178.217 157.929 179.229 154.362C180.334 150.564 180.656 146.627 180.702 142.736C180.748 138.845 178.907 135.185 178.355 131.294C177.803 127.403 177.343 123.605 176.652 119.76C175.962 115.915 174.858 112.024 174.398 108.226C173.938 104.057 173.385 100.166 171.131 96.4602C169.06 93.0324 167.265 88.9097 163.952 85.9451C160.961 83.2585 157.648 80.2939 153.875 77.9778C150.378 75.847 145.546 76.0323 141.589 74.272C137.632 72.5118 134.641 68.9914 130.591 67.6943C126.542 66.3973 121.94 67.5091 117.845 66.5826C113.75 65.6562 109.746 64.2665 105.605 63.757C101.464 63.2475 97.1382 63.8033 93.0428 63.757Z" fill="#4C9BF4"/>
<path d="M107.594 132.067C113.07 127.473 128.306 118.885 145.433 121.291" stroke="white" stroke-width="5.15551" stroke-linecap="round"/>
<path d="M67.5322 67.8144C69.925 64.8498 66.6579 64.4329 65.0474 60.0324C64.3111 57.9479 62.8847 55.7244 61.8723 53.0841C61.0441 50.8606 60.86 48.174 59.8937 45.6726C59.0194 43.4028 57.2248 41.3184 56.2585 38.9096C55.2922 36.5009 54.878 33.9532 53.8657 31.6371C52.8533 29.321 50.6906 27.4681 49.6323 25.1984C48.5739 22.9286 47.9297 20.2883 46.7793 18.1111C45.5369 15.7024 45.0308 13.0621 43.8344 11.0239C42.3619 8.56886 39.9691 7.08656 38.5886 5.37265C36.4259 2.73231 34.7234 1.06473 32.9288 0.925762C31.1342 0.786797 29.9838 2.77863 28.5113 6.34541C27.683 8.38357 26.4866 10.6997 25.7964 13.5716C25.1982 15.8877 25.0141 18.528 24.508 21.261C24.0478 23.6698 22.6674 26.1248 22.2532 28.7652C21.8851 31.2665 22.6214 33.9995 22.2532 36.6399C21.8851 39.2802 21.1949 41.6889 20.9188 44.3293C20.6427 46.9696 19.6764 49.4247 19.4463 52.0187C19.2162 54.6127 19.9525 57.3457 19.7224 59.8934C19.4923 62.4411 18.1579 65.0351 17.9278 67.5828C17.6977 70.2695 18.388 72.9561 18.2039 75.4575C18.0198 78.2368 18.388 80.8772 18.2039 83.2859C18.0198 86.2042 17.6977 88.7982 17.5597 91.0216C17.2836 95.8854 12.8201 99.8228 16.6394 99.2206C20.4586 98.6184 19.5844 96.5802 22.7134 94.6347C25.8424 92.6892 26.3026 93.384 29.4316 91.4385C32.5606 89.493 32.7447 89.7246 35.8737 87.7791C39.0028 85.8336 39.0028 85.8336 42.1778 83.8418C45.3529 81.8499 44.8467 81.0624 47.9757 79.1169C51.1048 77.1714 51.3809 77.5883 54.5559 75.6428C57.731 73.6973 57.5009 73.4657 60.952 72.0297C64.5872 70.5011 65.1394 70.7327 67.4862 67.8607L67.5322 67.8144Z" fill="#4C9BF4"/>
<mask id="mask0_1188_20387" style="mask-type:alpha" maskUnits="userSpaceOnUse" x="6" y="62" width="175" height="132">
<path d="M93.0741 63.6017C86.816 63.3701 88.1044 62.5363 80.6039 62.9532C76.9227 63.1848 72.5053 62.0731 67.9498 62.6753C63.9924 63.2311 60.3572 66.5663 56.1238 67.5854C51.8904 68.6045 47.3349 67.3075 43.4237 68.7898C39.5124 70.2721 36.6594 74.1168 33.1162 76.2476C29.5731 78.3784 25.5697 80.046 22.8088 83.1032C20.0479 86.1604 17.6091 89.5882 15.9986 93.6182C14.5721 97.2313 14.4801 101.308 13.3757 105.013C12.2714 108.719 11.4891 112.518 10.7068 116.27C9.92458 120.022 7.02562 123.681 6.61148 127.479C6.19735 131.278 8.03795 135.493 8.03795 139.245C8.03795 143.321 7.76186 147.12 8.31404 150.826C8.95826 154.856 8.63615 159.025 10.0626 162.452C11.5811 166.204 14.112 169.447 16.6428 172.226C19.1736 175.006 21.9345 178.665 25.6158 180.286C31.3216 182.602 30.3093 181.352 37.5797 183.575C40.9388 184.594 45.0802 185.289 49.5437 186.447C53.2249 187.373 57.6423 186.447 61.8757 187.374C65.695 188.161 69.3762 190.987 73.5636 191.635C77.5209 192.237 81.8463 190.616 85.9877 191.033C90.1291 191.45 93.9483 193.164 98.0897 193.256C102.231 193.349 106.234 193.117 110.376 192.886C114.517 192.654 118.474 191.728 122.478 191.126C126.481 190.523 130.53 189.968 134.488 188.856C138.445 187.744 142.77 187.605 146.498 185.938C150.225 184.27 153.492 181.815 156.575 179.962C160.256 177.785 162.971 175.006 165.64 172.689C168.907 169.91 170.564 166.575 172.588 163.657C174.981 160.229 178.248 157.774 179.261 154.207C180.365 150.409 180.687 146.471 180.733 142.58C180.779 138.689 178.938 135.03 178.386 131.139C177.834 127.248 177.374 123.449 176.684 119.605C175.993 115.76 174.889 111.869 174.429 108.071C173.969 103.902 173.417 100.011 171.162 96.3049C169.091 92.8771 167.297 88.7544 163.983 85.7899C160.993 83.1032 157.679 80.1386 153.906 77.8225C150.409 75.6917 145.577 75.877 141.62 74.1168C137.663 72.3565 134.672 68.8361 130.622 67.5391C126.573 66.2421 121.972 67.3538 117.876 66.4274C113.781 65.5009 109.778 64.1113 105.636 63.6017C101.495 63.0922 97.1694 63.648 93.0741 63.6017Z" fill="#267EE2"/>
</mask>
<g mask="url(#mask0_1188_20387)">
<ellipse cx="63.1461" cy="75.6363" rx="63.1461" ry="75.6363" transform="matrix(0.936922 0.349538 -0.34548 0.938426 9.44531 5.06934)" fill="#0E7AF5"/>
<path fill-rule="evenodd" clip-rule="evenodd" d="M77.7127 89.3594C85.0505 95.3547 97.8301 91.7422 106.257 81.2908C114.683 70.8393 115.566 57.5066 108.228 51.5114C100.89 45.5161 88.1104 49.1286 79.6839 59.58C71.2574 70.0315 70.3748 83.3642 77.7127 89.3594ZM82.6439 82.1885C84.5669 75.3601 91.1027 64.0593 102.204 58.274C102.543 58.0976 102.904 58.4275 102.749 58.7762C99.7517 65.5102 91.4606 77.7365 83.2193 82.6265C82.9093 82.8105 82.5461 82.5355 82.6439 82.1885Z" fill="#FFEFB1"/>
<path d="M79.7031 131.984C74.2264 127.39 58.9911 118.802 41.8639 121.208" stroke="white" stroke-width="5.15551" stroke-linecap="round"/>
<path d="M80.7031 125.466C74.4796 120.539 68.7539 117.531 62.2814 116.278" stroke="white" stroke-width="2.29134" stroke-linecap="round"/>
<path d="M105.602 126.469C111.825 121.541 117.551 118.534 124.023 117.281" stroke="white" stroke-width="2.29134" stroke-linecap="round"/>
</g>
</g>
<defs>
<clipPath id="clip0_1188_20387">
<rect width="186" height="153" fill="white"/>
</clipPath>
</defs>
</svg>
