<?xml version="1.0" encoding="UTF-8"?><svg id="_레이어_1" xmlns="http://www.w3.org/2000/svg" xmlns:xlink="http://www.w3.org/1999/xlink" viewBox="0 0 141.46 187.29"><defs><style>.cls-1{fill:none;}.cls-2{fill:#ffefb1;}.cls-3{fill:#f9eab0;}.cls-4{fill:#ffc7d0;}.cls-5{clip-path:url(#clippath-1);}.cls-6{fill:#1e7cd8;}.cls-7{fill:#fff;}.cls-8{fill:#f4dc8a;}.cls-9{fill:#1571bc;}.cls-10{fill:#bfa762;}.cls-11{clip-path:url(#clippath);}</style><clipPath id="clippath"><path class="cls-1" d="M66.69,38.37c-4.46-.15-3.69-1.79-8.96-1.41-2.63.19-5.76.52-8.95,1.05-2.83.47-5.79,1.52-8.7,2.39s-5.19,3.12-7.8,4.46c-2.7,1.39-5.92,2.03-8.01,4.07s-4.37,4.55-5.49,7.4-1.69,6.18-2.51,9.2-1.74,6.21-2.19,9.26c-.48,3.22.96,6.49.96,9.52,0,3.32-1.57,6.71-.91,9.6.75,3.27,3.27,5.75,4.97,8.19,1.81,2.59,4.2,4.01,7.21,5.31,3.85,1.6,2.72,1.71,7.62,3.23,2.29.71,4.96,1.56,7.98,2.32,2.51.63,5,2.41,7.89,2.97,2.62.51,5.66-.68,8.49-.31s5.4,1,8.21,1.17,5.5.12,8.29.05,5.5-.33,8.24-.7,5.5-.62,8.16-1.36,5.22-1.78,7.72-2.97c3.08-1.46,6.34-2.06,8.56-3.7,2.75-2.03,5.25-4.22,6.91-6.46,1.95-2.63,3.25-5.76,4.07-8.6.85-2.96.36-6.26.39-9.35.03-3.05-1.15-6.02-1.51-9.09-.36-3.08.75-6.33.41-9.33s-1.25-6.09-2.96-8.6c-1.55-2.28-4.98-3.14-7.42-5.07-2.18-1.73-3.95-4.34-6.66-5.76-2.51-1.32-5.23-2.61-8.05-3.64-2.71-.99-5.69-1.41-8.56-2.12s-5.79-.95-8.67-1.35-5.88-.33-8.73-.39Z"/></clipPath><clipPath id="clippath-1"><path class="cls-1" d="M66.69,38.37c-4.46-.15-3.69-1.79-8.96-1.41-2.63.19-5.76.52-8.95,1.05-2.83.47-5.79,1.52-8.7,2.39s-5.19,3.12-7.8,4.46c-2.7,1.39-5.92,2.03-8.01,4.07s-4.37,4.55-5.49,7.4-1.69,6.18-2.51,9.2-1.74,6.21-2.19,9.26c-.48,3.22.96,6.49.96,9.52,0,3.32-1.57,6.71-.91,9.6.75,3.27,3.27,5.75,4.97,8.19,1.81,2.59,4.2,4.01,7.21,5.31,3.85,1.6,2.72,1.71,7.62,3.23,2.29.71,4.96,1.56,7.98,2.32,2.51.63,5,2.41,7.89,2.97,2.62.51,5.66-.68,8.49-.31s5.4,1,8.21,1.17,5.5.12,8.29.05,5.5-.33,8.24-.7,5.5-.62,8.16-1.36,5.22-1.78,7.72-2.97c3.08-1.46,6.34-2.06,8.56-3.7,2.75-2.03,5.25-4.22,6.91-6.46,1.95-2.63,3.25-5.76,4.07-8.6.85-2.96.36-6.26.39-9.35.03-3.05-1.15-6.02-1.51-9.09-.36-3.08.75-6.33.41-9.33s-1.25-6.09-2.96-8.6c-1.55-2.28-4.98-3.14-7.42-5.07-2.18-1.73-3.95-4.34-6.66-5.76-2.51-1.32-5.23-2.61-8.05-3.64-2.71-.99-5.69-1.41-8.56-2.12s-5.79-.95-8.67-1.35-5.88-.33-8.73-.39Z"/></clipPath></defs><path class="cls-3" d="M114.17,141.51s7.65-6.89,10.87-1.65.2,13.44-4.51,16.76c-4.71,3.32-15.32,1.67-15.32,1.67l-1.91,6.88s14.69,2.59,22.7-5.1c8.01-7.68,9.62-15.74,5.18-24.4-4.29-8.37-16.54-1.57-16.54-1.57l-.47,7.41Z"/><path class="cls-8" d="M18.67,128.02c.51,2.7,1.71,8.71,2.97,13.11.24.85,1.01,1.32,1.85,1.6,5.58,1.88,25.32,5.27,46.92,4.82,23.87-.49,36.87-2.46,47.8-5.29.83-.21,1.51-.77,1.75-1.59.72-2.5,2.15-8.1,2.22-12.85.01-.78-.37-1.52-1.03-1.94-3.5-2.25-16.79-8.95-50.86-9.05-33.29-.1-46.75,6.43-50.62,8.87-.78.49-1.18,1.41-1.01,2.32Z"/><path class="cls-10" d="M23.96,127.97c-.63-.14-.7-1.01-.11-1.25,4.95-2.02,20.19-7.19,46.44-7.15,26.2.04,42.09,5.06,47.33,7.04.61.23.55,1.12-.09,1.26-5.81,1.29-23.66,4.75-47.24,4.75s-40.81-3.4-46.34-4.65Z"/><path class="cls-9" d="M50.34,112.49c-3.21,1.08-.88,2.18-2.21,6.04-.65,1.87-2.07,3.84-2.8,6.22-.64,2.06-.47,4.49-1.07,6.75s-1.42,4.31-1.87,6.51-1,4.52-1.23,6.67c-.27,2.45-.48,4.77-.31,6.79.22,2.69.84,5.12,2.14,6.51s3.27,2.35,5.41,3.38c1.75.85,3.73,1.7,5.9,2.3,1.94.54,4.08.74,6.24,1.06,2.04.3,4.16.14,6.3.24s4.21.77,6.32.65,4.22-.63,6.26-.99,4.07-1.23,6.01-1.89c2.07-.71,3.91-1.61,5.63-2.66,1.87-1.14,3.85-2.02,5.17-3.59s1.83-3.74,2.19-6.26c.28-2,.08-4.23-.07-6.62-.14-2.12-.22-4.35-.63-6.61s-1.21-4.26-1.77-6.41-.61-4.53-1.29-6.55c-.77-2.27-1.46-4.46-2.26-6.29-1.14-2.61-2.63-4.4-3.57-5.55-3.18-.49-3.2.27-6.42.27s-3.22-.13-6.44-.13c-3.22,0-3.22-.77-6.44-.77-3.22,0-3.22.79-6.44.79-3.22,0-3.2-.48-6.41-.68s-3.28-.18-6.33.85Z"/><path class="cls-6" d="M92.86,143.24c1.28-3.42,3.39-.44,6.9-2.91,1.73-1.21,3.68-2.84,5.34-5.04,1.32-1.75,2.61-3.92,3.55-6.45.77-2.07,1.18-4.51,1.5-7.18.28-2.28.63-4.34,1.21-6.19.69-2.21,1.18-4.36,2.19-5.99,1.22-2,3.13-3.19,4.59-4.4,1.86-1.52,3.62-2.85,5.42-3.23,2.48-.51,4.91.08,6.15,1.44,1.97,2.15,2.05,4.43.99,6-1.04,1.53-3.54,2.27-5.25,3.36-1.54.98-2.7,2.86-3.91,4.77-1.04,1.64-1.64,3.64-2.44,5.59s-1.93,3.73-2.48,5.61c-.65,2.2-1.14,4.28-1.48,5.96-.32,1.57-1.04,3.55-2.19,5.62-.93,1.67-2.21,3.26-3.62,4.82s-2.91,2.69-4.66,3.74c-1.71,1.03-3.43,2.1-5.5,2.4-1.88.27-3.94.17-6.08-.39-2.4-2.99-1.51-4.08-.21-7.55Z"/><path class="cls-3" d="M22.06,136.13s2.77,24.18,12.68,37.47c9.91,13.3,35.78,14.23,44.39,13.51s24.29-5.51,29.46-13.37c5.59-8.51,10.72-31.28,10.98-39.39l-97.5,1.78Z"/><path class="cls-8" d="M18.67,128.02s.49-.94,1.72-.81,24.05,5.83,52.11,5.41c28.06-.42,45.85-5.53,48.29-5.42,2.44.11-.35,11.68-.35,11.68,0,0-.04,3.59-4.59,3.98-4.54.39-17.16,4.53-43.55,4.66s-42.48-2.99-47.44-4.36c0,0-2.81-.51-3.23-2.01s-2.97-13.11-2.97-13.11Z"/><circle class="cls-4" cx="125.46" cy="30.2" r="5.9"/><circle class="cls-4" cx="135.25" cy="33.75" r="5.9"/><circle class="cls-4" cx="127.7" cy="39.65" r="5.9"/><circle class="cls-7" cx="129.35" cy="34.54" r="2.67"/><circle class="cls-4" cx="6.29" cy="108.78" r="4.88"/><circle class="cls-4" cx="12.56" cy="114.7" r="4.88"/><circle class="cls-4" cx="4.88" cy="116.7" r="4.88"/><circle class="cls-7" cx="7.67" cy="113.67" r="2.66"/><path class="cls-6" d="M66.69,38.37c-4.46-.15-3.69-1.79-8.96-1.41-2.63.19-5.76.52-8.95,1.05-2.83.47-5.79,1.52-8.7,2.39s-5.19,3.12-7.8,4.46c-2.7,1.39-5.92,2.03-8.01,4.07s-4.37,4.55-5.49,7.4-1.69,6.18-2.51,9.2-1.74,6.21-2.19,9.26c-.48,3.22.96,6.49.96,9.52,0,3.32-1.57,6.71-.91,9.6.75,3.27,3.27,5.75,4.97,8.19,1.81,2.59,4.2,4.01,7.21,5.31,3.85,1.6,2.72,1.71,7.62,3.23,2.29.71,4.96,1.56,7.98,2.32,2.51.63,5,2.41,7.89,2.97,2.62.51,5.66-.68,8.49-.31s5.4,1,8.21,1.17,5.5.12,8.29.05,5.5-.33,8.24-.7,5.5-.62,8.16-1.36,5.22-1.78,7.72-2.97c3.08-1.46,6.34-2.06,8.56-3.7,2.75-2.03,5.25-4.22,6.91-6.46,1.95-2.63,3.25-5.76,4.07-8.6.85-2.96.36-6.26.39-9.35.03-3.05-1.15-6.02-1.51-9.09-.36-3.08.75-6.33.41-9.33s-1.25-6.09-2.96-8.6c-1.55-2.28-4.98-3.14-7.42-5.07-2.18-1.73-3.95-4.34-6.66-5.76-2.51-1.32-5.23-2.61-8.05-3.64-2.71-.99-5.69-1.41-8.56-2.12s-5.79-.95-8.67-1.35-5.88-.33-8.73-.39Z"/><g class="cls-11"><ellipse class="cls-4" cx="21.15" cy="90.53" rx="16.7" ry="9.87"/></g><g class="cls-5"><ellipse class="cls-4" cx="110.41" cy="90.53" rx="16.7" ry="9.87"/></g><path class="cls-2" d="M69.81,38.27c-.57.91-1.06,1.8-1.61,2.54-.66.88-1.48,1.48-2.09,2.15-.77.84-1.2,1.84-1.86,2.39-1,.84-1.98,1.21-2.58,1.57-.27.16-.74-.17-.63-.46.44-1.08.85-2.08,1.28-2.98.5-1.04,1.17-1.9,1.69-2.77.58-.95,1.15-1.8,1.81-2.63-1.18-.16-2.14-.31-3.04-.55-1.04-.29-1.93-.92-2.98-1.02-.9-.08-2.05.02-3.25.31-.42.99-.74,2.15-.98,3.18s-.11,2.16-.16,3.2c-.05,1.1-.28,2.19-.11,3.2.18,1.11.43,2.22.89,3.12.5.99,1.31,1.82,2.15,2.44.9.66,1.97,1.16,3.08,1.36,1.05.19,2.16-.19,3.3-.39,1.04-.18,2.23-.11,3.29-.59.97-.44,1.79-1.27,2.73-1.94.87-.62,1.63-1.41,2.44-2.22.76-.76,1.57-1.51,2.24-2.43.78-1.06,1.36-2.26,1.81-3.49.48-1.3,1.07-2.68,1.38-3.85-.96-.37-2.12-.33-3.03-.44-1.05-.12-2.02-.18-2.88-.1-1.43.14-2.54.31-2.91.4Z"/><path class="cls-6" d="M50.53,40.61c1.92-2.68-.44-2.32-1.82-6.05-.67-1.81-1.72-3.81-2.6-6.07-.76-1.95-1.46-4.08-2.33-6.17s-1.86-4-2.77-5.99c-.95-2.07-1.39-4.35-2.37-6.2-1.13-2.15-2.9-3.72-4-5.3-1.75-2.51-3.2-3.98-4.63-4.11-1.3-.12-1.88,1.62-2.89,4.74-.55,1.7-2,3.53-2.47,5.87-.39,1.92.09,4.16-.25,6.37-.31,2.01-1.55,3.98-1.82,6.13s.35,4.27.14,6.38-1.12,4.15-1.3,6.23.11,4.31-.05,6.34c-.17,2.22-.27,4.34-.4,6.31-.16,2.36-.83,4.46-.93,6.28-.22,3.89-3.07,6.78.02,6.13,3.03-.64,2.75-1.32,5.31-3.06s2.7-1.53,5.26-3.27,2.09-2.42,4.65-4.17,2.62-1.65,5.18-3.39c2.56-1.74,2.47-1.91,5.16-3.45s3.11-1.04,4.91-3.55Z"/><path class="cls-6" d="M82.65,43.6c-2.09-2.81.6-2.69,2.04-6.66.7-1.92,1.78-4.07,2.7-6.47.8-2.08,2.12-4.09,3.04-6.32.88-2.15,1.42-4.48,2.36-6.6s2.24-4.22,3.25-6.2c1.17-2.3,1.59-4.82,2.72-6.53,1.83-2.75,3.92-4.68,5.36-4.82,1.31-.12,2.32,2.28,3.33,5.5.55,1.74.7,3.92,1.17,6.31.39,1.96,1.13,4.02,1.47,6.28.3,2.05.27,4.23.53,6.43s1.54,4.14,1.75,6.3c.22,2.15-.57,4.4-.39,6.52s.63,4.33.79,6.41c.17,2.26.65,4.41.78,6.41.16,2.41.57,4.57.67,6.43.22,3.97,3.11,6.6-.08,6.13s-2.91-.89-5.54-2.51-2.21-2.29-4.84-3.9-2.68-1.54-5.3-3.15c-2.62-1.62-2.93-1.12-5.55-2.74s-2.22-2.34-5.01-3.65-3.42-.68-5.26-3.16Z"/><path class="cls-7" d="M58.61,77.88c-.18,0-.37-.05-.53-.17-5-3.48-11.02-3.64-15.18-3.16-4.58.53-8.01,1.93-8.04,1.94-.48.2-1.02-.03-1.22-.51s.03-1.02.51-1.22c.15-.06,3.66-1.5,8.49-2.06,6.45-.76,12.16.44,16.52,3.47.42.29.53.88.23,1.3-.18.26-.47.4-.77.4Z"/><path class="cls-7" d="M76.02,78.19c-.3,0-.59-.14-.77-.4-.29-.42-.19-1.01.23-1.3,4.35-3.03,10.06-4.23,16.52-3.47,4.83.57,8.34,2,8.49,2.06.48.2.7.74.51,1.22-.2.48-.74.7-1.22.51-.03-.01-3.46-1.41-8.04-1.94-4.17-.48-10.18-.32-15.18,3.16-.16.11-.35.17-.53.17Z"/><path class="cls-7" d="M76.02,74.2c-.14,0-.28-.06-.37-.18-.16-.2-.12-.5.08-.65.19-.14,4.65-3.53,10.51-3.37.26,0,.46.22.45.48,0,.26-.22.46-.48.45-5.53-.15-9.87,3.14-9.92,3.17-.08.07-.18.1-.28.1Z"/><path class="cls-7" d="M58.61,73.65c-.1,0-.2-.03-.28-.1-.04-.03-4.4-3.32-9.92-3.17-.25,0-.47-.2-.48-.45s.2-.47.45-.48c5.87-.16,10.33,3.22,10.51,3.37.2.16.24.45.08.65-.09.12-.23.18-.37.18Z"/></svg>