<svg width="20" height="20" viewBox="0 0 20 20" fill="none" xmlns="http://www.w3.org/2000/svg">
<path d="M9.99984 18.3337C8.49984 18.3337 7.11095 17.9587 5.83317 17.2087C4.55539 16.4587 3.5415 15.4448 2.7915 14.167C2.0415 12.8892 1.6665 11.5003 1.6665 10.0003C1.6665 8.50032 2.0415 7.11144 2.7915 5.83366C3.5415 4.54199 4.55539 3.5281 5.83317 2.79199C7.11095 2.04199 8.49984 1.66699 9.99984 1.66699C11.4998 1.66699 12.8887 2.04199 14.1665 2.79199C15.4582 3.5281 16.4721 4.54199 17.2082 5.83366C17.9582 7.11144 18.3332 8.50032 18.3332 10.0003C18.3332 11.5003 17.9582 12.8892 17.2082 14.167C16.4721 15.4448 15.4582 16.4587 14.1665 17.2087C12.8887 17.9587 11.4998 18.3337 9.99984 18.3337ZM9.99984 16.667C11.2359 16.667 12.3609 16.3753 13.3748 15.792C14.4026 15.2087 15.2082 14.41 15.7915 13.3962C16.3748 12.3684 16.6665 11.2364 16.6665 10.0003C16.6665 8.76421 16.3748 7.63921 15.7915 6.62532C15.2082 5.59755 14.4026 4.79199 13.3748 4.20866C12.3609 3.62532 11.2359 3.33366 9.99984 3.33366C8.76373 3.33366 7.63178 3.62532 6.604 4.20866C5.59012 4.79199 4.7915 5.59755 4.20817 6.62532C3.62484 7.63921 3.33317 8.76421 3.33317 10.0003C3.33317 11.2364 3.62484 12.3684 4.20817 13.3962C4.7915 14.41 5.59012 15.2087 6.604 15.792C7.63178 16.3753 8.76373 16.667 9.99984 16.667ZM9.1665 9.16699C9.1665 8.81977 9.30539 8.58366 9.58317 8.45866C9.86095 8.31977 10.1387 8.31977 10.4165 8.45866C10.6943 8.58366 10.8332 8.81977 10.8332 9.16699V14.167C10.8332 14.5142 10.6943 14.7573 10.4165 14.8962C10.1387 15.0212 9.86095 15.0212 9.58317 14.8962C9.30539 14.7573 9.1665 14.5142 9.1665 14.167V9.16699ZM11.2498 6.25032C11.2498 6.59755 11.1248 6.89616 10.8748 7.14616C10.6387 7.38227 10.3471 7.50032 9.99984 7.50032C9.65261 7.50032 9.354 7.38227 9.104 7.14616C8.86789 6.89616 8.74984 6.59755 8.74984 6.25032C8.74984 5.9031 8.86789 5.61144 9.104 5.37532C9.354 5.12532 9.65261 5.00032 9.99984 5.00032C10.3471 5.00032 10.6387 5.12532 10.8748 5.37532C11.1248 5.61144 11.2498 5.9031 11.2498 6.25032Z" fill="#1B7BE8"/>
</svg>
