<svg width="16" height="16" viewBox="0 0 16 16" fill="none" xmlns="http://www.w3.org/2000/svg">
<g opacity="0.7">
<path d="M7.99992 14.6673C6.79992 14.6673 5.68881 14.3673 4.66659 13.7673C3.64436 13.1673 2.83325 12.3562 2.23325 11.334C1.63325 10.3118 1.33325 9.20065 1.33325 8.00065C1.33325 6.80065 1.63325 5.68954 2.23325 4.66732C2.83325 3.63398 3.64436 2.82287 4.66659 2.23398C5.68881 1.63398 6.79992 1.33398 7.99992 1.33398C9.19992 1.33398 10.311 1.63398 11.3333 2.23398C12.3666 2.82287 13.1777 3.63398 13.7666 4.66732C14.3666 5.68954 14.6666 6.80065 14.6666 8.00065C14.6666 9.20065 14.3666 10.3118 13.7666 11.334C13.1777 12.3562 12.3666 13.1673 11.3333 13.7673C10.311 14.3673 9.19992 14.6673 7.99992 14.6673ZM7.99992 13.334C8.98881 13.334 9.88881 13.1006 10.6999 12.634C11.5221 12.1673 12.1666 11.5284 12.6333 10.7173C13.0999 9.89509 13.3333 8.98954 13.3333 8.00065C13.3333 7.01176 13.0999 6.11176 12.6333 5.30065C12.1666 4.47843 11.5221 3.83398 10.6999 3.36732C9.88881 2.90065 8.98881 2.66732 7.99992 2.66732C7.01103 2.66732 6.10547 2.90065 5.28325 3.36732C4.47214 3.83398 3.83325 4.47843 3.36659 5.30065C2.89992 6.11176 2.66659 7.01176 2.66659 8.00065C2.66659 8.98954 2.89992 9.89509 3.36659 10.7173C3.83325 11.5284 4.47214 12.1673 5.28325 12.634C6.10547 13.1006 7.01103 13.334 7.99992 13.334ZM7.33325 7.33398C7.33325 7.05621 7.44436 6.86732 7.66658 6.76732C7.88881 6.65621 8.11103 6.65621 8.33325 6.76732C8.55547 6.86732 8.66658 7.05621 8.66658 7.33398V11.334C8.66658 11.6118 8.55547 11.8062 8.33325 11.9173C8.11103 12.0173 7.88881 12.0173 7.66658 11.9173C7.44436 11.8062 7.33325 11.6118 7.33325 11.334V7.33398ZM8.99992 5.00065C8.99992 5.27843 8.89992 5.51732 8.69992 5.71732C8.51103 5.90621 8.2777 6.00065 7.99992 6.00065C7.72214 6.00065 7.48325 5.90621 7.28325 5.71732C7.09436 5.51732 6.99992 5.27843 6.99992 5.00065C6.99992 4.72287 7.09436 4.48954 7.28325 4.30065C7.48325 4.10065 7.72214 4.00065 7.99992 4.00065C8.2777 4.00065 8.51103 4.10065 8.69992 4.30065C8.89992 4.48954 8.99992 4.72287 8.99992 5.00065Z" fill="white"/>
</g>
</svg>
