<svg width="24" height="24" viewBox="0 0 24 24" fill="none" xmlns="http://www.w3.org/2000/svg">
<g id="Component 16/icon-logo-kakao">
<g id="Group 36661">
<path id="Vector" d="M11.8365 2.5C5.85167 2.5 1 6.32544 1 11.0442C1 14.095 3.02833 16.7719 6.07936 18.2835C5.91334 18.856 5.0127 21.9663 4.97685 22.2106C4.97685 22.2106 4.9553 22.3943 5.07416 22.4643C5.19302 22.5343 5.3329 22.4798 5.3329 22.4798C5.6738 22.4323 9.28649 19.8947 9.91174 19.454C10.5363 19.5424 11.1796 19.5884 11.8365 19.5884C17.8214 19.5884 22.6729 15.7631 22.6729 11.0443C22.6729 6.32544 17.8214 2.5 11.8365 2.5Z" fill="black"/>
<path id="Vector_2" d="M5.84518 14.0268C5.50044 14.0268 5.22004 13.759 5.22004 13.4297V9.71559H4.24449C3.90616 9.71559 3.63098 9.44095 3.63098 9.10346C3.63098 8.76597 3.90626 8.49133 4.24449 8.49133H7.44586C7.7842 8.49133 8.05938 8.76597 8.05938 9.10346C8.05938 9.44095 7.7841 9.71559 7.44586 9.71559H6.47032V13.4297C6.47032 13.759 6.18992 14.0268 5.84518 14.0268ZM11.3272 14.0187C11.0666 14.0187 10.867 13.9129 10.807 13.7426L10.4974 12.9321H8.59105L8.28131 13.743C8.22134 13.913 8.02203 14.0187 7.76137 14.0187C7.62426 14.0188 7.48865 13.9895 7.36392 13.9324C7.1916 13.8529 7.0259 13.6343 7.21571 13.0447L8.71119 9.10847C8.81651 8.80908 9.13649 8.50072 9.54376 8.49144C9.95209 8.50062 10.2721 8.80919 10.3776 9.10911L11.8724 13.0435C12.0627 13.6345 11.897 13.8532 11.7247 13.9325C11.5999 13.9894 11.4643 14.0188 11.3272 14.0187ZM10.1687 11.8248L9.54419 10.0508L8.91968 11.8248H10.1686H10.1687ZM12.8785 13.9357C12.5481 13.9357 12.2794 13.6786 12.2794 13.3626V9.11658C12.2794 8.77184 12.5658 8.49144 12.9176 8.49144C13.2693 8.49144 13.5557 8.77184 13.5557 9.11658V12.7896H14.8842C15.2147 12.7896 15.4833 13.0467 15.4833 13.3626C15.4833 13.6786 15.2145 13.9357 14.8842 13.9357H12.8784H12.8785ZM16.3518 14.0187C16.0071 14.0187 15.7267 13.7383 15.7267 13.3936V9.11658C15.7267 8.77184 16.0071 8.49144 16.3518 8.49144C16.6966 8.49144 16.977 8.77184 16.977 9.11658V10.4603L18.7213 8.71604C18.811 8.62631 18.9343 8.5769 19.0681 8.5769C19.2242 8.5769 19.3809 8.64423 19.4983 8.76149C19.6077 8.87086 19.6731 9.0117 19.6821 9.15788C19.6912 9.30533 19.6421 9.44041 19.5441 9.53847L18.1194 10.963L19.6583 13.0017C19.7587 13.1338 19.8019 13.3006 19.7783 13.4648C19.7558 13.6292 19.6684 13.7777 19.5358 13.8771C19.4277 13.9593 19.2955 14.0037 19.1598 14.0034C18.9634 14.0043 18.7782 13.9121 18.6604 13.7549L17.1942 11.8122L16.9773 12.0291V13.3931C16.9769 13.7384 16.6971 14.0182 16.3519 14.0186L16.3518 14.0187Z" fill="#FFE812"/>
</g>
</g>
</svg>
