<svg width="390" height="275" viewBox="0 0 390 275" fill="none" xmlns="http://www.w3.org/2000/svg">
<g clip-path="url(#clip0_1741_9971)">
<rect width="390" height="275" fill="#EAF4FF"/>
<path fill-rule="evenodd" clip-rule="evenodd" d="M167.315 360.324C216.459 397.641 302.047 375.155 358.482 310.102C414.918 245.048 420.828 162.06 371.684 124.743C322.54 87.4267 236.952 109.912 180.517 174.966C124.081 240.019 118.171 323.007 167.315 360.324ZM200.727 314.415C214.014 272.015 257.27 203.201 330.194 167.385C332.87 166.071 335.591 168.739 334.282 171.416C313.746 213.388 259.343 287.512 205.077 317.914C202.636 319.282 199.891 317.085 200.727 314.415Z" fill="url(#paint0_linear_1741_9971)"/>
<path opacity="0.45" fill-rule="evenodd" clip-rule="evenodd" d="M-15.3012 12.9462C-35.4762 44.4473 -13.2114 91.6338 34.4286 118.34C82.0685 145.047 137.043 141.16 157.218 109.659C177.393 78.1576 155.129 30.971 107.489 4.2646C59.8488 -22.4418 4.87386 -18.555 -15.3012 12.9462ZM16.1962 27.9104C45.2383 31.3762 96.1261 50.4877 126.475 90.7211C127.239 91.7335 126.364 93.0834 125.139 92.7629C95.94 85.1254 39.9345 59.4964 15.0705 30.0126C14.2944 29.0923 15.0054 27.7683 16.1962 27.9104Z" fill="url(#paint1_linear_1741_9971)"/>
<path opacity="0.25" fill-rule="evenodd" clip-rule="evenodd" d="M338.078 -8.83439C345.299 2.44149 337.33 19.332 320.277 28.8916C303.224 38.4512 283.546 37.0599 276.324 25.784C269.102 14.5081 277.072 -2.38235 294.125 -11.942C311.178 -21.5016 330.856 -20.1103 338.078 -8.83439ZM326.803 -3.47739C316.407 -2.23683 298.192 4.60416 287.328 19.0058C287.055 19.3682 287.368 19.8514 287.807 19.7366C298.259 17.0028 318.306 7.82885 327.206 -2.72493C327.484 -3.05436 327.229 -3.52827 326.803 -3.47739Z" fill="#AAD2FF"/>
</g>
<defs>
<linearGradient id="paint0_linear_1741_9971" x1="269.499" y1="106.717" x2="269.499" y2="378.35" gradientUnits="userSpaceOnUse">
<stop stop-color="#AAD2FF"/>
<stop offset="1" stop-color="#AAD2FF" stop-opacity="0"/>
</linearGradient>
<linearGradient id="paint1_linear_1741_9971" x1="59.4978" y1="14.1518" x2="61.0945" y2="199.771" gradientUnits="userSpaceOnUse">
<stop stop-color="#AAD2FF"/>
<stop offset="1" stop-color="#AAD2FF" stop-opacity="0"/>
</linearGradient>
<clipPath id="clip0_1741_9971">
<rect width="390" height="275" fill="white"/>
</clipPath>
</defs>
</svg>
