<svg width="44" height="44" viewBox="0 0 44 44" fill="none" xmlns="http://www.w3.org/2000/svg">
<rect width="44" height="44" fill="white"/>
<path d="M27.084 18.7729L22.6314 10.275C22.386 9.80657 21.7154 9.80657 21.4699 10.275L17.5424 17.7707C17.3086 18.217 16.6799 18.2438 16.4089 17.819L11.5462 10.1957C11.2651 9.755 10.6065 9.8044 10.3943 10.2821L6.62247 18.7729C4.61643 24.3855 3.88697 35.6539 17.0174 35.8265C33.4304 36.0424 28.616 21.4712 32.6645 18.7729C36.7131 16.0745 40.5428 21.5792 37.2602 25.0331" stroke="#333D4B" stroke-width="2.46873" stroke-linecap="round"/>
<path fill-rule="evenodd" clip-rule="evenodd" d="M14.1785 30.44C15.6978 31.6731 18.3437 30.9301 20.0884 28.7805C21.8331 26.6309 22.0158 23.8886 20.4965 22.6556C18.9773 21.4225 16.3313 22.1655 14.5866 24.3151C12.8419 26.4647 12.6592 29.2069 14.1785 30.44ZM15.1929 28.9881C15.5841 27.5809 16.9481 25.2255 19.2748 24.0332C19.3359 24.0019 19.4012 24.0615 19.3734 24.1243C18.7599 25.5097 17.0206 28.0648 15.2966 29.068C15.2406 29.1006 15.1755 29.0505 15.1929 28.9881Z" fill="#333D4B"/>
</svg>
