<svg width="72" height="72" viewBox="0 0 72 72" fill="none" xmlns="http://www.w3.org/2000/svg">
<g id="Frame 2087327400">
<g id="Group 1000006205">
<path id="Vector" d="M51.8891 31.3009C51.8891 31.3009 55.0835 28.4259 56.4265 30.6105C57.7696 32.7951 56.5124 36.2196 54.5442 37.6073C52.576 38.995 48.1485 38.3012 48.1485 38.3012L47.3481 41.1727C47.3481 41.1727 53.4794 42.2513 56.825 39.0465C60.1706 35.8418 60.8404 32.4756 58.9855 28.8621C57.1307 25.2486 52.0814 28.206 52.0814 28.206L51.8856 31.3009H51.8891Z" fill="#FFEFB1"/>
<path id="Vector_2" d="M13.4321 29.0525C13.4321 29.0525 14.5862 39.1442 18.7218 44.6949C22.8574 50.2457 33.6601 50.6339 37.2496 50.335C40.8391 50.0362 47.3894 48.0371 49.5465 44.7533C51.8788 41.2017 54.0221 31.6973 54.132 28.3105L13.4321 29.0525Z" fill="#FFEFB1"/>
<path id="Vector_3" d="M12.0202 25.6694C12.2331 26.7961 12.7312 29.307 13.2602 31.1446C13.3632 31.4984 13.6827 31.6942 14.0296 31.811C16.3584 32.5942 24.5987 34.0093 33.6153 33.8239C43.5799 33.6178 49.007 32.7968 53.5719 31.6152C53.9154 31.5259 54.204 31.2923 54.3001 30.9523C54.599 29.9081 55.2001 27.5724 55.2276 25.5904C55.231 25.2641 55.0764 24.955 54.7982 24.7798C53.3384 23.8421 47.791 21.0427 33.5672 21.0014C19.3433 20.9602 14.0536 23.6841 12.4358 24.7042C12.1095 24.9103 11.9446 25.2916 12.0167 25.6729L12.0202 25.6694Z" fill="#F4DC8A"/>
<path id="Vector_4" d="M14.2287 25.6492C13.9676 25.5908 13.9367 25.2301 14.184 25.1271C16.2518 24.2821 22.6098 22.125 33.5705 22.1387C44.5106 22.1525 51.1433 24.2512 53.3314 25.0756C53.5855 25.1717 53.5615 25.5427 53.2936 25.6011C50.8685 26.1369 43.4149 27.5865 33.5739 27.5865C23.733 27.5865 16.5403 26.1679 14.2321 25.6457L14.2287 25.6492Z" fill="#BFA762"/>
</g>
</g>
</svg>
