<svg width="48" height="30" viewBox="0 0 48 30" fill="none" xmlns="http://www.w3.org/2000/svg">
<path d="M39.8891 10.3009C39.8891 10.3009 43.0835 7.42588 44.4265 9.61046C45.7696 11.7951 44.5124 15.2196 42.5442 16.6073C40.576 17.995 36.1485 17.3012 36.1485 17.3012L35.3481 20.1727C35.3481 20.1727 41.4794 21.2513 44.825 18.0465C48.1706 14.8418 48.8404 11.4756 46.9855 7.86211C45.1307 4.24861 40.0814 7.20605 40.0814 7.20605L39.8856 10.3009H39.8891Z" fill="#FFEFB1"/>
<path d="M1.43213 8.05248C1.43213 8.05248 2.58625 18.1442 6.72185 23.6949C10.8574 29.2457 21.6601 29.6339 25.2496 29.335C28.8391 29.0362 35.3894 27.0371 37.5465 23.7533C39.8788 20.2017 42.0221 10.6973 42.132 7.31055L1.43213 8.05248Z" fill="#FFEFB1"/>
<path d="M0.0201764 4.66945C0.233139 5.79609 0.731197 8.30698 1.26017 10.1446C1.36322 10.4984 1.68266 10.6942 2.02958 10.811C4.35843 11.5942 12.5987 13.0093 21.6153 12.8239C31.5799 12.6178 37.007 11.7968 41.5719 10.6152C41.9154 10.5259 42.204 10.2923 42.3001 9.95229C42.599 8.90809 43.2001 6.57237 43.2276 4.59044C43.231 4.26413 43.0764 3.95499 42.7982 3.77981C41.3384 2.84209 35.791 0.0426578 21.5672 0.00143926C7.34334 -0.0397793 2.05363 2.68408 0.435797 3.70424C0.109483 3.91033 -0.055391 4.29161 0.0167415 4.67288L0.0201764 4.66945Z" fill="#F4DC8A"/>
<path d="M2.22866 4.64918C1.96761 4.59079 1.9367 4.23013 2.18401 4.12708C4.25181 3.2821 10.6098 1.125 21.5705 1.13874C32.5106 1.15248 39.1433 3.25119 41.3314 4.07556C41.5855 4.17173 41.5615 4.5427 41.2936 4.60109C38.8685 5.13693 31.4149 6.58645 21.5739 6.58645C11.733 6.58645 4.54034 5.16785 2.2321 4.64575L2.22866 4.64918Z" fill="#BFA762"/>
</svg>
