<svg width="48" height="41" viewBox="0 0 48 41" fill="none" xmlns="http://www.w3.org/2000/svg">
<g id="_&#235;&#160;&#136;&#236;&#157;&#180;&#236;&#150;&#180;_1" clip-path="url(#clip0_2143_23364)">
<path id="Vector" d="M39.8867 21.6974C39.8867 21.6974 43.0812 18.8224 44.4243 21.007C45.7673 23.1916 44.5101 26.6163 42.5419 28.004C40.5771 29.3917 36.146 28.6979 36.146 28.6979L35.3457 31.5695C35.3457 31.5695 41.4771 32.6481 44.8227 29.4433C48.1684 26.2384 48.8382 22.8722 46.9833 19.2586C45.1284 15.6451 40.0791 18.6026 40.0791 18.6026L39.8833 21.6974H39.8867Z" fill="#F9EAB0"/>
<path id="Vector_2" d="M0.0172301 16.0729C0.230197 17.1995 0.728265 19.7105 1.25725 21.5482C1.3603 21.902 1.67975 22.0978 2.02668 22.2145C4.35557 22.9977 12.596 24.4129 21.6128 24.2274C31.5776 24.0213 37.0048 23.2004 41.5698 22.0188C41.9133 21.9294 42.2019 21.6959 42.298 21.3558C42.5969 20.3116 43.198 17.9758 43.2255 15.9939C43.2289 15.6675 43.0743 15.3584 42.7961 15.1832C41.3362 14.2455 35.7888 11.446 21.5647 11.4048C7.34054 11.3635 2.05072 14.0875 0.436294 15.1042C0.109974 15.3103 -0.0549038 15.6916 0.0172301 16.0729Z" fill="#F4DC8A"/>
<path id="Vector_3" d="M2.22574 16.0496C1.96468 15.9913 1.93377 15.6306 2.18108 15.5275C4.24892 14.6825 10.607 12.5254 21.5679 12.5391C32.5083 12.5529 39.1412 14.6516 41.3292 15.476C41.5834 15.5722 41.5594 15.9432 41.2914 16.0016C38.8664 16.5374 31.4125 17.987 21.5714 17.987C11.7302 17.987 4.53746 16.5683 2.22917 16.0462L2.22574 16.0496Z" fill="#BFA762"/>
<g id="Group">
<path id="Vector_4" d="M22.0901 12.6374C20.62 12.5893 20.8742 12.05 19.1361 12.1736C18.2705 12.2355 17.24 12.3454 16.1855 12.5206C15.2546 12.6751 14.2756 13.0221 13.3173 13.3072C12.3589 13.5923 11.6067 14.3342 10.7479 14.7773C9.88919 15.2204 8.79688 15.4472 8.10989 16.117C7.4229 16.7868 6.67064 17.6146 6.29967 18.5558C5.92869 19.497 5.74321 20.5927 5.47184 21.5888C5.20048 22.585 4.89821 23.6361 4.74707 24.6425C4.58906 25.7039 5.06309 26.7825 5.06652 27.7786C5.06652 28.8744 4.54784 29.9873 4.76768 30.9422C5.015 32.0208 5.84282 32.8349 6.40272 33.6421C6.99696 34.4974 7.787 34.9645 8.77627 35.3939C10.0438 35.9195 9.67279 35.9572 11.2872 36.4553C12.0395 36.6889 12.9223 36.9706 13.9184 37.2213C14.7462 37.4308 15.5672 38.0148 16.5186 38.2003C17.3843 38.3686 18.3838 37.9736 19.3181 38.1007C20.2524 38.2277 21.0974 38.4304 22.0249 38.4888C22.9523 38.5472 23.8385 38.53 24.7557 38.506C25.6728 38.4819 26.5659 38.3995 27.4693 38.2758C28.3727 38.1522 29.2829 38.0697 30.1588 37.8259C31.0347 37.582 31.8797 37.2385 32.7007 36.8469C33.7174 36.3626 34.7891 36.1668 35.5242 35.6275C36.431 34.9577 37.252 34.2398 37.8016 33.4978C38.4439 32.6322 38.8733 31.6017 39.1412 30.664C39.4091 29.7262 39.258 28.5996 39.2683 27.5828C39.2786 26.5661 38.887 25.5974 38.7703 24.5876C38.6535 23.5777 39.0176 22.5025 38.9076 21.5133C38.7977 20.524 38.4955 19.5073 37.9321 18.6794C37.4203 17.9272 36.2902 17.6455 35.4864 17.0066C34.7651 16.4364 34.1846 15.5777 33.2915 15.1071C32.4637 14.6709 31.5672 14.2484 30.6397 13.9083C29.7123 13.5682 28.7642 13.4446 27.8196 13.211C26.875 12.9774 25.9132 12.8984 24.9652 12.7679C24.0171 12.6374 23.0279 12.6614 22.0901 12.6374Z" fill="#1E7CD8"/>
<path id="Vector_5" d="M23.1205 12.6048C22.935 12.9071 22.7735 13.1991 22.5915 13.4429C22.3751 13.7349 22.1037 13.9307 21.901 14.1505C21.6469 14.4288 21.506 14.7551 21.2896 14.9372C20.9599 15.2154 20.637 15.3356 20.4412 15.4524C20.3519 15.5074 20.1973 15.3974 20.2351 15.3013C20.3794 14.9475 20.5133 14.6177 20.6576 14.3189C20.8225 13.9754 21.0423 13.6937 21.2175 13.4052C21.4064 13.0926 21.5988 12.8144 21.8152 12.5396C21.427 12.488 21.1076 12.4399 20.8156 12.3575C20.4721 12.2613 20.1801 12.0518 19.8332 12.0209C19.5344 11.9934 19.16 12.0277 18.7615 12.1239C18.6241 12.4502 18.5176 12.835 18.4386 13.1716C18.3596 13.5082 18.4043 13.8826 18.3871 14.2261C18.3699 14.5902 18.2943 14.9475 18.3493 15.2806C18.4111 15.6448 18.4901 16.0123 18.6413 16.3077C18.8062 16.634 19.0741 16.9088 19.3489 17.1115C19.6477 17.3313 19.9981 17.4928 20.3622 17.558C20.7057 17.6198 21.0732 17.4928 21.4511 17.4275C21.7946 17.3691 22.1861 17.3897 22.5365 17.2317C22.856 17.0874 23.1273 16.8126 23.4365 16.5928C23.725 16.3867 23.9723 16.1256 24.2402 15.8612C24.491 15.6104 24.7589 15.3631 24.9788 15.0608C25.2364 14.7104 25.4253 14.3189 25.5764 13.9101C25.7345 13.4807 25.9268 13.0273 26.0299 12.6392C25.7138 12.5155 25.3326 12.5293 25.0303 12.4949C24.6834 12.4537 24.3639 12.4365 24.0822 12.464C23.6117 12.5086 23.2441 12.567 23.1239 12.598L23.1205 12.6048Z" fill="#FFEFB1"/>
<path id="Vector_6" d="M20.7918 24.8365C20.7918 25.5029 20.6579 26.1693 20.4518 26.7532C20.232 27.3749 19.9297 27.9967 19.5244 28.4741C19.119 28.9516 18.4217 29.1474 17.8515 29.4256C17.2813 29.7038 16.7214 29.8412 16.0619 29.8412C15.4024 29.8412 14.815 29.7554 14.2483 29.4771C13.6815 29.1989 13.1869 28.8279 12.7644 28.3333C12.3419 27.8387 12.1152 27.2959 11.8988 26.6742C11.6927 26.0903 11.5656 25.5029 11.5656 24.8365C11.5656 24.1701 11.466 23.5038 11.6721 22.9198C11.8919 22.2981 12.201 21.6832 12.6064 21.2058C13.0117 20.7283 13.6506 20.4192 14.2208 20.1409C14.791 19.8627 15.4058 19.7974 16.0619 19.7974C16.718 19.7974 17.4084 19.7219 17.9752 20.0001C18.542 20.2783 18.9061 20.876 19.3251 21.3741C19.7442 21.8722 20.0087 22.3805 20.2285 23.0023C20.4346 23.5862 20.7918 24.1736 20.7918 24.84V24.8365Z" fill="white"/>
<path id="Vector_7" d="M32.7009 24.836C32.7009 25.5024 32.615 26.1275 32.409 26.7115C32.1891 27.3332 31.8868 27.8965 31.4815 28.374C31.0762 28.8514 30.4957 29.1503 29.9255 29.4285C29.3553 29.7068 28.7954 29.8441 28.1359 29.8441C27.4764 29.8441 26.9165 29.6964 26.3497 29.4182C25.7829 29.14 25.2952 28.7965 24.8727 28.3019C24.4502 27.8072 24.0723 27.3366 23.8525 26.7149C23.6464 26.131 23.5056 25.5024 23.5056 24.8394C23.5056 24.1765 23.4918 23.4895 23.6979 22.909C23.9178 22.2873 24.3918 21.7892 24.7971 21.3117C25.2024 20.8343 25.7555 20.4873 26.3257 20.2091C26.8959 19.9309 27.4764 19.5908 28.1359 19.5908C28.7954 19.5908 29.4892 19.7042 30.056 19.9824C30.6228 20.2606 31.1037 20.769 31.5262 21.2636C31.9487 21.7583 32.1685 22.3491 32.3883 22.9674C32.5944 23.5513 32.7009 24.1696 32.7009 24.8326V24.836Z" fill="white"/>
<path id="Vector_8" d="M19.6446 24.834C19.6446 25.5313 19.5244 26.2011 19.2427 26.7747C18.9404 27.3896 18.5145 27.9598 17.9786 28.3239C17.4428 28.688 16.7489 28.9353 16.0619 28.9353C15.375 28.9353 14.7635 28.5849 14.2174 28.214C13.6712 27.843 13.2453 27.3587 12.943 26.7438C12.6613 26.1702 12.4209 25.5347 12.4209 24.8374C12.4209 24.1401 12.5858 23.4634 12.8674 22.8932C13.1697 22.2784 13.6678 21.8009 14.2036 21.4368C14.7395 21.0727 15.375 20.8838 16.0619 20.8838C16.7489 20.8838 17.326 21.138 17.8722 21.5089C18.4183 21.8799 18.8889 22.3093 19.1912 22.9276C19.4729 23.5012 19.648 24.1401 19.648 24.8409L19.6446 24.834Z" fill="#343535"/>
<path id="Vector_9" d="M18.4386 23.7802C18.4386 23.9966 18.3939 24.2062 18.2909 24.3813C18.1878 24.5565 18.0401 24.7283 17.8581 24.8348C17.676 24.9412 17.4665 24.9996 17.2501 24.9996C17.0337 24.9996 16.8379 24.9 16.6627 24.8004C16.4875 24.7008 16.333 24.5531 16.2299 24.371C16.1269 24.189 16.0479 24.0001 16.0479 23.7802C16.0479 23.5604 16.1062 23.3543 16.2093 23.1791C16.3123 23.0039 16.4807 22.8597 16.6593 22.7566C16.8379 22.6536 17.0337 22.6055 17.2501 22.6055C17.4665 22.6055 17.6554 22.6776 17.8306 22.7772C18.0058 22.8768 18.1707 23.0074 18.2771 23.1894C18.3836 23.3715 18.442 23.5638 18.442 23.7802H18.4386Z" fill="white"/>
<path id="Vector_10" d="M31.7558 24.8352C31.7558 25.5428 31.6425 26.2194 31.3574 26.8C31.0517 27.4217 30.6154 27.9953 30.0727 28.3663C29.53 28.7373 28.8293 28.9605 28.132 28.9605C27.4347 28.9605 26.7614 28.7201 26.2084 28.3422C25.6554 27.9644 25.3462 27.3599 25.0405 26.7381C24.7554 26.1576 24.4497 25.5462 24.4497 24.8386C24.4497 24.131 24.7073 23.4955 24.9924 22.915C25.2981 22.2933 25.7206 21.7849 26.2634 21.414C26.8061 21.043 27.4347 20.8438 28.1285 20.8438C28.8224 20.8438 29.4956 20.9605 30.0452 21.3384C30.5948 21.7162 31.0826 22.228 31.3917 22.8532C31.6768 23.4337 31.749 24.131 31.749 24.8386L31.7558 24.8352Z" fill="#343535"/>
<path id="Vector_11" d="M30.5403 23.7777C30.5403 23.9941 30.4751 24.2036 30.372 24.3788C30.269 24.554 30.111 24.712 29.9289 24.8185C29.7469 24.925 29.5442 24.9902 29.3278 24.9902C29.1114 24.9902 28.9087 24.9078 28.7335 24.8047C28.5584 24.7017 28.39 24.5609 28.287 24.3788C28.184 24.1968 28.1118 23.9941 28.1118 23.7777C28.1118 23.5613 28.1771 23.3483 28.2767 23.1731C28.3763 22.998 28.5412 22.84 28.7232 22.7335C28.9053 22.627 29.108 22.6201 29.3244 22.6201C29.5408 22.6201 29.7503 22.6339 29.9255 22.7369C30.1007 22.84 30.2346 23.0117 30.3411 23.1938C30.4476 23.3758 30.5335 23.5647 30.5335 23.7811L30.5403 23.7777Z" fill="white"/>
<path id="Vector_12" d="M16.766 13.3748C17.398 12.492 16.6183 12.6088 16.1683 11.3791C15.9485 10.7849 15.6015 10.1219 15.3096 9.37998C15.0588 8.73764 14.8287 8.03691 14.5401 7.34649C14.2516 6.65606 13.9287 6.02747 13.6264 5.37483C13.3242 4.72219 13.1662 3.94245 12.8467 3.33447C12.4723 2.62687 11.8918 2.10819 11.5311 1.58951C10.9575 0.761688 10.4766 0.27736 10.006 0.236141C9.57663 0.198356 9.38771 0.768558 9.05452 1.79904C8.87246 2.35894 8.395 2.96006 8.24043 3.73292C8.11334 4.36495 8.27135 5.10347 8.15799 5.83167C8.05838 6.49462 7.64619 7.14383 7.56031 7.85143C7.47444 8.55902 7.6771 9.25632 7.60497 9.95362C7.53283 10.6509 7.23743 11.3207 7.1756 12.0043C7.11377 12.6878 7.20995 13.4229 7.15842 14.0927C7.10346 14.8244 7.06911 15.5217 7.02446 16.1709C6.97294 16.9472 6.7531 17.641 6.71875 18.2387C6.64661 19.52 5.70887 20.4714 6.72562 20.2585C7.74236 20.0455 7.63245 19.8257 8.47401 19.252C9.31557 18.6784 9.36366 18.7471 10.2087 18.1735C11.0537 17.5998 10.8991 17.3731 11.7406 16.7995C12.5822 16.2258 12.6028 16.2533 13.4478 15.6797C14.2928 15.106 14.2619 15.0476 15.1481 14.5427C16.0343 14.0378 16.1717 14.1992 16.766 13.3714V13.3748Z" fill="#1E7CD8"/>
<path id="Vector_13" d="M27.3523 14.3619C26.6653 13.4344 27.5515 13.4757 28.0255 12.167C28.2557 11.5315 28.6129 10.8273 28.9152 10.0338C29.1763 9.35029 29.6159 8.68391 29.9148 7.94883C30.2136 7.21375 30.3819 6.4718 30.6945 5.77451C31.0071 5.07721 31.433 4.38335 31.7628 3.73071C32.1475 2.97159 32.2883 2.14033 32.6593 1.58043C33.2638 0.673608 33.9508 0.038142 34.4283 -0.00651236C34.8577 -0.0442968 35.1909 0.745742 35.5275 1.80714C35.7095 2.38078 35.7576 3.09868 35.9122 3.88872C36.0393 4.53449 36.2832 5.21118 36.3965 5.95656C36.4961 6.63325 36.4858 7.35115 36.5717 8.07593C36.6576 8.8007 37.0766 9.4396 37.1488 10.1506C37.2209 10.8617 36.9599 11.6002 37.0182 12.2975C37.0801 13.0223 37.2278 13.723 37.2793 14.41C37.3343 15.1554 37.4923 15.863 37.5335 16.5225C37.585 17.3159 37.7224 18.0304 37.7568 18.6418C37.8289 19.9506 38.7838 20.8162 37.7293 20.6616C36.6747 20.507 36.7675 20.3696 35.9053 19.8338C35.0431 19.2979 35.1771 19.0815 34.3115 18.5457C33.4459 18.0098 33.4287 18.0407 32.5631 17.5049C31.6975 16.9724 31.5979 17.1339 30.7323 16.6015C29.8667 16.0691 30.0006 15.8286 29.0801 15.3992C28.1595 14.9699 27.9534 15.176 27.3454 14.3584L27.3523 14.3619Z" fill="#1E7CD8"/>
</g>
<path id="Vector_14" d="M1.42871 19.4539C1.42871 19.4539 2.58285 29.5457 6.71853 35.0966C10.8542 40.6475 21.6571 41.0357 25.2467 40.7368C28.8362 40.438 35.3866 38.4388 37.5438 35.155C39.8761 31.6033 42.0195 22.0988 42.1294 18.7119L1.42871 19.4539Z" fill="#F9EAB0"/>
<path id="Vector_15" d="M0.0170898 16.0742C0.0170898 16.0742 0.219752 15.6792 0.73843 15.7341C1.25711 15.7891 10.7788 18.1695 22.492 17.9909C34.2052 17.8123 41.6315 15.6826 42.6517 15.7273C43.6719 15.7719 42.504 20.6049 42.504 20.6049C42.504 20.6049 42.4868 22.1025 40.5907 22.264C38.6946 22.4254 33.4289 24.1566 22.4095 24.2081C11.3902 24.2597 4.67488 22.9578 2.60361 22.3876C2.60361 22.3876 1.42885 22.1747 1.25711 21.5461C1.08536 20.9175 0.0170898 16.0742 0.0170898 16.0742Z" fill="#F4DC8A"/>
</g>
<defs>
<clipPath id="clip0_2143_23364">
<rect width="48" height="40.8175" fill="white" transform="translate(0 -0.00195312)"/>
</clipPath>
</defs>
</svg>
