<svg width="48" height="51" viewBox="0 0 48 51" fill="none" xmlns="http://www.w3.org/2000/svg">
<g id="_&#235;&#160;&#136;&#236;&#157;&#180;&#236;&#150;&#180;_1" clip-path="url(#clip0_2143_23389)">
<path id="Vector" d="M39.8867 31.843C39.8867 31.843 43.0812 28.9679 44.4243 31.1525C45.7673 33.3372 44.5102 36.7618 42.5419 38.1495C40.5737 39.5372 36.146 38.8434 36.146 38.8434L35.3457 41.715C35.3457 41.715 41.4771 42.7936 44.8227 39.5888C48.1684 36.384 48.8382 33.0177 46.9833 29.4041C45.1284 25.7906 40.0791 28.7481 40.0791 28.7481L39.8833 31.843H39.8867Z" fill="#F9EAB0"/>
<path id="Vector_2" d="M0.0172301 26.2076C0.230197 27.3343 0.728265 29.8452 1.25725 31.6829C1.3603 32.0367 1.67975 32.2325 2.02668 32.3493C4.35557 33.1325 12.596 34.5477 21.6128 34.3622C31.5776 34.1561 37.0048 33.3351 41.5698 32.1535C41.9133 32.0642 42.2019 31.8306 42.298 31.4906C42.5969 30.4464 43.198 28.1106 43.2255 26.1286C43.2289 25.8023 43.0743 25.4932 42.7961 25.318C41.3362 24.3802 35.7888 21.5807 21.5647 21.5395C7.34054 21.4983 2.05072 24.2188 0.436294 25.239C0.109974 25.4451 -0.0549038 25.8263 0.0172301 26.2076Z" fill="#F4DC8A"/>
<path id="Vector_3" d="M2.22574 26.1893C1.96468 26.1309 1.93377 25.7702 2.18108 25.6672C4.24892 24.8222 10.607 22.665 21.5679 22.6788C32.5289 22.6925 39.1411 24.7913 41.3292 25.6157C41.5834 25.7118 41.5594 26.0828 41.2914 26.1412C38.8664 26.6771 31.4125 28.1266 21.5714 28.1266C11.7302 28.1266 4.53746 26.708 2.22917 26.1859L2.22574 26.1893Z" fill="#BFA762"/>
<g id="Group">
<path id="Vector_4" d="M21.8392 13.0642C20.321 13.0126 20.5855 12.4562 18.7856 12.5833C17.8925 12.6485 16.8242 12.7619 15.7388 12.9405C14.777 13.1019 13.7671 13.4592 12.7744 13.7546C11.7817 14.05 11.0088 14.816 10.1192 15.2728C9.22953 15.7297 8.10287 15.9633 7.39183 16.6571C6.6808 17.351 5.9045 18.2063 5.52322 19.1784C5.14194 20.1505 4.94958 21.2806 4.66792 22.311C4.38625 23.3415 4.07367 24.427 3.9191 25.4643C3.75766 26.5601 4.24542 27.6764 4.24885 28.7069C4.24885 29.837 3.713 30.9912 3.93971 31.977C4.19733 33.0934 5.05263 33.9349 5.6297 34.7662C6.24456 35.649 7.05864 36.1333 8.08226 36.5764C9.39098 37.1191 9.00626 37.1603 10.6756 37.6756C11.4554 37.916 12.3622 38.208 13.3927 38.4656C14.248 38.682 15.0964 39.2866 16.0788 39.4755C16.9719 39.6507 18.0058 39.2419 18.9711 39.3725C19.9363 39.503 20.8088 39.7125 21.7671 39.7709C22.7255 39.8293 23.6391 39.8121 24.5906 39.7881C25.5421 39.764 26.4627 39.6782 27.397 39.5511C28.3313 39.424 29.2725 39.3381 30.1759 39.0874C31.0793 38.8366 31.9517 38.4828 32.8036 38.0775C33.8513 37.5794 34.9607 37.3767 35.7199 36.8168C36.6542 36.1264 37.506 35.381 38.0728 34.615C38.7358 33.722 39.1789 32.6537 39.4571 31.6885C39.7353 30.7232 39.5773 29.5554 39.5876 28.5043C39.5979 27.4532 39.196 26.4536 39.0724 25.4094C38.9487 24.3652 39.33 23.2557 39.2132 22.232C39.0964 21.2084 38.7873 20.1608 38.2033 19.3055C37.6744 18.5292 36.5065 18.2372 35.6787 17.5777C34.9333 16.9869 34.3322 16.1007 33.4116 15.6163C32.5563 15.1664 31.6288 14.7301 30.6705 14.3763C29.7121 14.0225 28.7332 13.8954 27.7542 13.655C26.7753 13.4145 25.7826 13.3321 24.8036 13.1947C23.8246 13.0573 22.801 13.0848 21.8324 13.0607L21.8392 13.0642Z" fill="#1E7CD8"/>
<path id="Vector_5" d="M22.9006 13.0321C22.7082 13.3447 22.5399 13.6469 22.3544 13.8977C22.1311 14.1965 21.8495 14.4026 21.6434 14.6293C21.3789 14.9179 21.2346 15.2545 21.0113 15.4434C20.6713 15.7285 20.3346 15.8522 20.132 15.9758C20.0392 16.0308 19.8778 15.9174 19.919 15.8213C20.0667 15.4537 20.2076 15.1137 20.3553 14.808C20.5236 14.4541 20.7537 14.1622 20.9323 13.8668C21.1281 13.5405 21.3239 13.2554 21.5472 12.9737C21.1453 12.9187 20.819 12.8706 20.5133 12.7848C20.1595 12.6852 19.8572 12.4687 19.5 12.4378C19.1942 12.4104 18.8027 12.4447 18.3939 12.5443C18.2531 12.8809 18.1431 13.2794 18.0607 13.6298C17.9783 13.9801 18.0229 14.3648 18.0057 14.7186C17.9886 15.0931 17.9096 15.464 17.968 15.8075C18.0298 16.1854 18.1157 16.5632 18.2702 16.8689C18.442 17.2055 18.7168 17.4906 19.0019 17.7002C19.311 17.9269 19.6751 18.0952 20.0495 18.1605C20.4068 18.2257 20.7846 18.0952 21.1762 18.0265C21.53 17.9647 21.9353 17.9887 22.296 17.8238C22.6258 17.6761 22.9074 17.391 23.2269 17.1643C23.5257 16.9514 23.7833 16.6834 24.0581 16.4086C24.3192 16.1476 24.594 15.8968 24.8207 15.5842C25.0852 15.2236 25.2844 14.8148 25.439 14.3958C25.6039 13.9526 25.8031 13.4821 25.9096 13.0836C25.5832 12.9565 25.1882 12.9703 24.8791 12.9359C24.5184 12.8947 24.1921 12.8741 23.8967 12.9016C23.4124 12.9496 23.0311 13.008 22.904 13.0389L22.9006 13.0321Z" fill="#FFEFB1"/>
<path id="Vector_6" d="M20.4929 25.6709C20.4929 26.3579 20.3555 27.0483 20.1426 27.6494C19.9159 28.2918 19.6033 28.9341 19.1842 29.4253C18.7652 29.9165 18.0438 30.1226 17.4565 30.4111C16.8691 30.6997 16.2886 30.8405 15.6084 30.8405C14.9283 30.8405 14.3203 30.7512 13.733 30.4627C13.1456 30.1741 12.6372 29.7928 12.201 29.281C11.7647 28.7692 11.5312 28.2093 11.3045 27.567C11.0915 26.9624 10.961 26.3579 10.961 25.6709C10.961 24.9839 10.8579 24.2935 11.0709 23.6924C11.2976 23.05 11.617 22.4146 12.0361 21.9199C12.4552 21.4253 13.1147 21.1059 13.7055 20.8173C14.2963 20.5288 14.9283 20.4601 15.6084 20.4601C16.2886 20.4601 16.9996 20.3811 17.5835 20.6696C18.1675 20.9582 18.5453 21.5764 18.9781 22.0883C19.4109 22.6001 19.6857 23.129 19.9124 23.7714C20.1254 24.3759 20.4929 24.9839 20.4929 25.6709Z" fill="white"/>
<path id="Vector_7" d="M32.8002 25.6689C32.8002 26.3559 32.7109 27.0016 32.4979 27.6062C32.2712 28.2485 31.9587 28.8325 31.5396 29.3237C31.1205 29.8149 30.5194 30.124 29.932 30.4125C29.3447 30.7011 28.7641 30.8419 28.0806 30.8419C27.397 30.8419 26.82 30.6873 26.236 30.4022C25.6521 30.1171 25.1471 29.7599 24.7109 29.2481C24.2747 28.7363 23.8831 28.2485 23.6598 27.6096C23.4468 27.0051 23.3026 26.3559 23.3026 25.6689C23.3026 24.9819 23.2854 24.2743 23.4984 23.6732C23.7251 23.0308 24.2163 22.5156 24.6353 22.0244C25.0544 21.5332 25.6246 21.1725 26.212 20.8874C26.7994 20.6023 27.4005 20.252 28.0806 20.252C28.7607 20.252 29.4786 20.3687 30.066 20.6573C30.6534 20.9458 31.148 21.4714 31.5842 21.9832C32.0205 22.495 32.2506 23.103 32.4773 23.7453C32.6903 24.3498 32.8002 24.9888 32.8002 25.6757V25.6689Z" fill="white"/>
<path id="Vector_8" d="M19.3079 25.6716C19.3079 26.3929 19.1842 27.0833 18.8957 27.6776C18.5831 28.3131 18.1434 28.9004 17.587 29.2783C17.0305 29.6561 16.316 29.9103 15.605 29.9103C14.894 29.9103 14.2654 29.5496 13.702 29.1649C13.1387 28.7802 12.699 28.2821 12.3865 27.6432C12.0945 27.0524 11.8472 26.3929 11.8472 25.6716C11.8472 24.9502 12.0189 24.2529 12.3075 23.6621C12.62 23.0267 13.1353 22.5355 13.6883 22.1576C14.2413 21.7798 14.9008 21.584 15.6084 21.584C16.316 21.584 16.9137 21.8485 17.4771 22.2332C18.0404 22.6179 18.5247 23.061 18.8407 23.6965C19.1327 24.2873 19.3113 24.9502 19.3113 25.6716H19.3079Z" fill="#343535"/>
<path id="Vector_9" d="M18.0645 24.5821C18.0645 24.8054 18.0164 25.0218 17.9133 25.2039C17.8103 25.3859 17.6523 25.5611 17.4668 25.671C17.2813 25.7809 17.0649 25.8428 16.8382 25.8428C16.6115 25.8428 16.4122 25.7397 16.2302 25.6367C16.0481 25.5336 15.8901 25.3825 15.7836 25.1936C15.6772 25.0046 15.5947 24.8089 15.5947 24.5856C15.5947 24.3623 15.6566 24.1459 15.763 23.9639C15.8695 23.7818 16.0413 23.6341 16.2302 23.5276C16.4191 23.4211 16.6183 23.373 16.8416 23.373C17.0649 23.373 17.2572 23.4452 17.4393 23.5517C17.6213 23.6581 17.7897 23.7887 17.8996 23.9776C18.0095 24.1665 18.0679 24.3657 18.0679 24.589L18.0645 24.5821Z" fill="white"/>
<path id="Vector_10" d="M31.8244 25.6688C31.8244 26.4005 31.7076 27.1012 31.4156 27.6989C31.0996 28.3412 30.6496 28.9355 30.0898 29.3167C29.5299 29.698 28.8051 29.9316 28.0837 29.9316C27.3624 29.9316 26.6685 29.6808 26.0983 29.2927C25.5281 28.9045 25.2087 28.2759 24.8927 27.6336C24.5973 27.0359 24.2812 26.4005 24.2812 25.6722C24.2812 24.944 24.5492 24.2845 24.8411 23.6868C25.1572 23.0445 25.5934 22.519 26.1533 22.1377C26.7132 21.7564 27.3624 21.5469 28.0837 21.5469C28.8051 21.5469 29.4955 21.6671 30.0657 22.0587C30.6359 22.4503 31.1374 22.9792 31.4569 23.6216C31.7523 24.2193 31.8244 24.9406 31.8244 25.6722V25.6688Z" fill="#343535"/>
<path id="Vector_11" d="M30.5676 24.5821C30.5676 24.8054 30.4989 25.0218 30.3958 25.2038C30.2928 25.3859 30.1244 25.5473 29.939 25.6572C29.7535 25.7671 29.5439 25.8324 29.3172 25.8324C29.0905 25.8324 28.8844 25.7465 28.7058 25.6435C28.5272 25.5404 28.352 25.3893 28.2421 25.2038C28.1322 25.0183 28.0635 24.8088 28.0635 24.5821C28.0635 24.3554 28.1287 24.139 28.2352 23.9569C28.3417 23.7749 28.51 23.61 28.6955 23.5035C28.881 23.397 29.094 23.3867 29.3172 23.3867C29.5405 23.3867 29.7569 23.4005 29.939 23.5069C30.121 23.6134 30.2584 23.792 30.3683 23.9775C30.4782 24.163 30.5676 24.3588 30.5676 24.5821Z" fill="white"/>
<path id="Vector_12" d="M16.3364 13.8279C16.9925 12.9142 16.1853 13.0379 15.7181 11.767C15.4914 11.1521 15.1342 10.4685 14.8319 9.70255C14.5709 9.03617 14.3373 8.31483 14.0384 7.60379C13.7396 6.89276 13.4064 6.24012 13.0973 5.56687C12.7881 4.89362 12.6232 4.0864 12.29 3.45781C11.9053 2.72616 11.3042 2.19375 10.9298 1.65446C10.3356 0.799156 9.84093 0.297653 9.35316 0.252998C8.91005 0.211779 8.71426 0.80259 8.36733 1.86743C8.17841 2.44793 7.68721 3.06966 7.52577 3.86657C7.39524 4.51921 7.55668 5.28177 7.44333 6.03746C7.34028 6.72101 6.91435 7.39083 6.82504 8.12591C6.73573 8.86098 6.94526 9.57889 6.86969 10.2968C6.79413 11.0147 6.48841 11.7086 6.42659 12.4162C6.36476 13.1238 6.46437 13.8829 6.40941 14.5767C6.35102 15.3324 6.31667 16.0538 6.27201 16.7236C6.21705 17.5274 5.99035 18.2418 5.956 18.8601C5.88043 20.1826 4.91177 21.1684 5.96287 20.9451C7.01396 20.7219 6.90061 20.4952 7.76965 19.9044C8.63869 19.3135 8.69022 19.3822 9.55926 18.7914C10.4283 18.2006 10.2737 17.967 11.1428 17.3728C12.0118 16.7785 12.0359 16.8095 12.9049 16.2186C13.7739 15.6278 13.7465 15.566 14.6602 15.0439C15.5739 14.5218 15.7181 14.6901 16.333 13.8348L16.3364 13.8279Z" fill="#1E7CD8"/>
<path id="Vector_13" d="M27.2733 14.8468C26.5622 13.8885 27.4794 13.9297 27.9671 12.5763C28.2042 11.9203 28.5751 11.1921 28.8877 10.3745C29.1591 9.66694 29.6125 8.97995 29.9216 8.22082C30.2308 7.4617 30.406 6.6957 30.7254 5.97437C31.0449 5.25303 31.488 4.53856 31.8315 3.86531C32.2299 3.08214 32.3742 2.2234 32.7589 1.64289C33.3806 0.705152 34.0917 0.0490761 34.5863 0.00442171C35.0294 -0.0367977 35.3763 0.780721 35.7198 1.87647C35.9087 2.47072 35.9568 3.20923 36.1183 4.02675C36.2488 4.69313 36.503 5.39386 36.6163 6.16329C36.7194 6.86058 36.7057 7.60253 36.7984 8.35135C36.8911 9.10017 37.3205 9.76312 37.3961 10.4948C37.4717 11.2264 37.2003 11.9924 37.2621 12.7137C37.3239 13.4351 37.4785 14.1873 37.53 14.8949C37.5884 15.6644 37.7499 16.396 37.7945 17.0796C37.8495 17.8971 37.9903 18.6356 38.0247 19.2676C38.1002 20.6176 39.0861 21.5141 37.9972 21.3526C36.9083 21.1912 37.0045 21.0504 36.1114 20.4973C35.2183 19.9443 35.3592 19.7176 34.4626 19.168C33.5661 18.6184 33.5524 18.6459 32.6593 18.0929C31.7662 17.5398 31.6631 17.7116 30.7666 17.1586C29.8701 16.6055 30.0109 16.3617 29.0595 15.9151C28.108 15.4686 27.895 15.6815 27.2698 14.84L27.2733 14.8468Z" fill="#1E7CD8"/>
</g>
<path id="Vector_14" d="M1.42871 29.5935C1.42871 29.5935 2.58285 39.6854 6.71853 45.2363C10.8542 50.7872 21.6571 51.1753 25.2467 50.8765C28.8362 50.5776 35.3866 48.5785 37.5438 45.2947C39.8761 41.7429 42.0195 32.2384 42.1294 28.8516L1.42871 29.5935Z" fill="#F9EAB0"/>
<path id="Vector_15" d="M0.0170898 26.2109C0.0170898 26.2109 0.219752 25.8159 0.73843 25.8708C1.25711 25.9258 10.7788 28.3062 22.492 28.1276C34.2052 27.949 41.6315 25.8193 42.6517 25.864C43.6719 25.9086 42.504 30.7416 42.504 30.7416C42.504 30.7416 42.4868 32.2392 40.5907 32.4007C38.6946 32.5621 33.4289 34.2933 22.4095 34.3449C11.3902 34.3964 4.67488 33.0945 2.60361 32.5243C2.60361 32.5243 1.42885 32.3114 1.25711 31.6828C1.08536 31.0542 0.0170898 26.2109 0.0170898 26.2109Z" fill="#F4DC8A"/>
</g>
<defs>
<clipPath id="clip0_2143_23389">
<rect width="48" height="50.9506" fill="white"/>
</clipPath>
</defs>
</svg>
