<svg width="48" height="63" viewBox="0 0 48 63" fill="none" xmlns="http://www.w3.org/2000/svg">
<g id="_&#235;&#160;&#136;&#236;&#157;&#180;&#236;&#150;&#180;_1" clip-path="url(#clip0_2143_23413)">
<path id="Vector" d="M0.0172301 37.5787C0.230197 38.7054 0.728265 41.2163 1.25725 43.054C1.3603 43.4078 1.67975 43.6036 2.02668 43.7204C4.35557 44.5036 12.596 45.9188 21.6128 45.7333C31.5776 45.5272 37.0048 44.7062 41.5698 43.5246C41.9133 43.4353 42.2019 43.2017 42.298 42.8617C42.5969 41.8174 43.198 39.4817 43.2255 37.4997C43.2289 37.1734 43.0743 36.8642 42.7961 36.6891C41.3362 35.7513 35.7888 32.9518 21.5647 32.9106C7.34054 32.8694 2.05072 35.5933 0.436294 36.6101C0.109974 36.8162 -0.0549038 37.1974 0.0172301 37.5787Z" fill="#F4DC8A"/>
<path id="Vector_2" d="M2.22574 37.5584C1.96468 37.5 1.93377 37.1394 2.18108 37.0363C4.24892 36.1913 10.607 34.0342 21.5679 34.0479C32.5289 34.0617 39.1411 36.1604 41.3292 36.9848C41.5834 37.081 41.5594 37.452 41.2914 37.5103C38.8664 38.0462 31.4125 39.4957 21.5714 39.4957C11.7302 39.4957 4.53746 38.0771 2.22917 37.555L2.22574 37.5584Z" fill="#BFA762"/>
<g id="Group">
<path id="Vector_3" d="M21.0906 13.5747C19.514 13.5232 19.7853 12.9427 17.9202 13.0767C16.9893 13.1419 15.8832 13.2621 14.7531 13.4511C13.7536 13.6194 12.7059 13.9904 11.6754 14.2961C10.6449 14.6018 9.84117 15.3987 8.91373 15.8727C7.98629 16.3467 6.81841 16.5906 6.0799 17.3119C5.34138 18.0333 4.53417 18.9195 4.13915 19.9294C3.74413 20.9393 3.54147 22.114 3.25293 23.1857C2.9644 24.2574 2.63808 25.3841 2.47663 26.4627C2.30832 27.6031 2.81669 28.7606 2.81669 29.8289C2.81669 31.0037 2.26023 32.2025 2.49724 33.2261C2.76517 34.3837 3.65139 35.2596 4.25594 36.1217C4.89484 37.0389 5.74327 37.5404 6.80467 38.0007C8.16491 38.5674 7.76646 38.6052 9.50111 39.1411C10.3118 39.3918 11.2564 39.6941 12.3246 39.962C13.2143 40.1853 14.0936 40.8139 15.1138 41.0131C16.0413 41.1952 17.113 40.7727 18.1194 40.9032C19.1258 41.0337 20.0292 41.257 21.0254 41.3188C22.0215 41.3806 22.973 41.3635 23.9588 41.336C24.9446 41.3085 25.903 41.2192 26.8751 41.0887C27.8472 40.9581 28.8227 40.8688 29.7639 40.6078C30.7051 40.3467 31.6119 39.9792 32.4947 39.5567C33.5835 39.038 34.7377 38.8285 35.5243 38.2445C36.4964 37.5266 37.3792 36.7538 37.97 35.9569C38.6604 35.026 39.1207 33.9199 39.4092 32.9135C39.6978 31.9071 39.5363 30.698 39.5466 29.6056C39.5569 28.5133 39.1379 27.476 39.0142 26.3905C38.8905 25.3051 39.2821 24.1509 39.1619 23.0895C39.0417 22.0281 38.7188 20.9358 38.1142 20.0496C37.5647 19.2424 36.3521 18.9367 35.4899 18.2566C34.7171 17.6451 34.0919 16.7211 33.1336 16.2196C32.2439 15.7525 31.2821 15.2991 30.286 14.9315C29.2899 14.564 28.2731 14.4335 27.2564 14.1827C26.2396 13.932 25.2091 13.8461 24.1924 13.7053C23.1756 13.5644 22.1142 13.5885 21.1044 13.5679L21.0906 13.5747Z" fill="#1E7CD8"/>
<path id="Vector_4" d="M22.1968 13.539C21.9976 13.8619 21.8224 14.1779 21.6301 14.439C21.3999 14.7516 21.1045 14.9645 20.8916 15.1981C20.6202 15.4969 20.4656 15.8473 20.2355 16.0431C19.8817 16.3419 19.5348 16.469 19.3218 16.5961C19.2256 16.6545 19.0573 16.5377 19.0985 16.4347C19.2531 16.0534 19.3974 15.6996 19.5519 15.3801C19.7271 15.0126 19.9641 14.7069 20.1531 14.4012C20.3557 14.0646 20.5618 13.7657 20.792 13.4738C20.3763 13.4188 20.0328 13.3673 19.7168 13.278C19.3493 13.1749 19.0367 12.9516 18.6623 12.9173C18.3428 12.8898 17.9375 12.9242 17.5116 13.0272C17.3639 13.3776 17.2505 13.7898 17.1646 14.1539C17.0788 14.518 17.1269 14.9164 17.1097 15.2874C17.0925 15.679 17.0101 16.0637 17.0685 16.4209C17.1337 16.8125 17.2196 17.2075 17.381 17.5236C17.5597 17.8739 17.8448 18.1693 18.1402 18.3857C18.4596 18.6193 18.8375 18.7945 19.2291 18.8666C19.6 18.9319 19.9916 18.7979 20.3969 18.7292C20.7645 18.664 21.187 18.688 21.5614 18.5197C21.9049 18.3651 22.1934 18.0697 22.5266 17.8327C22.8358 17.6129 23.1037 17.3312 23.3888 17.0461C23.6567 16.7747 23.9452 16.5137 24.1823 16.1874C24.457 15.813 24.6631 15.3905 24.8246 14.9542C24.9929 14.4939 25.2024 14.0062 25.3124 13.5905C24.9723 13.46 24.5635 13.4738 24.2406 13.436C23.8662 13.3947 23.5262 13.3707 23.2205 13.4016C22.7155 13.4497 22.3239 13.5115 22.19 13.5459L22.1968 13.539Z" fill="#FFEFB1"/>
<path id="Vector_5" d="M19.6959 26.669C19.6959 27.3835 19.5517 28.098 19.3318 28.7266C19.0983 29.3929 18.7719 30.0628 18.3357 30.5711C17.8995 31.0795 17.1506 31.2959 16.5392 31.5947C15.9278 31.8936 15.3267 32.0378 14.6191 32.0378C13.9115 32.0378 13.2794 31.9451 12.6715 31.6463C12.0635 31.3474 11.5311 30.9524 11.0776 30.42C10.6242 29.8876 10.3803 29.3071 10.1468 28.6407C9.92694 28.0155 9.78954 27.3835 9.78954 26.669C9.78954 25.9546 9.68305 25.2401 9.90633 24.6115C10.1399 23.9451 10.4765 23.2822 10.9093 22.7704C11.3421 22.2585 12.0326 21.9254 12.6405 21.6265C13.2485 21.3277 13.9115 21.2555 14.6191 21.2555C15.3267 21.2555 16.0618 21.1731 16.6732 21.4719C17.2846 21.7708 17.6693 22.4131 18.1227 22.9455C18.5761 23.478 18.8578 24.0275 19.0914 24.6939C19.3112 25.3191 19.6959 25.9511 19.6959 26.6656V26.669Z" fill="white"/>
<path id="Vector_6" d="M32.4841 26.669C32.4841 27.3835 32.3914 28.0533 32.1716 28.6819C31.938 29.3482 31.6117 29.9562 31.1754 30.4646C30.7392 30.973 30.114 31.2959 29.506 31.5947C28.898 31.8935 28.2901 32.0412 27.5825 32.0412C26.8749 32.0412 26.2737 31.8798 25.6658 31.5844C25.0578 31.289 24.5357 30.918 24.0822 30.3856C23.6288 29.8532 23.2235 29.3482 22.9899 28.6819C22.7701 28.0567 22.619 27.38 22.619 26.6655C22.619 25.9511 22.6018 25.2194 22.8251 24.5908C23.0586 23.9245 23.5704 23.3886 24.0067 22.8768C24.4429 22.365 25.0337 21.994 25.6452 21.6952C26.2566 21.3963 26.8817 21.0322 27.5893 21.0322C28.2969 21.0322 29.0423 21.1559 29.6503 21.4513C30.2583 21.7467 30.7735 22.2963 31.2269 22.8287C31.6804 23.3611 31.9174 23.9932 32.1544 24.6595C32.3742 25.2847 32.491 25.9511 32.491 26.6621L32.4841 26.669Z" fill="white"/>
<path id="Vector_7" d="M18.4627 26.6685C18.4627 27.4173 18.3356 28.1386 18.0333 28.75C17.707 29.4095 17.2501 30.021 16.6765 30.4125C16.1028 30.8041 15.354 31.0686 14.6155 31.0686C13.877 31.0686 13.2244 30.6942 12.637 30.2958C12.0496 29.8973 11.5928 29.3786 11.2699 28.7157C10.9676 28.1008 10.7065 27.4173 10.7065 26.6685C10.7065 25.9196 10.8817 25.1949 11.184 24.58C11.5103 23.9205 12.0427 23.4087 12.6198 23.0171C13.1969 22.6255 13.877 22.4229 14.6155 22.4229C15.354 22.4229 15.9723 22.6976 16.5597 23.0961C17.1471 23.4946 17.6486 23.9583 17.9749 24.6178C18.2772 25.2326 18.4627 25.9196 18.4627 26.6719V26.6685Z" fill="#343535"/>
<path id="Vector_8" d="M17.1714 25.538C17.1714 25.7715 17.1233 25.9948 17.0134 26.1837C16.9035 26.3727 16.742 26.5582 16.5497 26.6681C16.3573 26.778 16.1306 26.8467 15.897 26.8467C15.6634 26.8467 15.4539 26.7402 15.265 26.6303C15.0761 26.5204 14.9112 26.3658 14.8013 26.17C14.6913 25.9742 14.6055 25.7715 14.6055 25.538C14.6055 25.3044 14.6707 25.0811 14.7772 24.8922C14.8837 24.7033 15.0692 24.5487 15.2615 24.4388C15.4539 24.3289 15.6634 24.2773 15.897 24.2773C16.1306 24.2773 16.3298 24.3529 16.5187 24.4628C16.7077 24.5727 16.8828 24.7101 16.9962 24.9059C17.1095 25.1017 17.1714 25.3078 17.1714 25.5414V25.538Z" fill="white"/>
<path id="Vector_9" d="M31.4674 26.6691C31.4674 27.4282 31.3472 28.1565 31.0415 28.7782C30.7118 29.448 30.2446 30.0629 29.6641 30.4579C29.0836 30.8529 28.3279 31.0968 27.5825 31.0968C26.8371 31.0968 26.1124 30.8357 25.5181 30.4338C24.9239 30.0319 24.5941 29.3793 24.2644 28.7095C23.9586 28.0878 23.6323 27.4283 23.6323 26.6726C23.6323 25.9169 23.9106 25.2299 24.2163 24.6082C24.546 23.9383 24.9994 23.3956 25.5799 22.9972C26.1604 22.5987 26.8371 22.3857 27.5825 22.3857C28.3279 22.3857 29.0492 22.5128 29.6435 22.9182C30.2377 23.3235 30.7598 23.8731 31.0862 24.5429C31.3919 25.1646 31.4709 25.9134 31.4709 26.6726L31.4674 26.6691Z" fill="#343535"/>
<path id="Vector_10" d="M30.1623 25.5379C30.1623 25.7715 30.0901 25.9948 29.9837 26.1837C29.8772 26.3726 29.702 26.5409 29.5096 26.6543C29.3173 26.7676 29.0974 26.8363 28.8639 26.8363C28.6303 26.8363 28.4173 26.747 28.2284 26.6371C28.0395 26.5272 27.8609 26.3726 27.7475 26.1802C27.6341 25.9879 27.562 25.768 27.562 25.5345C27.562 25.3009 27.6307 25.0742 27.7406 24.8853C27.8505 24.6963 28.0257 24.528 28.2181 24.4147C28.4104 24.3013 28.6337 24.291 28.8639 24.291C29.094 24.291 29.3207 24.3048 29.5096 24.4147C29.6986 24.5246 29.8428 24.7101 29.9562 24.9024C30.0695 25.0948 30.1657 25.2975 30.1657 25.531L30.1623 25.5379Z" fill="white"/>
<path id="Vector_11" d="M15.3751 14.3686C16.0552 13.4205 15.2171 13.5476 14.7328 12.2252C14.4958 11.5863 14.1248 10.8787 13.8122 10.0783C13.5408 9.38792 13.297 8.63566 12.9878 7.89715C12.6787 7.15863 12.3317 6.48195 12.0089 5.77778C11.686 5.07362 11.5177 4.23892 11.1707 3.58628C10.7688 2.82716 10.1471 2.2707 9.75553 1.7108C9.13724 0.824584 8.62543 0.302471 8.12049 0.257817C7.66021 0.216597 7.45755 0.828019 7.09688 1.93751C6.90108 2.53862 6.38928 3.18439 6.22096 4.01565C6.08357 4.69577 6.25188 5.48925 6.13509 6.26898C6.02861 6.98001 5.5855 7.67731 5.49275 8.43643C5.40001 9.19556 5.61641 9.94438 5.54084 10.6932C5.46527 11.442 5.14582 12.1599 5.08056 12.895C5.0153 13.6301 5.11835 14.4201 5.06339 15.138C5.00156 15.9212 4.96721 16.6734 4.91912 17.3707C4.86416 18.2054 4.62715 18.9474 4.58936 19.5897C4.51036 20.9637 3.50392 21.9873 4.59623 21.7572C5.68855 21.527 5.56832 21.29 6.47515 20.6752C7.38198 20.0603 7.43007 20.1324 8.33689 19.5176C9.24372 18.9027 9.07884 18.6588 9.98223 18.044C10.8856 17.4291 10.9097 17.46 11.8131 16.8418C12.7165 16.2235 12.6855 16.1651 13.637 15.6223C14.5885 15.0796 14.7362 15.2548 15.3751 14.3652V14.3686Z" fill="#1E7CD8"/>
<path id="Vector_12" d="M26.741 15.4224C26.0025 14.4263 26.954 14.4709 27.4624 13.066C27.7097 12.3859 28.0944 11.6268 28.4173 10.7784C28.699 10.0433 29.1695 9.32881 29.4924 8.54221C29.8153 7.75561 29.9939 6.95526 30.3271 6.20644C30.6603 5.45762 31.1206 4.71224 31.4744 4.01494C31.89 3.20086 32.0377 2.30777 32.4362 1.70666C33.0854 0.731131 33.8239 0.0475761 34.3391 -0.000513228C34.7994 -0.0417326 35.1567 0.8067 35.5173 1.94367C35.7131 2.55852 35.7646 3.33139 35.933 4.17639C36.0704 4.87025 36.3314 5.59846 36.4516 6.39536C36.5581 7.12014 36.5444 7.893 36.6406 8.6693C36.7367 9.4456 37.1833 10.136 37.2623 10.8986C37.3413 11.6611 37.0596 12.4546 37.1249 13.2034C37.1901 13.9523 37.3482 14.7354 37.4031 15.4705C37.4615 16.2708 37.6333 17.03 37.6779 17.741C37.7329 18.5929 37.8806 19.3589 37.9149 20.0149C37.9939 21.4198 39.0175 22.3507 37.8874 22.1824C36.7573 22.0141 36.857 21.8664 35.9295 21.2962C35.0021 20.726 35.1464 20.489 34.2189 19.9153C33.2915 19.3417 33.2709 19.3726 32.3434 18.799C31.416 18.2253 31.3061 18.4005 30.3786 17.8269C29.4512 17.2532 29.592 16.9991 28.6062 16.5353C27.6204 16.0716 27.3971 16.2949 26.7445 15.419L26.741 15.4224Z" fill="#1E7CD8"/>
</g>
<path id="Vector_13" d="M39.8867 43.2082C39.8867 43.2082 43.0812 40.3331 44.4243 42.5178C45.7673 44.7024 44.5101 48.127 42.5419 49.5148C40.5737 50.9025 36.146 50.2086 36.146 50.2086L35.3457 53.0802C35.3457 53.0802 41.4771 54.1588 44.8227 50.954C48.1684 47.7492 48.8382 44.3829 46.9833 40.7694C45.1284 37.1558 40.0791 40.1133 40.0791 40.1133L39.8833 43.2082H39.8867Z" fill="#F9EAB0"/>
<path id="Vector_14" d="M1.42871 40.9656C1.42871 40.9656 2.58285 51.0575 6.71853 56.6083C10.8542 62.1592 21.6571 62.5474 25.2467 62.2485C28.8362 61.9497 35.3866 59.9506 37.5438 56.6667C39.8761 53.115 42.0195 43.6105 42.1294 40.2236L1.42871 40.9656Z" fill="#F9EAB0"/>
<path id="Vector_15" d="M34.5899 35.4658C34.5899 35.4658 37.8668 35.8231 39.2992 37.8119C39.2992 37.8119 38.9522 38.6741 36.9428 38.5435L34.5864 35.4658H34.5899Z" fill="#11537F"/>
<path id="Vector_16" d="M0.0170898 37.5781C0.0170898 37.5781 0.219752 37.1831 0.73843 37.238C1.25711 37.293 10.7788 39.6734 22.492 39.4948C34.2052 39.3162 41.6315 37.1865 42.6517 37.2312C43.6719 37.2758 42.504 42.1088 42.504 42.1088C42.504 42.1088 42.4868 43.6064 40.5907 43.7679C38.6946 43.9293 33.4289 45.6605 22.4095 45.7121C11.3902 45.7636 4.67488 44.4617 2.60361 43.8915C2.60361 43.8915 1.42885 43.6786 1.25711 43.05C1.08536 42.4214 0.0170898 37.5781 0.0170898 37.5781Z" fill="#F4DC8A"/>
<g id="Group_2">
<path id="Vector_17" d="M32.9378 35.0098C32.9378 35.0098 29.7605 34.7625 29.1353 37.7715C28.7197 39.7672 30.5574 40.5641 31.6359 39.6539C31.6359 39.6539 32.7935 41.0382 34.1366 39.8943C34.1366 39.8943 36.0224 40.7943 36.5823 39.8943C37.4341 38.5238 36.9704 35.1197 32.9344 35.0098H32.9378Z" fill="white"/>
<path id="Vector_18" d="M34.2363 39.898C34.2363 39.898 34.7481 39.4343 34.8546 38.5068" stroke="#CEE1EE" stroke-width="0.343495" stroke-linecap="round" stroke-linejoin="round"/>
<path id="Vector_19" d="M31.6393 39.6535C31.6393 39.6535 31.3232 39.1452 31.4813 38.3242" stroke="#CEE1EE" stroke-width="0.343495" stroke-linecap="round" stroke-linejoin="round"/>
</g>
</g>
<defs>
<clipPath id="clip0_2143_23413">
<rect width="48" height="62.3203" fill="white"/>
</clipPath>
</defs>
</svg>
