<svg width="46" height="72" viewBox="0 0 46 72" fill="none" xmlns="http://www.w3.org/2000/svg">
<g id="_&#235;&#160;&#136;&#236;&#157;&#180;&#236;&#150;&#180;_1" clip-path="url(#clip0_2143_23441)">
<path id="Vector" d="M38.1617 53.9822C38.1617 53.9822 41.1731 51.2718 42.4393 53.3313C43.7054 55.3908 42.5202 58.6192 40.6648 59.9274C38.8093 61.2356 34.6353 60.5815 34.6353 60.5815L33.8809 63.2886C33.8809 63.2886 39.6609 64.3053 42.8149 61.2842C45.9688 58.263 46.6003 55.0896 44.8517 51.6831C43.1031 48.2766 38.343 51.0646 38.343 51.0646L38.1584 53.9822H38.1617Z" fill="#F9EAB0"/>
<path id="Vector_2" d="M0.57615 48.6774C0.776914 49.7395 1.24644 52.1066 1.74512 53.839C1.84226 54.1726 2.14341 54.3571 2.47046 54.4672C4.66592 55.2055 12.4342 56.5396 20.9343 56.3648C30.3282 56.1705 35.4444 55.3966 39.7479 54.2826C40.0717 54.1985 40.3437 53.9783 40.4344 53.6577C40.7161 52.6733 41.2828 50.4714 41.3087 48.603C41.3119 48.2953 41.1662 48.0039 40.9039 47.8388C39.5277 46.9547 34.2981 44.3157 20.889 44.2768C7.47986 44.2379 2.49313 46.8058 0.967964 47.7675C0.660341 47.9618 0.504911 48.3212 0.572911 48.6807L0.57615 48.6774Z" fill="#F4DC8A"/>
<path id="Vector_3" d="M2.6583 48.662C2.4122 48.6069 2.38306 48.2669 2.6162 48.1698C4.56556 47.3732 10.5594 45.3396 20.8923 45.3526C31.2251 45.3656 37.4586 47.3441 39.5213 48.1212C39.7609 48.2119 39.7382 48.5616 39.4856 48.6166C37.1995 49.1218 30.1728 50.4883 20.8955 50.4883C11.6182 50.4883 4.83756 49.1509 2.66154 48.6587L2.6583 48.662Z" fill="#BFA762"/>
<path id="Vector_4" d="M13.6227 42.1208C12.4214 42.5256 13.2925 42.9369 12.7938 44.3811C12.5509 45.0837 12.0199 45.8188 11.7446 46.7093C11.505 47.48 11.5698 48.3899 11.3463 49.235C11.1229 50.0802 10.8153 50.8509 10.6469 51.6734C10.4785 52.4958 10.2745 53.3669 10.1838 54.17C10.0835 55.0863 10.0057 55.9574 10.0673 56.7151C10.1515 57.7254 10.3814 58.6353 10.8703 59.1534C11.3593 59.6716 12.0976 60.0342 12.8974 60.4196C13.5547 60.7369 14.293 61.0575 15.1058 61.2809C15.8344 61.4817 16.6342 61.5561 17.4437 61.6792C18.208 61.7925 19.0013 61.731 19.8044 61.7666C20.6074 61.8022 21.3813 62.0581 22.1682 62.0095C22.9551 61.9609 23.7484 61.7763 24.5126 61.6371C25.2768 61.4979 26.0378 61.1773 26.7631 60.928C27.537 60.6624 28.2267 60.3257 28.8744 59.9306C29.5738 59.5032 30.3153 59.1729 30.8108 58.5868C31.3062 58.0007 31.4973 57.1879 31.63 56.2424C31.7369 55.4944 31.6624 54.6589 31.6009 53.762C31.5491 52.9686 31.5167 52.1299 31.3677 51.288C31.2188 50.4461 30.9144 49.6916 30.7072 48.8886C30.4999 48.0855 30.4805 47.1918 30.2247 46.434C29.9365 45.5824 29.6774 44.7664 29.3763 44.0799C28.9489 43.102 28.3919 42.4317 28.0389 42.001C26.8473 41.8165 26.8408 42.1014 25.633 42.1014C24.4252 42.1014 24.4284 42.0528 23.2206 42.0528C22.0128 42.0528 22.016 41.7646 20.8082 41.7646C19.6004 41.7646 19.6036 42.0593 18.3958 42.0593C17.1879 42.0593 17.1977 41.878 15.9931 41.8035C14.7885 41.729 14.7658 41.7355 13.6227 42.1208Z" fill="#1571BC"/>
<path id="Vector_5" d="M29.5447 53.6339C30.0239 52.3516 30.814 53.4687 32.1287 52.5426C32.7763 52.0893 33.5049 51.4805 34.1266 50.6548C34.6221 49.9974 35.1045 49.1879 35.4543 48.2391C35.7424 47.4652 35.8946 46.5488 36.0145 45.5482C36.1181 44.6966 36.2508 43.9227 36.4678 43.233C36.7268 42.404 36.9114 41.6009 37.287 40.9889C37.7469 40.2409 38.4592 39.7941 39.0065 39.344C39.7027 38.774 40.3633 38.2754 41.0336 38.1361C41.9629 37.9451 42.8728 38.1685 43.3359 38.6737C44.0709 39.48 44.1033 40.3348 43.7083 40.9209C43.3132 41.507 42.3839 41.7726 41.7427 42.1806C41.1663 42.5497 40.7324 43.2524 40.2791 43.968C39.8905 44.5833 39.6638 45.3313 39.3659 46.0631C39.068 46.7949 38.6438 47.4587 38.4366 48.1646C38.1937 48.9871 38.0124 49.7675 37.8796 50.3957C37.7598 50.9851 37.491 51.7266 37.0604 52.5005C36.7139 53.1255 36.2346 53.7245 35.7036 54.3074C35.1725 54.8903 34.6123 55.3145 33.9582 55.7095C33.3041 56.1046 32.6727 56.4964 31.8988 56.6097C31.1961 56.7133 30.4222 56.6745 29.6224 56.4607C28.7254 55.3404 29.0557 54.9356 29.5447 53.6339Z" fill="#1E7CD8"/>
<g id="Group">
<path id="Vector_6" d="M19.7429 14.3667C18.072 14.3117 18.3635 13.6997 16.385 13.8389C15.4006 13.9101 14.2284 14.0332 13.0335 14.234C11.9746 14.4121 10.8639 14.8039 9.77592 15.1277C8.6879 15.4515 7.83303 16.2934 6.85512 16.7986C5.8772 17.3037 4.63699 17.5595 3.8566 18.3237C3.07621 19.0879 2.2181 20.027 1.80038 21.0956C1.38266 22.1642 1.16894 23.4076 0.861322 24.541C0.553699 25.6743 0.210456 26.8659 0.0388348 28.009C-0.139263 29.2136 0.398268 30.4408 0.401506 31.5742C0.401506 32.8176 -0.187835 34.087 0.0615018 35.1685C0.34322 36.3958 1.28552 37.3219 1.92019 38.235C2.59696 39.2065 3.49393 39.7375 4.61756 40.2233C6.05853 40.8223 5.63434 40.8644 7.47036 41.4311C8.32847 41.6966 9.32582 42.0139 10.4592 42.3021C11.3982 42.5385 12.3308 43.2023 13.4123 43.4128C14.3935 43.6039 15.5301 43.157 16.5922 43.2995C17.6543 43.442 18.6128 43.6751 19.6684 43.7399C20.7241 43.8046 21.7279 43.7852 22.7706 43.7593C23.8132 43.7334 24.83 43.6363 25.8565 43.497C26.883 43.3578 27.9192 43.2639 28.9133 42.9854C29.9074 42.7069 30.8691 42.3183 31.8017 41.8747C32.9545 41.3275 34.1753 41.104 35.0075 40.4888C36.0372 39.7311 36.973 38.9086 37.5948 38.0667C38.3233 37.0823 38.8123 35.9101 39.1167 34.8479C39.4211 33.7858 39.2494 32.5035 39.2624 31.3443C39.2754 30.185 38.8317 29.0873 38.699 27.941C38.5662 26.7947 38.9807 25.5707 38.8544 24.447C38.7281 23.3234 38.3849 22.1674 37.7437 21.2283C37.1608 20.3735 35.8785 20.0529 34.9654 19.3276C34.1461 18.6799 33.4856 17.702 32.472 17.171C31.5297 16.6755 30.513 16.1963 29.4573 15.8077C28.4017 15.4191 27.3266 15.2799 26.2516 15.0144C25.1765 14.7488 24.0852 14.6582 23.0069 14.5092C21.9286 14.3602 20.805 14.3862 19.7397 14.3635L19.7429 14.3667Z" fill="#1E7CD8"/>
<path id="Vector_7" d="M20.9151 14.3308C20.7014 14.674 20.52 15.0043 20.3128 15.2828C20.0667 15.6131 19.7591 15.8365 19.5292 16.0858C19.241 16.3999 19.0791 16.7723 18.833 16.9796C18.4606 17.2937 18.0914 17.4297 17.868 17.5657C17.7676 17.6272 17.5895 17.5041 17.6348 17.3941C17.7967 16.9925 17.9522 16.6169 18.1141 16.2769C18.2987 15.8883 18.5512 15.5645 18.7488 15.2407C18.9657 14.8845 19.1794 14.5672 19.4255 14.2563C18.9851 14.198 18.6225 14.143 18.2889 14.0491C17.9004 13.939 17.5668 13.7026 17.1718 13.667C16.835 13.6378 16.4044 13.6734 15.9542 13.7835C15.7988 14.1527 15.6758 14.5898 15.5883 14.9752C15.5009 15.3605 15.5462 15.7847 15.5301 16.1733C15.5106 16.5845 15.4264 16.9958 15.488 17.3714C15.556 17.7859 15.6499 18.2036 15.8215 18.5404C16.0093 18.9127 16.3104 19.2236 16.6278 19.4535C16.9678 19.7028 17.3661 19.8874 17.7806 19.9619C18.1724 20.0331 18.5901 19.8907 19.0175 19.8162C19.4061 19.7482 19.853 19.7741 20.2513 19.596C20.6139 19.4308 20.9216 19.12 21.2745 18.8706C21.6016 18.6375 21.8833 18.3396 22.1877 18.0384C22.4726 17.7535 22.777 17.475 23.0296 17.1285C23.321 16.7302 23.538 16.2834 23.7096 15.8236C23.8909 15.3346 24.1079 14.8197 24.2277 14.3793C23.8683 14.2401 23.4343 14.2531 23.0943 14.2142C22.6993 14.1689 22.3366 14.1462 22.016 14.1786C21.4818 14.2304 21.064 14.2952 20.9248 14.3308H20.9151Z" fill="#FFEFB1"/>
<path id="Vector_8" d="M18.2664 28.2247C18.2664 28.9791 18.1142 29.7369 17.8811 30.4007C17.6318 31.1066 17.2885 31.8157 16.8287 32.3533C16.3689 32.8908 15.5755 33.1207 14.9279 33.4348C14.2803 33.7489 13.6424 33.9043 12.8944 33.9043C12.1464 33.9043 11.4761 33.8072 10.8317 33.4899C10.1873 33.1725 9.62385 32.7548 9.1446 32.1914C8.66536 31.6279 8.40954 31.0127 8.16021 30.3068C7.92706 29.643 7.78135 28.9759 7.78135 28.2214C7.78135 27.4669 7.67125 26.7092 7.90439 26.0454C8.15373 25.3395 8.50669 24.64 8.9665 24.0993C9.42632 23.5585 10.1549 23.2023 10.7993 22.8882C11.4437 22.5741 12.1431 22.4964 12.8944 22.4964C13.6456 22.4964 14.4228 22.409 15.0672 22.7263C15.7115 23.0436 16.1228 23.7236 16.602 24.2871C17.0813 24.8505 17.3792 25.4334 17.6285 26.1361C17.8617 26.7999 18.2697 27.4669 18.2697 28.2247H18.2664Z" fill="white"/>
<path id="Vector_9" d="M31.8018 28.2273C31.8018 28.9818 31.7046 29.6942 31.4682 30.358C31.2189 31.064 30.8757 31.7051 30.4158 32.2459C29.956 32.7866 29.2954 33.1266 28.6478 33.444C28.0002 33.7613 27.3623 33.9168 26.6143 33.9168C25.8663 33.9168 25.2283 33.7484 24.584 33.431C23.9396 33.1137 23.3858 32.7251 22.9066 32.1617C22.4274 31.5982 21.9967 31.064 21.7473 30.358C21.5142 29.6942 21.3523 28.9818 21.3523 28.2241C21.3523 27.4664 21.3361 26.6925 21.5692 26.0286C21.8186 25.3227 22.3594 24.7561 22.8192 24.2153C23.279 23.6745 23.9072 23.2795 24.5548 22.9621C25.2024 22.6448 25.863 22.2627 26.611 22.2627C27.359 22.2627 28.1491 22.3922 28.7935 22.7063C29.4379 23.0204 29.9819 23.6 30.4612 24.1635C30.9404 24.7269 31.193 25.3972 31.4423 26.0999C31.6755 26.7637 31.7985 27.4664 31.7985 28.2209L31.8018 28.2273Z" fill="white"/>
<path id="Vector_10" d="M16.9611 28.2247C16.9611 29.018 16.8251 29.779 16.5078 30.4299C16.1645 31.1293 15.6788 31.7769 15.07 32.1914C14.4613 32.6059 13.6712 32.8844 12.8908 32.8844C12.1104 32.8844 11.4174 32.4861 10.7957 32.0651C10.174 31.6442 9.6915 31.0937 9.34826 30.3942C9.02768 29.7434 8.75244 29.0213 8.75244 28.2279C8.75244 27.4346 8.94025 26.6672 9.26083 26.0163C9.60407 25.3168 10.1707 24.7761 10.7795 24.3616C11.3883 23.9471 12.1104 23.7334 12.8908 23.7334C13.6712 23.7334 14.3253 24.0216 14.947 24.4458C15.5687 24.87 16.0998 25.3557 16.4463 26.0551C16.7668 26.706 16.9644 27.4346 16.9644 28.2279L16.9611 28.2247Z" fill="#343535"/>
<path id="Vector_11" d="M15.5947 27.0252C15.5947 27.2713 15.5429 27.5077 15.4263 27.7085C15.3098 27.9092 15.1414 28.1035 14.9341 28.2233C14.7269 28.3431 14.4905 28.4111 14.2444 28.4111C13.9983 28.4111 13.7749 28.2978 13.5774 28.1845C13.3798 28.0711 13.205 27.9027 13.0852 27.6987C12.9654 27.4947 12.8779 27.2745 12.8779 27.0284C12.8779 26.7824 12.9459 26.5427 13.0625 26.3452C13.1791 26.1477 13.3701 25.9825 13.5741 25.866C13.7781 25.7494 14.0016 25.6943 14.2477 25.6943C14.4938 25.6943 14.7075 25.7753 14.905 25.8919C15.1025 26.0084 15.2936 26.1542 15.4102 26.3582C15.5267 26.5622 15.5947 26.7823 15.5947 27.0317V27.0252Z" fill="white"/>
<path id="Vector_12" d="M30.7268 28.228C30.7268 29.0311 30.6005 29.8018 30.2767 30.4591C29.927 31.1683 29.4348 31.8159 28.8195 32.2369C28.2043 32.6578 27.4044 32.9104 26.6143 32.9104C25.8242 32.9104 25.0568 32.6351 24.4286 32.2077C23.8004 31.7803 23.4507 31.0906 23.101 30.3814C22.7771 29.7241 22.4307 29.0279 22.4307 28.2248C22.4307 27.4217 22.7221 26.6996 23.0459 26.0423C23.3956 25.3331 23.8749 24.7568 24.4901 24.339C25.1054 23.9213 25.821 23.6914 26.6111 23.6914C27.4012 23.6914 28.1622 23.8242 28.7904 24.2548C29.4186 24.6855 29.969 25.2684 30.3188 25.9743C30.6426 26.6316 30.7235 27.425 30.7235 28.228H30.7268Z" fill="#343535"/>
<path id="Vector_13" d="M29.344 27.0279C29.344 27.274 29.2696 27.5136 29.153 27.7111C29.0364 27.9087 28.8551 28.09 28.6511 28.2098C28.4471 28.3296 28.2139 28.4041 27.9678 28.4041C27.7217 28.4041 27.4918 28.3102 27.2943 28.1936C27.0968 28.077 26.9057 27.9151 26.7859 27.7079C26.6661 27.5007 26.5884 27.2707 26.5884 27.0246C26.5884 26.7785 26.6629 26.5357 26.7762 26.3382C26.8895 26.1406 27.0773 25.9593 27.2813 25.8395C27.4853 25.7197 27.7185 25.71 27.9678 25.71C28.2172 25.71 28.4535 25.7262 28.6511 25.8427C28.8486 25.9593 29.004 26.1536 29.1206 26.3608C29.2372 26.5681 29.3408 26.7818 29.3408 27.0279H29.344Z" fill="white"/>
<path id="Vector_14" d="M13.6939 15.2048C14.4128 14.2009 13.5288 14.3337 13.0139 12.9381C12.7646 12.2613 12.3695 11.51 12.0393 10.6649C11.7543 9.93307 11.492 9.13973 11.165 8.3561C10.8379 7.57247 10.4688 6.85684 10.1288 6.11531C9.78875 5.37377 9.60741 4.48652 9.24151 3.7968C8.81731 2.9905 8.15673 2.4044 7.74548 1.81182C7.09138 0.87276 6.54737 0.322276 6.01308 0.273704C5.52736 0.22837 5.31041 0.879236 4.93154 2.05144C4.7243 2.68936 4.18353 3.3726 4.00544 4.25014C3.85972 4.969 4.03782 5.80768 3.91153 6.63665C3.79819 7.38789 3.3319 8.12619 3.23152 8.93249C3.13114 9.73878 3.36428 10.5289 3.28333 11.3222C3.20238 12.1156 2.86561 12.8765 2.79437 13.6537C2.72313 14.4308 2.83323 15.2663 2.77494 16.0272C2.71018 16.8562 2.67132 17.6528 2.62275 18.3878C2.56446 19.2686 2.31189 20.0587 2.27303 20.7387C2.18884 22.1927 1.12349 23.2774 2.28275 23.0313C3.442 22.7852 3.31247 22.5391 4.27096 21.885C5.22945 21.2309 5.28126 21.3119 6.23975 20.661C7.19824 20.0102 7.02338 19.7543 7.98187 19.1002C8.94036 18.4461 8.96302 18.4818 9.92151 17.8309C10.88 17.18 10.8444 17.1153 11.8514 16.5389C12.8585 15.9625 13.0139 16.1503 13.6907 15.208L13.6939 15.2048Z" fill="#1E7CD8"/>
<path id="Vector_15" d="M25.7204 16.3244C24.9367 15.272 25.947 15.3174 26.4846 13.8278C26.7469 13.109 27.1516 12.3059 27.4981 11.4057C27.796 10.6285 28.2947 9.87405 28.6347 9.03862C28.9747 8.20318 29.1658 7.36126 29.5187 6.56792C29.8717 5.77457 30.3574 4.9877 30.733 4.24617C31.1702 3.38483 31.3288 2.43929 31.7498 1.80138C32.4395 0.771648 33.2199 0.0495431 33.7639 -0.00226715C34.2529 -0.0476011 34.6317 0.852601 35.0106 2.05719C35.2178 2.71129 35.2729 3.52407 35.4477 4.42103C35.5935 5.15609 35.8719 5.92676 35.9982 6.77192C36.1116 7.53936 36.0986 8.35537 36.1958 9.18109C36.2929 10.0068 36.7721 10.7322 36.8531 11.5385C36.934 12.3448 36.6394 13.1867 36.7074 13.98C36.7754 14.7734 36.9438 15.6023 37.002 16.3795C37.0668 17.2279 37.2449 18.0309 37.2935 18.7822C37.3518 19.6824 37.5072 20.4951 37.5461 21.1881C37.627 22.6744 38.7118 23.6588 37.5169 23.4839C36.322 23.3091 36.4257 23.1504 35.4413 22.5449C34.4569 21.9394 34.6123 21.69 33.6311 21.0812C32.65 20.4725 32.6306 20.5049 31.6462 19.8993C30.6618 19.2938 30.5484 19.4784 29.5673 18.8728C28.5861 18.2673 28.7351 17.9953 27.6892 17.5063C26.6432 17.0174 26.4069 17.2505 25.7204 16.3244Z" fill="#1E7CD8"/>
</g>
<path id="Vector_16" d="M1.91064 51.8654C1.91064 51.8654 2.99866 61.3791 6.89738 66.6119C10.7961 71.8448 20.98 72.2107 24.3639 71.929C27.7477 71.6472 33.9229 69.7626 35.9564 66.667C38.1551 63.3187 40.1757 54.3588 40.2793 51.166L1.91064 51.8654Z" fill="#F9EAB0"/>
<path id="Vector_17" d="M0.576172 48.6793C0.576172 48.6793 0.767222 48.3069 1.25618 48.3587C1.74514 48.4105 10.7213 50.6545 21.7633 50.4861C32.8054 50.3178 39.8062 48.3101 40.7679 48.3522C41.7297 48.3943 40.6287 52.9504 40.6287 52.9504C40.6287 52.9504 40.6125 54.3622 38.8251 54.5144C37.0376 54.6666 32.0735 56.2986 21.6856 56.3472C11.2976 56.3957 4.96709 55.1685 3.01449 54.631C3.01449 54.631 1.90705 54.4302 1.74514 53.8376C1.58323 53.245 0.576172 48.676 0.576172 48.676V48.6793Z" fill="#F4DC8A"/>
</g>
<defs>
<clipPath id="clip0_2143_23441">
<rect width="45.8132" height="72" fill="white"/>
</clipPath>
</defs>
</svg>
