<svg width="48" height="71" viewBox="0 0 48 71" fill="none" xmlns="http://www.w3.org/2000/svg">
<g id="_&#235;&#160;&#136;&#236;&#157;&#180;&#236;&#150;&#180;_1" clip-path="url(#clip0_2143_23468)">
<path id="Vector" d="M14.8735 45.9895C13.5619 46.4314 14.5129 46.8804 13.9684 48.4572C13.7033 49.2244 13.1235 50.0269 12.823 50.9991C12.5614 51.8406 12.6321 52.834 12.3881 53.7567C12.1442 54.6795 11.8083 55.5209 11.6245 56.4189C11.4406 57.3169 11.2179 58.2679 11.1189 59.1447C11.0093 60.1452 10.9245 61.0962 10.9916 61.9235C11.0836 63.0265 11.3346 64.02 11.8684 64.5856C12.4023 65.1513 13.2083 65.5473 14.0816 65.968C14.7993 66.3144 15.6053 66.6644 16.4927 66.9084C17.2882 67.1276 18.1614 67.2089 19.0453 67.3432C19.8796 67.467 20.7458 67.3998 21.6226 67.4387C22.4993 67.4776 23.3443 67.7569 24.2034 67.7038C25.0625 67.6508 25.9287 67.4493 26.763 67.2973C27.5974 67.1453 28.4282 66.7953 29.2201 66.523C30.0651 66.2331 30.8181 65.8654 31.5252 65.4341C32.2888 64.9675 33.0984 64.6068 33.6394 63.9669C34.1803 63.327 34.3889 62.4397 34.5338 61.4073C34.6505 60.5906 34.5692 59.6785 34.502 58.6992C34.4454 57.833 34.4101 56.9174 34.2474 55.9982C34.0848 55.079 33.7525 54.2552 33.5262 53.3784C33.3 52.5017 33.2787 51.5259 32.9994 50.6986C32.6848 49.7688 32.402 48.8779 32.0732 48.1284C31.6065 47.0607 30.9984 46.3289 30.6131 45.8587C29.312 45.6572 29.305 45.9683 27.9863 45.9683C26.6676 45.9683 26.6711 45.9152 25.3524 45.9152C24.0337 45.9152 24.0372 45.6006 22.7185 45.6006C21.3998 45.6006 21.4034 45.9223 20.0847 45.9223C18.766 45.9223 18.7766 45.7243 17.4614 45.643C16.1462 45.5617 16.1215 45.5688 14.8735 45.9895Z" fill="#1E7CD8"/>
<g id="Group">
<path id="Vector_2" d="M16.9768 65.4678C16.9768 65.4678 21.0001 66.9774 22.8456 66.3905C22.8456 66.3905 23.4289 69.9188 19.3243 69.6607C19.3243 69.6607 15.5839 70.2512 16.9768 65.4678Z" fill="white"/>
<path id="Vector_3" d="M22.8457 66.3876C22.8457 66.3876 22.28 70.722 26.2962 69.7992C26.2962 69.7992 29.075 69.3538 28.3043 67.3952C28.3043 67.3952 27.9402 65.7972 27.8801 65.4648C27.8801 65.4648 26.6498 66.6881 22.8457 66.3876Z" fill="white"/>
<path id="Vector_4" d="M19.3598 69.8342C18.2603 69.8342 17.4613 69.5549 16.977 69.0034C16.4078 68.3493 16.3017 67.3382 16.6623 65.9947C17.3906 63.3078 16.8957 61.9891 16.8921 61.9785C16.8568 61.8866 16.9027 61.7841 16.9911 61.7487C17.083 61.7134 17.1856 61.7558 17.2209 61.8477C17.2421 61.9043 17.7654 63.2689 17.0053 66.0867C16.6765 67.3064 16.7542 68.2114 17.2421 68.77C17.783 69.3922 18.833 69.6079 20.3603 69.4135C22.8104 69.0988 22.775 67.4513 22.7326 65.3619C22.7255 65.0932 22.722 64.821 22.722 64.5488C22.722 64.4498 22.7998 64.372 22.8987 64.372C22.9977 64.372 23.0755 64.4498 23.0755 64.5488C23.0755 64.821 23.0826 65.0897 23.0861 65.3548C23.1285 67.4407 23.171 69.4099 20.4063 69.7635C20.0315 69.813 19.6851 69.8342 19.3598 69.8342Z" fill="#CBDDEA"/>
<path id="Vector_5" d="M25.4511 70.0578C24.7582 70.0578 24.1041 69.9094 23.6728 69.5982C22.241 68.5694 22.7253 65.2285 22.7465 65.0871C22.7607 64.9916 22.8491 64.9245 22.9481 64.9386C23.0435 64.9527 23.1107 65.0447 23.0966 65.1401C23.093 65.1719 22.6228 68.4104 23.8779 69.3119C24.737 69.9306 26.7981 69.7821 27.7421 69.0326C28.2653 68.6189 28.3996 68.0886 28.1416 67.4629C27.2224 65.2391 27.9471 62.2623 27.9789 62.135C28.0037 62.0396 28.0956 61.983 28.1946 62.0078C28.29 62.0325 28.3466 62.128 28.3219 62.2234C28.3148 62.2517 27.5936 65.2144 28.4668 67.3285C28.785 68.0957 28.6047 68.7992 27.9612 69.3083C27.3426 69.7962 26.3633 70.0543 25.4511 70.0543V70.0578Z" fill="#CBDDEA"/>
<path id="Vector_6" d="M25.239 70.0531C25.2143 70.0531 25.1896 70.0495 25.1648 70.0354C25.0764 69.993 25.0375 69.8904 25.08 69.8021C25.2532 69.4238 24.9633 68.7909 24.836 68.5788C24.7865 68.494 24.8148 68.3879 24.8961 68.3349C24.981 68.2854 25.087 68.3101 25.1401 68.395C25.1613 68.4339 25.688 69.3212 25.4017 69.947C25.3699 70.0106 25.3062 70.0495 25.2426 70.0495L25.239 70.0531Z" fill="#CBDDEA"/>
<path id="Vector_7" d="M27.2542 69.6968C27.2542 69.6968 27.2224 69.6968 27.2047 69.6897C27.1128 69.6615 27.0562 69.566 27.0845 69.4706C27.2189 69.0145 26.7769 68.371 26.5931 68.1625C26.5295 68.0882 26.5365 67.9786 26.6108 67.9114C26.685 67.8478 26.7946 67.8549 26.8582 67.9291C26.8901 67.9645 27.636 68.8342 27.4204 69.5695C27.3992 69.6473 27.3284 69.6968 27.2507 69.6968H27.2542Z" fill="#CBDDEA"/>
<path id="Vector_8" d="M17.7156 69.3921C17.6343 69.3921 17.5636 69.3355 17.5424 69.2542C17.2984 68.1689 17.9878 67.6421 18.0161 67.6209C18.0939 67.5608 18.207 67.5785 18.2636 67.6562C18.3202 67.734 18.306 67.8436 18.2283 67.9037C18.2035 67.9214 17.6944 68.328 17.8889 69.1765C17.9101 69.2719 17.85 69.3674 17.7545 69.3886C17.7404 69.3886 17.7298 69.3921 17.7156 69.3921Z" fill="#CBDDEA"/>
<path id="Vector_9" d="M19.586 69.8413C19.5118 69.8413 19.4446 69.7954 19.4199 69.7211C19.1477 68.908 19.5966 67.8827 19.6179 67.8403C19.6568 67.7519 19.7628 67.7095 19.8512 67.7519C19.9396 67.7908 19.982 67.8969 19.9396 67.9853C19.936 67.9959 19.5295 68.9327 19.7557 69.6115C19.7876 69.7035 19.7381 69.806 19.6426 69.8343C19.6249 69.8413 19.6037 69.8449 19.586 69.8449V69.8413Z" fill="#CBDDEA"/>
</g>
<path id="Vector_10" d="M32.2567 58.5608C32.7799 57.1608 33.6425 58.3805 35.0779 57.3694C35.785 56.8744 36.5804 56.2097 37.2592 55.3082C37.8002 54.5905 38.3269 53.7067 38.7087 52.6708C39.0234 51.8259 39.1896 50.8253 39.3204 49.7329C39.4335 48.8031 39.5785 47.9581 39.8153 47.2051C40.0982 46.3 40.2997 45.4233 40.7098 44.7551C41.2118 43.9384 41.9896 43.4505 42.5871 42.9591C43.3472 42.3369 44.0684 41.7924 44.8002 41.6404C45.8149 41.4318 46.8083 41.6758 47.3139 42.2273C48.1164 43.1076 48.1518 44.0409 47.7205 44.6808C47.2891 45.3207 46.2745 45.6106 45.5745 46.0561C44.9452 46.4591 44.4714 47.2263 43.9765 48.0076C43.5522 48.6794 43.3048 49.496 42.9795 50.295C42.6542 51.094 42.1911 51.8188 41.9648 52.5895C41.6997 53.4875 41.5017 54.3395 41.3568 55.0254C41.226 55.6688 40.9325 56.4784 40.4623 57.3234C40.084 58.0057 39.5608 58.6598 38.981 59.2961C38.4012 59.9325 37.7896 60.3956 37.0754 60.827C36.3613 61.2583 35.6719 61.6861 34.8269 61.8098C34.0597 61.9229 33.2148 61.8805 32.3415 61.6472C31.3622 60.4239 31.7228 59.982 32.2567 58.5608Z" fill="#1E7CD8"/>
<path id="Vector_11" d="M21.5553 15.6866C19.731 15.6265 20.0492 14.9583 17.8891 15.1103C16.8143 15.1881 15.5345 15.3224 14.2299 15.5416C13.0739 15.7361 11.8612 16.1639 10.6733 16.5174C9.48543 16.8709 8.55209 17.7902 7.4844 18.3417C6.41671 18.8932 5.06265 19.1725 4.21063 20.0068C3.3586 20.8412 2.42172 21.8665 1.96565 23.0331C1.50959 24.1998 1.27625 25.5574 0.940389 26.7948C0.604527 28.0322 0.229775 29.3332 0.0423997 30.5812C-0.152047 31.8964 0.434828 33.2363 0.438364 34.4737C0.438364 35.8312 -0.205078 37.2171 0.0671475 38.3979C0.374726 39.7379 1.40353 40.749 2.09646 41.746C2.83536 42.8066 3.81466 43.3864 5.04144 43.9167C6.61469 44.5707 6.15156 44.6167 8.15612 45.2354C9.093 45.5253 10.1819 45.8718 11.4193 46.1864C12.4446 46.4445 13.4627 47.1692 14.6436 47.399C15.7148 47.6076 16.9557 47.1198 18.1153 47.2753C19.2749 47.4309 20.3214 47.6854 21.4739 47.7561C22.6265 47.8268 23.7224 47.8056 24.8608 47.7773C25.9992 47.7491 27.1094 47.643 28.2301 47.491C29.3508 47.3389 30.4821 47.2364 31.5675 46.9324C32.6528 46.6283 33.7029 46.2041 34.7211 45.7197C35.9796 45.1223 37.3125 44.8783 38.2211 44.2066C39.3453 43.3793 40.3671 42.4813 41.0459 41.5621C41.8413 40.4874 42.3752 39.2075 42.7075 38.0479C43.0575 36.8353 42.8524 35.4883 42.8666 34.2226C42.8807 32.9782 42.3964 31.7585 42.2514 30.507C42.1065 29.2448 42.559 27.919 42.4211 26.6923C42.2832 25.4655 41.9085 24.2033 41.2085 23.1781C40.5721 22.2447 39.1721 21.8947 38.1751 21.1028C37.2807 20.3957 36.5595 19.328 35.4529 18.7482C34.4241 18.2073 33.314 17.6841 32.1614 17.2598C31.0089 16.8356 29.8351 16.6836 28.6614 16.3937C27.4876 16.1038 26.2962 16.0048 25.1189 15.8422C23.9416 15.6795 22.7149 15.7078 21.5517 15.6831L21.5553 15.6866Z" fill="#1E7CD8"/>
<path id="Vector_12" d="M22.8352 15.6485C22.6019 16.0232 22.4039 16.3838 22.1776 16.6879C21.909 17.0485 21.5731 17.2924 21.3221 17.5646C21.0074 17.9076 20.8307 18.3141 20.562 18.5404C20.1554 18.8833 19.7524 19.0318 19.5084 19.1803C19.3988 19.2475 19.2044 19.1131 19.2539 18.9929C19.4306 18.5546 19.6003 18.1444 19.7771 17.7732C19.9786 17.349 20.2544 16.9954 20.4701 16.6419C20.7069 16.253 20.9403 15.9065 21.2089 15.5671C20.7281 15.5035 20.3322 15.4434 19.968 15.3409C19.5438 15.2207 19.1796 14.9626 18.7483 14.9237C18.3806 14.8919 17.9104 14.9308 17.419 15.051C17.2493 15.454 17.115 15.9313 17.0195 16.352C16.9241 16.7727 16.9735 17.2359 16.9559 17.6601C16.9347 18.1091 16.8427 18.5581 16.9099 18.9682C16.9842 19.4207 17.0867 19.8768 17.2741 20.2445C17.4791 20.651 17.8079 20.9904 18.1544 21.2415C18.5256 21.5137 18.9604 21.7152 19.413 21.7965C19.8407 21.8743 20.2968 21.7187 20.7635 21.6374C21.1877 21.5632 21.6756 21.5915 22.1105 21.397C22.5064 21.2167 22.8423 20.8773 23.2277 20.6051C23.5847 20.3505 23.8923 20.0253 24.2246 19.6965C24.5357 19.3854 24.8681 19.0813 25.1438 18.703C25.462 18.2682 25.6989 17.7803 25.8863 17.2783C26.0843 16.7444 26.3211 16.1823 26.4519 15.7015C26.0595 15.5495 25.5858 15.5636 25.2145 15.5212C24.7832 15.4717 24.3873 15.4469 24.0373 15.4823C23.4539 15.5389 22.9979 15.6096 22.8458 15.6485H22.8352Z" fill="#FFEFB1"/>
<path id="Vector_13" d="M19.9432 30.8179C19.9432 31.6417 19.7771 32.4689 19.5225 33.1937C19.2503 33.9644 18.8756 34.7387 18.3735 35.3255C17.8715 35.9124 17.0053 36.1634 16.2983 36.5064C15.5912 36.8493 14.8947 37.019 14.078 37.019C13.2613 37.019 12.5295 36.9129 11.826 36.5665C11.1224 36.22 10.5073 35.7639 9.98404 35.1488C9.4608 34.5336 9.18151 33.8619 8.90928 33.0912C8.65474 32.3664 8.49564 31.6381 8.49564 30.8144C8.49564 29.9906 8.37544 29.1633 8.62999 28.4386C8.90221 27.6679 9.28757 26.9042 9.7896 26.3138C10.2916 25.7234 11.0871 25.3345 11.7906 24.9916C12.4942 24.6487 13.2578 24.5638 14.078 24.5638C14.8982 24.5638 15.7467 24.4683 16.4503 24.8148C17.1538 25.1613 17.6028 25.9037 18.126 26.5189C18.6493 27.134 18.9745 27.7704 19.2468 28.5376C19.5013 29.2623 19.9468 29.9906 19.9468 30.8179H19.9432Z" fill="white"/>
<path id="Vector_14" d="M34.721 30.8188C34.721 31.6426 34.6149 32.4204 34.3568 33.1451C34.0846 33.9158 33.7099 34.6158 33.2078 35.2063C32.7058 35.7967 31.9846 36.1679 31.2775 36.5143C30.5704 36.8608 29.874 37.0305 29.0573 37.0305C28.2406 37.0305 27.5441 36.8467 26.8406 36.5002C26.1371 36.1537 25.5325 35.7295 25.0093 35.1143C24.486 34.4992 24.0158 33.9158 23.7436 33.1451C23.489 32.4204 23.3123 31.6426 23.3123 30.8153C23.3123 29.988 23.2946 29.1431 23.5491 28.4183C23.8214 27.6476 24.4118 27.0289 24.9138 26.4385C25.4158 25.8481 26.1017 25.4168 26.8088 25.0703C27.5159 24.7238 28.2371 24.3066 29.0537 24.3066C29.8704 24.3066 30.7331 24.4481 31.4366 24.791C32.1401 25.1339 32.7341 25.7668 33.2573 26.3819C33.7806 26.9971 34.0563 27.7289 34.3286 28.4961C34.5831 29.2208 34.7174 29.988 34.7174 30.8118L34.721 30.8188Z" fill="white"/>
<path id="Vector_15" d="M18.5184 30.8186C18.5184 31.6848 18.3699 32.5156 18.0234 33.2262C17.6487 33.9899 17.1184 34.6969 16.4537 35.1495C15.789 35.602 14.9264 35.9061 14.0744 35.9061C13.2224 35.9061 12.4658 35.4712 11.787 35.0116C11.1082 34.552 10.5814 33.951 10.2067 33.1873C9.85666 32.4767 9.55615 31.6883 9.55615 30.8222C9.55615 29.956 9.7612 29.1181 10.1112 28.4075C10.486 27.6438 11.1047 27.0534 11.7693 26.6009C12.434 26.1484 13.2224 25.915 14.0744 25.915C14.9264 25.915 15.6406 26.2297 16.3194 26.6928C16.9981 27.156 17.578 27.6863 17.9562 28.4499C18.3062 29.1605 18.5219 29.956 18.5219 30.8222L18.5184 30.8186Z" fill="#343535"/>
<path id="Vector_16" d="M17.0263 29.5107C17.0263 29.7794 16.9697 30.0374 16.8424 30.2566C16.7151 30.4758 16.5313 30.6879 16.305 30.8188C16.0788 30.9496 15.8207 31.0238 15.552 31.0238C15.2833 31.0238 15.0394 30.9001 14.8237 30.7763C14.608 30.6526 14.4171 30.4688 14.2863 30.246C14.1555 30.0233 14.0601 29.7829 14.0601 29.5142C14.0601 29.2455 14.1343 28.9839 14.2616 28.7682C14.3888 28.5526 14.5974 28.3723 14.8202 28.245C15.0429 28.1177 15.2868 28.0576 15.5555 28.0576C15.8242 28.0576 16.0576 28.146 16.2732 28.2733C16.4889 28.4006 16.6975 28.5596 16.8247 28.7824C16.952 29.0051 17.0263 29.2455 17.0263 29.5177V29.5107Z" fill="white"/>
<path id="Vector_17" d="M33.5474 30.8183C33.5474 31.6951 33.4095 32.5365 33.056 33.2542C32.6742 34.0285 32.1368 34.7355 31.4651 35.1951C30.7933 35.6547 29.9201 35.9305 29.0575 35.9305C28.1948 35.9305 27.3569 35.63 26.6711 35.1633C25.9852 34.6966 25.6034 33.9436 25.2216 33.1694C24.868 32.4517 24.4897 31.6916 24.4897 30.8148C24.4897 29.938 24.8079 29.1496 25.1615 28.4319C25.5433 27.6577 26.0665 27.0284 26.7383 26.5723C27.41 26.1162 28.1913 25.8652 29.0539 25.8652C29.9166 25.8652 30.7474 26.0102 31.4333 26.4804C32.1191 26.9506 32.7201 27.587 33.102 28.3577C33.4555 29.0754 33.5439 29.9415 33.5439 30.8183H33.5474Z" fill="#343535"/>
<path id="Vector_18" d="M32.0379 29.5102C32.0379 29.7789 31.9566 30.0405 31.8293 30.2562C31.7021 30.4718 31.5041 30.6698 31.2813 30.8006C31.0586 30.9314 30.8041 31.0127 30.5354 31.0127C30.2667 31.0127 30.0157 30.9102 29.8 30.7829C29.5844 30.6557 29.3758 30.4789 29.245 30.2526C29.1141 30.0264 29.0293 29.7753 29.0293 29.5067C29.0293 29.238 29.1106 28.9728 29.2344 28.7572C29.3581 28.5415 29.5631 28.3435 29.7859 28.2127C30.0086 28.0819 30.2631 28.0713 30.5354 28.0713C30.8076 28.0713 31.0657 28.089 31.2813 28.2162C31.497 28.3435 31.6667 28.5556 31.794 28.7819C31.9212 29.0082 32.0344 29.2415 32.0344 29.5102H32.0379Z" fill="white"/>
<path id="Vector_19" d="M14.9509 16.6029C15.7358 15.507 14.7706 15.6519 14.2085 14.1282C13.9363 13.3893 13.505 12.5691 13.1443 11.6463C12.8332 10.8473 12.5469 9.98115 12.1898 9.12559C11.8327 8.27002 11.4297 7.4887 11.0585 6.6791C10.6872 5.86949 10.4893 4.90079 10.0898 4.14776C9.62663 3.26744 8.90541 2.62754 8.45641 1.98056C7.74227 0.955299 7.14832 0.354283 6.56498 0.301252C6.03467 0.251757 5.7978 0.96237 5.38416 2.24218C5.15789 2.93865 4.56748 3.68462 4.37304 4.64271C4.21395 5.42757 4.40839 6.34324 4.27051 7.2483C4.14677 8.06851 3.63768 8.87457 3.52808 9.75489C3.41848 10.6352 3.67303 11.4978 3.58465 12.364C3.49626 13.2302 3.12858 14.061 3.0508 14.9095C2.97302 15.758 3.09323 16.6701 3.02959 17.5009C2.95888 18.406 2.91646 19.2757 2.86343 20.0782C2.79979 21.0399 2.52403 21.9025 2.4816 22.6449C2.38968 24.2323 1.22654 25.4167 2.49221 25.148C3.75788 24.8793 3.61646 24.6106 4.66294 23.8964C5.70942 23.1823 5.76598 23.2707 6.81246 22.5601C7.85893 21.8495 7.66802 21.5702 8.7145 20.856C9.76097 20.1419 9.78572 20.1808 10.8322 19.4701C11.8787 18.7595 11.8398 18.6888 12.9393 18.0595C14.0388 17.4302 14.2085 17.6353 14.9474 16.6065L14.9509 16.6029Z" fill="#1E7CD8"/>
<path id="Vector_20" d="M28.0817 17.8263C27.2261 16.6772 28.3292 16.7267 28.9161 15.1005C29.2024 14.3156 29.6444 13.4388 30.0226 12.456C30.3479 11.6075 30.8923 10.7838 31.2636 9.87162C31.6348 8.95949 31.8434 8.04029 32.2287 7.17412C32.6141 6.30795 33.1444 5.44885 33.5545 4.63925C34.0318 3.69883 34.205 2.6665 34.6646 1.97003C35.4176 0.845771 36.2697 0.0573792 36.8636 0.000813004C37.3975 -0.0486825 37.8111 0.934156 38.2247 2.24932C38.451 2.96347 38.5111 3.85085 38.702 4.83016C38.8611 5.63269 39.1652 6.47411 39.303 7.39685C39.4268 8.23474 39.4126 9.12566 39.5187 10.0272C39.6248 10.9287 40.148 11.7206 40.2364 12.6009C40.3248 13.4813 40.003 14.4005 40.0773 15.2666C40.1515 16.1328 40.3354 17.0379 40.399 17.8864C40.4697 18.8126 40.6642 19.6894 40.7172 20.5096C40.7808 21.4925 40.9505 22.3798 40.993 23.1364C41.0813 24.7592 42.2657 25.8339 40.9611 25.643C39.6566 25.4521 39.7697 25.2789 38.695 24.6177C37.6202 23.9566 37.7899 23.6844 36.7187 23.0197C35.6474 22.3551 35.6262 22.3904 34.5515 21.7293C33.4767 21.0682 33.353 21.2697 32.2818 20.6086C31.2105 19.9475 31.3732 19.6505 30.2312 19.1167C29.0893 18.5828 28.8312 18.8374 28.0817 17.8263Z" fill="#1E7CD8"/>
</g>
<defs>
<clipPath id="clip0_2143_23468">
<rect width="48" height="70.0573" fill="white"/>
</clipPath>
</defs>
</svg>
