<svg width="350" height="246" viewBox="0 0 350 246" fill="none" xmlns="http://www.w3.org/2000/svg">
<g clip-path="url(#clip0_1920_19252)">
<rect width="350" height="246" fill="#4E5968"/>
<g clip-path="url(#clip1_1920_19252)">
<path d="M520.831 -60.9952H-74.925V324.988H520.831V-60.9952Z" fill="#D6F1FF"/>
<path fill-rule="evenodd" clip-rule="evenodd" d="M190.002 52.811C190.346 49.2448 190.698 45.6871 191.042 42.1209C186.612 40.5518 182.173 38.9827 177.734 37.4052C175.594 40.8958 173.455 44.3865 171.315 47.8771C177.608 49.3035 183.641 51.8124 190.01 52.811H190.002Z" fill="#C9B797"/>
<path fill-rule="evenodd" clip-rule="evenodd" d="M168.554 52.3746C160.541 65.4477 152.528 78.504 144.514 91.5687C157.789 97.0312 171.416 101.579 184.749 106.916C186.343 90.5366 187.937 74.1491 189.523 57.77C182.391 56.5701 175.678 53.5494 168.554 52.3746Z" fill="#70CB9B"/>
<path fill-rule="evenodd" clip-rule="evenodd" d="M159.006 102.536C153.266 100.396 147.535 98.2226 141.871 95.8816C137.55 102.93 133.22 109.987 128.882 117.06C136.77 119.653 144.632 122.246 152.494 124.839C154.634 117.396 157.302 110.104 159.006 102.544V102.536Z" fill="#78CBF9"/>
<path fill-rule="evenodd" clip-rule="evenodd" d="M163.763 104.306C162.035 111.799 159.392 119.024 157.286 126.416C165.551 129.135 173.807 131.853 182.047 134.572C182.786 127.087 183.507 119.594 184.237 112.11C177.466 109.374 170.61 106.849 163.763 104.314V104.306Z" fill="#AFE0F8"/>
<path fill-rule="evenodd" clip-rule="evenodd" d="M225.185 74.6609C226.049 68.2167 227.643 61.7053 227.895 55.1772C218.313 51.7872 208.739 48.3889 199.148 44.999C198.468 52.0557 197.78 59.1041 197.092 66.1609C206.096 69.9032 215.569 72.5799 225.176 74.7028C225.176 74.6861 225.176 74.6777 225.176 74.6609H225.185Z" fill="#98D7F6"/>
<path fill-rule="evenodd" clip-rule="evenodd" d="M232.711 56.8806C232.283 62.8129 231.025 68.6698 230.219 74.6609C230.169 75.0553 230.043 75.4077 229.858 75.7014C234.952 76.7335 240.062 77.6397 245.147 78.4956C245.222 72.7898 245.289 67.0923 245.365 61.3697C241.144 59.8761 236.924 58.3825 232.703 56.8889L232.711 56.8806Z" fill="#78CBF9"/>
<path fill-rule="evenodd" clip-rule="evenodd" d="M191.42 124.436C191 128.707 190.589 132.978 190.169 137.249C206.951 142.77 223.708 148.291 240.456 153.813C241.539 154.165 242.638 154.459 243.729 154.769C243.779 154.786 243.855 154.744 243.913 154.727C243.972 154.702 244.022 154.66 244.199 154.568C244.249 150.792 244.291 147.016 244.341 143.24" fill="#70CB9B"/>
<path fill-rule="evenodd" clip-rule="evenodd" d="M244.417 137.996C244.643 119.896 244.87 101.764 245.096 83.5553C228.675 80.8115 196.597 71.3465 196.597 71.3465C195.044 87.3144 193.492 103.274 191.931 119.242" fill="#78CBF9"/>
<path fill-rule="evenodd" clip-rule="evenodd" d="M228.566 -10.7336C228.256 -7.19258 227.903 -3.6516 227.551 -0.110633C226.787 7.49994 225.999 15.1021 225.235 22.7127C225.008 24.9782 224.815 27.2438 224.589 29.7359C229.816 31.5819 235.036 33.4279 240.246 35.2739C248.025 29.5261 252.598 20.6821 258.748 13.3484C259.05 12.996 259.336 12.6268 259.638 12.2744C248.654 5.47772 238.476 -2.46849 228.566 -10.7336Z" fill="#78CBF9"/>
<path fill-rule="evenodd" clip-rule="evenodd" d="M262.541 8.15437C262.659 8.22989 262.751 8.30541 262.852 8.38932C269.539 0.250118 276.034 -8.04851 282.319 -16.4982C276.864 -23.8067 271.243 -30.9977 266.065 -38.3733C258.539 -33.3975 251.012 -28.4301 243.485 -23.4626C239.323 -20.7188 235.162 -17.9666 231.008 -15.2228C241.06 -6.81504 251.373 1.2822 262.55 8.16276L262.541 8.15437Z" fill="#AFE0F8"/>
<path fill-rule="evenodd" clip-rule="evenodd" d="M305.024 21.8485C300.376 9.46346 293.202 -1.61257 285.406 -12.311C277.93 -2.39293 270.118 7.23986 262.306 16.9062C256.793 23.728 252.296 31.4225 245.776 37.229C259.202 41.9783 272.594 46.7108 286.011 51.46C286.564 50.6461 287.018 49.9916 287.445 49.3204C293.353 40.2665 299.26 31.2127 305.167 22.1505C305.117 22.0499 305.058 21.9576 305.016 21.8485H305.024Z" fill="#98D7F6"/>
<path fill-rule="evenodd" clip-rule="evenodd" d="M272.828 22.0918C264.228 18.9872 261.4 26.6481 260.98 29.2829C260.301 33.5706 262.701 36.4152 266.426 38.1437C268.885 39.2765 271.469 40.0484 273.961 41.1057C276.722 42.272 281.74 46.0479 284.492 42.8007C286.967 39.8722 289.451 31.3051 282.671 31.3386C280.229 31.347 278.442 31.4477 276.806 29.4675C274.985 27.2439 275.866 23.6106 272.828 22.1002" fill="#549EE1"/>
<path fill-rule="evenodd" clip-rule="evenodd" d="M296.608 -7.75475C301.559 -0.404295 306.065 7.20628 309.597 15.3707L318.601 1.56758C318.584 -5.81644 318.483 -13.2088 318.232 -20.5929C310.814 -16.6323 303.514 -12.5376 296.6 -7.75475H296.608Z" fill="#70CB9B"/>
<path fill-rule="evenodd" clip-rule="evenodd" d="M-5.4062 155.835C-5.24677 155.927 -5.11251 156.036 -4.98665 156.145C1.27298 146.957 7.70883 137.878 12.7853 127.977C7.4655 121.843 2.01138 115.835 -3.62733 109.987C-8.66188 115.214 -13.6964 120.433 -18.7226 125.661C-22.6915 129.789 -26.652 133.926 -30.6125 138.054C-22.0454 143.727 -14.2838 150.582 -5.41458 155.835H-5.4062Z" fill="#78CBF9"/>
<path fill-rule="evenodd" clip-rule="evenodd" d="M37.941 158.704C30.901 149.709 23.7352 140.798 16.326 132.097C7.67492 148.367 -4.50032 162.514 -13.1514 178.767C-3.0403 183.39 7.06237 188.014 17.207 192.654C17.6433 192.008 18.0042 191.521 18.3062 191.018C24.8595 180.252 31.4045 169.487 37.9578 158.721C37.9578 158.713 37.941 158.704 37.9326 158.696L37.941 158.704Z" fill="#AFE0F8"/>
<path fill-rule="evenodd" clip-rule="evenodd" d="M26.1349 79.0913C17.7691 87.7759 9.40335 96.4689 1.0376 105.154C15.5119 120.156 28.8032 136.259 41.6581 152.655C48.0016 142.233 54.3452 131.812 60.6971 121.398C50.7035 106.127 38.5283 92.4664 26.1349 79.0913Z" fill="#98D7F6"/>
<path fill-rule="evenodd" clip-rule="evenodd" d="M33.62 98.8352C33.5025 98.9191 33.62 98.8352 33.1837 98.9862C28.0149 100.79 23.5593 92.928 18.0129 96.4857C13.4734 99.4058 11.9462 106.379 17.3836 109.584C19.1624 110.633 21.0168 111.396 22.4852 112.882C23.7187 114.132 23.9285 116.171 23.9704 117.815C24.0627 121.457 26.6807 124.738 30.5238 124.293C33.0578 123.991 35.617 122.439 36.1457 119.737C36.7834 116.473 35.466 113.142 36.4226 109.945C37.6812 105.758 38.9063 97.8618 33.6116 98.8268L33.62 98.8352Z" fill="#549EE1"/>
<path fill-rule="evenodd" clip-rule="evenodd" d="M60.2361 78.034C57.5426 70.2556 54.8491 62.4773 52.1556 54.7073C51.971 54.1618 51.7025 53.6416 51.4172 52.9703C50.897 53.4654 50.5026 53.8094 50.1334 54.187C43.2948 61.2774 36.4646 68.3761 29.626 75.4664C35.5248 81.8351 41.3733 88.2794 46.97 94.9082C51.434 89.3198 55.8896 83.7231 60.2361 78.0424V78.034Z" fill="#78CBF9"/>
<path fill-rule="evenodd" clip-rule="evenodd" d="M62.191 83.6728C58.2557 88.7661 54.2532 93.8091 50.2256 98.8436C54.9245 104.591 59.4304 110.499 63.5756 116.658C65.4048 113.654 67.234 110.65 69.0632 107.654C69.7177 106.588 69.8436 105.691 69.424 104.491C67.0074 97.5598 64.5992 90.6205 62.191 83.6812V83.6728Z" fill="#70CB9B"/>
<path fill-rule="evenodd" clip-rule="evenodd" d="M141.645 243.755C145.756 255.67 149.876 267.594 153.988 279.509C154.206 280.13 154.466 280.734 154.768 281.481C157.839 280.012 160.759 278.51 163.772 277.218C165.156 276.622 165.794 275.766 166.18 274.34C168.949 264.111 171.735 253.883 174.504 243.654C163.545 243.805 152.587 244.158 141.636 243.755H141.645Z" fill="#549EE1"/>
<path fill-rule="evenodd" clip-rule="evenodd" d="M112.897 160.508C122.127 160.164 131.274 158.654 140.428 157.32C142.299 151.614 144.053 145.866 145.605 140.051C137.105 137.257 128.605 134.455 120.114 131.66C119.812 132.021 119.619 132.206 119.484 132.424C116.203 137.735 112.965 143.064 109.642 148.342C109.029 149.315 109.306 150.095 109.608 150.985C110.707 154.157 111.798 157.337 112.897 160.508Z" fill="#78CBF9"/>
<path fill-rule="evenodd" clip-rule="evenodd" d="M114.609 165.476C118.36 176.342 122.111 187.2 125.862 198.066C130.116 186.252 134.597 174.521 138.649 162.648C130.661 163.831 122.665 165.065 114.609 165.484V165.476Z" fill="#C9B797"/>
<path fill-rule="evenodd" clip-rule="evenodd" d="M140.722 181.796C137.189 191.454 133.581 201.079 130.267 210.804C133.279 219.513 136.283 228.232 139.295 236.95C151.63 237.529 163.99 237.067 176.341 236.925C179.874 223.91 183.415 210.896 186.956 197.873C171.038 194.122 155.582 188.61 140.722 181.796Z" fill="#78CBF9"/>
<path fill-rule="evenodd" clip-rule="evenodd" d="M153.585 142.686C150.455 154.333 146.537 165.728 142.442 177.072C157.16 183.861 172.49 189.298 188.273 193.015C189.96 186.806 191.647 180.596 193.342 174.387C194.869 168.765 196.404 163.143 197.99 157.303C183.163 152.42 168.37 147.553 153.585 142.686Z" fill="#98D7F6"/>
<path fill-rule="evenodd" clip-rule="evenodd" d="M302.088 139.942C289.124 140.739 276.16 141.537 263.204 142.342C263.095 142.72 262.994 142.904 262.986 143.089C262.793 157.035 262.608 170.989 262.415 184.934C275.774 184.163 289.04 182.165 302.381 181.201C302.448 167.448 303.288 153.67 302.071 139.951L302.088 139.942Z" fill="#C9B797"/>
<path fill-rule="evenodd" clip-rule="evenodd" d="M315.379 139.12C312.61 139.288 309.849 139.464 307.089 139.632C308.331 153.351 307.508 167.129 307.424 180.89C309.875 180.773 312.325 180.689 314.775 180.672C315.857 166.844 316.218 152.973 315.379 139.128V139.12Z" fill="#78CBF9"/>
<path fill-rule="evenodd" clip-rule="evenodd" d="M262.348 189.961C262.172 202.706 261.996 215.461 261.828 228.207C261.828 228.408 261.87 228.601 261.912 228.802C261.92 228.861 261.971 228.911 262.021 228.953C262.071 228.995 262.13 229.029 262.264 229.113C262.818 228.861 263.431 228.593 264.027 228.299C271.847 224.456 279.676 220.621 287.488 216.77C295.744 212.708 304.001 208.639 312.258 204.578C313.063 198.301 313.776 192 314.347 185.69C296.919 185.858 279.718 188.954 262.348 189.944V189.961Z" fill="#78CBF9"/>
<path fill-rule="evenodd" clip-rule="evenodd" d="M303.648 190.456C303.598 190.456 303.556 190.43 303.506 190.43C299.696 190.984 299.344 197.974 295.61 199.619C292.321 201.062 288.201 199.182 287.286 204.267C286.749 207.271 288.553 208.907 291.398 208.672C296.071 208.286 300.737 205.903 304.529 203.235C305.889 202.278 307.919 201.003 308.658 199.409C310.604 195.205 308.658 190.456 303.648 190.464V190.456Z" fill="#549EE1"/>
<path fill-rule="evenodd" clip-rule="evenodd" d="M322.545 156.053C336.608 156.053 350.68 155.952 364.676 154.71C364.802 151.908 364.936 149.105 365.011 146.294C365.104 143.022 365.028 139.741 365.028 136.057C350.688 136.939 336.373 137.82 322.067 138.709C322.427 144.49 322.57 150.272 322.537 156.053H322.545Z" fill="#AFE0F8"/>
<path fill-rule="evenodd" clip-rule="evenodd" d="M348.221 160.735C339.645 161.046 331.061 161.087 322.477 161.087C322.184 174.454 321.017 187.796 319.406 201.079C328.661 196.522 337.917 191.975 347.172 187.427C347.315 178.524 348.07 169.638 348.229 160.735H348.221Z" fill="#98D7F6"/>
<path fill-rule="evenodd" clip-rule="evenodd" d="M-0.00237274 213.732C0.173838 210.963 0.240959 208.186 0.148659 205.4C-8.14997 201.607 -16.457 197.806 -24.7808 193.997C-26.0478 199.165 -27.3065 204.309 -28.5735 209.461C-19.0246 210.686 -9.53446 212.348 -0.0107594 213.732H-0.00237274Z" fill="#AFE0F8"/>
<path fill-rule="evenodd" clip-rule="evenodd" d="M38.9983 223.18C41.0037 237.722 41.4904 252.448 41.3981 267.14C50.368 257.633 59.3379 248.126 68.3078 238.611C68.7022 238.192 69.0462 237.713 69.5245 237.134C59.3379 232.477 49.1681 227.82 39.0067 223.172L38.9983 223.18Z" fill="#78CBF9"/>
<path fill-rule="evenodd" clip-rule="evenodd" d="M32.6131 244.754C32.1768 236.128 31.3545 227.535 29.9196 219.027C22.8041 215.771 15.697 212.524 8.57312 209.26C8.43887 220.294 6.1817 231.236 4.17627 242.102C13.6832 242.706 23.2321 243.084 32.6131 244.754Z" fill="#78CBF9"/>
<path fill-rule="evenodd" clip-rule="evenodd" d="M174.227 -35.5288C174.68 -42.3002 174.94 -49.0717 174.764 -55.8684C169.033 -55.8684 163.293 -55.8684 157.562 -55.8768C156.48 -55.8768 155.7 -55.5831 154.936 -54.7859C151.823 -51.5387 148.693 -48.2998 145.58 -45.0609C144.397 -29.588 144.515 -14.0648 144.598 1.45005C153.015 4.44561 162.127 7.65934 170.711 10.6717C171.097 -3.94532 172.977 -18.4952 174.051 -33.0702C173.732 -33.9009 173.782 -34.8575 174.227 -35.5372V-35.5288Z" fill="#AFE0F8"/>
<path fill-rule="evenodd" clip-rule="evenodd" d="M178.019 -1.09235C177.692 3.60657 177.441 8.3055 177.365 13.0128C192.695 18.3746 205.021 22.5953 206.297 22.8554C206.549 21.8401 207.446 13.6925 208.537 2.99404C198.401 1.2823 188.307 -0.773491 178.019 -1.09235Z" fill="#78CBF9"/>
<path fill-rule="evenodd" clip-rule="evenodd" d="M287.269 102.687C287.378 93.9013 287.487 85.1076 287.538 76.3139C279.684 73.5365 271.813 70.7591 263.917 67.9733C263.842 79.3346 263.649 90.5533 263.498 101.755C271.452 101.688 279.382 101.604 287.278 102.687H287.269Z" fill="#78CBF9"/>
<path fill-rule="evenodd" clip-rule="evenodd" d="M263.431 106.79C263.339 114.149 263.28 121.499 263.297 128.875C271.218 128.388 279.13 127.901 287.034 127.406C287.068 120.845 287.144 114.291 287.219 107.73C279.348 106.538 271.377 106.689 263.431 106.781V106.79Z" fill="#AFE0F8"/>
<path fill-rule="evenodd" clip-rule="evenodd" d="M328.637 90.8302C317.183 86.7858 305.729 82.7414 294.242 78.6885C294.133 94.7907 293.831 110.893 293.747 126.995C305.041 126.299 316.327 125.602 327.613 124.906C327.797 113.544 328.477 102.192 328.637 90.8302Z" fill="#549EE1"/>
<path fill-rule="evenodd" clip-rule="evenodd" d="M333.646 92.6008C333.444 103.266 332.832 113.931 332.647 124.595C336.171 124.377 339.696 124.159 343.22 123.941V95.9823C340.031 94.858 336.834 93.7252 333.646 92.6008Z" fill="#70CB9B"/>
<path fill-rule="evenodd" clip-rule="evenodd" d="M243.821 179.623C243.863 177.248 243.905 174.865 243.939 172.432C232.854 168.782 221.938 165.182 211.038 161.591C210.82 162.061 209.586 166.349 207.749 172.952C207.749 172.952 231.679 178.079 243.821 179.623Z" fill="#78CBF9"/>
<path fill-rule="evenodd" clip-rule="evenodd" d="M206.364 177.911C204.283 185.421 201.69 194.861 198.988 204.787C213.731 206.466 228.667 205.157 243.477 206.231C243.527 201.288 243.569 196.346 243.636 191.404C243.662 189.155 243.695 186.906 243.737 184.649C231.168 183.03 206.372 177.903 206.372 177.903L206.364 177.911Z" fill="#78CBF9"/>
<path fill-rule="evenodd" clip-rule="evenodd" d="M221.929 212.348C213.681 212.306 205.433 212.222 197.226 211.265C189.784 238.687 182.106 267.392 182.123 268.231C182.76 267.946 183.373 267.694 183.96 267.409C189.448 264.741 194.927 262.064 200.406 259.396C206.977 256.19 213.547 252.985 220.125 249.78C222.986 237.68 222.466 224.708 221.929 212.348Z" fill="#AFE0F8"/>
<path fill-rule="evenodd" clip-rule="evenodd" d="M226.964 212.381C227.45 223.785 227.887 235.683 225.856 246.994C231.05 244.468 236.236 241.943 241.438 239.425C242.621 238.855 243.108 238.242 243.116 236.874C243.15 228.895 243.309 220.915 243.41 212.927C237.939 212.516 232.46 212.415 226.972 212.373L226.964 212.381Z" fill="#70CB9B"/>
<path fill-rule="evenodd" clip-rule="evenodd" d="M102.283 273.081C109.659 270.035 117.085 267.115 124.368 263.868C120.055 251.374 115.742 238.88 111.412 226.327C104.918 233.208 98.4819 240.029 92.0544 246.834C95.6625 255.502 98.9602 264.296 102.283 273.081Z" fill="#98D7F6"/>
<path fill-rule="evenodd" clip-rule="evenodd" d="M89.1845 161.96C84.6869 148.929 80.1726 135.864 75.6247 122.699C67.5862 135.915 59.6232 149.021 51.677 162.086C64.1795 161.817 76.7071 161.238 89.1845 161.96Z" fill="#78CBF9"/>
<path fill-rule="evenodd" clip-rule="evenodd" d="M69.139 166.709C62.2836 166.827 55.4282 167.07 48.5812 167.179C42.2712 177.567 35.9613 187.938 29.6345 198.343C42.137 204.066 54.5556 209.746 67.0245 215.452C68.7279 199.266 69.525 182.988 69.139 166.709Z" fill="#98D7F6"/>
<path fill-rule="evenodd" clip-rule="evenodd" d="M90.9638 167.104C85.3754 166.726 79.7787 166.625 74.1735 166.651C74.5763 183.684 73.6785 200.709 71.8157 217.634C75.5916 219.362 79.3759 221.091 83.1686 222.828C89.831 215.763 96.4011 208.798 102.963 201.842C98.9603 190.246 94.9663 178.683 90.9638 167.095V167.104Z" fill="#AFE0F8"/>
<path fill-rule="evenodd" clip-rule="evenodd" d="M15.4786 33.839C15.4703 27.9066 15.4535 21.9743 15.4367 16.0335C15.4367 14.6322 15.3108 13.2393 15.2437 11.6786C6.83599 9.20327 -1.55493 6.72795 -9.95425 4.25262C-11.3639 12.3667 -14.1078 20.1031 -17.053 27.7892C-6.10282 29.266 4.74665 31.2211 15.4786 33.8307V33.839Z" fill="#AFE0F8"/>
<path fill-rule="evenodd" clip-rule="evenodd" d="M-18.9074 32.5889C-21.6429 39.6372 -24.3615 46.6856 -26.1824 54.0025C-16.8684 59.7167 -7.54612 65.4226 1.79298 71.1536C2.19575 70.8179 2.41392 70.6585 2.59852 70.4739C6.60938 66.3288 10.6118 62.1585 14.6395 58.0302C15.3024 57.3505 15.5289 56.6373 15.5205 55.7059C15.5038 50.1511 15.487 44.5879 15.4786 39.0247C4.14244 36.2054 -7.32796 34.0992 -18.9158 32.5889H-18.9074Z" fill="#78CBF9"/>
<path fill-rule="evenodd" clip-rule="evenodd" d="M361.369 246.406C361.965 231.898 362.678 206.768 362.251 205.568C361.94 205.685 361.63 205.786 361.336 205.937C345.813 213.581 330.298 221.234 314.775 228.861C313.902 229.289 313.491 229.91 313.189 230.791C312.115 233.971 310.982 237.126 309.866 240.281C309.79 240.491 309.715 240.709 309.639 240.927C326.866 242.958 344.051 245.483 361.369 246.406Z" fill="#78CBF9"/>
<path fill-rule="evenodd" clip-rule="evenodd" d="M335.064 43.5138C343.044 38.1352 351.023 32.7734 359.012 27.4032C351.628 17.2502 345.561 6.19096 338.429 -4.12988C331.968 5.77141 325.523 15.6559 319.071 25.5488C324.617 31.3134 330.348 37.0612 335.064 43.5138Z" fill="#78CBF9"/>
<path fill-rule="evenodd" clip-rule="evenodd" d="M316.243 29.8702C310.546 38.6136 304.84 47.3569 299.134 56.1086C302.096 57.1575 304.815 57.9379 307.357 59.0958C309.497 60.0692 311.024 59.7503 312.971 58.4329C318.937 54.3885 324.911 50.3609 330.885 46.3332C326.564 40.426 321.345 35.1481 316.243 29.8702Z" fill="#C9B797"/>
<path fill-rule="evenodd" clip-rule="evenodd" d="M360.246 -37.6013C354.263 -28.43 348.305 -19.2923 342.348 -10.1546C350.244 0.795605 356.646 12.7443 364.55 23.6777C370.835 19.457 377.12 15.228 383.404 11.0074C384.176 10.4871 384.932 9.9585 385.813 9.33757C377.296 -6.29473 368.838 -21.818 360.237 -37.6013H360.246Z" fill="#98D7F6"/>
<path fill-rule="evenodd" clip-rule="evenodd" d="M106.797 12.2744C103.382 11.0577 99.9668 9.84939 96.5517 8.63271C95.0833 8.10408 94.1855 8.28867 93.0863 9.45501C85.6099 17.3341 78.0413 25.1293 70.4979 32.958C70.0867 33.3859 69.7259 33.8558 69.3315 34.3173C71.2447 39.8302 73.1242 45.2507 74.987 50.6209H104.355C105.916 37.8835 107.133 25.0957 106.789 12.2744H106.797Z" fill="#78CBF9"/>
<path fill-rule="evenodd" clip-rule="evenodd" d="M157.52 30.2897C142.861 25.0873 128.211 19.8933 113.56 14.6825C113.703 26.6983 112.545 38.6806 111.076 50.6209H147.661C151.605 44.1766 155.515 37.7828 159.601 31.112C158.737 30.7679 158.141 30.5078 157.52 30.2897Z" fill="#78CBF9"/>
<path fill-rule="evenodd" clip-rule="evenodd" d="M34.0059 14.607C34.0647 22.1924 34.1234 29.7862 34.1822 37.3968C35.1471 36.6081 41.9186 29.6855 50.7375 20.5562C45.1155 18.6766 39.5188 16.7467 33.9976 14.5987L34.0059 14.607Z" fill="#78CBF9"/>
<path fill-rule="evenodd" clip-rule="evenodd" d="M54.6058 16.5538C59.825 11.1416 65.5224 5.21763 71.0353 -0.546935C58.6754 -3.2572 46.3576 -6.21081 33.8467 -8.02325C33.8802 -2.27547 33.9222 3.47232 33.9642 9.2201C40.744 11.9304 47.6665 14.2547 54.6058 16.5538Z" fill="#C9B797"/>
<path fill-rule="evenodd" clip-rule="evenodd" d="M261.937 254.881C266.619 263.239 270.764 272.016 276.151 279.928C282.78 260.99 289.191 242.312 289.208 241.506C280.112 245.97 271.033 250.426 261.945 254.881H261.937Z" fill="#98D7F6"/>
<path fill-rule="evenodd" clip-rule="evenodd" d="M87.9263 87.9522C92.2896 100.639 96.7032 113.318 101.201 126.114C101.62 125.585 101.847 125.351 102.015 125.082C109.264 113.192 116.514 101.294 123.764 89.3954C111.807 89.1269 99.875 88.2878 87.9263 87.9522Z" fill="#78CBF9"/>
<path fill-rule="evenodd" clip-rule="evenodd" d="M138.851 64.424C138.825 64.3653 138.783 64.3149 138.758 64.2814H79.8875C81.9684 70.4991 84.0745 76.6916 86.189 82.8757C99.7404 83.2029 113.267 84.235 126.818 84.4196C130.837 77.8159 134.865 71.2207 138.884 64.6254C138.909 64.5834 138.884 64.4995 138.851 64.4408V64.424Z" fill="#549EE1"/>
<path fill-rule="evenodd" clip-rule="evenodd" d="M355.278 57.5099C349.303 61.5291 343.321 65.5484 337.296 69.6096C343.707 71.8752 350.075 74.1323 356.436 76.3811C356.234 70.0795 355.873 63.7863 355.286 57.5099H355.278Z" fill="#98D7F6"/>
<mask id="mask0_1920_19252" style="mask-type:luminance" maskUnits="userSpaceOnUse" x="-75" y="-61" width="596" height="386">
<path d="M520.831 -60.9952H-74.925V324.988H520.831V-60.9952Z" fill="white"/>
</mask>
<g mask="url(#mask0_1920_19252)">
<path d="M165.643 -91.4543C164.997 -90.783 164.359 -90.1201 163.713 -89.4489L158.15 -83.6759L149.406 -74.5885L137.844 -62.5727C133.178 -57.7228 128.513 -52.8812 123.856 -48.0312C118.486 -42.4513 113.116 -36.8713 107.737 -31.2829C101.838 -25.1576 95.9395 -19.0322 90.049 -12.8984C83.7307 -6.33671 77.4123 0.233391 71.0939 6.7951C64.4818 13.6589 57.8782 20.531 51.2661 27.3948C44.6541 34.2586 37.6561 41.5335 30.8594 48.5987C24.0627 55.6638 17.2577 62.729 10.4527 69.8026L-9.6604 90.696C-16.1634 97.4591 -22.6747 104.214 -29.1777 110.977C-35.2947 117.329 -41.4117 123.689 -47.5287 130.041C-53.159 135.89 -58.7893 141.738 -64.4112 147.587C-69.4206 152.797 -74.4384 158 -79.4478 163.21L-92.3027 176.569C-95.6842 180.085 -99.0741 183.6 -102.456 187.116L-109.588 194.534L-113.314 198.41C-113.473 198.57 -113.624 198.729 -113.783 198.897C-116.066 201.272 -116.318 205.467 -113.783 207.8C-111.249 210.132 -107.322 210.334 -104.881 207.8C-104.235 207.129 -103.597 206.466 -102.951 205.794L-97.3876 200.021L-88.6442 190.934C-84.7928 186.932 -80.933 182.921 -77.0815 178.918L-63.0938 164.377C-57.7236 158.797 -52.3535 153.217 -46.9749 147.628C-41.076 141.503 -35.1772 135.378 -29.2868 129.244L-10.3317 109.55L9.49609 88.9507L29.9028 67.7468C36.7079 60.6816 43.5045 53.6165 50.3096 46.5429C57.0139 39.5784 63.7183 32.614 70.4226 25.6495C77.127 18.685 83.437 12.1317 89.9399 5.36864L108.291 -13.6956L125.173 -31.241L140.21 -46.8649L153.065 -60.2233C156.446 -63.7391 159.836 -67.2549 163.218 -70.7707L170.35 -78.1882L174.076 -82.0648C174.235 -82.2243 174.386 -82.3837 174.546 -82.5515C176.828 -84.9262 177.08 -89.1216 174.546 -91.4543C172.012 -93.787 168.085 -93.9884 165.643 -91.4543Z" fill="white"/>
<path d="M91.224 1.29066C95.6292 2.85137 100.034 4.41208 104.44 5.9644L140.101 18.5844C157.722 24.8188 175.343 31.0533 192.964 37.2877C214.462 44.8983 235.959 52.5005 257.457 60.1111C280.926 68.4181 304.396 76.7167 327.865 85.0237C351.334 93.3308 375.551 101.898 399.389 110.331C421.474 118.143 443.559 125.963 465.644 133.775C484.364 140.404 503.093 147.024 521.813 153.653C535.272 158.419 548.731 163.177 562.19 167.943C568.542 170.192 574.86 172.583 581.254 174.689C581.531 174.782 581.808 174.882 582.077 174.983C585.282 176.116 588.965 173.699 589.821 170.586C590.778 167.104 588.638 163.982 585.424 162.841C581.019 161.28 576.614 159.72 572.209 158.167C560.319 153.964 548.437 149.751 536.547 145.548C518.926 139.313 501.305 133.079 483.685 126.844C462.187 119.234 440.689 111.631 419.192 104.021C395.722 95.7138 372.253 87.4152 348.784 79.1081C324.945 70.6752 301.098 62.234 277.259 53.8011L211.004 30.3568C192.284 23.728 173.556 17.1076 154.836 10.4787C141.377 5.71268 127.918 0.955022 114.458 -3.81103C108.107 -6.05979 101.788 -8.45121 95.3943 -10.5573C95.1174 -10.6496 94.8405 -10.7503 94.572 -10.851C91.3666 -11.9838 87.683 -9.5672 86.8271 -6.45417C85.8706 -2.97193 88.0103 0.149494 91.224 1.29066Z" fill="white"/>
<path d="M50.746 34.653C51.8284 37.7996 52.9192 40.9378 54.0017 44.0844C56.9553 52.6347 59.9089 61.1935 62.8625 69.7438L75.9607 107.696C81.289 123.127 86.6172 138.566 91.9455 153.997C97.7771 170.896 103.617 187.804 109.449 204.704L127.12 255.888C132.591 271.747 138.07 287.598 143.541 303.456C148.181 316.899 152.822 330.341 157.462 343.792C160.801 353.458 164.133 363.124 167.472 372.782C169.05 377.347 170.602 381.928 172.205 386.485C172.272 386.686 172.339 386.879 172.414 387.08C173.489 390.185 176.778 392.568 180.159 391.477C183.239 390.479 185.706 387.064 184.556 383.732C183.474 380.586 182.383 377.448 181.3 374.301C178.347 365.751 175.393 357.192 172.44 348.642L159.341 310.689C154.013 295.258 148.685 279.819 143.357 264.388C137.525 247.489 131.685 230.581 125.853 213.682L108.182 162.497C102.711 146.638 97.2317 130.788 91.7609 114.929L77.8403 74.5938C74.5007 64.9275 71.1695 55.2611 67.8299 45.6031C66.2524 41.0385 64.7001 36.457 63.0974 31.9008C63.0303 31.6994 62.9632 31.5064 62.8877 31.305C61.8136 28.2003 58.5244 25.8173 55.1428 26.9082C52.0634 27.9067 49.5964 31.3218 50.746 34.653Z" fill="white"/>
<path d="M315.22 78.2019C317.183 76.8845 319.138 75.5672 321.102 74.2498L336.994 63.5597C344.865 58.2651 352.744 52.9704 360.614 47.6757C370.163 41.2483 379.721 34.8292 389.269 28.4017C399.792 21.3282 410.314 14.2462 420.836 7.17269C431.358 0.0991364 441.956 -7.03316 452.52 -14.1319C462.422 -20.7943 472.323 -27.4483 482.224 -34.1107C490.54 -39.7074 498.863 -45.3042 507.179 -50.8925C513.195 -54.937 519.211 -58.9814 525.219 -63.0258L533.711 -68.7317C533.837 -68.8156 533.954 -68.8995 534.08 -68.975C536.807 -70.8126 538.259 -74.6053 536.337 -77.5841C534.584 -80.3027 530.648 -81.8047 527.728 -79.8412C525.765 -78.5239 523.81 -77.2065 521.846 -75.8891L505.954 -65.1991L482.333 -49.315C472.784 -42.8876 463.227 -36.4685 453.678 -30.0411C443.156 -22.9675 432.634 -15.8856 422.112 -8.81203C411.547 -1.71331 400.992 5.39381 390.427 12.4925C380.526 19.1549 370.625 25.8089 360.724 32.4713C352.408 38.0681 344.084 43.6648 335.769 49.2532C329.753 53.2976 323.736 57.3421 317.728 61.3865C314.901 63.2912 312.065 65.196 309.237 67.0923L308.868 67.3356C306.141 69.1733 304.689 72.966 306.61 75.9447C308.364 78.6634 312.299 80.1654 315.22 78.2019Z" fill="white"/>
<path d="M111.63 200.214C110.405 201.515 109.172 202.816 107.947 204.116C104.616 207.64 101.293 211.165 97.9615 214.697C93.0444 219.908 88.1274 225.119 83.2103 230.329C77.1856 236.715 71.1693 243.092 65.1446 249.478C58.5745 256.442 51.996 263.406 45.4259 270.371L25.5226 291.466C19.3133 298.044 13.1041 304.623 6.89477 311.201C1.66722 316.739 -3.56033 322.286 -8.78787 327.824C-12.547 331.809 -16.3145 335.795 -20.0737 339.781C-21.8609 341.677 -23.665 343.557 -25.4439 345.47C-25.5194 345.554 -25.5949 345.629 -25.6704 345.713C-27.9276 348.104 -28.2213 352.266 -25.6704 354.616C-23.1196 356.965 -19.1842 357.175 -16.7676 354.616C-15.5426 353.315 -14.3091 352.015 -13.084 350.714C-9.75283 347.19 -6.43002 343.666 -3.09883 340.133C1.81826 334.922 6.73534 329.712 11.6524 324.501C17.6771 318.115 23.6934 311.738 29.7181 305.353C36.2882 298.388 42.8667 291.424 49.4368 284.459L69.3401 263.365C75.5493 256.786 81.7586 250.208 87.9679 243.629C93.1955 238.091 98.423 232.545 103.651 227.007C107.41 223.021 111.177 219.035 114.936 215.05C116.724 213.153 118.528 211.274 120.307 209.36C120.382 209.277 120.458 209.201 120.533 209.117C122.79 206.726 123.084 202.564 120.533 200.214C117.982 197.865 114.047 197.655 111.63 200.214Z" fill="white"/>
<path d="M6.97879 80.3416C3.52173 78.227 0.0730591 76.1041 -3.384 73.9896L-28.2631 58.7349C-38.2567 52.6095 -48.2503 46.4842 -58.2439 40.3504C-66.8782 35.0557 -75.5124 29.761 -84.1551 24.4664C-88.3506 21.8987 -92.5041 19.2304 -96.7499 16.7467C-96.8086 16.7132 -96.8673 16.6712 -96.9261 16.6376C-99.737 14.9175 -103.974 15.9328 -105.535 18.8948C-107.096 21.8568 -106.274 25.6663 -103.278 27.5039C-99.821 29.6184 -96.3723 31.7413 -92.9152 33.8558C-84.625 38.9407 -76.3347 44.0256 -68.0361 49.1105C-58.0425 55.2359 -48.0489 61.3613 -38.0553 67.4951C-29.4211 72.7897 -20.7868 78.0844 -12.1441 83.3791C-7.94867 85.9467 -3.79517 88.615 0.450645 91.0987C0.509384 91.1323 0.568123 91.1742 0.626862 91.2078C3.43782 92.9279 7.67523 91.9127 9.23594 88.9507C10.7967 85.9887 9.97436 82.1792 6.97879 80.3416Z" fill="white"/>
<path d="M153.132 301.896C161.036 298.12 168.924 294.327 176.811 290.526C185.714 286.23 194.617 281.917 203.511 277.587C213.035 272.955 222.55 268.324 232.065 263.675C241.581 259.026 251.591 254.134 261.341 249.352C271.092 244.569 280.322 240.046 289.803 235.389C298.681 231.026 307.559 226.663 316.436 222.291C324.198 218.473 331.959 214.647 339.721 210.82C346.014 207.716 352.307 204.611 358.601 201.507C362.947 199.358 367.285 197.219 371.632 195.071C373.637 194.081 375.668 193.132 377.64 192.1C377.723 192.058 377.816 192.016 377.9 191.974C380.853 190.514 381.911 186.084 380.157 183.365C378.202 180.336 374.711 179.539 371.548 181.108C370.172 181.788 368.796 182.468 367.428 183.147C363.61 185.035 359.8 186.915 355.983 188.803C350.151 191.681 344.311 194.567 338.479 197.445C331.011 201.129 323.535 204.813 316.067 208.488C307.458 212.725 298.84 216.963 290.223 221.2C280.817 225.823 271.402 230.447 261.987 235.062C252.287 239.82 242.596 244.56 232.888 249.301C223.238 254.017 213.597 258.724 203.939 263.423C194.852 267.845 185.764 272.259 176.668 276.656C168.521 280.591 160.373 284.518 152.217 288.428C150.405 289.301 148.584 290.165 146.763 291.038C143.784 292.456 142.769 296.953 144.506 299.647C146.478 302.71 149.927 303.423 153.115 301.904L153.132 301.896Z" fill="white"/>
<path d="M406.278 9.67317C404.248 5.93921 402.209 2.20526 400.178 -1.5287L385.527 -28.4216C379.62 -39.2627 373.713 -50.1038 367.814 -60.9449C362.738 -70.2588 357.661 -79.5811 352.585 -88.8951C350.101 -93.4513 347.71 -98.0663 345.134 -102.572C345.1 -102.639 345.066 -102.698 345.033 -102.765C343.455 -105.66 339.218 -106.826 336.424 -105.022C333.487 -103.126 332.48 -99.5096 334.167 -96.4133C336.197 -92.6794 338.236 -88.9454 340.267 -85.2114L354.917 -58.3185C360.825 -47.4774 366.732 -36.6364 372.631 -25.7953C377.707 -16.4813 382.784 -7.15903 387.86 2.15491C390.344 6.71118 392.735 11.3262 395.311 15.8321C395.345 15.8992 395.378 15.958 395.412 16.0251C396.989 18.92 401.227 20.0863 404.021 18.2823C406.958 16.3859 407.965 12.7694 406.278 9.67317Z" fill="white"/>
<path d="M218.757 36.3395C219.202 31.842 219.655 27.3445 220.1 22.8469C221.166 12.1149 222.231 1.39132 223.297 -9.34068C224.589 -22.3802 225.89 -35.4197 227.182 -48.4676C228.298 -59.6778 229.414 -70.8965 230.521 -82.1068C231.067 -87.5693 231.822 -93.057 232.158 -98.5362C232.158 -98.6118 232.174 -98.6873 232.183 -98.7628C232.401 -100.953 230.102 -103.051 227.987 -102.958C225.529 -102.849 224.027 -101.112 223.792 -98.7628C223.347 -94.2653 222.894 -89.7677 222.449 -85.2702C221.384 -74.5382 220.318 -63.8146 219.252 -53.0826C217.96 -40.0431 216.66 -27.0036 215.367 -13.9557L212.028 19.6835C211.482 25.146 210.727 30.6337 210.392 36.113C210.392 36.1885 210.375 36.264 210.366 36.3395C210.148 38.5296 212.447 40.6273 214.562 40.535C217.02 40.4259 218.522 38.689 218.757 36.3395Z" fill="white"/>
<path d="M250.643 53.1214C250.618 54.8415 250.601 56.57 250.576 58.2902C250.517 62.9807 250.45 67.6712 250.391 72.3618C250.299 79.2675 250.215 86.1816 250.122 93.0874C250.013 101.545 249.904 110.003 249.795 118.462C249.678 127.692 249.552 136.922 249.434 146.152C249.309 155.499 249.191 164.855 249.065 174.202C248.948 182.921 248.839 191.639 248.721 200.357C248.629 207.699 248.528 215.041 248.436 222.375C248.369 227.669 248.302 232.973 248.226 238.267C248.193 240.768 248.117 243.268 248.125 245.769C248.125 245.878 248.125 245.987 248.125 246.096C248.1 248.294 250.072 250.392 252.321 250.291C254.57 250.191 256.483 248.445 256.516 246.096C256.542 244.376 256.558 242.647 256.583 240.927C256.642 236.237 256.709 231.546 256.768 226.856C256.86 219.95 256.944 213.036 257.037 206.13C257.146 197.672 257.255 189.214 257.364 180.756C257.481 171.526 257.607 162.296 257.725 153.066C257.85 143.718 257.968 134.362 258.094 125.015C258.211 116.297 258.32 107.579 258.438 98.8603C258.53 91.5183 258.631 84.1762 258.723 76.8425C258.79 71.5479 258.857 66.2448 258.933 60.9501C258.966 58.4496 259.042 55.9491 259.034 53.4486C259.034 53.3395 259.034 53.2305 259.034 53.1214C259.059 50.923 257.087 48.8252 254.838 48.9259C252.589 49.0266 250.676 50.7719 250.643 53.1214Z" fill="white"/>
<path d="M303.657 217.307C303.17 218.683 302.684 220.067 302.197 221.443C300.879 225.177 299.562 228.911 298.236 232.645C296.281 238.192 294.318 243.738 292.363 249.285L285.222 269.498C282.604 276.908 279.986 284.325 277.368 291.734C274.725 299.219 272.082 306.704 269.439 314.18C266.988 321.128 264.53 328.075 262.08 335.023C259.999 340.922 257.91 346.821 255.829 352.72C254.335 356.957 252.833 361.194 251.339 365.44C250.635 367.437 249.871 369.426 249.217 371.44C249.191 371.524 249.158 371.616 249.124 371.7C248.394 373.772 249.955 376.382 252.053 376.86C254.402 377.397 256.433 376.147 257.213 373.932C257.7 372.556 258.186 371.171 258.673 369.795C259.99 366.061 261.308 362.327 262.634 358.593C264.589 353.047 266.552 347.5 268.507 341.954L275.648 321.74C278.266 314.331 280.884 306.913 283.502 299.504C286.145 292.02 288.788 284.535 291.431 277.059C293.881 270.111 296.34 263.163 298.79 256.215C300.871 250.317 302.96 244.418 305.041 238.519C306.535 234.282 308.037 230.044 309.531 225.798C310.235 223.801 310.999 221.813 311.653 219.799C311.679 219.715 311.712 219.623 311.746 219.539C312.476 217.466 310.915 214.857 308.817 214.378C306.468 213.841 304.437 215.092 303.657 217.307Z" fill="white"/>
<path d="M29.1224 63.1905C29.1224 61.6801 29.1056 60.1698 29.0972 58.651L29.0385 46.308L28.9462 28.1332C28.9126 20.7156 28.8706 13.2897 28.8371 5.87209C28.7951 -2.25872 28.7532 -10.3895 28.7196 -18.5203L28.5938 -43.1477L28.4763 -66.1053L28.384 -85.4296L28.3168 -99.4005C28.3085 -101.607 28.3336 -103.814 28.2833 -106.021C28.2833 -106.113 28.2833 -106.214 28.2833 -106.306C28.2749 -108.496 26.3618 -110.602 24.0878 -110.502C21.8139 -110.401 19.884 -108.656 19.8924 -106.306C19.8924 -104.796 19.9091 -103.286 19.9175 -101.767L19.9763 -89.4237L20.0686 -71.2489C20.1021 -63.8314 20.1441 -56.4054 20.1776 -48.9878C20.2196 -40.857 20.2616 -32.7262 20.2951 -24.5954L20.421 0.0320053L20.5385 22.9896L20.6308 42.3139L20.6979 56.2848C20.7063 58.4916 20.6811 60.6984 20.7315 62.9052C20.7315 62.9975 20.7315 63.0982 20.7315 63.1905C20.7398 65.3806 22.653 67.4867 24.9269 67.386C27.2009 67.2853 29.1308 65.54 29.1224 63.1905Z" fill="white"/>
<path d="M89.9737 231.58C88.5724 230.942 87.1711 230.296 85.7698 229.658L74.2575 224.397C68.602 221.813 62.9549 219.228 57.2994 216.644C50.402 213.489 43.5131 210.334 36.6157 207.179C29.0303 203.713 21.4449 200.24 13.8679 196.774C6.29093 193.309 -1.37838 189.801 -9.00574 186.311C-16.1129 183.055 -23.22 179.808 -30.3355 176.552L-48.3676 168.304L-61.34 162.371C-63.3957 161.431 -65.4515 160.483 -67.5157 159.544C-67.5996 159.502 -67.6919 159.46 -67.7758 159.426C-69.7645 158.511 -72.3824 158.788 -73.5152 160.928C-74.4886 162.774 -74.1445 165.694 -72.0132 166.667C-70.6119 167.305 -69.2107 167.951 -67.8094 168.589L-56.297 173.85L-39.3389 181.603C-32.4416 184.758 -25.5527 187.913 -18.6553 191.068L4.09251 201.473C11.7199 204.964 19.3388 208.446 26.9662 211.936C34.0733 215.192 41.1804 218.439 48.2959 221.695L66.328 229.943L79.3004 235.876C81.3562 236.816 83.412 237.764 85.4761 238.704C85.56 238.745 85.6523 238.787 85.7362 238.821C87.7249 239.736 90.3429 239.459 91.4756 237.319C92.449 235.473 92.105 232.553 89.9737 231.58Z" fill="white"/>
<path d="M171.5 21.6387C170.812 22.7547 170.124 23.8791 169.435 24.995L163.83 34.1328L155.54 47.6589L145.362 64.2478C141.661 70.2725 137.969 76.3056 134.269 82.3303L123.076 100.589L112.637 117.614L103.81 132.005L97.4581 142.359C96.4511 144.004 95.4023 145.623 94.4373 147.284C94.3954 147.352 94.3534 147.427 94.3115 147.494C93.1619 149.365 93.8416 152.193 95.8134 153.234C97.7853 154.274 100.328 153.729 101.553 151.732C102.241 150.616 102.929 149.491 103.617 148.375L109.222 139.238C111.983 134.732 114.752 130.226 117.512 125.711L127.691 109.122C131.391 103.098 135.083 97.0647 138.783 91.04L149.977 72.7814C153.459 67.1091 156.941 61.4285 160.415 55.7562L169.242 41.3657C171.357 37.9171 173.48 34.46 175.594 31.0113C176.601 29.3667 177.65 27.7473 178.615 26.0859C178.657 26.0187 178.699 25.9432 178.741 25.8761C179.891 24.0049 179.211 21.1772 177.239 20.1367C175.267 19.0962 172.725 19.6416 171.5 21.6387Z" fill="white"/>
<path d="M116.388 124.965C120.886 126.441 125.383 127.927 129.881 129.403C140.613 132.936 151.345 136.469 162.077 140.001C175.116 144.297 188.156 148.585 201.204 152.881C212.422 156.573 223.633 160.265 234.851 163.957C240.314 165.753 245.751 167.75 251.264 169.361C251.339 169.386 251.415 169.411 251.482 169.437C253.043 169.948 254.989 168.841 255.35 167.238C255.745 165.51 254.83 163.915 253.152 163.37C248.654 161.893 244.157 160.408 239.659 158.931C228.927 155.398 218.195 151.866 207.463 148.333C194.424 144.037 181.384 139.749 168.336 135.453L134.689 124.377C129.226 122.582 123.789 120.585 118.276 118.973C118.201 118.948 118.125 118.923 118.058 118.898C116.497 118.386 114.551 119.494 114.19 121.096C113.795 122.825 114.71 124.419 116.388 124.965Z" fill="white"/>
<path d="M-42.62 -10.8091C-35.2108 -8.62746 -27.8016 -6.43743 -20.3924 -4.25579C-8.67027 -0.79873 3.04348 2.65834 14.7656 6.1154C17.4507 6.90415 20.1358 7.70129 22.8293 8.49004C24.776 9.06062 25.6067 6.03149 23.6684 5.45251C16.2592 3.27087 8.85 1.08084 1.44081 -1.1008C-10.2813 -4.55786 -21.9951 -8.01493 -33.7172 -11.472C-36.4023 -12.2607 -39.0874 -13.0579 -41.7809 -13.8466C-43.7276 -14.4172 -44.5583 -11.3881 -42.62 -10.8091Z" fill="white"/>
<path d="M80.6259 98.4743C78.4946 101.973 76.3717 105.472 74.2404 108.971L59.0277 133.985C52.9023 144.062 46.7685 154.14 40.6432 164.226C35.3149 172.986 29.9867 181.746 24.6668 190.506C22.1076 194.718 19.3638 198.872 16.9556 203.185C16.922 203.243 16.8801 203.302 16.8465 203.361C15.7892 205.098 18.5079 206.675 19.5652 204.947C21.6965 201.448 23.8193 197.949 25.9506 194.45C31.0188 186.109 36.0869 177.769 41.1634 169.436C47.2888 159.359 53.4226 149.281 59.5479 139.196C64.8762 130.435 70.2044 121.675 75.5242 112.915C78.0835 108.703 80.8273 104.549 83.2355 100.236C83.2691 100.178 83.311 100.119 83.3446 100.06C84.4019 98.3233 81.6832 96.7458 80.6259 98.4743Z" fill="white"/>
<path d="M253.16 137.769C257.246 137.517 261.333 137.266 265.419 137.014L294.636 135.21L329.954 133.037C340.182 132.407 350.419 131.778 360.648 131.14C365.582 130.838 370.524 130.62 375.458 130.226C375.525 130.226 375.592 130.217 375.668 130.209C377.681 130.083 377.69 126.936 375.668 127.062C371.581 127.314 367.495 127.566 363.408 127.817C353.667 128.422 343.933 129.017 334.191 129.621C322.419 130.343 310.646 131.073 298.874 131.795C288.645 132.424 278.408 133.053 268.18 133.691C263.246 133.993 258.304 134.211 253.37 134.606C253.303 134.606 253.236 134.614 253.16 134.622C251.146 134.748 251.138 137.895 253.16 137.769Z" fill="white"/>
<path d="M361.722 -55.0796C359.222 -51.245 356.721 -47.4103 354.221 -43.5757C348.213 -34.3624 342.205 -25.1492 336.197 -15.9359C328.93 -4.7844 321.655 6.35876 314.389 17.5103C308.104 27.1515 301.811 36.7926 295.526 46.4338C292.472 51.116 289.216 55.7142 286.346 60.5138C286.304 60.5809 286.262 60.6481 286.212 60.7152C285.104 62.4185 287.823 63.996 288.931 62.3011C291.431 58.4664 293.932 54.6318 296.432 50.7971L314.456 23.1574C321.723 12.0058 328.997 0.862694 336.264 -10.2888C342.549 -19.93 348.842 -29.5712 355.127 -39.2124C358.181 -43.8945 361.437 -48.4927 364.306 -53.2924C364.348 -53.3595 364.39 -53.4266 364.441 -53.4937C365.548 -55.1971 362.83 -56.7746 361.722 -55.0796Z" fill="white"/>
<path d="M204.652 152.554C203.452 156.951 202.261 161.356 201.061 165.753L192.435 197.445C188.961 210.225 185.479 222.996 182.005 235.775C179.001 246.809 175.997 257.852 172.993 268.886C171.542 274.222 169.922 279.542 168.63 284.912C168.613 284.988 168.588 285.063 168.571 285.139C168.043 287.094 171.072 287.933 171.609 285.978C172.809 281.581 174 277.176 175.2 272.779L183.826 241.087C187.3 228.307 190.782 215.536 194.256 202.757C197.26 191.723 200.264 180.68 203.268 169.646C204.719 164.31 206.339 158.99 207.631 153.62C207.648 153.544 207.673 153.469 207.69 153.393C208.218 151.438 205.189 150.599 204.652 152.554Z" fill="white"/>
<path d="M154.986 55.7478H69.3987C67.3765 55.7478 67.3681 58.8944 69.3987 58.8944H154.986C157.008 58.8944 157.017 55.7478 154.986 55.7478Z" fill="white"/>
</g>
<path d="M213.723 250.518C215.367 250.518 216.945 249.075 216.869 247.371C216.794 245.668 215.485 244.225 213.723 244.225C212.078 244.225 210.501 245.668 210.576 247.371C210.652 249.075 211.961 250.518 213.723 250.518Z" fill="#70CB9B"/>
<path d="M-2.95602 178.557C-1.3114 178.557 0.266097 177.114 0.190579 175.411C0.115061 173.707 -1.19392 172.264 -2.95602 172.264C-4.60064 172.264 -6.17814 173.707 -6.10262 175.411C-6.0271 177.114 -4.71811 178.557 -2.95602 178.557Z" fill="#70CB9B"/>
<path d="M6.67655 183.181C8.32117 183.181 9.89867 181.738 9.82315 180.034C9.74763 178.331 8.43864 176.888 6.67655 176.888C5.03193 176.888 3.45443 178.331 3.52995 180.034C3.60547 181.738 4.91445 183.181 6.67655 183.181Z" fill="#70CB9B"/>
<path d="M15.6968 188.215C17.3414 188.215 18.9189 186.772 18.8434 185.069C18.7679 183.365 17.4589 181.922 15.6968 181.922C14.0522 181.922 12.4747 183.365 12.5502 185.069C12.6257 186.772 13.9347 188.215 15.6968 188.215Z" fill="#70CB9B"/>
<path d="M55.9734 37.7408C58.1718 37.7408 60.2695 35.8109 60.1688 33.5453C60.0681 31.2798 58.3228 29.3499 55.9734 29.3499C53.7749 29.3499 51.6772 31.2798 51.7779 33.5453C51.8786 35.8109 53.6239 37.7408 55.9734 37.7408Z" fill="#D6F1FF"/>
<path d="M317.77 76.3391C319.969 76.3391 322.066 74.4092 321.966 72.1436C321.865 69.8781 320.12 67.9482 317.77 67.9482C315.572 67.9482 313.474 69.8781 313.575 72.1436C313.675 74.4092 315.421 76.3391 317.77 76.3391Z" fill="#D6F1FF"/>
<path d="M331.751 190.011C326.523 185.211 319.609 169.017 331.767 169C344.169 168.983 336.777 184.892 331.751 190.011Z" fill="#D33478"/>
<path d="M331.558 178.801C335.636 178.801 335.636 172.692 331.558 172.692C327.48 172.692 327.48 178.801 331.558 178.801Z" fill="white"/>
<path d="M170.751 207.011C165.523 202.211 158.609 186.017 170.767 186C183.169 185.983 175.777 201.892 170.751 207.011Z" fill="#D33478"/>
<path d="M170.566 195.801C174.644 195.801 174.644 189.692 170.566 189.692C166.488 189.692 166.488 195.801 170.566 195.801Z" fill="white"/>
<path d="M126.6 46.1653C121.372 41.3657 114.458 25.1712 126.617 25.1544C139.018 25.1376 131.626 41.0468 126.6 46.1653Z" fill="#D33478"/>
<path d="M126.407 34.9467C130.485 34.9467 130.485 28.8381 126.407 28.8381C122.329 28.8381 122.329 34.9467 126.407 34.9467Z" fill="white"/>
</g>
<g filter="url(#filter0_d_1920_19252)">
<mask id="path-99-inside-1_1920_19252" fill="white">
<path fill-rule="evenodd" clip-rule="evenodd" d="M181.471 130.126C181.706 129.721 182.104 129.437 182.56 129.331C196.43 126.116 206.768 113.683 206.768 98.8351C206.768 81.5462 192.752 67.5307 175.463 67.5307C158.174 67.5307 144.159 81.5462 144.159 98.8351C144.159 113.356 154.046 125.568 167.456 129.106C167.892 129.221 168.269 129.499 168.496 129.888L173.628 138.717C174.263 139.809 175.841 139.809 176.477 138.717L181.471 130.126Z"/>
</mask>
<path fill-rule="evenodd" clip-rule="evenodd" d="M181.471 130.126C181.706 129.721 182.104 129.437 182.56 129.331C196.43 126.116 206.768 113.683 206.768 98.8351C206.768 81.5462 192.752 67.5307 175.463 67.5307C158.174 67.5307 144.159 81.5462 144.159 98.8351C144.159 113.356 154.046 125.568 167.456 129.106C167.892 129.221 168.269 129.499 168.496 129.888L173.628 138.717C174.263 139.809 175.841 139.809 176.477 138.717L181.471 130.126Z" fill="#F2F4F6"/>
<path d="M176.477 138.717L174.917 137.81L176.477 138.717ZM167.456 129.106L166.996 130.85L167.456 129.106ZM168.496 129.888L166.937 130.795L168.496 129.888ZM182.56 129.331L182.968 131.088L182.56 129.331ZM181.471 130.126L179.911 129.219L181.471 130.126ZM204.964 98.8351C204.964 112.825 195.224 124.545 182.153 127.575L182.968 131.088C197.637 127.688 208.571 114.541 208.571 98.8351H204.964ZM175.463 69.3342C191.756 69.3342 204.964 82.5422 204.964 98.8351H208.571C208.571 80.5501 193.748 65.7273 175.463 65.7273V69.3342ZM145.962 98.8351C145.962 82.5422 159.17 69.3342 175.463 69.3342V65.7273C157.178 65.7273 142.355 80.5501 142.355 98.8351H145.962ZM167.916 127.362C155.278 124.028 145.962 112.517 145.962 98.8351H142.355C142.355 114.196 152.814 127.109 166.996 130.85L167.916 127.362ZM175.187 137.81L170.055 128.982L166.937 130.795L172.069 139.623L175.187 137.81ZM179.911 129.219L174.917 137.81L178.036 139.623L183.03 131.032L179.911 129.219ZM172.069 139.623C173.399 141.912 176.705 141.912 178.036 139.623L174.917 137.81C174.926 137.796 174.947 137.771 174.981 137.753C175.009 137.737 175.034 137.733 175.052 137.733C175.07 137.733 175.095 137.737 175.124 137.753C175.157 137.771 175.179 137.796 175.187 137.81L172.069 139.623ZM166.996 130.85C166.991 130.849 166.962 130.839 166.937 130.795L170.055 128.982C169.577 128.159 168.793 127.593 167.916 127.362L166.996 130.85ZM182.153 127.575C181.236 127.787 180.409 128.364 179.911 129.219L183.03 131.032C183.003 131.078 182.973 131.087 182.968 131.088L182.153 127.575Z" fill="#1B7BE8" mask="url(#path-99-inside-1_1920_19252)"/>
</g>
<path d="M168.956 107.639C167.58 108.263 166.113 108.661 164.611 108.815C164.512 108.826 164.411 108.807 164.323 108.761C164.234 108.716 164.161 108.645 164.111 108.559C162.998 106.597 162.632 104.156 163.084 101.478C163.661 98.0211 165.535 94.5608 168.364 91.7322C171.192 88.9036 174.655 87.0291 178.109 86.4526C181.035 85.9659 183.678 86.4526 185.722 87.8136C185.805 87.8685 185.871 87.9467 185.911 88.0385C185.951 88.1303 185.963 88.2317 185.946 88.3303C185.929 88.4289 185.883 88.5204 185.815 88.5935C185.747 88.6667 185.658 88.7182 185.561 88.7419C184.599 88.9712 183.661 89.292 182.76 89.6997C179.964 90.9708 176.391 93.6877 175.246 99.4193C174.461 103.307 172.347 106.073 168.956 107.639ZM188.381 90.6794C188.332 90.5929 188.258 90.5226 188.17 90.477C188.081 90.4314 187.982 90.4125 187.883 90.4226C186.38 90.5764 184.912 90.9736 183.536 91.5987C180.145 93.1651 178.031 95.9308 177.253 99.8161C176.106 105.548 172.534 108.265 169.739 109.536C168.838 109.943 167.9 110.264 166.937 110.494C166.838 110.516 166.747 110.567 166.677 110.642C166.607 110.716 166.561 110.809 166.544 110.909C166.527 111.01 166.54 111.113 166.582 111.206C166.624 111.299 166.693 111.377 166.779 111.431C168.303 112.448 170.159 112.972 172.217 112.972C172.945 112.97 173.672 112.908 174.389 112.787C177.845 112.21 181.306 110.336 184.135 107.507C186.963 104.678 188.838 101.216 189.414 97.7617C189.856 95.0834 189.494 92.6413 188.381 90.6794Z" fill="#1B7BE8"/>
</g>
<rect x="0.5" y="0.5" width="349" height="245" stroke="#E5E8EB"/>
<defs>
<filter id="filter0_d_1920_19252" x="124.281" y="47.6525" width="102.365" height="111.762" filterUnits="userSpaceOnUse" color-interpolation-filters="sRGB">
<feFlood flood-opacity="0" result="BackgroundImageFix"/>
<feColorMatrix in="SourceAlpha" type="matrix" values="0 0 0 0 0 0 0 0 0 0 0 0 0 0 0 0 0 0 127 0" result="hardAlpha"/>
<feOffset/>
<feGaussianBlur stdDeviation="9.93913"/>
<feComposite in2="hardAlpha" operator="out"/>
<feColorMatrix type="matrix" values="0 0 0 0 0.687683 0 0 0 0 0.69147 0 0 0 0 0.733122 0 0 0 0.31 0"/>
<feBlend mode="normal" in2="BackgroundImageFix" result="effect1_dropShadow_1920_19252"/>
<feBlend mode="normal" in="SourceGraphic" in2="effect1_dropShadow_1920_19252" result="shape"/>
</filter>
<clipPath id="clip0_1920_19252">
<rect width="350" height="246" fill="white"/>
</clipPath>
<clipPath id="clip1_1920_19252">
<rect width="381.306" height="259" fill="white" transform="translate(-12)"/>
</clipPath>
</defs>
</svg>
