<svg width="350" height="246" viewBox="0 0 350 246" fill="none" xmlns="http://www.w3.org/2000/svg">
<g clip-path="url(#clip0_6_130)">
<rect width="350" height="246" fill="#4E5968"/>
<g clip-path="url(#clip1_6_130)">
<path d="M690.907 -123.611H-201.229V456.109H690.907V-123.611Z" fill="#EEF3F8"/>
<path fill-rule="evenodd" clip-rule="evenodd" d="M195.496 47.3184C195.495 47.3184 195.495 47.318 195.495 47.3174C195.885 43.2569 196.283 39.2037 196.677 35.1467C196.899 32.8639 195.537 30.7243 193.376 29.9569C189.237 28.4875 185.095 27.0172 180.951 25.5429C178.721 24.7494 176.24 25.6268 175.006 27.6463C173.002 30.9248 170.998 34.2033 168.994 37.4818C168.266 38.6737 168.922 40.2314 170.274 40.5817C178.709 42.7669 186.898 45.963 195.496 47.3166C195.497 47.3168 195.497 47.3184 195.496 47.3184V47.3184Z" fill="#D6DFEC"/>
<path fill-rule="evenodd" clip-rule="evenodd" d="M166.687 47.2972C164.696 46.8668 162.683 47.8005 161.62 49.5385C151.225 66.5462 140.829 83.5364 130.434 100.534C128.83 103.156 129.95 106.592 132.805 107.732C148.893 114.159 165.267 119.845 181.42 126.128C184.529 127.337 187.951 125.256 188.274 121.936C190.296 101.094 192.318 80.2441 194.331 59.4023C194.583 56.7906 192.77 54.4382 190.215 53.8379C182.295 51.9765 174.629 49.014 166.687 47.2972Z" fill="#97D5C5"/>
<path fill-rule="evenodd" clip-rule="evenodd" d="M149.078 122.012C149.078 122.006 149.074 122 149.068 121.997C141.811 119.284 134.564 116.535 127.378 113.628C125.095 112.704 122.474 113.555 121.19 115.656C116.553 123.24 111.91 130.832 107.26 138.435C105.579 141.184 106.899 144.782 109.96 145.792C118.112 148.483 126.25 151.174 134.386 153.864C137.082 154.756 139.979 153.225 140.808 150.508C143.692 141.044 146.908 131.676 149.078 122.016C149.078 122.014 149.078 122.013 149.078 122.012V122.012Z" fill="#B8D3F0"/>
<path fill-rule="evenodd" clip-rule="evenodd" d="M156.203 124.672C156.203 124.671 156.201 124.67 156.201 124.672C153.866 134.818 150.419 144.636 147.452 154.607C146.911 156.427 147.926 158.338 149.729 158.933C159.441 162.138 169.145 165.342 178.835 168.547C181.269 169.352 183.822 167.692 184.071 165.141C184.911 156.547 185.74 147.947 186.574 139.354C186.745 137.591 185.737 135.923 184.091 135.267C174.854 131.582 165.524 128.133 156.204 124.673C156.204 124.673 156.203 124.673 156.203 124.672V124.672Z" fill="#D6DFEC"/>
<path fill-rule="evenodd" clip-rule="evenodd" d="M248.175 80.1355C248.179 80.1355 248.182 80.133 248.182 80.1297C249.347 71.4194 251.397 62.6275 252.07 53.809C252.203 52.064 251.117 50.4738 249.468 49.8884C237.652 45.6942 225.843 41.4927 214.019 37.2977C211.567 36.4276 208.95 38.0945 208.701 40.6847C207.937 48.6002 207.168 56.5109 206.399 64.4273C206.229 66.1757 207.218 67.8344 208.85 68.4845C221.499 73.524 234.729 77.2188 248.135 80.1909C248.152 80.1948 248.169 80.1815 248.169 80.1635C248.169 80.1569 248.169 80.1502 248.169 80.1422C248.169 80.1385 248.172 80.1355 248.175 80.1355V80.1355Z" fill="#ABCCF6"/>
<path fill-rule="evenodd" clip-rule="evenodd" d="M259.444 53.4386C259.447 53.4359 259.451 53.438 259.451 53.4418C258.809 62.3481 256.926 71.1411 255.72 80.1355V80.1355C255.618 80.9352 256.023 81.8695 256.813 82.0274C262.363 83.1356 267.924 84.1481 273.471 85.1086C275.889 85.5272 278.103 83.6799 278.134 81.2263C278.212 75.1675 278.285 69.1104 278.363 63.0372C278.385 61.3247 277.315 59.7878 275.701 59.2149C270.282 57.2918 264.864 55.3686 259.446 53.4455C259.443 53.4444 259.442 53.4408 259.444 53.4386V53.4386Z" fill="#B8D3F0"/>
<path fill-rule="evenodd" clip-rule="evenodd" d="M197.618 154.894C197.224 158.92 196.835 162.945 196.444 166.971C196.038 171.161 198.587 175.076 202.585 176.395C225.43 183.935 248.245 191.476 271.05 199.016C272.671 199.545 274.317 199.986 275.95 200.452C276.026 200.478 276.139 200.415 276.227 200.389V200.389C276.504 200.27 276.657 199.962 276.661 199.66C276.733 194.152 276.794 188.644 276.868 183.137" fill="#97D5C5"/>
<path fill-rule="evenodd" clip-rule="evenodd" d="M276.981 175.26C277.302 149.496 277.624 123.687 277.945 97.7793C277.976 95.3135 276.215 93.1997 273.793 92.7368C254.041 88.9618 223.764 80.4662 211.174 76.8446C208.154 75.9759 205.09 78.0615 204.786 81.1892C202.657 103.159 200.526 125.121 198.385 147.093" fill="#B8D3F0"/>
<path fill-rule="evenodd" clip-rule="evenodd" d="M263.616 -39.5999C259.207 -43.1475 252.538 -40.3891 251.981 -34.7576C251.896 -33.8938 251.81 -33.03 251.724 -32.1661C250.581 -20.7356 249.4 -9.31766 248.256 2.11289C248.087 3.80976 247.931 5.50663 247.774 7.2457C247.487 10.4318 249.399 13.4084 252.414 14.4771C257.355 16.2282 262.29 17.9793 267.221 19.7303C269.418 20.5106 271.881 20.1699 273.646 18.6467C283.582 10.0724 290.026 -1.88665 298.442 -11.9516V-11.9516C299.157 -12.7881 298.931 -14.0874 298.001 -14.6748C286.013 -22.244 274.657 -30.7159 263.616 -39.5999Z" fill="#B8D3F0"/>
<path fill-rule="evenodd" clip-rule="evenodd" d="M367.734 0.814858C367.737 0.814858 367.739 0.811837 367.738 0.809007C361.251 -16.5222 351.481 -32.1468 340.736 -47.1962C339.563 -48.8384 337.135 -48.858 335.915 -47.251C325.467 -33.4921 314.619 -20.0717 303.77 -6.60807C296.581 2.31403 290.545 12.23 282.659 20.402C281.076 22.0419 281.639 24.8459 283.787 25.6079C301.566 31.9148 319.311 38.2052 337.082 44.5138C338.369 44.9706 339.808 44.5046 340.568 43.3703C340.863 42.9297 341.143 42.505 341.416 42.0757C350.236 28.5175 359.056 14.9593 367.876 1.38857C367.924 1.31421 367.929 1.21982 367.887 1.14179C367.831 1.03824 367.774 0.935623 367.73 0.820742C367.729 0.817911 367.731 0.814858 367.734 0.814858V0.814858Z" fill="#ABCCF6"/>
<path fill-rule="evenodd" clip-rule="evenodd" d="M319.527 1.18038C306.647 -3.48258 302.413 8.0236 301.784 11.9808C300.767 18.4207 304.36 22.693 309.939 25.2892C313.621 26.9905 317.491 28.1499 321.223 29.7379C325.357 31.4896 332.871 37.1608 336.992 32.2836C340.699 27.8853 344.419 15.018 334.266 15.0684C330.609 15.081 327.933 15.2323 325.483 12.2581C322.756 8.91839 324.075 3.46145 319.527 1.19298" fill="#73ACED"/>
<path fill-rule="evenodd" clip-rule="evenodd" d="M-49.8934 86.7896C-62.421 99.8333 -74.9486 112.89 -87.4762 125.933C-65.8011 148.467 -45.8976 172.651 -26.6476 197.277C-17.1482 181.624 -7.64886 165.972 1.86307 150.332C-13.1022 127.395 -31.3345 106.878 -49.8934 86.7896Z" fill="#ABCCF6"/>
<path fill-rule="evenodd" clip-rule="evenodd" d="M1.17252 85.2017C-2.86095 73.5191 -6.8944 61.8365 -10.9279 50.1665C-11.2043 49.3473 -11.6064 48.5659 -12.0336 47.5577C-12.8127 48.3013 -13.4032 48.818 -13.9561 49.3851C-24.1968 60.0343 -34.425 70.6961 -44.6657 81.3453C-35.8323 90.9107 -27.0743 100.589 -18.6932 110.545C-12.0085 102.152 -5.33631 93.7462 1.17252 85.2143V85.2017Z" fill="#B8D3F0"/>
<path fill-rule="evenodd" clip-rule="evenodd" d="M4.10012 93.6708C-1.793 101.321 -7.78665 108.895 -13.818 116.456C-6.78142 125.089 -0.0338501 133.961 6.17341 143.212C8.91265 138.7 11.6519 134.188 14.3911 129.689C15.3712 128.088 15.5597 126.74 14.9314 124.938C11.3126 114.528 7.70637 104.106 4.10012 93.6834V93.6708Z" fill="#97D5C5"/>
<path fill-rule="evenodd" clip-rule="evenodd" d="M79.0658 206.27C79.6391 207.935 81.2352 209.032 82.9932 208.936C94.9881 208.278 106.896 206.407 118.806 204.644C120.309 204.422 121.559 203.371 122.025 201.926C124.155 195.325 126.173 188.685 128.024 181.989C128.588 179.947 127.44 177.829 125.429 177.166C114.365 173.516 103.303 169.859 92.2493 166.21C91.3978 165.929 90.365 166.127 89.8961 166.892V166.892C84.983 174.869 80.1328 182.872 75.157 190.799C74.2397 192.261 74.6544 193.433 75.1067 194.769C76.4302 198.599 77.7455 202.437 79.0658 206.27Z" fill="#B8D3F0"/>
<path fill-rule="evenodd" clip-rule="evenodd" d="M82.5957 216.544C82.5957 216.542 82.5985 216.542 82.5992 216.544C87.289 230.171 91.9788 243.789 96.6686 257.413C97.591 260.093 101.379 260.12 102.349 257.458C107.265 243.958 112.292 230.502 116.997 216.938C117.732 214.817 115.951 212.681 113.73 213.01C103.386 214.543 93.0245 216.001 82.5976 216.546C82.5966 216.546 82.5957 216.545 82.5957 216.544V216.544Z" fill="#D6DFEC"/>
<path fill-rule="evenodd" clip-rule="evenodd" d="M121.699 241.045C116.409 255.551 111.006 270.006 106.042 284.612C110.553 297.694 115.052 310.788 119.563 323.882C138.034 324.752 156.542 324.059 175.038 323.844C180.328 304.298 185.631 284.751 190.933 265.192C167.097 259.559 143.952 251.279 121.699 241.045Z" fill="#B8D3F0"/>
<path fill-rule="evenodd" clip-rule="evenodd" d="M146.994 184.296C143.72 183.215 140.213 185.111 139.27 188.428C135.399 202.039 130.872 215.44 126.127 228.777C125.084 231.707 126.438 234.956 129.278 236.223C148.014 244.575 167.391 251.449 187.266 256.511C190.404 257.31 193.579 255.414 194.425 252.289C196.445 244.832 198.467 237.375 200.496 229.917C202.303 223.246 204.118 216.575 205.971 209.742C206.805 206.666 205.089 203.476 202.063 202.477C183.682 196.406 165.332 190.35 146.994 184.296Z" fill="#ABCCF6"/>
<path fill-rule="evenodd" clip-rule="evenodd" d="M363.342 178.184C343.929 179.381 324.515 180.578 305.114 181.788C304.951 182.355 304.8 182.632 304.788 182.91C304.499 203.855 304.222 224.813 303.933 245.759C323.937 244.599 343.803 241.6 363.782 240.151C363.882 219.495 365.139 198.801 363.317 178.196L363.342 178.184Z" fill="#D6DFEC"/>
<path fill-rule="evenodd" clip-rule="evenodd" d="M177.552 -33.6406C177.061 -26.5831 176.684 -19.5257 176.571 -12.4556C199.528 -4.40257 217.987 1.93653 219.897 2.32721C220.274 0.802299 221.618 -11.4348 223.252 -27.5031C208.073 -30.074 192.957 -33.1617 177.552 -33.6406Z" fill="#B8D3F0"/>
<path fill-rule="evenodd" clip-rule="evenodd" d="M341.164 122.228C341.157 122.228 341.152 122.222 341.152 122.216C341.306 109.735 341.461 97.2427 341.541 84.75C341.549 83.4735 340.748 82.3322 339.544 81.9056C329.768 78.439 319.974 74.9719 310.155 71.4971C308.211 70.809 306.168 72.243 306.151 74.3054C306.031 88.8975 305.796 103.344 305.596 117.763C305.573 119.445 306.938 120.817 308.621 120.804C319.504 120.72 330.355 120.742 341.164 122.228V122.228Z" fill="#B8D3F0"/>
<path fill-rule="evenodd" clip-rule="evenodd" d="M305.454 128.391C305.329 138.384 305.245 148.367 305.249 158.378C305.249 160.104 306.707 161.471 308.43 161.365C318.296 160.757 328.154 160.148 338.003 159.531C339.577 159.432 340.806 158.13 340.816 156.552C340.866 148.503 340.955 140.461 341.047 132.411C341.064 130.915 339.977 129.631 338.493 129.442C327.552 128.046 316.493 128.25 305.467 128.378C305.46 128.378 305.454 128.384 305.454 128.391V128.391Z" fill="#D6DFEC"/>
<path fill-rule="evenodd" clip-rule="evenodd" d="M273.886 237.486C275.065 237.651 276.107 236.741 276.128 235.55C276.169 233.2 276.209 230.838 276.244 228.448C276.257 227.575 275.701 226.795 274.872 226.521C259.325 221.386 243.993 216.315 228.689 211.258C227.725 210.939 226.735 211.416 226.439 212.388C225.718 214.76 224.39 219.426 222.639 225.716C222.331 226.825 223 227.961 224.126 228.199C231.633 229.786 257.962 235.264 273.886 237.486Z" fill="#B8D3F0"/>
<path fill-rule="evenodd" clip-rule="evenodd" d="M219.997 235.21C216.881 246.49 212.998 260.668 208.952 275.576C231.03 278.097 253.396 276.131 275.574 277.744C275.649 270.321 275.712 262.898 275.812 255.475C275.85 252.098 275.9 248.72 275.963 245.33C257.14 242.898 220.01 235.198 220.01 235.198L219.997 235.21Z" fill="#B8D3F0"/>
<path fill-rule="evenodd" clip-rule="evenodd" d="M41.5442 211.096C42.9652 211.163 44.015 209.778 43.5521 208.433C37.5965 191.128 31.6203 173.779 25.6062 156.318C25.0542 154.716 22.884 154.483 22.0052 155.933C11.3542 173.498 0.787696 190.939 -9.75542 208.327C-10.5737 209.676 -9.57991 211.396 -8.00225 211.358C8.51549 210.958 25.0569 210.317 41.5442 211.096Z" fill="#B8D3F0"/>
<path fill-rule="evenodd" clip-rule="evenodd" d="M14.5829 222.359C14.5481 220.16 12.7295 218.416 10.531 218.463C2.32783 218.637 -5.87426 218.901 -14.0689 219.053C-15.4451 219.079 -16.7133 219.806 -17.4264 220.983C-25.7201 234.676 -34.0145 248.351 -42.3267 262.061C-43.566 264.105 -42.7475 266.772 -40.575 267.769C-24.9206 274.955 -9.34387 282.102 6.27289 289.27C8.76038 290.411 11.6337 288.773 11.8959 286.049C13.9331 264.886 14.9197 243.625 14.5829 222.359Z" fill="#ABCCF6"/>
<path fill-rule="evenodd" clip-rule="evenodd" d="M47.1868 218.978C38.8183 218.411 30.4372 218.26 22.0436 218.298C22.6467 243.881 21.3023 269.452 18.5128 294.871C24.1671 297.467 29.8341 300.063 35.5136 302.672C45.4905 292.061 55.3291 281.601 65.1552 271.153C59.1615 253.736 53.1804 236.37 47.1868 218.966V218.978Z" fill="#D6DFEC"/>
<path fill-rule="evenodd" clip-rule="evenodd" d="M70.8863 -13.5648C70.8884 -13.5648 70.8889 -13.5677 70.8869 -13.5684C65.7762 -15.3945 60.6655 -17.2081 55.5548 -19.0343C53.3558 -19.8283 52.0113 -19.551 50.3653 -17.7993C39.1696 -5.96543 27.8357 5.74237 16.5395 17.5006C16.4471 17.597 16.3564 17.6949 16.267 17.7939C15.3173 18.8456 15.0774 20.3644 15.5407 21.7036C17.8306 28.3226 20.0897 34.8561 22.3307 41.3365C22.8881 42.9481 24.4058 44.029 26.111 44.029H63.6994C65.721 44.029 67.4259 42.5209 67.6637 40.5134C69.7919 22.5463 71.3679 4.5139 70.8845 -13.5629C70.8844 -13.5639 70.8853 -13.5648 70.8863 -13.5648V-13.5648Z" fill="#B8D3F0"/>
<path fill-rule="evenodd" clip-rule="evenodd" d="M146.854 13.493C127.61 6.64307 108.376 -0.197131 89.1426 -7.05312C85.2068 -8.45608 81.0701 -5.50724 80.9846 -1.32979C80.7204 11.5738 79.5797 24.4506 78.1059 37.2958C77.6952 40.8757 80.4827 44.029 84.086 44.029H128.722C130.814 44.029 132.755 42.9397 133.844 41.1542C138.595 33.3673 143.333 25.5978 148.223 17.5891C149.137 16.0931 148.507 14.0755 146.854 13.493V13.493Z" fill="#B8D3F0"/>
<path fill-rule="evenodd" clip-rule="evenodd" d="M46.9639 100.234C44.8708 100.162 43.3627 102.211 44.0431 104.191C49.908 121.266 55.8363 138.341 61.8642 155.553C62.1471 156.36 63.2827 156.591 63.7354 155.865V155.865C73.6927 139.486 83.6501 123.096 93.6074 106.706C94.8063 104.732 93.4196 102.198 91.1116 102.126C76.3859 101.67 61.6817 100.74 46.9639 100.234Z" fill="#B8D3F0"/>
<path fill-rule="evenodd" clip-rule="evenodd" d="M118.897 64.7714C118.897 64.7641 118.895 64.7569 118.892 64.7503C118.884 64.731 118.874 64.7123 118.863 64.6943C118.805 64.5958 118.691 64.5461 118.577 64.5461H36.1519C33.4212 64.5461 31.4934 67.2219 32.3622 69.8107C34.6066 76.4987 36.868 83.1696 39.1371 89.8328C39.6774 91.4195 41.1502 92.4993 42.8257 92.5475C61.4235 93.0824 79.9925 94.417 98.5907 94.7558C100.008 94.7817 101.33 94.0483 102.065 92.8367C107.69 83.5719 113.324 74.3174 118.947 65.0629C118.983 65.0027 118.95 64.8853 118.904 64.798C118.899 64.7898 118.897 64.7807 118.897 64.7714V64.7714Z" fill="#73ACED"/>
<mask id="mask0_6_130" style="mask-type:luminance" maskUnits="userSpaceOnUse" x="-202" y="-124" width="893" height="581">
<path d="M690.907 -123.611H-201.229V456.109H690.907V-123.611Z" fill="white"/>
</mask>
<g mask="url(#mask0_6_130)">
<path d="M159.018 -169.358C158.05 -168.35 157.095 -167.354 156.128 -166.346L147.797 -157.675L134.704 -144.027L117.389 -125.98C110.403 -118.696 103.416 -111.424 96.4425 -104.14C88.4007 -95.7589 80.3589 -87.3782 72.3045 -78.9848C63.4711 -69.7849 54.6377 -60.585 45.8169 -51.3725C36.3552 -41.5173 26.8935 -31.6495 17.4319 -21.7943C7.53039 -11.4853 -2.35849 -1.16382 -12.26 9.1451C-22.1614 19.454 -32.6409 30.3804 -42.8188 40.9918C-52.9967 51.6032 -63.1871 62.2146 -73.3776 72.8386L-103.497 104.219C-113.235 114.377 -122.985 124.522 -132.724 134.679C-141.884 144.22 -151.044 153.772 -160.204 163.313C-168.635 172.097 -177.066 180.881 -185.485 189.665C-192.987 197.491 -200.501 205.304 -208.002 213.131L-227.252 233.194C-232.316 238.474 -237.393 243.755 -242.456 249.035L-253.137 260.176L-258.716 265.999C-258.955 266.238 -259.181 266.477 -259.42 266.729C-262.837 270.296 -263.214 276.597 -259.42 280.101C-255.625 283.604 -249.744 283.907 -246.088 280.101C-245.12 279.093 -244.165 278.097 -243.198 277.089L-234.867 268.418L-221.774 254.77C-216.006 248.758 -210.226 242.734 -204.459 236.723L-183.513 214.882C-175.471 206.502 -167.429 198.121 -159.375 189.728C-150.541 180.528 -141.708 171.328 -132.887 162.115L-104.502 132.537L-74.81 101.598L-44.2512 69.751C-34.0608 59.1396 -23.8829 48.5282 -13.6924 37.9042C-3.65272 27.444 6.38695 16.9839 16.4266 6.52375C26.4663 -3.9364 35.9154 -13.779 45.6535 -23.9367L73.1339 -52.5698L98.4152 -78.9218L120.932 -102.388L140.182 -122.451C145.246 -127.732 150.323 -133.012 155.386 -138.293L166.067 -149.433L171.646 -155.256C171.885 -155.495 172.111 -155.735 172.349 -155.987C175.767 -159.553 176.144 -165.854 172.349 -169.358C168.555 -172.862 162.674 -173.164 159.018 -169.358Z" fill="white"/>
<path d="M47.5764 -30.0615C54.1732 -27.7174 60.7699 -25.3734 67.3667 -23.0419L120.769 -4.08758C147.156 5.27614 173.544 14.6399 199.931 24.0036C232.123 35.4341 264.315 46.8521 296.508 58.2826C331.653 70.7592 366.798 83.2232 401.943 95.6997C437.088 108.176 473.352 121.044 509.05 133.709C542.122 145.442 575.194 157.188 608.265 168.921C636.299 178.877 664.344 188.82 692.378 198.776C712.532 205.935 732.687 213.08 752.842 220.239C762.354 223.616 771.815 227.208 781.39 230.371C781.805 230.51 782.219 230.661 782.622 230.812C787.422 232.513 792.938 228.884 794.219 224.208C795.652 218.978 792.448 214.29 787.635 212.576C781.038 210.232 774.442 207.888 767.845 205.557C750.04 199.243 732.247 192.916 714.442 186.602C688.055 177.238 661.668 167.875 635.281 158.511C603.089 147.08 570.896 135.663 538.704 124.232C503.559 111.755 468.414 99.2915 433.268 86.8149C397.57 74.1493 361.86 61.4711 326.162 48.8055L226.946 13.5939C198.913 3.6378 170.867 -6.30564 142.834 -16.2617C122.679 -23.42 102.524 -30.5656 82.3697 -37.7239C72.8578 -41.1014 63.3961 -44.6931 53.8213 -47.8564C53.4067 -47.995 52.992 -48.1463 52.5899 -48.2975C47.79 -49.9988 42.2738 -46.3693 40.9921 -41.6937C39.5597 -36.4636 42.7639 -31.7755 47.5764 -30.0615Z" fill="white"/>
<path d="M-13.0388 20.0464C-11.4179 24.7723 -9.78442 29.4857 -8.1635 34.2117C-3.74051 47.0537 0.682473 59.9084 5.10546 72.7504L24.7199 129.752C32.6989 152.928 40.6778 176.117 48.6568 199.293C57.3897 224.675 66.1351 250.069 74.868 275.45L101.331 352.326C109.523 376.145 117.728 399.952 125.921 423.77C132.869 443.96 139.818 464.149 146.767 484.351C151.768 498.869 156.756 513.387 161.757 527.893C164.119 534.749 166.444 541.63 168.844 548.473C168.944 548.776 169.045 549.065 169.158 549.368C170.766 554.031 175.692 557.61 180.756 555.972C185.367 554.472 189.062 549.343 187.34 544.339C185.719 539.613 184.086 534.9 182.465 530.174C178.042 517.332 173.619 504.477 169.196 491.635L149.581 434.634C141.602 411.458 133.623 388.269 125.644 365.093C116.912 339.711 108.166 314.317 99.4332 288.935L72.9707 212.059C64.7781 188.241 56.5729 164.434 48.3804 140.615L27.5345 80.0347C22.5335 65.5165 17.5451 50.9983 12.5441 36.4927C10.1818 29.6369 7.85726 22.7559 5.45729 15.9127C5.35676 15.6102 5.25624 15.3204 5.14315 15.0179C3.5348 10.355 -1.3908 6.77583 -6.45462 8.41417C-11.0661 9.91388 -14.7603 15.0431 -13.0388 20.0464Z" fill="white"/>
<path d="M140.283 421.426C152.119 415.755 163.931 410.059 175.742 404.35C189.074 397.897 202.405 391.419 215.725 384.917C229.986 377.96 244.235 371.003 258.484 364.021C272.733 357.04 287.724 349.692 302.325 342.509C316.926 335.325 330.748 328.533 344.946 321.538C358.24 314.985 371.534 308.431 384.829 301.865C396.451 296.131 408.074 290.384 419.697 284.638C429.121 279.975 438.545 275.312 447.969 270.649C454.478 267.423 460.974 264.209 467.483 260.983C470.486 259.496 473.527 258.071 476.48 256.521C476.606 256.458 476.744 256.395 476.869 256.332C481.292 254.139 482.876 247.485 480.249 243.402C477.322 238.852 472.095 237.655 467.357 240.012C465.297 241.033 463.236 242.054 461.188 243.074C455.471 245.91 449.766 248.733 444.049 251.568C435.316 255.891 426.571 260.226 417.838 264.549C406.655 270.082 395.459 275.614 384.276 281.134C371.384 287.498 358.479 293.863 345.575 300.227C331.489 307.171 317.391 314.115 303.292 321.047C288.767 328.192 274.254 335.313 259.716 342.433C245.266 349.516 230.828 356.586 216.366 363.643C202.757 370.285 189.149 376.914 175.528 383.518C163.327 389.428 151.126 395.326 138.913 401.199C136.199 402.51 133.472 403.808 130.746 405.118C126.285 407.248 124.764 414.003 127.365 418.049C130.318 422.649 135.483 423.72 140.258 421.439L140.283 421.426Z" fill="white"/>
<path d="M238.556 22.5794C239.222 15.8244 239.9 9.06946 240.566 2.31447C242.162 -13.8042 243.758 -29.9103 245.354 -46.0291C247.289 -65.6135 249.236 -85.1979 251.172 -104.795C252.843 -121.632 254.514 -138.482 256.173 -155.319C256.989 -163.523 258.12 -171.765 258.623 -179.995C258.623 -180.108 258.648 -180.221 258.66 -180.335C258.987 -183.624 255.544 -186.775 252.378 -186.636C248.696 -186.472 246.447 -183.864 246.095 -180.335C245.429 -173.58 244.751 -166.825 244.085 -160.07C242.489 -143.951 240.893 -127.845 239.297 -111.726C237.362 -92.1419 235.415 -72.5575 233.48 -52.9605L228.479 -2.4367C227.662 5.76759 226.531 14.0097 226.028 22.2392C226.028 22.3526 226.003 22.466 225.991 22.5794C225.664 25.8687 229.107 29.0194 232.273 28.8807C235.955 28.7169 238.204 26.1082 238.556 22.5794Z" fill="white"/>
<path d="M286.304 47.7846C286.266 50.3681 286.241 52.9643 286.204 55.5478C286.116 62.5927 286.015 69.6375 285.927 76.6824C285.789 87.0543 285.663 97.4388 285.525 107.811C285.362 120.514 285.198 133.218 285.035 145.921C284.859 159.784 284.671 173.647 284.495 187.51C284.306 201.549 284.13 215.601 283.942 229.64C283.766 242.734 283.602 255.828 283.427 268.922C283.288 279.95 283.138 290.977 282.999 301.991C282.899 309.944 282.798 317.909 282.685 325.861C282.635 329.616 282.522 333.372 282.534 337.128C282.534 337.291 282.534 337.455 282.534 337.619C282.497 340.921 285.45 344.072 288.817 343.92C292.185 343.769 295.049 341.148 295.1 337.619C295.137 335.035 295.163 332.439 295.2 329.856C295.288 322.811 295.389 315.766 295.477 308.721C295.615 298.349 295.741 287.965 295.879 277.593C296.042 264.889 296.205 252.186 296.369 239.483C296.545 225.62 296.733 211.757 296.909 197.894C297.098 183.855 297.274 169.803 297.462 155.764C297.638 142.67 297.801 129.575 297.977 116.481C298.115 105.454 298.266 94.4268 298.404 83.4122C298.505 75.4599 298.605 67.4951 298.719 59.5428C298.769 55.7873 298.882 52.0317 298.869 48.2761C298.869 48.1123 298.869 47.9485 298.869 47.7846C298.907 44.4827 295.954 41.3321 292.587 41.4833C289.219 41.6346 286.354 44.2559 286.304 47.7846Z" fill="white"/>
<path d="M45.704 315.817C43.6056 314.859 41.5072 313.888 39.4088 312.931L22.1692 305.029C13.7002 301.147 5.2437 297.266 -3.22531 293.384C-13.554 288.645 -23.8701 283.907 -34.1988 279.168C-45.5578 273.963 -56.9168 268.746 -68.2633 263.541C-79.6098 258.336 -91.0945 253.068 -102.516 247.826C-113.159 242.936 -123.802 238.059 -134.457 233.169L-161.46 220.78L-180.886 211.87C-183.965 210.459 -187.043 209.035 -190.134 207.623C-190.26 207.56 -190.398 207.497 -190.524 207.447C-193.502 206.073 -197.422 206.489 -199.118 209.703C-200.576 212.475 -200.061 216.861 -196.869 218.323C-194.771 219.281 -192.672 220.251 -190.574 221.209L-173.334 229.111L-147.94 240.756C-137.611 245.494 -127.295 250.233 -116.966 254.971L-82.9019 270.598C-71.48 275.841 -60.0707 281.071 -48.6489 286.314C-38.0061 291.204 -27.3633 296.081 -16.7079 300.971L10.295 313.359L29.7209 322.269C32.7994 323.681 35.8779 325.105 38.969 326.516C39.0946 326.579 39.2329 326.642 39.3585 326.693C42.3365 328.066 46.2569 327.65 47.9532 324.437C49.4108 321.664 48.8956 317.278 45.704 315.817Z" fill="white"/>
<path d="M167.788 0.499752C166.758 2.1759 165.727 3.86464 164.697 5.54079L156.303 19.265L143.889 39.5804L128.647 64.4957C123.106 73.5444 117.577 82.6056 112.036 91.6543L95.2737 119.078L79.6424 144.648L66.4237 166.262L56.9118 181.813C55.4039 184.283 53.8333 186.716 52.3883 189.211C52.3255 189.312 52.2626 189.425 52.1998 189.526C50.4783 192.336 51.4961 196.583 54.449 198.146C57.4018 199.709 61.2091 198.89 63.0437 195.89C64.074 194.214 65.1044 192.525 66.1347 190.849L74.5284 177.125C78.6623 170.357 82.8089 163.59 86.9429 156.81L102.185 131.894C107.726 122.846 113.255 113.784 118.796 104.736L135.558 77.3125C140.773 68.7932 145.987 60.2612 151.189 51.7419L164.408 30.1284C167.574 24.9488 170.753 19.7565 173.92 14.5768C175.428 12.1067 176.998 9.67442 178.443 7.17911C178.506 7.07829 178.569 6.96487 178.632 6.86405C180.353 4.05367 179.336 -0.193401 176.383 -1.75612C173.43 -3.31884 169.623 -2.49966 167.788 0.499752Z" fill="white"/>
<path d="M85.2594 155.688C91.9944 157.906 98.7294 160.137 105.464 162.355C121.535 167.661 137.606 172.966 153.677 178.272C173.204 184.725 192.73 191.164 212.269 197.617C229.069 203.162 245.857 208.707 262.656 214.252C270.836 216.949 278.979 219.949 287.234 222.368C287.347 222.406 287.46 222.444 287.561 222.482C289.898 223.251 292.813 221.587 293.353 219.18C293.944 216.584 292.574 214.189 290.061 213.37C283.326 211.152 276.591 208.921 269.856 206.703C253.785 201.398 237.714 196.092 221.643 190.786C202.117 184.334 182.59 177.894 163.051 171.441L112.664 154.806C104.484 152.109 96.342 149.11 88.0865 146.69C87.9735 146.652 87.8604 146.614 87.7599 146.576C85.4227 145.808 82.5076 147.471 81.9673 149.878C81.3767 152.474 82.7463 154.869 85.2594 155.688Z" fill="white"/>
<path d="M31.7062 115.902C28.5146 121.157 25.3356 126.412 22.144 131.668L-0.636844 169.236C-9.80952 184.372 -18.9948 199.507 -28.1674 214.656C-36.1464 227.813 -44.1254 240.97 -52.0918 254.127C-55.9242 260.453 -60.033 266.692 -63.6393 273.169C-63.6896 273.258 -63.7524 273.346 -63.8026 273.434C-65.3859 276.043 -61.3147 278.412 -59.7315 275.816C-56.5399 270.561 -53.3609 265.305 -50.1693 260.05C-42.5799 247.523 -34.9904 234.996 -27.3884 222.482C-18.2157 207.346 -9.03048 192.21 0.142199 177.062C8.12117 163.905 16.1001 150.748 24.0665 137.591C27.8989 131.264 32.0078 125.026 35.614 118.548C35.6643 118.46 35.7271 118.372 35.7774 118.284C37.3606 115.675 33.2895 113.306 31.7062 115.902Z" fill="white"/>
<path d="M290.074 174.92C296.193 174.541 302.312 174.163 308.432 173.785L352.184 171.076L405.071 167.812C420.388 166.866 435.718 165.921 451.035 164.963C458.424 164.51 465.825 164.182 473.213 163.59C473.314 163.59 473.414 163.577 473.527 163.565C476.543 163.376 476.555 158.65 473.527 158.839C467.408 159.217 461.288 159.595 455.169 159.973C440.581 160.88 426.005 161.775 411.417 162.682C393.788 163.766 376.159 164.863 358.529 165.946C343.212 166.892 327.883 167.837 312.566 168.795C305.177 169.248 297.776 169.576 290.388 170.168C290.287 170.168 290.187 170.181 290.074 170.194C287.058 170.383 287.045 175.109 290.074 174.92Z" fill="white"/>
<path d="M452.644 -114.726C448.899 -108.966 445.155 -103.207 441.41 -97.4476C432.414 -83.61 423.417 -69.7724 414.42 -55.9347C403.539 -39.1859 392.644 -22.4496 381.763 -5.70077C372.352 8.7796 362.928 23.26 353.516 37.7403C348.942 44.7726 344.067 51.6788 339.77 58.8875C339.707 58.9883 339.644 59.0891 339.569 59.19C337.91 61.7483 341.981 64.1176 343.64 61.5718C347.384 55.8125 351.129 50.0531 354.873 44.2937L381.863 2.78077C392.745 -13.9681 403.639 -30.7043 414.521 -47.4532C423.932 -61.9335 433.356 -76.4139 442.767 -90.8943C447.341 -97.9265 452.217 -104.833 456.514 -112.041C456.577 -112.142 456.64 -112.243 456.715 -112.344C458.374 -114.902 454.302 -117.272 452.644 -114.726Z" fill="white"/>
<path d="M217.434 197.125C215.637 203.729 213.853 210.345 212.056 216.949L199.139 264.549C193.937 283.743 188.722 302.924 183.52 322.118C179.022 338.69 174.523 355.275 170.025 371.848C167.851 379.863 165.426 387.853 163.491 395.919C163.466 396.032 163.428 396.145 163.403 396.259C162.611 399.195 167.147 400.456 167.952 397.519C169.748 390.915 171.533 384.299 173.33 377.695L186.247 330.095C191.449 310.902 196.663 291.72 201.865 272.527C206.364 255.954 210.862 239.369 215.36 222.797C217.534 214.782 219.959 206.792 221.894 198.726C221.92 198.612 221.957 198.499 221.982 198.386C222.774 195.449 218.238 194.189 217.434 197.125Z" fill="white"/>
<path d="M143.06 51.7292H14.8936C11.8654 51.7292 11.8528 56.4552 14.8936 56.4552H143.06C146.088 56.4552 146.101 51.7292 143.06 51.7292Z" fill="white"/>
</g>
<path d="M-5.2106 24.6841C-1.91849 24.6841 1.22283 21.7855 1.07205 18.3828C0.921265 14.9801 -1.69232 12.0815 -5.2106 12.0815C-8.50271 12.0815 -11.644 14.9801 -11.4933 18.3828C-11.3425 21.7855 -8.72889 24.6841 -5.2106 24.6841Z" fill="#EEF3F8"/>
<rect opacity="0.6" x="-4" y="-3" width="358" height="252" fill="url(#paint0_radial_6_130)" fill-opacity="0.14"/>
</g>
</g>
<rect x="0.5" y="0.5" width="349" height="245" stroke="#E5E8EB"/>
<defs>
<radialGradient id="paint0_radial_6_130" cx="0" cy="0" r="1" gradientUnits="userSpaceOnUse" gradientTransform="translate(175 114.5) rotate(90) scale(140 192.141)">
<stop stop-color="#2C83E6" stop-opacity="0"/>
<stop offset="0.7" stop-color="#2C83E6" stop-opacity="0.225"/>
<stop offset="1" stop-color="#2C83E6"/>
</radialGradient>
<clipPath id="clip0_6_130">
<rect width="350" height="246" fill="white"/>
</clipPath>
<clipPath id="clip1_6_130">
<rect width="571" height="389" fill="white" transform="translate(-107 -32)"/>
</clipPath>
</defs>
</svg>
