<svg width="103" height="113" viewBox="0 0 103 113" fill="none" xmlns="http://www.w3.org/2000/svg">
<g filter="url(#filter0_d_6_353)">
<mask id="path-1-inside-1_6_353" fill="white">
<path fill-rule="evenodd" clip-rule="evenodd" d="M57.4706 83.1257C57.7059 82.7208 58.1041 82.4373 58.5603 82.3315C72.4305 79.1165 82.7676 66.683 82.7676 51.8351C82.7676 34.5462 68.7522 20.5308 51.4633 20.5308C34.1744 20.5308 20.1589 34.5462 20.1589 51.8351C20.1589 66.3565 30.0464 78.5685 43.4563 82.1061C43.8919 82.221 44.2694 82.4989 44.4958 82.8883L49.6277 91.7166C50.263 92.8093 51.8413 92.8093 52.4766 91.7166L57.4706 83.1257Z"/>
</mask>
<path fill-rule="evenodd" clip-rule="evenodd" d="M57.4706 83.1257C57.7059 82.7208 58.1041 82.4373 58.5603 82.3315C72.4305 79.1165 82.7676 66.683 82.7676 51.8351C82.7676 34.5462 68.7522 20.5308 51.4633 20.5308C34.1744 20.5308 20.1589 34.5462 20.1589 51.8351C20.1589 66.3565 30.0464 78.5685 43.4563 82.1061C43.8919 82.221 44.2694 82.4989 44.4958 82.8883L49.6277 91.7166C50.263 92.8093 51.8413 92.8093 52.4766 91.7166L57.4706 83.1257Z" fill="#F2F4F6"/>
<path d="M49.6277 91.7166L51.1869 90.8102L49.6277 91.7166ZM52.4766 91.7166L50.9174 90.8102L52.4766 91.7166ZM43.4563 82.1061L43.9163 80.3623L43.4563 82.1061ZM44.4958 82.8883L42.9366 83.7947L44.4958 82.8883ZM58.5603 82.3315L58.1531 80.5746L58.5603 82.3315ZM57.4706 83.1257L55.9114 82.2193L57.4706 83.1257ZM80.9642 51.8351C80.9642 65.8253 71.224 77.5449 58.1531 80.5746L58.9675 84.0884C73.6369 80.6882 84.5711 67.5407 84.5711 51.8351H80.9642ZM51.4633 22.3342C67.7562 22.3342 80.9642 35.5422 80.9642 51.8351H84.5711C84.5711 33.5502 69.7482 18.7273 51.4633 18.7273V22.3342ZM21.9624 51.8351C21.9624 35.5422 35.1704 22.3342 51.4633 22.3342V18.7273C33.1783 18.7273 18.3555 33.5502 18.3555 51.8351H21.9624ZM43.9163 80.3623C31.2785 77.0283 21.9624 65.5174 21.9624 51.8351H18.3555C18.3555 67.1956 28.8144 80.1086 42.9963 83.8499L43.9163 80.3623ZM51.1869 90.8102L46.0549 81.982L42.9366 83.7947L48.0686 92.6229L51.1869 90.8102ZM55.9114 82.2193L50.9174 90.8102L54.0357 92.6229L59.0297 84.032L55.9114 82.2193ZM48.0686 92.6229C49.3992 94.9118 52.7052 94.9118 54.0357 92.6229L50.9174 90.8102C50.9255 90.7963 50.9474 90.7711 50.9806 90.7527C51.0091 90.737 51.0339 90.7327 51.0522 90.7327C51.0704 90.7327 51.0952 90.737 51.1237 90.7527C51.157 90.7711 51.1788 90.7963 51.1869 90.8102L48.0686 92.6229ZM42.9963 83.8499C42.9911 83.8485 42.9622 83.8387 42.9366 83.7947L46.0549 81.982C45.5765 81.159 44.7926 80.5935 43.9163 80.3623L42.9963 83.8499ZM58.1531 80.5746C57.2356 80.7873 56.4089 81.3636 55.9114 82.2193L59.0297 84.032C59.003 84.078 58.9726 84.0872 58.9675 84.0884L58.1531 80.5746Z" fill="#1B7BE8" mask="url(#path-1-inside-1_6_353)"/>
</g>
<path d="M44.9557 60.6393C43.5804 61.2635 42.1131 61.6607 40.6107 61.8154C40.5115 61.8257 40.4115 61.8069 40.3228 61.7613C40.2341 61.7157 40.1606 61.6453 40.1113 61.5586C38.9981 59.5967 38.6321 57.1559 39.0841 54.4775C39.6606 51.0211 41.5352 47.5608 44.3638 44.7322C47.1923 41.9036 50.6552 40.0291 54.1091 39.4526C57.0352 38.9659 59.6776 39.4526 61.7217 40.8136C61.8054 40.8685 61.8711 40.9467 61.911 41.0385C61.9508 41.1303 61.9629 41.2317 61.9459 41.3303C61.9288 41.4289 61.8833 41.5204 61.815 41.5935C61.7467 41.6667 61.6585 41.7182 61.5612 41.7419C60.599 41.9712 59.6609 42.292 58.7596 42.6997C55.9644 43.9708 52.3911 46.6877 51.2458 52.4193C50.4613 56.3072 48.3466 59.0729 44.9557 60.6393ZM64.3808 43.6794C64.3316 43.5929 64.2583 43.5226 64.1698 43.477C64.0814 43.4314 63.9816 43.4125 63.8826 43.4226C62.3797 43.5764 60.9118 43.9736 59.5364 44.5987C56.1455 46.1651 54.0308 48.9308 53.2527 52.8161C52.1061 58.5477 48.5341 61.2646 45.7389 62.5357C44.8376 62.9435 43.8995 63.2642 42.9373 63.4936C42.8379 63.516 42.7474 63.5675 42.6773 63.6415C42.6072 63.7155 42.5608 63.8087 42.5439 63.9092C42.5269 64.0097 42.5403 64.113 42.5822 64.2059C42.6241 64.2988 42.6928 64.3771 42.7793 64.4309C44.3034 65.4478 46.1588 65.9716 48.217 65.9716C48.9449 65.9695 49.6715 65.9077 50.3894 65.7867C53.8446 65.2102 57.3062 63.3356 60.1347 60.5071C62.9633 57.6785 64.8379 54.2156 65.4144 50.7617C65.8561 48.0834 65.494 45.6413 64.3808 43.6794Z" fill="#1B7BE8"/>
<defs>
<filter id="filter0_d_6_353" x="0.280676" y="0.652502" width="102.365" height="111.762" filterUnits="userSpaceOnUse" color-interpolation-filters="sRGB">
<feFlood flood-opacity="0" result="BackgroundImageFix"/>
<feColorMatrix in="SourceAlpha" type="matrix" values="0 0 0 0 0 0 0 0 0 0 0 0 0 0 0 0 0 0 127 0" result="hardAlpha"/>
<feOffset/>
<feGaussianBlur stdDeviation="9.93913"/>
<feComposite in2="hardAlpha" operator="out"/>
<feColorMatrix type="matrix" values="0 0 0 0 0.687683 0 0 0 0 0.69147 0 0 0 0 0.733122 0 0 0 0.31 0"/>
<feBlend mode="normal" in2="BackgroundImageFix" result="effect1_dropShadow_6_353"/>
<feBlend mode="normal" in="SourceGraphic" in2="effect1_dropShadow_6_353" result="shape"/>
</filter>
</defs>
</svg>
