<svg width="390" height="334" viewBox="0 0 390 334" fill="none" xmlns="http://www.w3.org/2000/svg">
<g clip-path="url(#clip0_1724_9925)">
<rect width="390" height="334" fill="#EAF4FF"/>
<path fill-rule="evenodd" clip-rule="evenodd" d="M137.314 330.324C186.458 367.641 272.047 345.155 328.482 280.102C384.917 215.048 390.828 132.06 341.684 94.7435C292.54 57.4267 206.951 79.9119 150.516 144.966C94.0812 210.019 88.1705 293.007 137.314 330.324ZM170.727 284.415C184.014 242.015 227.269 173.201 300.194 137.385C302.869 136.071 305.591 138.739 304.281 141.416C283.746 183.388 229.343 257.512 175.077 287.914C172.636 289.282 169.89 287.085 170.727 284.415Z" fill="url(#paint0_linear_1724_9925)"/>
<path opacity="0.45" fill-rule="evenodd" clip-rule="evenodd" d="M-16.6106 11.3671C-34.9215 39.9576 -14.714 82.7841 28.5241 107.023C71.7622 131.262 121.657 127.734 139.968 99.1435C158.279 70.553 138.072 27.7265 94.8335 3.48775C51.5955 -20.751 1.70025 -17.2233 -16.6106 11.3671ZM11.9764 24.9489C38.3351 28.0944 84.5208 45.44 112.066 81.9558C112.759 82.8747 111.965 84.0999 110.853 83.809C84.3519 76.8772 33.5213 53.6163 10.9548 26.8568C10.2504 26.0215 10.8956 24.8199 11.9764 24.9489Z" fill="url(#paint1_linear_1724_9925)"/>
<path opacity="0.25" fill-rule="evenodd" clip-rule="evenodd" d="M338.078 -12.8344C345.299 -1.55851 337.33 15.332 320.277 24.8916C303.224 34.4512 283.546 33.0599 276.324 21.784C269.102 10.5081 277.072 -6.38235 294.125 -15.942C311.178 -25.5016 330.856 -24.1103 338.078 -12.8344ZM326.803 -7.47739C316.407 -6.23683 298.192 0.604164 287.328 15.0058C287.055 15.3682 287.368 15.8514 287.807 15.7366C298.259 13.0028 318.306 3.82885 327.206 -6.72493C327.484 -7.05436 327.229 -7.52827 326.803 -7.47739Z" fill="#AAD2FF"/>
</g>
<defs>
<linearGradient id="paint0_linear_1724_9925" x1="239.499" y1="76.7168" x2="239.499" y2="348.35" gradientUnits="userSpaceOnUse">
<stop stop-color="#AAD2FF"/>
<stop offset="1" stop-color="#AAD2FF" stop-opacity="0"/>
</linearGradient>
<linearGradient id="paint1_linear_1724_9925" x1="51.277" y1="12.4614" x2="52.7261" y2="180.93" gradientUnits="userSpaceOnUse">
<stop stop-color="#AAD2FF"/>
<stop offset="1" stop-color="#AAD2FF" stop-opacity="0"/>
</linearGradient>
<clipPath id="clip0_1724_9925">
<rect width="390" height="334" fill="white"/>
</clipPath>
</defs>
</svg>
