<svg width="169" height="120" viewBox="0 0 169 120" fill="none" xmlns="http://www.w3.org/2000/svg">
<g id="Frame 1171275725">
<g clip-path="url(#clip0_1729_16456)">
<rect width="169" height="120" rx="10" fill="#EAF4FF"/>
<g id="Ellipse 2731" opacity="0.25" filter="url(#filter0_f_1729_16456)">
<circle cx="130.5" cy="112.5" r="102.5" fill="#AAD2FF"/>
</g>
<g id="Group 1000005380" opacity="0.75">
<rect id="Rectangle 161126032" x="66" y="45" width="92" height="123" rx="6.03227" fill="#AAD2FF"/>
<rect id="Rectangle 161126033" x="75.0469" y="53.999" width="73.9016" height="30.75" rx="3.01614" fill="#1B7BE8"/>
<rect id="Rectangle 161126036" x="87" y="56.0869" width="7" height="29.2177" rx="1.5" transform="rotate(-8.93377 87 56.0869)" fill="#5DA9FF"/>
<rect id="Rectangle 161126037" opacity="0.8" x="79.385" y="55.5938" width="7" height="29.2177" rx="1.5" transform="rotate(-3.32371 79.385 55.5938)" fill="#5DA9FF"/>
<rect id="Rectangle 161126038" opacity="0.7" x="125.639" y="59" width="7" height="29.2177" rx="1.5" transform="rotate(42.2329 125.639 59)" fill="#5DA9FF"/>
<rect id="Rectangle 161126039" opacity="0.5" x="147.209" y="77" width="7" height="29.2177" rx="1.5" transform="rotate(88.6243 147.209 77)" fill="#5DA9FF"/>
<rect id="Rectangle 161126034" x="75.0469" y="90.75" width="73.9016" height="31.5" rx="3.01614" fill="#1B7BE8"/>
</g>
</g>
</g>
<defs>
<filter id="filter0_f_1729_16456" x="24" y="6" width="213" height="213" filterUnits="userSpaceOnUse" color-interpolation-filters="sRGB">
<feFlood flood-opacity="0" result="BackgroundImageFix"/>
<feBlend mode="normal" in="SourceGraphic" in2="BackgroundImageFix" result="shape"/>
<feGaussianBlur stdDeviation="2" result="effect1_foregroundBlur_1729_16456"/>
</filter>
<clipPath id="clip0_1729_16456">
<rect width="169" height="120" rx="10" fill="white"/>
</clipPath>
</defs>
</svg>
