<svg width="169" height="120" viewBox="0 0 169 120" fill="none" xmlns="http://www.w3.org/2000/svg">
<g clip-path="url(#clip0_1729_16467)">
<rect width="169" height="120" rx="10" fill="#EAF4FF"/>
<g opacity="0.25" filter="url(#filter0_f_1729_16467)">
<circle cx="130.5" cy="112.5" r="102.5" fill="#AAD2FF"/>
</g>
<path d="M76.5 86C92.9186 76.0522 100.557 63.9349 112.5 35C127.76 48.7771 141.5 45.5 156.5 45.5C155.748 72.5428 150.208 89.9304 122.5 114.5C109.5 109 92.3527 106.161 76.5 86Z" fill="white"/>
<circle cx="68.9578" cy="43.7026" r="2.95293" transform="rotate(-41.7095 68.9578 43.7026)" fill="#1B7BE8"/>
<circle cx="54.2515" cy="68.9124" r="1.24316" transform="rotate(-41.7095 54.2515 68.9124)" fill="#0E4E97"/>
<path d="M59.6122 61.2339C59.6122 61.2339 61.0155 58.0617 63.9205 58.4577C66.8254 58.8537 66.8074 62.5369 66.8074 62.5369C66.8074 62.5369 68.4805 59.0373 72.3989 59.6647C75.6643 60.1876 75.9275 63.6954 75.9275 63.6954C75.9275 63.6954 77.6693 61.1121 80.969 62.0928C82.9996 62.6962 83.8105 65.5655 83.8105 65.5655" stroke="#AAD2FF" stroke-width="1.80566" stroke-linecap="round" stroke-linejoin="round"/>
<path opacity="0.5" d="M112 56.3353C112 56.3353 114.131 53.5091 117.865 54.0749C121.598 54.6406 121.216 58.0335 121.216 58.0335C121.216 58.0335 123.73 54.9242 128.757 55.7733C132.946 56.4809 132.946 59.7317 132.946 59.7317C132.946 59.7317 135.459 57.4715 139.649 58.6034C142.227 59.2998 143 62 143 62" stroke="#AAD2FF" stroke-width="1.66864" stroke-linecap="round" stroke-linejoin="round"/>
<path opacity="0.5" d="M109 64.3353C109 64.3353 111.131 61.5091 114.865 62.0749C118.598 62.6406 118.216 66.0335 118.216 66.0335C118.216 66.0335 120.73 62.9242 125.757 63.7733C129.946 64.4809 129.946 67.7317 129.946 67.7317C129.946 67.7317 132.459 65.4715 136.649 66.6034C139.227 67.2998 140 70 140 70" stroke="#AAD2FF" stroke-width="1.66864" stroke-linecap="round" stroke-linejoin="round"/>
<path opacity="0.5" d="M104 73.3353C104 73.3353 106.131 70.5091 109.865 71.0749C113.598 71.6406 113.216 75.0335 113.216 75.0335C113.216 75.0335 115.73 71.9242 120.757 72.7733C124.946 73.4809 124.946 76.7317 124.946 76.7317C124.946 76.7317 127.459 74.4715 131.649 75.6034C134.227 76.2998 135 79 135 79" stroke="#AAD2FF" stroke-width="1.66864" stroke-linecap="round" stroke-linejoin="round"/>
<path d="M97.6978 58.5188C95.9875 55.1434 97.6122 43.0069 104.925 39.3" stroke="#5DA9FF" stroke-width="1.80566" stroke-linecap="round" stroke-linejoin="round"/>
<circle cx="111.491" cy="41.9423" r="1.77388" transform="rotate(-26.8812 111.491 41.9423)" fill="#AAD2FF"/>
<path d="M56.0202 79.9262C56.0202 79.9262 57.626 76.3225 60.9228 75.2826C63.7007 74.4064 66.5257 74.6628 67.6445 76.8404C68.1529 77.83 67.6773 79.8602 65.9239 79.698C64.1704 79.5359 63.4883 77.9124 63.7155 76.5811C64.0354 74.706 65.7281 72.8137 67.8387 72.4887C70.3714 72.0988 71.7677 72.748 71.7677 72.748" stroke="#5DA9FF" stroke-width="1.22729" stroke-linecap="round" stroke-linejoin="round"/>
<g clip-path="url(#clip1_1729_16467)">
<path d="M112.59 63.6368L77.7289 75.1925C77.3086 75.3318 76.9609 75.6324 76.7623 76.028C76.5636 76.4237 76.5302 76.8821 76.6695 77.3024L79.8211 86.81C80.7201 89.5062 82.1808 91.981 84.1067 94.0711C86.0326 96.1611 88.38 97.8189 90.9938 98.9349L86.1331 100.546C85.7128 100.685 85.3651 100.986 85.1664 101.382C84.9678 101.777 84.9344 102.236 85.0737 102.656C85.213 103.076 85.5136 103.424 85.9092 103.623C86.3049 103.821 86.7633 103.855 87.1836 103.715L122.045 92.1596C122.465 92.0203 122.813 91.7198 123.011 91.3241C123.21 90.9284 123.243 90.47 123.104 90.0498C122.965 89.6295 122.664 89.2818 122.269 89.0831C121.873 88.8845 121.415 88.8511 120.994 88.9904L116.134 90.6017C117.847 87.6463 118.782 84.3038 118.849 80.8881C120.821 80.0969 122.417 78.5838 123.311 76.657C124.206 74.7302 124.332 72.5348 123.665 70.5181L123.139 68.9335C122.443 66.8322 120.94 65.0936 118.962 64.1003C116.983 63.107 114.691 62.9402 112.59 63.6368ZM120.496 71.5686C120.835 72.594 120.833 73.7016 120.491 74.7262C120.15 75.7507 119.486 76.6373 118.599 77.2537C118.43 76.219 118.18 75.1992 117.852 74.2037L115.316 66.5541C116.351 66.5745 117.354 66.9153 118.188 67.5296C119.022 68.1438 119.644 69.0013 119.97 69.984L120.496 71.5686Z" fill="#1B7BE8"/>
</g>
</g>
<defs>
<filter id="filter0_f_1729_16467" x="24" y="6" width="213" height="213" filterUnits="userSpaceOnUse" color-interpolation-filters="sRGB">
<feFlood flood-opacity="0" result="BackgroundImageFix"/>
<feBlend mode="normal" in="SourceGraphic" in2="BackgroundImageFix" result="shape"/>
<feGaussianBlur stdDeviation="2" result="effect1_foregroundBlur_1729_16467"/>
</filter>
<clipPath id="clip0_1729_16467">
<rect width="169" height="120" rx="10" fill="white"/>
</clipPath>
<clipPath id="clip1_1729_16467">
<rect width="53.4205" height="53.4205" fill="white" transform="translate(66.1382 61.4473) rotate(-18.3392)"/>
</clipPath>
</defs>
</svg>
