<svg width="169" height="120" viewBox="0 0 169 120" fill="none" xmlns="http://www.w3.org/2000/svg">
<g clip-path="url(#clip0_2227_7985)">
<path d="M90.6894 72.3424C90.0052 73.7795 89.7776 75.386 90.0354 76.9588C90.2932 78.5315 91.0248 79.9998 92.1378 81.1781C93.2507 82.3563 94.695 83.1915 96.288 83.5781C97.8809 83.9646 99.551 83.8852 101.087 83.3498C102.623 82.8145 103.956 81.8472 104.917 80.5703C105.879 79.2934 106.425 77.7643 106.488 76.1763C106.551 74.5883 106.127 73.0128 105.27 71.649C104.412 70.2851 103.161 69.1942 101.673 68.5142C99.6772 67.6023 97.3991 67.4934 95.3393 68.2113C93.2795 68.9292 91.6069 70.4152 90.6894 72.3424ZM135.832 92.9716C136.516 91.5344 137.626 90.3312 139.022 89.5141C140.418 88.6969 142.036 88.3025 143.673 88.3808C145.309 88.4591 146.891 89.0065 148.217 89.9538C149.543 90.9011 150.554 92.2058 151.122 93.7029C151.691 95.1999 151.791 96.8221 151.41 98.3643C151.029 99.9066 150.185 101.299 148.983 102.367C147.781 103.435 146.277 104.129 144.659 104.362C143.042 104.595 141.384 104.356 139.896 103.676C137.901 102.764 136.352 101.124 135.59 99.1167C134.827 97.1092 134.915 94.8988 135.832 92.9716ZM132.929 85.3255C131.441 84.6455 130.189 83.5546 129.332 82.1907C128.475 80.8269 128.051 79.2513 128.114 77.6633C128.176 76.0753 128.723 74.5462 129.684 73.2694C130.646 71.9925 131.979 71.0252 133.515 70.4898C135.051 69.9544 136.721 69.875 138.314 70.2616C139.907 70.6482 141.351 71.4834 142.464 72.6616C143.577 73.8398 144.309 75.3081 144.566 76.8809C144.824 78.4536 144.597 80.0602 143.912 81.4973C142.995 83.4245 141.322 84.9105 139.262 85.6284C137.203 86.3463 134.924 86.2373 132.929 85.3255ZM113.582 76.4844C112.094 75.8044 110.842 74.7134 109.985 73.3496C109.128 71.9857 108.704 70.4102 108.767 68.8222C108.829 67.2342 109.376 65.7051 110.337 64.4283C111.299 63.1514 112.632 62.1841 114.168 61.6487C115.704 61.1133 117.374 61.0339 118.967 61.4205C120.56 61.8071 122.004 62.6423 123.117 63.8205C124.23 64.9987 124.962 66.467 125.219 68.0398C125.477 69.6125 125.25 71.219 124.565 72.6562C123.648 74.5834 121.975 76.0694 119.916 76.7873C117.856 77.5052 115.578 77.3962 113.582 76.4844ZM99.8502 89.4394C101.219 89.3566 102.555 89.0124 103.781 88.4265C105.007 87.8405 106.099 87.0244 106.995 86.0248C108.84 83.9775 111.326 82.5741 114.08 82.0255C116.834 81.4769 119.707 81.8127 122.266 82.9825C124.826 84.1523 126.935 86.0928 128.276 88.5125C129.616 90.9322 130.116 93.7003 129.701 96.4008C129.283 99.0451 129.964 101.754 131.595 103.933C133.174 105.993 134.007 108.497 133.961 111.051C133.916 113.604 132.994 116.06 131.343 118.031C129.691 120.002 127.404 121.375 124.843 121.932C122.281 122.49 119.592 122.201 117.201 121.11C115.766 120.46 114.479 119.535 113.417 118.392C110.009 114.796 105.288 112.638 100.285 112.392C97.2287 112.297 94.3153 111.059 92.1559 108.935C89.9966 106.811 88.759 103.967 88.7026 100.999C88.6461 98.0316 89.7753 95.1705 91.8533 93.0159C93.9313 90.8613 96.7968 89.5805 99.8489 89.442L99.8502 89.4394Z" fill="#ABD3FF" fill-opacity="0.62"/>
<path d="M122.863 46.4701C123.337 47.1388 124.001 47.643 124.771 47.9188C125.541 48.1945 126.382 48.2296 127.188 48.0196C127.995 47.8095 128.73 47.3637 129.301 46.7385C129.873 46.1134 130.254 45.337 130.397 44.5075C130.541 43.678 130.44 42.8327 130.107 42.0784C129.774 41.3241 129.225 40.6948 128.528 40.27C127.831 39.8452 127.019 39.644 126.193 39.6919C125.367 39.7397 124.565 40.0345 123.888 40.5389C122.981 41.2152 122.363 42.2201 122.171 43.3324C121.979 44.4447 122.228 45.5734 122.863 46.4701ZM143.389 31.1691C142.916 30.5004 142.653 29.6972 142.635 28.8609C142.617 28.0247 142.844 27.1931 143.288 26.4712C143.732 25.7493 144.372 25.1696 145.128 24.8053C145.884 24.4411 146.722 24.3087 147.535 24.425C148.349 24.5412 149.102 24.9007 149.698 25.4582C150.295 26.0157 150.709 26.746 150.888 27.5568C151.067 28.3676 151.003 29.2225 150.703 30.0134C150.404 30.8043 149.883 31.4957 149.206 32C148.299 32.6764 147.177 32.9688 146.086 32.813C144.995 32.6572 144.025 32.0658 143.389 31.1691ZM139.235 30.5756C138.558 31.08 137.756 31.3747 136.93 31.4226C136.104 31.4705 135.292 31.2693 134.595 30.8445C133.898 30.4197 133.349 29.7904 133.016 29.0361C132.683 28.2818 132.582 27.4365 132.725 26.607C132.869 25.7775 133.25 25.0011 133.821 24.376C134.393 23.7508 135.128 23.305 135.934 23.0949C136.741 22.8849 137.582 22.9199 138.352 23.1957C139.122 23.4715 139.786 23.9757 140.26 24.6444C140.895 25.5411 141.144 26.6698 140.952 27.7821C140.76 28.8944 140.142 29.8993 139.235 30.5756ZM130.437 37.1332C129.761 37.6376 128.959 37.9323 128.133 37.9802C127.307 38.028 126.495 37.8268 125.798 37.402C125.101 36.9772 124.552 36.3479 124.219 35.5937C123.886 34.8394 123.785 33.9941 123.928 33.1646C124.072 32.3351 124.453 31.5587 125.024 30.9335C125.595 30.3084 126.331 29.8626 127.137 29.6525C127.944 29.4424 128.785 29.4775 129.555 29.7533C130.325 30.0291 130.989 30.5332 131.463 31.2019C132.098 32.0987 132.347 33.2273 132.155 34.3397C131.963 35.452 131.345 36.4568 130.437 37.1332ZM132.82 46.5879C133.125 45.9471 133.304 45.2561 133.347 44.5544C133.391 43.8528 133.297 43.1542 133.073 42.4987C132.615 41.1519 132.606 39.6752 133.048 38.2908C133.489 36.9063 134.357 35.6887 135.521 34.8211C136.685 33.9535 138.082 33.4826 139.502 33.4793C140.922 33.476 142.289 33.9404 143.397 34.8027C144.479 35.6523 145.864 36.0199 147.249 35.825C148.567 35.6236 149.899 35.8716 151.033 36.5296C152.167 37.1876 153.039 38.2182 153.51 39.4583C153.982 40.6984 154.027 42.0773 153.637 43.3768C153.248 44.6764 152.447 45.8224 151.36 46.6337C150.71 47.1211 149.974 47.4734 149.196 47.6692C146.732 48.3153 144.585 49.9154 143.225 52.1202C142.42 53.4814 141.137 54.492 139.645 54.94C138.153 55.3881 136.568 55.2389 135.223 54.5236C133.877 53.8084 132.876 52.5826 132.428 51.1034C131.98 49.6242 132.121 48.0064 132.821 46.5891L132.82 46.5879Z" fill="#ABD3FF" fill-opacity="0.4"/>
<path d="M93.701 12.0573C93.5938 12.7001 93.6856 13.3586 93.9649 13.9495C94.2442 14.5405 94.6984 15.0373 95.2701 15.3773C95.8418 15.7172 96.5053 15.885 97.1767 15.8593C97.8481 15.8337 98.4972 15.6158 99.042 15.2333C99.5868 14.8507 100.003 14.3206 100.237 13.71C100.472 13.0995 100.515 12.4358 100.36 11.8031C100.205 11.1703 99.8599 10.5968 99.3681 10.1552C98.8762 9.7135 98.2597 9.42347 97.5965 9.32175C96.7071 9.18536 95.7971 9.39694 95.0666 9.90996C94.336 10.423 93.8448 11.1954 93.701 12.0573ZM113.821 15.143C113.928 14.5003 114.229 13.9021 114.687 13.4242C115.145 12.9463 115.738 12.61 116.392 12.458C117.045 12.306 117.73 12.3451 118.36 12.5702C118.989 12.7954 119.535 13.1966 119.928 13.723C120.321 14.2494 120.544 14.8775 120.568 15.5277C120.593 16.178 120.417 16.8212 120.064 17.3761C119.712 17.931 119.197 18.3727 118.586 18.6452C117.975 18.9177 117.295 19.0089 116.632 18.9072C115.742 18.7708 114.947 18.2976 114.419 17.5917C113.892 16.8857 113.677 16.0049 113.821 15.143ZM111.813 12.4544C111.149 12.3527 110.533 12.0626 110.041 11.6209C109.549 11.1793 109.204 10.6058 109.049 9.97304C108.895 9.34028 108.937 8.67666 109.172 8.0661C109.406 7.45553 109.822 6.92545 110.367 6.54287C110.912 6.16029 111.561 5.94241 112.232 5.91678C112.904 5.89114 113.567 6.05891 114.139 6.39886C114.711 6.7388 115.165 7.23566 115.444 7.82661C115.724 8.41756 115.815 9.07604 115.708 9.7188C115.564 10.5807 115.073 11.3531 114.343 11.8662C113.612 12.3792 112.702 12.5908 111.813 12.4544ZM103.19 11.1319C102.527 11.0302 101.91 10.7402 101.418 10.2985C100.927 9.85682 100.581 9.28335 100.427 8.65059C100.272 8.01783 100.315 7.35421 100.549 6.74365C100.784 6.13308 101.2 5.60299 101.744 5.22042C102.289 4.83784 102.938 4.61996 103.61 4.59433C104.281 4.56869 104.945 4.73646 105.516 5.0764C106.088 5.41635 106.542 5.91321 106.822 6.50416C107.101 7.09511 107.193 7.75359 107.085 8.39635C106.942 9.25827 106.45 10.0307 105.72 10.5437C104.989 11.0567 104.079 11.2683 103.19 11.1319ZM99.2427 17.771C99.7728 17.5855 100.26 17.3006 100.677 16.9328C101.094 16.5649 101.432 16.1213 101.672 15.6273C102.168 14.6144 102.989 13.7836 104.012 13.2598C105.036 12.736 106.205 12.5474 107.346 12.7223C108.487 12.8973 109.537 13.4264 110.339 14.2301C111.141 15.0338 111.651 16.0687 111.792 17.1793C111.926 18.268 112.5 19.2594 113.389 19.936C114.245 20.5711 114.856 21.465 115.126 22.4762C115.397 23.4874 115.311 24.5583 114.883 25.5194C114.455 26.4805 113.709 27.277 112.763 27.7829C111.816 28.2888 110.724 28.4753 109.658 28.3128C109.019 28.2167 108.408 27.9961 107.86 27.6645C106.111 26.6279 104.007 26.3052 102.008 26.7669C100.792 27.0713 99.5045 26.9086 98.4136 26.3129C97.3227 25.7173 96.5137 24.7349 96.1561 23.5717C95.7986 22.4086 95.9202 21.155 96.4956 20.0738C97.071 18.9926 98.0554 18.1678 99.2425 17.7722L99.2427 17.771Z" fill="url(#paint0_linear_2227_7985)" fill-opacity="0.4"/>
<path fill-rule="evenodd" clip-rule="evenodd" d="M67.2156 98.6082C67.5639 100.018 67.4655 101.394 67.3229 102.846C67.2411 103.781 67.2507 104.749 67.2603 105.719L67.2603 105.72L67.2603 105.72C67.2665 106.348 67.2727 106.976 67.2542 107.597C67.2193 108.762 67.1367 109.906 67.0532 111.063L67.0532 111.063L67.0532 111.063L67.0531 111.064C67.0235 111.474 66.9938 111.886 66.966 112.301C66.9226 112.95 66.9683 113.602 67.0138 114.251L67.0138 114.251L67.0138 114.251C67.0794 115.187 67.1446 116.117 66.9416 117.023C66.5979 118.558 66.1407 120.088 65.3842 121.498C64.9277 122.361 64.1302 122.958 63.2875 123.589L63.2873 123.589C62.837 123.926 62.3739 124.272 61.943 124.674C61.687 124.914 61.4377 125.166 61.1847 125.422C60.4016 126.213 59.5838 127.039 58.4269 127.663C58.1481 127.816 57.8664 127.979 57.5789 128.145C56.5733 128.726 55.496 129.348 54.217 129.777C53.7925 129.923 53.3563 130.09 52.9085 130.261L52.9085 130.261C51.9009 130.646 50.8352 131.054 49.7134 131.294C48.7224 131.505 47.6903 131.472 46.6571 131.439L46.6569 131.439L46.6569 131.439C46.0008 131.418 45.3443 131.397 44.6975 131.439C44.3273 131.462 43.9575 131.475 43.5883 131.479C43.6439 131.775 43.6886 132.099 43.7191 132.456C43.7537 132.762 43.8078 133.083 43.8644 133.418C43.9713 134.051 44.0869 134.736 44.0954 135.464C44.1011 136.2 44.0761 136.974 44.0505 137.767C44.0428 138.007 44.035 138.249 44.0279 138.493C44.0106 139.001 43.8792 139.527 43.7469 140.056C43.627 140.537 43.5064 141.019 43.4696 141.494C43.4319 141.981 43.51 142.478 43.5884 142.978C43.6707 143.502 43.7534 144.029 43.7024 144.548C43.6527 145.054 43.4923 145.542 43.3319 146.03C43.1715 146.517 43.0111 147.005 42.9613 147.511C42.9068 148.066 42.8248 148.615 42.7437 149.158C42.6768 149.606 42.6106 150.049 42.5609 150.488C42.498 151.012 42.4793 151.531 42.4612 152.036C42.4431 152.538 42.4256 153.025 42.3655 153.49C42.2898 154.09 42.2956 154.669 42.301 155.209C42.3057 155.675 42.3101 156.113 42.2614 156.511C42.1635 157.217 42.2764 157.801 42.3663 158.266C42.5109 159.014 42.596 159.455 41.6472 159.596C40.7696 159.727 40.4128 159.483 39.983 159.188C39.6594 158.966 39.2945 158.716 38.6349 158.577C37.8647 158.414 37.4701 158.383 37.0766 158.353C36.6855 158.323 36.2955 158.292 35.5391 158.133C34.7803 157.972 34.4077 157.86 34.0351 157.748C33.6626 157.635 33.29 157.523 32.5312 157.363C31.7725 157.202 31.3864 157.154 31.0002 157.106C30.6141 157.058 30.2279 157.009 29.4692 156.849C28.7104 156.689 28.3243 156.64 27.9382 156.592C27.552 156.544 27.1659 156.496 26.4071 156.335C25.6484 156.175 25.2874 156.008 24.9265 155.841C24.5655 155.673 24.2045 155.506 23.4458 155.346C22.6871 155.185 22.3058 155.114 21.9245 155.043C21.5432 154.972 21.1618 154.901 20.4031 154.74C19.6444 154.58 19.2544 154.55 18.8643 154.52C18.4743 154.49 18.0843 154.461 17.3256 154.3C16.5668 154.14 16.1797 154.096 15.7926 154.053C15.4055 154.009 15.0184 153.965 14.2596 153.805C13.5009 153.645 13.1428 153.464 12.7848 153.283C12.4267 153.102 12.0687 152.921 11.3099 152.76C10.6658 152.624 10.2662 152.65 9.91219 152.673C9.43224 152.704 9.03621 152.729 8.2285 152.338C8.19784 151.49 8.17601 150.509 8.37575 149.384C8.49125 148.701 8.69046 147.982 8.8996 147.228C8.96795 146.981 9.03736 146.73 9.10526 146.476C9.20113 146.097 9.27814 145.7 9.35657 145.297C9.46967 144.715 9.58571 144.118 9.76551 143.534C9.94023 142.977 10.1567 142.416 10.3738 141.853C10.5205 141.472 10.6675 141.091 10.802 140.71C10.9913 140.174 11.2029 139.649 11.4149 139.123C11.5761 138.723 11.7375 138.323 11.8894 137.917C12.0982 137.358 12.3352 136.826 12.5754 136.287C12.7395 135.918 12.9052 135.546 13.0643 135.16C13.2722 134.656 13.5232 134.177 13.7692 133.708C13.987 133.292 14.201 132.884 14.3778 132.472C14.59 131.977 14.6757 131.441 14.7589 130.92C14.8381 130.424 14.9151 129.942 15.0968 129.523C15.3364 128.975 15.6819 128.505 16.0053 128.064C16.2813 127.689 16.5411 127.335 16.7055 126.973C17.0241 126.266 17.015 125.745 17.0083 125.363C17.0082 125.354 17.008 125.345 17.0079 125.337C16.6699 125.11 16.3274 124.907 15.9713 124.752C15.169 124.391 14.3097 124.209 13.4779 124.033C12.646 123.857 11.8416 123.687 11.149 123.349C10.4096 122.982 9.68753 122.655 9.00416 122.346L9.00389 122.346L9.00357 122.346L9.00346 122.346C8.1376 121.955 7.33386 121.591 6.63566 121.208C5.40355 120.529 4.79498 120.28 4.30107 120.077C3.71154 119.836 3.28536 119.662 2.15719 118.902C1.05156 118.11 0.31807 116.813 -0.343032 115.643C-0.475425 115.409 -0.604914 115.18 -0.733907 114.961C-1.50703 113.649 -2.24141 112.154 -2.53096 110.543C-2.71268 109.585 -2.57591 108.567 -2.43527 107.519C-2.35913 106.952 -2.28185 106.376 -2.25338 105.798C-2.18583 104.669 -1.93064 103.559 -1.66381 102.398C-1.57312 102.004 -1.48109 101.604 -1.39462 101.195C-1.25472 100.533 -1.25249 99.8044 -1.25025 99.0698C-1.24746 98.1568 -1.24464 97.2349 -0.977435 96.4217C-0.716375 95.6273 -0.169346 94.9102 0.376603 94.1945C0.839068 93.5882 1.30076 92.9829 1.5872 92.3326L1.63873 92.2156C2.24643 90.8355 2.86083 89.4403 3.58893 88.1052C3.91246 87.512 4.16667 86.8756 4.42117 86.2384C4.75562 85.4011 5.09057 84.5625 5.58401 83.8191C5.87138 83.3901 6.18286 82.9877 6.51384 82.6085C6.60637 82.2931 6.70978 81.9614 6.81838 81.613C6.98243 81.0868 7.15833 80.5226 7.32643 79.9191C7.46209 79.4561 7.54892 78.9594 7.63891 78.4446C7.73106 77.9175 7.82652 77.3715 7.9811 76.8232C8.11726 76.3536 8.17622 75.8498 8.23624 75.3371C8.30067 74.7866 8.36631 74.2258 8.52996 73.6857C8.68219 73.1916 8.9451 72.7161 9.208 72.2406C9.4709 71.7651 9.7338 71.2896 9.88604 70.7955C10.0379 70.3026 10.0981 69.7712 10.1586 69.2374C10.2193 68.7011 10.2804 68.1625 10.4349 67.6581C10.5926 67.1431 10.8239 66.6588 11.0564 66.1718L11.0564 66.1717C11.2784 65.7068 11.5016 65.2395 11.663 64.7408C11.8466 64.1737 12.075 63.6455 12.3046 63.1144C12.4884 62.6893 12.6731 62.2624 12.8362 61.8119C13.0206 61.3031 13.0962 60.7615 13.1709 60.2271C13.2449 59.6974 13.3179 59.1747 13.4948 58.6977C13.7005 58.1589 14.0111 57.6641 14.3145 57.1809C14.5795 56.7588 14.839 56.3455 15.0182 55.9194C15.191 55.5017 15.3419 55.0857 15.4886 54.6811L15.4886 54.6811L15.4886 54.6811C15.7066 54.0799 15.9153 53.5041 16.1732 52.9867C16.5601 52.1761 17.0344 51.5139 17.4583 50.9221C17.5981 50.727 17.7323 50.5395 17.8562 50.357C18.7395 49.0701 19.3632 48.379 20.0646 48.5848C20.766 48.7905 21.303 49.593 21.9415 50.8189C22.0993 51.1281 22.321 51.4363 22.5554 51.762C22.9228 52.2726 23.3213 52.8263 23.5531 53.4946C23.7131 53.9703 23.7837 54.4957 23.8569 55.0403L23.8569 55.0403L23.8569 55.0403C23.9232 55.5335 23.9916 56.0426 24.1305 56.5449C24.2821 57.0729 24.3608 57.6436 24.4396 58.2149L24.4396 58.2149L24.4396 58.2149C24.5037 58.6797 24.5678 59.1448 24.6713 59.5874C24.7835 60.067 25.0075 60.5295 25.2321 60.9931C25.4696 61.4834 25.7077 61.975 25.8149 62.4895C25.9252 63.0188 25.9635 63.5598 26.0022 64.1049L26.0022 64.1049L26.0022 64.1049C26.0367 64.5906 26.0714 65.0796 26.1574 65.5666C26.2483 66.0818 26.4278 66.5825 26.6044 67.0753C26.7822 67.5714 26.9571 68.0595 27.0361 68.5466C27.1279 69.1088 27.1297 69.6729 27.1314 70.2194L27.1314 70.2194C27.133 70.7136 27.1345 71.1934 27.2025 71.644C27.2934 72.2099 27.4344 72.7431 27.5673 73.2458L27.5673 73.2458C27.6996 73.7463 27.824 74.2165 27.8829 74.6586C27.9597 75.188 28.1154 75.603 28.2724 75.9478C28.4538 75.9355 28.634 75.9342 28.813 75.9467C29.8809 76.0297 30.8835 76.3322 31.8242 76.6161L31.8242 76.6161L31.8242 76.6161C32.5222 76.8267 33.1862 77.0271 33.8175 77.1198C35.6194 77.3979 36.1366 77.5889 36.7878 77.8294C37.2262 77.9913 37.7253 78.1756 38.7179 78.424C39.3008 78.5541 39.9021 78.6561 40.5075 78.7587C41.588 78.9419 42.6818 79.1273 43.709 79.4794C44.7553 79.8381 45.7468 80.3401 46.7403 80.8431L46.7404 80.8432C47.2689 81.1107 47.7979 81.3786 48.336 81.6253C48.5927 81.743 48.8597 81.8397 49.1332 81.9231C48.9105 81.3081 49.171 81.0716 49.6128 80.6704C49.9124 80.3983 50.2953 80.0506 50.6676 79.4579C50.891 79.0929 51.2257 78.7603 51.5827 78.4055C51.9717 78.019 52.3872 77.6061 52.7141 77.0964C52.9545 76.7183 53.173 76.3064 53.398 75.8822L53.398 75.8822C53.6549 75.3979 53.9202 74.8976 54.2364 74.4136C54.4829 74.0353 54.6975 73.6181 54.9158 73.1934L54.9159 73.1933C55.1733 72.6927 55.436 72.1818 55.7626 71.7125C56.0469 71.3039 56.3133 70.8999 56.5782 70.4982L56.5783 70.4981L56.5784 70.4979L56.5785 70.4979L56.5785 70.4978C56.876 70.0468 57.1716 69.5984 57.4888 69.1493C57.7985 68.7109 58.1953 68.3419 58.5912 67.9737C58.9622 67.6287 59.3324 67.2844 59.6295 66.8843C59.8766 66.5517 60.1114 66.204 60.3454 65.8575L60.3454 65.8574L60.3454 65.8574C60.6931 65.3425 61.0391 64.8302 61.4211 64.3733C61.701 64.0317 61.9579 63.6821 62.2079 63.3418C62.5788 62.837 62.9347 62.3524 63.3291 61.9443C63.9596 61.2684 64.6328 60.7356 65.2305 60.2625C65.3821 60.1425 65.5288 60.0264 65.6687 59.9128C66.7488 59.0503 67.7392 58.3411 68.4638 58.4369C69.1885 58.5327 69.4641 59.7584 69.747 61.311C69.8671 61.9742 69.8916 62.7269 69.9192 63.5735L69.9192 63.5736L69.9192 63.5737L69.9192 63.5739C69.9281 63.845 69.9372 64.1257 69.9499 64.4161C69.969 64.835 70.0388 65.2682 70.1112 65.7165C70.2056 66.3022 70.3043 66.9135 70.2991 67.5521C70.2909 67.9867 70.3121 68.4385 70.3338 68.8999L70.3338 68.9L70.3338 68.9001C70.3616 69.491 70.3901 70.0975 70.3585 70.7033C70.3261 71.2283 70.2675 71.7579 70.208 72.2949C70.1519 72.8013 70.0951 73.3143 70.0589 73.8361C70.0203 74.3934 69.8343 74.9196 69.6491 75.4433L69.6491 75.4433L69.6491 75.4434C69.477 75.9299 69.3058 76.4142 69.2541 76.9194C69.2005 77.4439 69.2833 77.9782 69.3661 78.5124L69.3661 78.5125C69.4489 79.0467 69.5317 79.581 69.4781 80.1055C69.4233 80.6418 69.2412 81.1662 69.06 81.688C68.8868 82.1867 68.7145 82.6831 68.655 83.185C68.5942 83.6984 68.5259 84.2246 68.4576 84.7508C68.3893 85.2771 68.321 85.8033 68.2602 86.3167C68.194 86.8539 68.1893 87.3899 68.1847 87.9165L68.1847 87.9165L68.1847 87.9166C68.18 88.4505 68.1754 88.9746 68.1069 89.4804C68.0221 90.0733 67.9946 90.6512 67.9681 91.2081L67.9681 91.2082L67.9681 91.2083L67.9681 91.2092C67.9447 91.6987 67.9222 92.172 67.8622 92.6248C67.7652 93.2886 67.6167 93.9046 67.4792 94.4754C67.3744 94.9102 67.276 95.3188 67.2114 95.7024C67.081 96.557 67.2781 97.3074 67.4162 97.8333C67.5604 98.3824 67.6402 98.6865 67.2156 98.6082Z" fill="url(#paint1_linear_2227_7985)" fill-opacity="0.6"/>
</g>
<defs>
<linearGradient id="paint0_linear_2227_7985" x1="104.864" y1="27.6001" x2="108.292" y2="5.24843" gradientUnits="userSpaceOnUse">
<stop stop-color="#ABD3FF"/>
<stop offset="1" stop-color="#ABD3FF" stop-opacity="0"/>
</linearGradient>
<linearGradient id="paint1_linear_2227_7985" x1="44.2629" y1="53.3173" x2="22.6033" y2="155.745" gradientUnits="userSpaceOnUse">
<stop stop-color="#B3D2F6"/>
<stop offset="1" stop-color="#E3E8F5" stop-opacity="0"/>
</linearGradient>
<clipPath id="clip0_2227_7985">
<rect width="169" height="120" rx="10" fill="white"/>
</clipPath>
</defs>
</svg>
