<svg width="169" height="120" viewBox="0 0 169 120" fill="none" xmlns="http://www.w3.org/2000/svg">
<g clip-path="url(#clip0_2198_8130)">
<rect width="169" height="120" rx="10" fill="#EAF4FF"/>
<circle opacity="0.25" cx="135.5" cy="112.5" r="89.5" fill="#AAD2FF"/>
<path d="M76.5 86C92.9186 76.0522 100.557 63.9349 112.5 35C127.76 48.7771 142.5 50 157.5 50C152 69.5 133 96 115.5 110C102.5 104.5 92.3527 106.161 76.5 86Z" fill="white"/>
<path d="M18.08 16.92H27.84V18.168C27.84 19.512 27.84 20.968 27.472 23H29.424V24.44H23.824V30.312H22.048V24.44H16.544V23H25.696C26.096 21.08 26.112 19.624 26.112 18.328H18.08V16.92ZM30.5124 23.032H36.0644V21.608H32.1124V16.632H41.8244V18.024H33.8404V20.2H41.9524V21.608H37.8244V23.032H43.3924V24.424H30.5124V23.032ZM31.9364 25.56H41.8564V30.36H40.0964V26.952H31.9364V25.56ZM58.6003 16.04H60.2803V30.28H58.6003V23.08H57.0483V29.576H55.4163V16.328H57.0483V21.656H58.6003V16.04ZM48.7602 17.688H50.5042V25.208C51.7042 25.192 53.0642 25.08 54.5363 24.792L54.7123 26.312C52.8242 26.664 51.1922 26.744 49.7202 26.744H48.7602V17.688ZM64.3126 25.16H73.9446V30.296H72.1846V26.552H64.3126V25.16ZM72.1846 16.056H73.9446V24.456H72.1846V22.584H68.8886C68.2006 23.336 67.1926 23.784 66.0246 23.784C63.8966 23.784 62.2966 22.328 62.2966 20.296C62.2966 18.264 63.8966 16.824 66.0246 16.824C67.1926 16.824 68.2166 17.272 68.8886 18.024H72.1846V16.056ZM66.0246 18.312C64.8406 18.312 63.9606 19.096 63.9606 20.296C63.9606 21.528 64.8406 22.296 66.0246 22.296C67.1926 22.296 68.0566 21.528 68.0566 20.296C68.0566 19.096 67.1926 18.312 66.0246 18.312ZM69.6406 21.16H72.1846V19.448H69.6406C69.7046 19.72 69.7366 19.992 69.7366 20.296C69.7366 20.6 69.7046 20.888 69.6406 21.16Z" fill="#191F28"/>
<path d="M90.3179 23.5981L84.6929 29.2231C84.5344 29.3817 84.3194 29.4707 84.0952 29.4707C83.871 29.4707 83.6561 29.3817 83.4976 29.2231C83.339 29.0646 83.25 28.8497 83.25 28.6255C83.25 28.4013 83.339 28.1863 83.4976 28.0278L88.5256 23.0012L83.499 17.9731C83.4205 17.8947 83.3582 17.8015 83.3157 17.6989C83.2733 17.5964 83.2514 17.4865 83.2514 17.3755C83.2514 17.2645 83.2733 17.1546 83.3157 17.052C83.3582 16.9495 83.4205 16.8563 83.499 16.7778C83.5774 16.6993 83.6706 16.6371 83.7732 16.5946C83.8757 16.5521 83.9856 16.5303 84.0966 16.5303C84.2076 16.5303 84.3175 16.5521 84.4201 16.5946C84.5226 16.6371 84.6158 16.6993 84.6943 16.7778L90.3193 22.4028C90.3978 22.4813 90.4601 22.5745 90.5026 22.6771C90.5451 22.7797 90.5669 22.8897 90.5667 23.0008C90.5666 23.1118 90.5446 23.2218 90.5018 23.3243C90.4591 23.4268 90.3966 23.5198 90.3179 23.5981Z" fill="#6B7684"/>
<circle cx="69.1692" cy="50.1694" r="2.95293" transform="rotate(-41.7095 69.1692 50.1694)" fill="#1B7BE8"/>
<circle cx="54.2515" cy="68.9124" r="1.24316" transform="rotate(-41.7095 54.2515 68.9124)" fill="#0E4E97"/>
<path d="M61.1891 66.3013C61.1891 66.3013 62.5924 63.1291 65.4974 63.5251C68.4023 63.9211 68.3843 67.6042 68.3843 67.6042C68.3843 67.6042 70.0574 64.1047 73.9758 64.7321C77.2412 65.255 77.5044 68.7628 77.5044 68.7628C77.5044 68.7628 79.2462 66.1795 82.5459 67.1602C84.5765 67.7636 85.3874 70.6329 85.3874 70.6329" stroke="#AAD2FF" stroke-width="1.80566" stroke-linecap="round" stroke-linejoin="round"/>
<path opacity="0.5" d="M112 56.3353C112 56.3353 114.131 53.5091 117.865 54.0749C121.598 54.6406 121.216 58.0335 121.216 58.0335C121.216 58.0335 123.73 54.9242 128.757 55.7733C132.946 56.4809 132.946 59.7317 132.946 59.7317C132.946 59.7317 135.459 57.4715 139.649 58.6034C142.227 59.2998 143 62 143 62" stroke="#AAD2FF" stroke-width="1.66864" stroke-linecap="round" stroke-linejoin="round"/>
<path opacity="0.5" d="M109 64.3353C109 64.3353 111.131 61.5091 114.865 62.0749C118.598 62.6406 118.216 66.0335 118.216 66.0335C118.216 66.0335 120.73 62.9242 125.757 63.7733C129.946 64.4809 129.946 67.7317 129.946 67.7317C129.946 67.7317 132.459 65.4715 136.649 66.6034C139.227 67.2998 140 70 140 70" stroke="#AAD2FF" stroke-width="1.66864" stroke-linecap="round" stroke-linejoin="round"/>
<path opacity="0.5" d="M104 73.3353C104 73.3353 106.131 70.5091 109.865 71.0749C113.598 71.6406 113.216 75.0335 113.216 75.0335C113.216 75.0335 115.73 71.9242 120.757 72.7733C124.946 73.4809 124.946 76.7317 124.946 76.7317C124.946 76.7317 127.459 74.4715 131.649 75.6034C134.227 76.2998 135 79 135 79" stroke="#AAD2FF" stroke-width="1.66864" stroke-linecap="round" stroke-linejoin="round"/>
<path d="M98.2732 65.219C96.563 61.8436 98.1876 49.7071 105.5 46.0002" stroke="#5DA9FF" stroke-width="1.80566" stroke-linecap="round" stroke-linejoin="round"/>
<circle cx="102.384" cy="39.3847" r="1.77388" transform="rotate(-26.8812 102.384 39.3847)" fill="#AAD2FF"/>
<path d="M59.8449 79.9262C59.8449 79.9262 61.4507 76.3225 64.7475 75.2826C67.5254 74.4064 70.3504 74.6628 71.4692 76.8404C71.9776 77.83 71.502 79.8602 69.7486 79.698C67.9951 79.5359 67.313 77.9124 67.5402 76.5811C67.8601 74.706 69.5528 72.8137 71.6634 72.4887C74.1961 72.0988 75.5924 72.748 75.5924 72.748" stroke="#5DA9FF" stroke-width="1.22729" stroke-linecap="round" stroke-linejoin="round"/>
<g clip-path="url(#clip1_2198_8130)">
<path d="M112.59 63.6368L77.7289 75.1925C77.3086 75.3318 76.9609 75.6324 76.7623 76.028C76.5636 76.4237 76.5302 76.8821 76.6695 77.3024L79.8211 86.81C80.7201 89.5062 82.1808 91.981 84.1067 94.0711C86.0326 96.1611 88.38 97.8189 90.9938 98.9349L86.1331 100.546C85.7128 100.685 85.3651 100.986 85.1664 101.382C84.9678 101.777 84.9344 102.236 85.0737 102.656C85.213 103.076 85.5136 103.424 85.9092 103.623C86.3049 103.821 86.7633 103.855 87.1836 103.715L122.045 92.1596C122.465 92.0203 122.813 91.7198 123.011 91.3241C123.21 90.9284 123.243 90.47 123.104 90.0498C122.965 89.6295 122.664 89.2818 122.269 89.0831C121.873 88.8845 121.415 88.8511 120.994 88.9904L116.134 90.6017C117.847 87.6463 118.782 84.3038 118.849 80.8881C120.821 80.0969 122.417 78.5838 123.311 76.657C124.206 74.7302 124.332 72.5348 123.665 70.5181L123.139 68.9335C122.443 66.8322 120.94 65.0936 118.962 64.1003C116.983 63.107 114.691 62.9402 112.59 63.6368ZM120.496 71.5686C120.835 72.594 120.833 73.7016 120.491 74.7262C120.15 75.7507 119.486 76.6373 118.599 77.2537C118.43 76.219 118.18 75.1992 117.852 74.2037L115.316 66.5541C116.351 66.5745 117.354 66.9153 118.188 67.5296C119.022 68.1438 119.644 69.0013 119.97 69.984L120.496 71.5686Z" fill="#1B7BE8"/>
</g>
</g>
<defs>
<clipPath id="clip0_2198_8130">
<rect width="169" height="120" rx="10" fill="white"/>
</clipPath>
<clipPath id="clip1_2198_8130">
<rect width="53.4205" height="53.4205" fill="white" transform="translate(66.1382 61.4473) rotate(-18.3392)"/>
</clipPath>
</defs>
</svg>
