<svg width="17" height="16" viewBox="0 0 17 16" fill="none" xmlns="http://www.w3.org/2000/svg">
<path d="M8.5 14.6667C7.3 14.6667 6.18889 14.3667 5.16667 13.7667C4.14445 13.1667 3.33333 12.3556 2.73333 11.3333C2.13333 10.3111 1.83333 9.2 1.83333 8C1.83333 6.8 2.13333 5.68889 2.73333 4.66666C3.33333 3.63333 4.14445 2.82222 5.16667 2.23333C6.18889 1.63333 7.3 1.33333 8.5 1.33333C9.7 1.33333 10.8111 1.63333 11.8333 2.23333C12.8667 2.82222 13.6778 3.63333 14.2667 4.66666C14.8667 5.68889 15.1667 6.8 15.1667 8C15.1667 9.2 14.8667 10.3111 14.2667 11.3333C13.6778 12.3556 12.8667 13.1667 11.8333 13.7667C10.8111 14.3667 9.7 14.6667 8.5 14.6667ZM8.5 13.3333C9.48889 13.3333 10.3889 13.1 11.2 12.6333C12.0222 12.1667 12.6667 11.5278 13.1333 10.7167C13.6 9.89444 13.8333 8.98889 13.8333 8C13.8333 7.01111 13.6 6.11111 13.1333 5.3C12.6667 4.47778 12.0222 3.83333 11.2 3.36666C10.3889 2.9 9.48889 2.66666 8.5 2.66666C7.51111 2.66666 6.60556 2.9 5.78333 3.36666C4.97222 3.83333 4.33333 4.47778 3.86667 5.3C3.4 6.11111 3.16667 7.01111 3.16667 8C3.16667 8.98889 3.4 9.89444 3.86667 10.7167C4.33333 11.5278 4.97222 12.1667 5.78333 12.6333C6.60556 13.1 7.51111 13.3333 8.5 13.3333ZM7.83333 7.33333C7.83333 7.05555 7.94445 6.86667 8.16667 6.76667C8.38889 6.65555 8.61111 6.65555 8.83333 6.76667C9.05556 6.86667 9.16667 7.05555 9.16667 7.33333V11.3333C9.16667 11.6111 9.05556 11.8056 8.83333 11.9167C8.61111 12.0167 8.38889 12.0167 8.16667 11.9167C7.94445 11.8056 7.83333 11.6111 7.83333 11.3333V7.33333ZM9.5 5C9.5 5.27778 9.4 5.51666 9.2 5.71666C9.01111 5.90555 8.77778 6 8.5 6C8.22222 6 7.98333 5.90555 7.78333 5.71666C7.59445 5.51666 7.5 5.27778 7.5 5C7.5 4.72222 7.59445 4.48889 7.78333 4.3C7.98333 4.1 8.22222 4 8.5 4C8.77778 4 9.01111 4.1 9.2 4.3C9.4 4.48889 9.5 4.72222 9.5 5Z" fill="#4E5968"/>
</svg>
