<svg width="66" height="72" viewBox="0 0 66 72" fill="none" xmlns="http://www.w3.org/2000/svg">
<g filter="url(#filter0_d_1219_15916)">
<mask id="path-1-inside-1_1219_15916" fill="white">
<path fill-rule="evenodd" clip-rule="evenodd" d="M36.9396 52.6914C37.09 52.4327 37.3443 52.2516 37.6358 52.184C46.4973 50.13 53.1016 42.1863 53.1016 32.7002C53.1016 21.6545 44.1473 12.7002 33.1016 12.7002C22.0559 12.7002 13.1016 21.6545 13.1016 32.7002C13.1016 41.9777 19.4186 49.7799 27.986 52.04C28.2643 52.1134 28.5055 52.2909 28.6501 52.5398L31.9289 58.18C32.3347 58.8782 33.3431 58.8782 33.749 58.18L36.9396 52.6914Z"/>
</mask>
<path fill-rule="evenodd" clip-rule="evenodd" d="M36.9396 52.6914C37.09 52.4327 37.3443 52.2516 37.6358 52.184C46.4973 50.13 53.1016 42.1863 53.1016 32.7002C53.1016 21.6545 44.1473 12.7002 33.1016 12.7002C22.0559 12.7002 13.1016 21.6545 13.1016 32.7002C13.1016 41.9777 19.4186 49.7799 27.986 52.04C28.2643 52.1134 28.5055 52.2909 28.6501 52.5398L31.9289 58.18C32.3347 58.8782 33.3431 58.8782 33.749 58.18L36.9396 52.6914Z" fill="#F2F4F6"/>
<path d="M31.9289 58.18L30.9327 58.7591L31.9289 58.18ZM27.986 52.04L28.2799 50.9259L27.986 52.04ZM28.6501 52.5398L29.6462 51.9607L28.6501 52.5398ZM36.9396 52.6914L37.9357 53.2704L36.9396 52.6914ZM51.9494 32.7002C51.9494 41.6384 45.7265 49.1259 37.3756 51.0616L37.896 53.3065C47.2681 51.1341 54.2538 42.7343 54.2538 32.7002H51.9494ZM33.1016 13.8524C43.5109 13.8524 51.9494 22.2908 51.9494 32.7002H54.2538C54.2538 21.0182 44.7836 11.548 33.1016 11.548V13.8524ZM14.2538 32.7002C14.2538 22.2908 22.6922 13.8524 33.1016 13.8524V11.548C21.4195 11.548 11.9494 21.0182 11.9494 32.7002H14.2538ZM28.2799 50.9259C20.2057 48.7959 14.2538 41.4416 14.2538 32.7002H11.9494C11.9494 42.5138 18.6314 50.7638 27.6921 53.1541L28.2799 50.9259ZM32.925 57.601L29.6462 51.9607L27.654 53.1188L30.9327 58.7591L32.925 57.601ZM35.9435 52.1123L32.7528 57.601L34.7451 58.7591L37.9357 53.2704L35.9435 52.1123ZM30.9327 58.7591C31.7828 60.2214 33.895 60.2214 34.7451 58.7591L32.7528 57.601C32.758 57.5921 32.772 57.576 32.7932 57.5642C32.8114 57.5542 32.8273 57.5514 32.8389 57.5514C32.8506 57.5514 32.8664 57.5542 32.8846 57.5642C32.9059 57.576 32.9198 57.5921 32.925 57.601L30.9327 58.7591ZM27.6921 53.1541C27.6888 53.1532 27.6704 53.147 27.654 53.1188L29.6462 51.9607C29.3406 51.4349 28.8398 51.0736 28.2799 50.9259L27.6921 53.1541ZM37.3756 51.0616C36.7895 51.1974 36.2613 51.5656 35.9435 52.1123L37.9357 53.2704C37.9186 53.2998 37.8992 53.3057 37.896 53.3065L37.3756 51.0616Z" fill="#1B7BE8" mask="url(#path-1-inside-1_1219_15916)"/>
</g>
<path d="M28.9437 38.325C28.0651 38.7237 27.1276 38.9775 26.1678 39.0764C26.1044 39.083 26.0405 39.0709 25.9838 39.0418C25.9271 39.0127 25.8802 38.9677 25.8487 38.9123C25.1375 37.6589 24.9037 36.0995 25.1924 34.3883C25.5607 32.18 26.7584 29.9693 28.5655 28.1621C30.3727 26.355 32.5851 25.1573 34.7917 24.789C36.6612 24.4781 38.3494 24.789 39.6553 25.6585C39.7088 25.6936 39.7508 25.7436 39.7763 25.8022C39.8017 25.8609 39.8094 25.9257 39.7986 25.9887C39.7877 26.0517 39.7586 26.1101 39.7149 26.1568C39.6713 26.2035 39.6149 26.2365 39.5528 26.2516C38.938 26.3981 38.3387 26.603 37.7629 26.8636C35.9771 27.6757 33.6941 29.4114 32.9624 33.0733C32.4612 35.5572 31.1102 37.3242 28.9437 38.325ZM41.3542 27.4894C41.3228 27.4342 41.2759 27.3893 41.2194 27.3602C41.1629 27.331 41.0992 27.319 41.0359 27.3254C40.0757 27.4236 39.1379 27.6774 38.2592 28.0768C36.0927 29.0776 34.7417 30.8445 34.2446 33.3268C33.512 36.9887 31.2299 38.7245 29.4441 39.5366C28.8683 39.7971 28.2689 40.002 27.6542 40.1485C27.5907 40.1628 27.5328 40.1957 27.4881 40.243C27.4433 40.2903 27.4136 40.3499 27.4028 40.4141C27.392 40.4783 27.4005 40.5443 27.4273 40.6036C27.4541 40.663 27.498 40.713 27.5533 40.7473C28.527 41.397 29.7123 41.7317 31.0273 41.7317C31.4924 41.7304 31.9566 41.6909 32.4153 41.6136C34.6227 41.2453 36.8343 40.0476 38.6414 38.2405C40.4486 36.4333 41.6462 34.2209 42.0146 32.0143C42.2968 30.3031 42.0654 28.7429 41.3542 27.4894Z" fill="#1B7BE8"/>
<defs>
<filter id="filter0_d_1219_15916" x="0.401563" y="0.000195503" width="65.4" height="71.4034" filterUnits="userSpaceOnUse" color-interpolation-filters="sRGB">
<feFlood flood-opacity="0" result="BackgroundImageFix"/>
<feColorMatrix in="SourceAlpha" type="matrix" values="0 0 0 0 0 0 0 0 0 0 0 0 0 0 0 0 0 0 127 0" result="hardAlpha"/>
<feOffset/>
<feGaussianBlur stdDeviation="6.35"/>
<feComposite in2="hardAlpha" operator="out"/>
<feColorMatrix type="matrix" values="0 0 0 0 0.687683 0 0 0 0 0.69147 0 0 0 0 0.733122 0 0 0 0.31 0"/>
<feBlend mode="normal" in2="BackgroundImageFix" result="effect1_dropShadow_1219_15916"/>
<feBlend mode="normal" in="SourceGraphic" in2="effect1_dropShadow_1219_15916" result="shape"/>
</filter>
</defs>
</svg>
