<svg width="24" height="24" viewBox="0 0 24 24" fill="none" xmlns="http://www.w3.org/2000/svg">
<path d="M12 22C10.2 22 8.53333 21.55 7 20.65C5.46667 19.75 4.25 18.5333 3.35 17C2.45 15.4667 2 13.8 2 12C2 10.2 2.45 8.53333 3.35 7C4.25 5.45 5.46667 4.23333 7 3.35C8.53333 2.45 10.2 2 12 2C13.8 2 15.4667 2.45 17 3.35C18.55 4.23333 19.7667 5.45 20.65 7C21.55 8.53333 22 10.2 22 12C22 13.8 21.55 15.4667 20.65 17C19.7667 18.5333 18.55 19.75 17 20.65C15.4667 21.55 13.8 22 12 22ZM12 20C13.4833 20 14.8333 19.65 16.05 18.95C17.2833 18.25 18.25 17.2917 18.95 16.075C19.65 14.8417 20 13.4833 20 12C20 10.5167 19.65 9.16667 18.95 7.95C18.25 6.71667 17.2833 5.75 16.05 5.05C14.8333 4.35 13.4833 4 12 4C10.5167 4 9.15833 4.35 7.925 5.05C6.70833 5.75 5.75 6.71667 5.05 7.95C4.35 9.16667 4 10.5167 4 12C4 13.4833 4.35 14.8417 5.05 16.075C5.75 17.2917 6.70833 18.25 7.925 18.95C9.15833 19.65 10.5167 20 12 20ZM15.025 7.75C15.125 7.35 15.3583 7.10833 15.725 7.025C16.0917 6.94167 16.4167 7.025 16.7 7.275C16.9833 7.50833 17.075 7.825 16.975 8.225L14.975 16.225C14.9083 16.5583 14.725 16.7833 14.425 16.9C14.1417 17.0167 13.8583 17.0167 13.575 16.9C13.2917 16.7833 13.1083 16.5583 13.025 16.225L12 12.125L10.975 16.225C10.9083 16.5583 10.725 16.7833 10.425 16.9C10.1417 17.0167 9.85833 17.0167 9.575 16.9C9.29167 16.7833 9.10833 16.5583 9.025 16.225L7.025 8.225C6.90833 7.825 6.99167 7.50833 7.275 7.275C7.575 7.025 7.90833 6.94167 8.275 7.025C8.64167 7.10833 8.875 7.35 8.975 7.75L10 11.875L11.025 7.75C11.1083 7.43333 11.2917 7.21667 11.575 7.1C11.8583 6.98333 12.1417 6.98333 12.425 7.1C12.725 7.21667 12.9083 7.43333 12.975 7.75L14 11.875L15.025 7.75ZM9 13H7C6.58333 13 6.29167 12.8333 6.125 12.5C5.975 12.1667 5.975 11.8333 6.125 11.5C6.29167 11.1667 6.58333 11 7 11H9V13ZM17 11C17.4167 11 17.7 11.1667 17.85 11.5C18.0167 11.8333 18.0167 12.1667 17.85 12.5C17.7 12.8333 17.4167 13 17 13H15V11H17Z" fill="#6B7684"/>
</svg>
