<svg width="19" height="20" viewBox="0 0 19 20" fill="none" xmlns="http://www.w3.org/2000/svg">
<g id="icon/icon-search">
<path id="icon" d="M8.5 17.8667C6.96667 17.8667 5.54167 17.4917 4.225 16.7417C2.925 15.975 1.89167 14.9417 1.125 13.6417C0.375 12.325 0 10.9 0 9.3667C0 7.83337 0.375 6.4167 1.125 5.1167C1.89167 3.80003 2.925 2.7667 4.225 2.0167C5.54167 1.25003 6.96667 0.866699 8.5 0.866699C10.0333 0.866699 11.45 1.25003 12.75 2.0167C14.0667 2.7667 15.1 3.80003 15.85 5.1167C16.6167 6.4167 17 7.83337 17 9.3667C17 10.9 16.6167 12.325 15.85 13.6417C15.1 14.9417 14.0667 15.975 12.75 16.7417C11.45 17.4917 10.0333 17.8667 8.5 17.8667ZM8.5 15.8667C9.73333 15.8667 10.8417 15.5917 11.825 15.0417C12.825 14.475 13.6 13.7 14.15 12.7167C14.7167 11.7167 15 10.6 15 9.3667C15 8.13337 14.7167 7.02503 14.15 6.0417C13.6 5.0417 12.825 4.2667 11.825 3.7167C10.8417 3.15003 9.73333 2.8667 8.5 2.8667C7.26667 2.8667 6.15 3.15003 5.15 3.7167C4.16667 4.2667 3.39167 5.0417 2.825 6.0417C2.275 7.02503 2 8.13337 2 9.3667C2 10.6 2.275 11.7167 2.825 12.7167C3.39167 13.7 4.16667 14.475 5.15 15.0417C6.15 15.5917 7.26667 15.8667 8.5 15.8667ZM12.575 14.8667L14 13.4417L18.2 17.6667C18.4833 17.95 18.5667 18.2667 18.45 18.6167C18.3333 18.9667 18.1 19.2084 17.75 19.3417C17.4167 19.4584 17.1 19.3667 16.8 19.0667L12.575 14.8667Z" fill="#4E5968"/>
</g>
</svg>
