<svg width="24" height="24" viewBox="0 0 24 24" fill="none" xmlns="http://www.w3.org/2000/svg">
<path id="icon" d="M10.5545 24C9.99454 24 9.48454 23.82 9.02454 23.46C8.58454 23.1 8.31454 22.66 8.21454 22.14L7.88454 20.55C7.86454 20.47 7.87454 20.45 7.91454 20.49C7.97454 20.53 8.01454 20.58 8.03454 20.64C8.05454 20.7 8.02454 20.71 7.94454 20.67C7.56454 20.53 7.17454 20.32 6.77454 20.04L6.50454 19.86C6.44454 19.82 6.43454 19.8 6.47454 19.8C6.53454 19.78 6.59454 19.78 6.65454 19.8C6.73454 19.82 6.73454 19.84 6.65454 19.86L5.12454 20.31C4.58454 20.47 4.05454 20.45 3.53454 20.25C3.01454 20.05 2.61454 19.71 2.33454 19.23L0.894538 16.77C0.614538 16.27 0.514538 15.74 0.594538 15.18C0.674538 14.62 0.924538 14.15 1.34454 13.77L2.51454 12.72C2.55454 12.68 2.57454 12.69 2.57454 12.75C2.57454 12.79 2.55454 12.83 2.51454 12.87C2.49454 12.91 2.48454 12.91 2.48454 12.87C2.42454 12.71 2.39454 12.42 2.39454 12C2.39454 11.58 2.42454 11.29 2.48454 11.13C2.48454 11.07 2.49454 11.07 2.51454 11.13C2.55454 11.17 2.57454 11.22 2.57454 11.28C2.57454 11.32 2.55454 11.32 2.51454 11.28L1.34454 10.2C0.924538 9.84 0.674538 9.38 0.594538 8.82C0.514538 8.26 0.614538 7.73 0.894538 7.23L2.33454 4.77C2.61454 4.29 3.01454 3.95 3.53454 3.75C4.05454 3.53 4.58454 3.5 5.12454 3.66L6.65454 4.14C6.73454 4.16 6.73454 4.18 6.65454 4.2C6.59454 4.2 6.53454 4.2 6.47454 4.2C6.43454 4.2 6.44454 4.17 6.50454 4.11L6.77454 3.96C7.17454 3.68 7.56454 3.46 7.94454 3.3C8.02454 3.28 8.05454 3.3 8.03454 3.36C8.01454 3.42 7.97454 3.47 7.91454 3.51C7.87454 3.55 7.86454 3.52 7.88454 3.42L8.21454 1.86C8.31454 1.32 8.58454 0.879999 9.02454 0.539999C9.48454 0.18 9.99454 0 10.5545 0H13.4345C13.9945 0 14.4945 0.18 14.9345 0.539999C15.3945 0.879999 15.6745 1.32 15.7745 1.86L16.0745 3.33C16.0945 3.41 16.0845 3.44 16.0445 3.42C16.0045 3.4 15.9745 3.37 15.9545 3.33C15.9545 3.29 15.9845 3.28 16.0445 3.3C16.5045 3.46 16.9745 3.73 17.4545 4.11C17.4945 4.15 17.4945 4.18 17.4545 4.2C17.4145 4.2 17.3745 4.19 17.3345 4.17C17.3145 4.15 17.3445 4.13 17.4245 4.11L18.8645 3.66C19.4045 3.5 19.9345 3.53 20.4545 3.75C20.9745 3.95 21.3745 4.29 21.6545 4.77L23.0945 7.23C23.3945 7.73 23.4945 8.26 23.3945 8.82C23.3145 9.36 23.0645 9.82 22.6445 10.2L21.5645 11.22C21.4845 11.28 21.4345 11.29 21.4145 11.25C21.4145 11.19 21.4245 11.14 21.4445 11.1C21.4845 11.06 21.5145 11.07 21.5345 11.13C21.5745 11.29 21.5945 11.58 21.5945 12C21.5945 12.42 21.5745 12.71 21.5345 12.87C21.5145 12.93 21.4845 12.94 21.4445 12.9C21.4245 12.86 21.4145 12.82 21.4145 12.78C21.4345 12.72 21.4845 12.72 21.5645 12.78L22.6445 13.77C23.0645 14.17 23.3145 14.65 23.3945 15.21C23.4945 15.75 23.3945 16.27 23.0945 16.77L21.6545 19.23C21.3745 19.71 20.9745 20.05 20.4545 20.25C19.9345 20.45 19.4045 20.47 18.8645 20.31L17.4245 19.89C17.3445 19.87 17.3145 19.85 17.3345 19.83C17.3745 19.81 17.4145 19.81 17.4545 19.83C17.4945 19.83 17.4945 19.85 17.4545 19.89C16.9745 20.25 16.5045 20.51 16.0445 20.67C15.9845 20.71 15.9545 20.71 15.9545 20.67C15.9745 20.63 16.0045 20.6 16.0445 20.58C16.0845 20.56 16.0945 20.59 16.0745 20.67L15.7745 22.14C15.6745 22.66 15.3945 23.1 14.9345 23.46C14.4945 23.82 13.9945 24 13.4345 24H10.5545ZM14.2745 21.6C14.4745 21.6 14.4745 21.71 14.2745 21.93C14.0745 22.15 13.8445 22.34 13.5845 22.5C13.3245 22.64 13.2145 22.61 13.2545 22.41L13.7645 20.19C13.8445 19.79 14.0045 19.45 14.2445 19.17C14.4845 18.87 14.7745 18.64 15.1145 18.48C15.2945 18.4 15.4545 18.32 15.5945 18.24C15.7545 18.14 15.9045 18.04 16.0445 17.94C16.3445 17.72 16.6845 17.58 17.0645 17.52C17.4445 17.46 17.8245 17.49 18.2045 17.61L20.3945 18.3C20.5745 18.36 20.5345 18.47 20.2745 18.63C20.0345 18.77 19.7745 18.87 19.4945 18.93C19.2145 18.99 19.1145 18.94 19.1945 18.78L21.4145 14.82C21.5145 14.66 21.6045 14.72 21.6845 15C21.7845 15.28 21.8345 15.57 21.8345 15.87C21.8345 16.17 21.7645 16.25 21.6245 16.11L19.9745 14.58C19.6945 14.3 19.4745 13.99 19.3145 13.65C19.1745 13.29 19.1245 12.92 19.1645 12.54C19.1845 12.42 19.1945 12.24 19.1945 12C19.1945 11.76 19.1845 11.58 19.1645 11.46C19.1245 11.08 19.1745 10.72 19.3145 10.38C19.4745 10.02 19.6945 9.7 19.9745 9.42L21.6245 7.89C21.7645 7.75 21.8345 7.83 21.8345 8.13C21.8345 8.43 21.7845 8.72 21.6845 9C21.6045 9.28 21.5145 9.34 21.4145 9.18L19.1945 5.22C19.1145 5.06 19.2145 5.01 19.4945 5.07C19.7745 5.11 20.0345 5.21 20.2745 5.37C20.5345 5.53 20.5745 5.63 20.3945 5.67L18.2045 6.39C17.8245 6.51 17.4445 6.54 17.0645 6.48C16.6845 6.4 16.3445 6.26 16.0445 6.06C15.9045 5.94 15.7545 5.84 15.5945 5.76C15.4545 5.68 15.2945 5.6 15.1145 5.52C14.7745 5.36 14.4845 5.13 14.2445 4.83C14.0045 4.53 13.8445 4.19 13.7645 3.81L13.2545 1.59C13.2145 1.39 13.3245 1.36 13.5845 1.5C13.8445 1.64 14.0745 1.83 14.2745 2.07C14.4745 2.29 14.4745 2.4 14.2745 2.4H9.71454C9.51454 2.4 9.51454 2.29 9.71454 2.07C9.93454 1.83 10.1645 1.64 10.4045 1.5C10.6645 1.36 10.7745 1.39 10.7345 1.59L10.2245 3.81C10.1445 4.19 9.98454 4.53 9.74454 4.83C9.50454 5.13 9.21454 5.36 8.87454 5.52C8.71454 5.6 8.56454 5.68 8.42454 5.76C8.28454 5.84 8.13454 5.93 7.97454 6.03L7.94454 6.06C7.64454 6.26 7.30454 6.4 6.92454 6.48C6.54454 6.54 6.16454 6.51 5.78454 6.39L3.59454 5.67C3.41454 5.63 3.44454 5.53 3.68454 5.37C3.94454 5.21 4.21454 5.11 4.49454 5.07C4.79454 5.01 4.89454 5.06 4.79454 5.22L2.57454 9.18C2.47454 9.34 2.37454 9.28 2.27454 9C2.19454 8.72 2.15454 8.43 2.15454 8.13C2.15454 7.83 2.22454 7.75 2.36454 7.89L4.01454 9.42C4.31454 9.7 4.53454 10.02 4.67454 10.38C4.81454 10.72 4.86454 11.08 4.82454 11.46C4.80454 11.58 4.79454 11.76 4.79454 12C4.79454 12.24 4.80454 12.42 4.82454 12.54C4.86454 12.92 4.81454 13.29 4.67454 13.65C4.53454 13.99 4.31454 14.3 4.01454 14.58L2.36454 16.11C2.22454 16.25 2.15454 16.17 2.15454 15.87C2.15454 15.57 2.19454 15.28 2.27454 15C2.37454 14.72 2.47454 14.66 2.57454 14.82L4.79454 18.78C4.89454 18.94 4.79454 18.99 4.49454 18.93C4.21454 18.87 3.94454 18.77 3.68454 18.63C3.44454 18.47 3.41454 18.36 3.59454 18.3L5.78454 17.61C6.16454 17.49 6.54454 17.46 6.92454 17.52C7.30454 17.58 7.64454 17.72 7.94454 17.94L7.97454 17.97C8.13454 18.05 8.28454 18.14 8.42454 18.24C8.56454 18.32 8.71454 18.4 8.87454 18.48C9.21454 18.64 9.50454 18.87 9.74454 19.17C9.98454 19.45 10.1445 19.79 10.2245 20.19L10.7345 22.41C10.7745 22.61 10.6645 22.64 10.4045 22.5C10.1645 22.34 9.93454 22.15 9.71454 21.93C9.51454 21.71 9.51454 21.6 9.71454 21.6H14.2745ZM11.9945 16.8C11.1345 16.8 10.3345 16.59 9.59454 16.17C8.85454 15.73 8.26454 15.14 7.82454 14.4C7.40454 13.66 7.19454 12.86 7.19454 12C7.19454 11.14 7.40454 10.34 7.82454 9.6C8.26454 8.86 8.85454 8.28 9.59454 7.86C10.3345 7.42 11.1345 7.2 11.9945 7.2C12.8545 7.2 13.6545 7.42 14.3945 7.86C15.1345 8.28 15.7145 8.86 16.1345 9.6C16.5745 10.34 16.7945 11.14 16.7945 12C16.7945 12.86 16.5745 13.66 16.1345 14.4C15.7145 15.14 15.1345 15.73 14.3945 16.17C13.6545 16.59 12.8545 16.8 11.9945 16.8ZM11.9945 14.4C12.6545 14.4 13.2145 14.17 13.6745 13.71C14.1545 13.23 14.3945 12.66 14.3945 12C14.3945 11.34 14.1545 10.78 13.6745 10.32C13.2145 9.84 12.6545 9.6 11.9945 9.6C11.3345 9.6 10.7645 9.84 10.2845 10.32C9.82454 10.78 9.59454 11.34 9.59454 12C9.59454 12.66 9.82454 13.23 10.2845 13.71C10.7645 14.17 11.3345 14.4 11.9945 14.4Z" fill="white"/>
</svg>
