<svg width="200" height="77" viewBox="0 0 200 77" fill="none" xmlns="http://www.w3.org/2000/svg">
<path fill-rule="evenodd" clip-rule="evenodd" d="M1.08993 5.46009C0 7.59921 0 10.3995 0 16V47C0 52.6005 0 55.4008 1.08993 57.5399C2.04867 59.4215 3.57847 60.9513 5.46009 61.9101C7.59921 63 10.3995 63 16 63H91.2624L98.768 76C99.5378 77.3333 101.462 77.3333 102.232 76L109.738 63H184C189.601 63 192.401 63 194.54 61.9101C196.422 60.9513 197.951 59.4215 198.91 57.5399C200 55.4008 200 52.6005 200 47V16C200 10.3995 200 7.59921 198.91 5.46009C197.951 3.57847 196.422 2.04867 194.54 1.08993C192.401 0 189.601 0 184 0H16C10.3995 0 7.59921 0 5.46009 1.08993C3.57847 2.04867 2.04867 3.57847 1.08993 5.46009Z" fill="white"/>
</svg>
