<svg width="249" height="249" viewBox="0 0 249 249" fill="none" xmlns="http://www.w3.org/2000/svg">
<g opacity="0.49">
<path d="M154.881 106.795L134.579 68.0469C133.61 66.1973 130.962 66.1973 129.993 68.0469L111.763 102.838C110.84 104.6 108.358 104.706 107.288 103.029L84.7742 67.7338C83.6643 65.9937 81.064 66.1888 80.2261 68.075L63.0254 106.795C54.0199 131.991 50.7452 182.577 109.69 183.352C183.372 184.321 161.759 118.908 179.934 106.795C198.108 94.6814 215.301 119.393 200.564 134.898" stroke="white" stroke-width="8.90632" stroke-linecap="round"/>
<path fill-rule="evenodd" clip-rule="evenodd" d="M96.9454 159.176C103.766 164.711 115.644 161.376 123.476 151.726C131.308 142.076 132.129 129.765 125.308 124.23C118.488 118.694 106.61 122.03 98.7775 131.68C90.9453 141.33 90.125 153.64 96.9454 159.176ZM101.476 152.741C103.206 146.416 109.368 135.727 119.917 130.366C120.158 130.243 120.417 130.48 120.308 130.728C117.582 136.946 109.69 148.567 101.886 153.06C101.664 153.188 101.408 152.988 101.476 152.741Z" fill="white"/>
<circle cx="124.5" cy="124.5" r="119.5" stroke="white" stroke-width="10"/>
</g>
</svg>
